<svg xmlns="http://www.w3.org/2000/svg" version="1.1" xmlns:xlink="http://www.w3.org/1999/xlink" xmlns:svgjs="http://svgjs.com/svgjs" width="512" height="512" x="0" y="0" viewBox="0 0 512 512" style="enable-background:new 0 0 512 512" xml:space="preserve" class=""><g><linearGradient id="a" x1="-34.107" x2="-34.107" y1="646.213" y2="621.213" gradientTransform="matrix(20.48 0 0 -20.48 954.52 13234.44)" gradientUnits="userSpaceOnUse"><stop stop-opacity="1" stop-color="#1d2ee8" offset="0"></stop><stop stop-opacity="1" stop-color="#373953" offset="1"></stop></linearGradient><path d="M256 491.52c-58.532 0-112.067-21.627-153.293-57.098 10.486-5.222 21.422-9.441 32.215-13.271 33.546-11.837 60.047-21.197 60.047-62.935 0-19.702-10.691-37.048-21.033-53.842-8.991-14.602-17.469-28.365-17.469-42.619 0-10.486 1.802-17.531 3.256-23.204 2.171-8.479 3.256-12.759-3.83-26.89-16.855-33.485 4.26-99.983 52.961-129.843 47.084-28.836 82.227-27.218 110.223 5.202 8.97 1.29 20.009 6.39 29.164 21.238 17.756 28.815 19.149 80.957 7.844 103.424-7.066 14.111-5.98 18.391-3.809 26.87 1.454 5.673 3.256 12.718 3.256 23.204 0 14.254-8.479 28.017-17.469 42.619-10.342 16.794-21.033 34.14-21.033 53.842 0 41.738 26.501 51.098 60.047 62.935 10.793 3.83 21.729 8.049 32.215 13.271-41.225 35.47-94.76 57.097-153.292 57.097M256 0C114.831 0 0 114.831 0 256s114.831 256 256 256 256-114.831 256-256S397.169 0 256 0" style="fill:url(#a);" fill=""></path></g></svg>