<svg width="35" height="35" viewBox="0 0 35 35" fill="none" xmlns="http://www.w3.org/2000/svg">
<path d="M17.5 35C27.165 35 35 27.165 35 17.5C35 7.83502 27.165 0 17.5 0C7.83502 0 0 7.83502 0 17.5C0 27.165 7.83502 35 17.5 35Z" fill="url(#paint0_linear_0_1)"/>
<path d="M17 6C16.4696 6 15.9609 6.21071 15.5858 6.58579C15.2107 6.96086 15 7.46957 15 8V16H7C6.46957 16 5.96086 16.2107 5.58579 16.5858C5.21071 16.9609 5 17.4696 5 18C5 18.5304 5.21071 19.0391 5.58579 19.4142C5.96086 19.7893 6.46957 20 7 20H15V28C15 28.5304 15.2107 29.0391 15.5858 29.4142C15.9609 29.7893 16.4696 30 17 30C17.5304 30 18.0391 29.7893 18.4142 29.4142C18.7893 29.0391 19 28.5304 19 28V20H27C27.5304 20 28.0391 19.7893 28.4142 19.4142C28.7893 19.0391 29 18.5304 29 18C29 17.4696 28.7893 16.9609 28.4142 16.5858C28.0391 16.2107 27.5304 16 27 16H19V8C19 7.46957 18.7893 6.96086 18.4142 6.58579C18.0391 6.21071 17.5304 6 17 6Z" fill="white"/>
<defs>
<linearGradient id="paint0_linear_0_1" x1="17.5" y1="35" x2="17.5" y2="0" gradientUnits="userSpaceOnUse">
<stop stop-color="#59C09B"/>
<stop offset="1" stop-color="#9AEED0"/>
</linearGradient>
</defs>
</svg>
