<svg width="34" height="34" viewBox="0 0 34 34" fill="none" xmlns="http://www.w3.org/2000/svg">
<g clip-path="url(#clip0_1_96)">
<path d="M33.0598 15.4525C33.8811 14.8293 34.2071 13.7395 33.8667 12.7633C33.5695 11.8014 32.678 11.1638 31.673 11.1638L22.1456 11.0935L19.2153 1.66229C18.8605 0.444659 17.5727 -0.263224 16.3552 0.0916179C15.6042 0.318573 15.0098 0.898569 14.7847 1.66229L11.8112 11.162H2.34134C1.33636 11.162 0.444848 11.814 0.147676 12.7615C-0.19272 13.7377 0.133268 14.8149 0.954541 15.4507L8.62696 21.2831C8.67019 21.3263 8.6828 21.3821 8.67019 21.438L5.7399 30.8674C5.42832 31.8581 5.79573 32.9478 6.64582 33.5567C7.45269 34.1367 8.55672 34.1096 9.33477 33.5008L17.0216 27.6684L24.6796 33.5008C25.4721 34.1096 26.5617 34.1385 27.3686 33.5567C28.2187 32.9478 28.5861 31.8725 28.2745 30.8674L25.3442 21.438C25.3298 21.3821 25.3442 21.3245 25.3874 21.2831L33.0598 15.4507V15.4525Z" fill="#FABE2C"/>
<path d="M6.62962 33.4468L17.2612 18.538L27.4532 33.517C27.4532 33.517 26.279 34.5509 24.7643 33.5603L17.0342 27.6847L9.21952 33.6035C9.21952 33.6035 7.83272 34.5942 6.62962 33.4486V33.4468Z" fill="#FF9100"/>
<path d="M0.131478 12.6212L17.2612 18.5401L8.69722 21.3013L0.81227 15.3825C0.81227 15.3825 -0.390823 14.4909 0.133279 12.6212H0.131478Z" fill="#FF9100"/>
<path d="M17.2611 18.5385L17.0072 0.00561359C17.0072 0.00561359 18.4372 -0.0790442 19.145 1.42138L22.1455 11.1048L17.2611 18.5385Z" fill="#FF9100"/>
<path d="M17.2611 18.538L33.8091 12.6191C33.8091 12.6191 34.6592 14.5158 32.705 15.7335L25.3856 21.2975L17.2593 18.5362L17.2611 18.538Z" fill="#FF9100"/>
</g>
<defs>
<clipPath id="clip0_1_96">
<rect width="34" height="34" fill="white"/>
</clipPath>
</defs>
</svg>
