<svg width="35" height="35" viewBox="0 0 35 35" fill="none" xmlns="http://www.w3.org/2000/svg">
<g clip-path="url(#clip0_1_21)">
<path d="M17.5 35C12.8256 35 8.43097 33.1797 5.12559 29.8744C1.82034 26.569 0 22.1744 0 17.5C0 12.8256 1.82034 8.43097 5.12559 5.12559C8.43097 1.82034 12.8256 0 17.5 0C22.1744 0 26.569 1.82034 29.8744 5.12559C33.1797 8.43097 35 12.8256 35 17.5C35 22.1744 33.1797 26.569 29.8744 29.8744C26.569 33.1797 22.1744 35 17.5 35Z" fill="#00C1FD"/>
<path d="M29.8744 5.12559C26.569 1.82034 22.1744 0 17.5 0V35C22.1744 35 26.569 33.1797 29.8744 29.8744C33.1797 26.569 35 22.1744 35 17.5C35 12.8256 33.1797 8.43097 29.8744 5.12559Z" fill="#08A8EE"/>
<path d="M20.5762 25.3613V15.1074H13.0566V17.1582H14.4238V25.3613H12.9883V27.4121H21.875V25.3613H20.5762Z" fill="#E4F7FF"/>
<path d="M17.5 13.0566C19.1962 13.0566 20.5762 11.6767 20.5762 9.98047C20.5762 8.28427 19.1962 6.9043 17.5 6.9043C15.8038 6.9043 14.4238 8.28427 14.4238 9.98047C14.4238 11.6767 15.8038 13.0566 17.5 13.0566Z" fill="#E4F7FF"/>
<path d="M17.5 13.0566C19.1962 13.0566 20.5762 11.6767 20.5762 9.98047C20.5762 8.28427 19.1962 6.9043 17.5 6.9043V13.0566Z" fill="#CBEDFD"/>
<path d="M20.5762 25.3613V15.1074H17.5V27.4121H21.875V25.3613H20.5762Z" fill="#CBEDFD"/>
</g>
<defs>
<clipPath id="clip0_1_21">
<rect width="35" height="35" fill="white"/>
</clipPath>
</defs>
</svg>
