<svg width="35" height="35" viewBox="0 0 35 35" fill="none" xmlns="http://www.w3.org/2000/svg">
<g clip-path="url(#clip0_1_33)">
<path d="M17.5017 33.04L24.4353 31.289C28.393 28.0027 30.9138 23.0459 30.9138 17.4996C30.9138 8.94488 24.9179 1.7906 16.8993 0.00976562C7.51249 0.326338 0 8.03563 0 17.4996C0 22.3608 1.98242 26.7586 5.18246 29.9298L17.5017 33.04Z" fill="#CBE2FF"/>
<path d="M30.5508 17.5C30.5508 23.2364 27.7903 28.3275 23.5258 31.5191L29.817 29.9303C33.0172 26.7591 35 22.3613 35 17.5C35 7.83501 27.165 0 17.5 0C16.7464 0 16.0039 0.0477148 15.2754 0.140137C23.89 1.23307 30.5508 8.58867 30.5508 17.5Z" fill="#BED8FB"/>
<path d="M21.8491 6.6272C21.8491 5.7334 21.1246 5.00886 20.2308 5.00886H14.6539C12.5969 5.00886 10.9293 6.67642 10.9293 8.73342V12.8687H24.0686V8.79207C24.0686 7.89827 23.3441 7.17373 22.4503 7.17373H22.3957C22.0938 7.17373 21.8491 6.92907 21.8491 6.6272V6.6272Z" fill="#365E7D"/>
<path d="M22.4503 7.17373H22.3957C22.0938 7.17373 21.8491 6.929 21.8491 6.62713C21.8491 5.73333 21.1246 5.00879 20.2308 5.00879H19.6193V12.8686H24.0685V8.792C24.0686 7.89834 23.344 7.17373 22.4503 7.17373V7.17373Z" fill="#2B4D66"/>
<path d="M29.0558 25.454C28.628 25.0314 28.0987 24.7046 27.4979 24.5144L22.7202 23.0018L17.5011 22.8184L12.2798 23.0018L7.50211 24.5144C5.88582 25.0262 4.78735 26.5261 4.78735 28.2215V29.5267C7.8491 32.7621 12.1326 34.8292 16.8995 34.99C22.2403 33.8038 26.6837 30.2338 29.0558 25.454V25.454Z" fill="#4A80AA"/>
<path d="M30.2127 29.5259V28.2206C30.2127 27.0219 29.663 25.9213 28.7699 25.1982C26.233 30.368 21.2216 34.1033 15.2795 34.8586C15.9967 34.9494 16.7272 34.9979 17.4688 34.9992C18.1813 34.9981 18.8843 34.9568 19.5759 34.8774C23.7479 34.3844 27.4703 32.4237 30.2127 29.5259Z" fill="#407093"/>
<path d="M17.8962 34.7377C18.955 32.6355 21.7122 26.6667 20.926 22.9382L17.5011 21.6053L14.073 22.9383C13.2625 26.7818 16.2174 33.0061 17.1957 34.921C17.431 34.8645 17.6646 34.8034 17.8962 34.7377V34.7377Z" fill="#E4F6FF"/>
<path d="M19.701 33.0715L18.3123 27.6084H16.6876L15.3024 33.0566L17.0153 34.9636C17.4502 34.864 17.879 34.7485 18.3012 34.6179L19.701 33.0715Z" fill="#E28086"/>
<path d="M17.0422 34.9935C17.184 34.9972 17.3261 34.9998 17.4688 35C17.6339 34.9998 17.7984 34.9969 17.9625 34.9923L18.8448 34.0176C18.1503 34.2612 17.4359 34.4623 16.7045 34.6177L17.0422 34.9935Z" fill="#DD636E"/>
<path d="M20.424 22.4332V19.3525H14.5739V22.4332C14.5739 24.0487 17.4989 25.8133 17.4989 25.8133C17.4989 25.8133 20.424 24.0487 20.424 22.4332Z" fill="#FFDDCE"/>
<path d="M24.0686 12.3257H22.9503C22.3284 12.3257 21.8242 11.8216 21.8242 11.1997V10.5834C21.8242 9.77328 21.0316 9.2005 20.2624 9.45472C18.4685 10.0477 16.5314 10.0478 14.7374 9.45513L14.7353 9.45445C13.9661 9.20036 13.1736 9.77314 13.1736 10.5832V11.1997C13.1736 11.8217 12.6695 12.3258 12.0475 12.3258H10.9293V14.1673C10.9293 14.6378 11.3108 15.0193 11.7814 15.0193C11.9298 15.0193 12.0506 15.1356 12.06 15.2838C12.2396 18.1322 14.6053 20.3871 17.499 20.3871C20.3927 20.3871 22.7584 18.1322 22.938 15.2838C22.9474 15.1357 23.0682 15.0193 23.2166 15.0193C23.6872 15.0193 24.0687 14.6379 24.0687 14.1673V12.3257H24.0686Z" fill="#FFDDCE"/>
<path d="M22.9503 12.3258C22.3284 12.3258 21.8242 11.8216 21.8242 11.1997V10.5834C21.8242 9.77328 21.0316 9.2005 20.2624 9.45473C20.05 9.52493 19.8354 9.58618 19.6194 9.63977V15.7218C19.5894 17.7007 18.5051 19.423 16.9038 20.3537C17.0994 20.375 17.2977 20.387 17.4989 20.387C20.3926 20.387 22.7583 18.1321 22.9379 15.2837C22.9473 15.1355 23.0681 15.0192 23.2166 15.0192C23.6871 15.0192 24.0686 14.6377 24.0686 14.1671V12.3257H22.9503V12.3258Z" fill="#FFCBBE"/>
<path d="M14.5738 21.6053L12.2798 23.4692L14.6855 26.4438C14.9782 26.7287 15.4388 26.7462 15.7523 26.4844L17.5614 24.9731L14.5738 21.6053Z" fill="#F4FBFF"/>
<path d="M20.4251 21.6053L17.5614 24.9731L19.2618 26.427C19.5733 26.6933 20.0361 26.6799 20.3317 26.396L22.7201 23.4692L20.4251 21.6053Z" fill="#F4FBFF"/>
<path d="M14.5738 21.6053L11.2067 23.2595C10.9504 23.3854 10.8474 23.6973 10.9783 23.9511L11.638 25.2301C11.809 25.5615 11.7459 25.9654 11.482 26.2288C11.3462 26.3644 11.1991 26.5112 11.0716 26.6385C10.8434 26.8663 10.7614 27.2028 10.8619 27.5092C11.6584 29.9371 15.4915 33.6498 16.9422 34.9931C17.0398 34.9957 17.1375 34.9974 17.2355 34.9985C16.1835 32.9523 12.4556 25.1784 14.5738 21.6053V21.6053Z" fill="#365E7D"/>
<path d="M23.5169 26.2288C23.253 25.9653 23.19 25.5614 23.3609 25.23L24.0206 23.951C24.1515 23.6972 24.0486 23.3854 23.7922 23.2594L20.4251 21.6053C22.5427 25.1774 18.8175 32.9481 17.7644 34.9969C17.8633 34.9952 17.9621 34.9927 18.0607 34.9894C19.5144 33.6431 23.3413 29.9349 24.137 27.5093C24.2375 27.2029 24.1556 26.8664 23.9274 26.6386C23.7999 26.5112 23.6528 26.3643 23.5169 26.2288V26.2288Z" fill="#365E7D"/>
<path d="M17.5614 24.9727L15.78 26.4604L16.6876 27.6076H18.3123L19.2201 26.3928L17.5614 24.9727Z" fill="#DD636E"/>
</g>
<defs>
<clipPath id="clip0_1_33">
<rect width="35" height="35" fill="white"/>
</clipPath>
</defs>
</svg>
