<svg width="29" height="29" viewBox="0 0 29 29" fill="none" xmlns="http://www.w3.org/2000/svg">
<g clip-path="url(#clip0_1_110)">
<path d="M2.63639 10.5462H7.909C9.365 10.5462 10.5453 9.36586 10.5453 7.90986V2.63731C10.5453 1.18131 9.36506 0.0010332 7.90906 0.000976562H7.909H2.63639C1.18039 0.000976562 6.10352e-05 1.18125 6.10352e-05 2.63725V2.63731V7.90992C6.10352e-05 9.36586 1.18039 10.5462 2.63639 10.5462ZM2.63639 2.63731H7.909V7.90992H2.63639V2.63731Z" fill="#1B43BA"/>
<path d="M7.90895 18.4551H2.63639C1.18039 18.4551 6.10352e-05 19.6354 6.10352e-05 21.0914V21.0914V26.364C6.10352e-05 27.82 1.18039 29.0003 2.63639 29.0004H7.909C9.365 29.0004 10.5453 27.82 10.5453 26.364V21.0914C10.5453 19.6355 9.365 18.4551 7.90895 18.4551C7.90895 18.4551 7.909 18.4551 7.90895 18.4551ZM7.90895 26.364H2.63639V21.0914H7.909V26.364H7.90895Z" fill="#1B43BA"/>
<path d="M26.3632 18.4551H21.0906C19.6346 18.4551 18.4543 19.6354 18.4542 21.0914V21.0914V26.364C18.4542 27.82 19.6346 29.0003 21.0906 29.0004H26.3632C27.8192 29.0004 28.9994 27.82 28.9995 26.364V21.0914C28.9995 19.6355 27.8192 18.4551 26.3632 18.4551ZM26.3632 26.364H21.0906V21.0914H26.3632V26.364Z" fill="#1B43BA"/>
<path d="M27.022 3.95539C28.114 3.95539 28.9992 3.07016 28.9992 1.97818C28.9992 0.886202 28.114 0.000976562 27.022 0.000976562C25.93 0.000976562 25.0448 0.886202 25.0448 1.97818C25.0448 3.07016 25.93 3.95539 27.022 3.95539Z" fill="#1B43BA"/>
<path d="M27.022 10.546C28.114 10.546 28.9992 9.66079 28.9992 8.56881C28.9992 7.47682 28.114 6.5916 27.022 6.5916C25.93 6.5916 25.0448 7.47682 25.0448 8.56881C25.0448 9.66079 25.93 10.546 27.022 10.546Z" fill="#1B43BA"/>
<path d="M20.4317 3.95539C21.5237 3.95539 22.4089 3.07016 22.4089 1.97818C22.4089 0.886202 21.5237 0.000976562 20.4317 0.000976562C19.3397 0.000976562 18.4545 0.886202 18.4545 1.97818C18.4545 3.07016 19.3397 3.95539 20.4317 3.95539Z" fill="#1B43BA"/>
<path d="M14.4998 10.5457C15.2278 10.5457 15.8179 9.95559 15.8179 9.22759V7.90945C15.8179 7.18145 16.408 6.59131 17.136 6.59131H17.136C17.864 6.59131 18.4542 6.00118 18.4542 5.27318C18.4542 4.54517 17.864 3.95504 17.136 3.95504C16.408 3.95504 15.8179 3.3649 15.8179 2.6369V1.3187C15.8182 0.590647 15.2283 0.000283305 14.5003 1.01927e-07C13.7723 -0.000283101 13.1819 0.589628 13.1816 1.31763C13.1816 1.31791 13.1816 1.31831 13.1816 1.31859V9.22753C13.1816 9.95559 13.7718 10.5457 14.4998 10.5457Z" fill="#1B43BA"/>
<path d="M14.4997 13.1824C13.7717 13.1824 13.1816 12.5922 13.1816 11.8642C13.1812 11.1362 12.5907 10.5465 11.8627 10.5469C11.1353 10.5473 10.5458 11.1368 10.5453 11.8642C10.5453 12.5922 9.9552 13.1824 9.2272 13.1824H1.31831C0.590199 13.1824 6.10352e-05 13.7725 6.10352e-05 14.5005C6.10352e-05 15.2285 0.590199 15.8186 1.3182 15.8186H9.22714C9.95514 15.8186 10.5453 16.4087 10.5453 17.1367V17.1368C10.5453 17.8648 11.1354 18.4549 11.8634 18.4549C12.5914 18.4549 13.1816 19.045 13.1816 19.773V19.773V22.4094C13.1816 23.1374 13.7717 23.7275 14.4997 23.7275C15.2277 23.7275 15.8179 23.1374 15.8179 22.4094V14.5005C15.8179 13.7725 15.2279 13.1824 14.4999 13.1824C14.4997 13.1824 14.4997 13.1824 14.4997 13.1824Z" fill="#1B43BA"/>
<path d="M27.6813 13.1825H23.7268C22.9988 13.1825 22.4087 12.5924 22.4087 11.8643V8.569C22.4087 7.47703 21.5234 6.5918 20.4315 6.5918C19.3395 6.5918 18.4543 7.47703 18.4543 8.569V9.22813C18.4543 9.95613 17.8641 10.5463 17.1361 10.5463C16.4081 10.5458 15.8177 11.1356 15.8172 11.8636C15.8167 12.5916 16.4065 13.1821 17.1345 13.1825C17.1351 13.1825 17.1356 13.1825 17.1361 13.1825C17.8641 13.1825 18.4543 13.7726 18.4543 14.5006V14.5007C18.4543 15.2287 19.0444 15.8188 19.7724 15.8188H27.6813C28.4093 15.8191 28.9997 15.2292 29.0001 14.5012C29.0003 13.7732 28.4104 13.1828 27.6824 13.1825C27.682 13.1825 27.6816 13.1825 27.6813 13.1825Z" fill="#1B43BA"/>
<path d="M14.4999 28.9996C15.2279 28.9996 15.818 28.4094 15.818 27.6814C15.818 26.9534 15.2279 26.3633 14.4999 26.3633C13.7719 26.3633 13.1818 26.9534 13.1818 27.6814C13.1818 28.4094 13.7719 28.9996 14.4999 28.9996Z" fill="#1B43BA"/>
</g>
<defs>
<clipPath id="clip0_1_110">
<rect width="29" height="29" fill="white"/>
</clipPath>
</defs>
</svg>
