<svg width="35" height="35" viewBox="0 0 35 35" fill="none" xmlns="http://www.w3.org/2000/svg">
<g clip-path="url(#clip0_1_144)">
<path d="M17.5 35C27.165 35 35 27.165 35 17.5C35 7.83502 27.165 0 17.5 0C7.83502 0 0 7.83502 0 17.5C0 27.165 7.83502 35 17.5 35Z" fill="url(#paint0_linear_1_144)"/>
<path fill-rule="evenodd" clip-rule="evenodd" d="M15.9408 11.684L15.1513 12.4735C14.6631 12.9616 14.6631 13.7531 15.1513 14.2412C15.3954 14.4853 15.7153 14.6074 16.0351 14.6074C16.3549 14.6074 16.6749 14.4854 16.9189 14.2412L19.7304 11.4298C20.2186 10.9417 20.2186 10.1502 19.7304 9.66212L16.9189 6.85063C16.431 6.36241 15.6395 6.36241 15.1512 6.85063C14.663 7.33879 14.663 8.13025 15.1512 8.61841L15.7024 9.16966C11.8638 9.99715 8.97798 13.4177 8.97798 17.5002C8.97798 19.4902 9.67866 21.4268 10.9509 22.9533C11.1982 23.25 11.5538 23.403 11.9118 23.403C12.1939 23.403 12.4778 23.3079 12.7114 23.1132C13.2418 22.6712 13.3133 21.8829 12.8713 21.3526C11.9727 20.2746 11.4779 18.9064 11.4779 17.5001C11.4782 14.7187 13.3739 12.3729 15.9408 11.684V11.684ZM22.416 11.9984C21.8757 12.4282 21.7861 13.2145 22.2158 13.7548C23.0703 14.8289 23.5218 16.124 23.5218 17.5001C23.5218 20.3379 21.548 22.722 18.9016 23.3555L19.7306 22.5267C20.2188 22.0386 20.2188 21.2471 19.7306 20.759C19.2424 20.2709 18.4509 20.2709 17.9629 20.759L15.1514 23.5703C14.6632 24.0585 14.6632 24.8499 15.1514 25.338L17.9628 28.1495C18.2068 28.3937 18.5266 28.5157 18.8466 28.5157C19.1665 28.5157 19.4864 28.3936 19.7304 28.1495C20.2187 27.6613 20.2187 26.8699 19.7304 26.3817L19.2 25.8513C23.0872 25.0613 26.0218 21.617 26.0218 17.5C26.0218 15.5807 25.365 13.6978 24.1723 12.1985C23.7426 11.6583 22.9562 11.5686 22.416 11.9984V11.9984Z" fill="white"/>
</g>
<defs>
<linearGradient id="paint0_linear_1_144" x1="17.5" y1="0" x2="17.5" y2="35" gradientUnits="userSpaceOnUse">
<stop stop-color="#FF9E0D"/>
<stop offset="1" stop-color="#FBD999"/>
</linearGradient>
<clipPath id="clip0_1_144">
<rect width="35" height="35" fill="white"/>
</clipPath>
</defs>
</svg>
