<svg id="Capa_1" enable-background="new 0 0 512 512" height="512" viewBox="0 0 512 512" width="512" xmlns="http://www.w3.org/2000/svg"><g><g><path d="m369.34 256c0 66.513-1.99 133.672-5.933 200.587-1.566 26.58-22.549 47.865-49.085 50.06-86.163 7.129-172.746 7.139-258.737.018-26.532-2.197-47.511-23.482-49.077-50.058-3.937-66.814-5.928-134.087-5.928-200.607s1.991-133.792 5.928-200.607c1.566-26.577 22.546-47.861 49.078-50.058 85.991-7.121 172.573-7.111 258.737.018 26.535 2.195 47.518 23.481 49.085 50.06 3.942 66.915 5.932 134.074 5.932 200.587z" fill="#617881"/><path d="m30.785 49.336c-3.4 68.837-5.12 138.137-5.12 206.664s1.72 137.828 5.12 206.664c.917 18.533 9.529 34.583 22.108 43.711-25.25-3.369-44.864-24.096-46.379-49.768-3.945-66.817-5.934-134.088-5.934-200.607s1.989-133.79 5.934-200.607c1.515-25.672 21.129-46.399 46.379-49.768-12.579 9.127-21.191 25.177-22.108 43.711z" fill="#404a4a"/><path d="m184.756 451.784c-42.119 0-84.72-1.53-126.62-4.548-11.191-.806-20.123-8.687-20.776-18.332-3.898-57.53-5.875-115.704-5.875-172.904s1.976-115.373 5.874-172.904c.653-9.645 9.586-17.526 20.777-18.332 41.9-3.018 84.502-4.548 126.622-4.548 42.196 0 84.93 1.536 127.016 4.565 11.194.805 20.127 8.687 20.781 18.333 3.901 57.592 5.88 115.759 5.88 172.886s-1.978 115.294-5.88 172.886c-.653 9.646-9.587 17.528-20.781 18.333-42.087 3.029-84.822 4.565-127.018 4.565z" fill="#da4a54"/><g fill="#404a4a"><path d="m232.283 39.309h-94.646c-4.267 0-7.726-3.459-7.726-7.726s3.459-7.726 7.726-7.726h94.646c4.267 0 7.726 3.459 7.726 7.726s-3.459 7.726-7.726 7.726z"/><path d="m256.989 39.312c-3.308 0-6.286-2.187-7.328-5.308-1.039-3.11.08-6.665 2.715-8.616 5.392-3.992 13.274.619 12.253 7.328-.569 3.735-3.846 6.596-7.64 6.596z"/></g></g><g><path d="m98.349 306.578c-.049 0-.09 0-.139 0-11.964 0-21.657-9.702-21.657-21.657 0-11.964 9.694-21.666 21.657-21.666.156 0 .311 0 .467.008h172.566c.156-.008.311-.008.467-.008 11.964 0 21.657 9.702 21.657 21.666 0 11.955-9.694 21.657-21.657 21.657-.049 0-.09 0-.139 0" fill="#f1b986"/><path d="m279.998 265.209-127.999.548-63.561.267c-4.846-44.24-18.909-101.695 32.761-111.934 12.405-2.46 23.577-3.92 33.617-4.606 67.255-4.565 83.985 25.804 83.985 25.804s12.172-10.692 25.407-9.602c4.784.391 9.712 2.33 14.249 6.867 23.932 23.934 1.541 92.656 1.541 92.656z" fill="#617881"/><path d="m264.207 165.686c-15.722 10.801-26.01 43.123-30.773 61.546-4.66-18.765 1.035-39.422 5.366-51.944.001 0 12.173-10.691 25.407-9.602z" fill="#404a4a"/><path d="m144.912 218.076 7.087 47.681-63.561.267c-4.846-44.24-18.909-101.695 32.761-111.934 12.405-2.46 23.577-3.92 33.617-4.606 0 .007-.007.007-.007.007-25.873 15.914-17.881 44.261-9.897 68.585z" fill="#404a4a"/><path d="m271.712 286.523c0 9.924-.254 19.855-.761 29.779-1.268 24.81-21.123 44.563-45.947 45.735-17.354.822-34.714 1.103-52.067.857h-.007c-9.342-.13-18.676-.418-28.018-.857-24.817-1.172-44.672-20.924-45.947-45.735-.905-17.682-1.001-35.358-.295-53.041h.007c9.677-3.585 15.434-14.729 18.854-27.12 3.509-12.714 15.688-19.663 27.38-18.066 4.558.624 9.047 2.55 12.912 5.935 7.765 6.799 17.449 10.198 27.134 10.198 9.684 0 19.375-3.399 27.141-10.198 4.811-4.215 10.575-6.161 16.25-6.161 10.589 0 20.863 6.785 24.043 18.292 3.413 12.391 9.17 23.535 18.854 27.12.316 7.76.467 15.511.467 23.262z" fill="#f1d0a5"/><path d="m172.93 362.894c-9.342-.13-18.676-.418-28.018-.857-24.817-1.172-44.672-20.924-45.947-45.735-.905-17.682-1.001-35.358-.295-53.041h.007c9.677-3.585 15.434-14.729 18.854-27.12 3.509-12.714 15.688-19.663 27.38-18.066-8.874 79.25.001 143.949 28.019 144.819z" fill="#f1b986"/><path d="m184.96 326.39c-9.871 0-18.984-5.763-23.217-14.682-1.464-3.084-.15-6.771 2.934-8.234 3.082-1.464 6.771-.151 8.234 2.934 2.197 4.63 6.927 7.621 12.049 7.621s9.852-2.991 12.049-7.62c1.464-3.084 5.151-4.397 8.234-2.934 3.084 1.464 4.398 5.15 2.934 8.234-4.232 8.918-13.346 14.681-23.217 14.681z" fill="#da4a54"/><g fill="#404a4a"><path d="m139.786 266.432c-2.85 3.499-3.447 8.668-2.429 12.951.84 3.534 3.34 7.861 7.476 7.861 4.738 0 7.226-5.446 7.767-9.43.577-4.247-.348-9.409-3.68-12.392-2.906-2.604-6.755-1.911-9.134 1.01z"/><path d="m229.175 265.421c-2.907-2.603-6.756-1.91-9.135 1.011-2.85 3.499-3.446 8.668-2.429 12.951.839 3.534 3.34 7.861 7.476 7.861 4.738 0 7.226-5.445 7.768-9.43.578-4.247-.347-9.409-3.68-12.393z"/></g></g><g fill="#e4f6ff"><path d="m315.468 152.313c-2.525 0-4.999-1.236-6.48-3.509-2.33-3.575-1.321-8.362 2.254-10.692l66.462-43.316c3.576-2.329 8.362-1.321 10.692 2.255 2.33 3.575 1.321 8.362-2.254 10.692l-66.462 43.316c-1.303.848-2.766 1.254-4.212 1.254z"/><path d="m375.791 414.466c-1.447 0-2.909-.406-4.212-1.254l-60.337-39.324c-3.575-2.33-4.584-7.117-2.254-10.692 2.329-3.575 7.116-4.584 10.692-2.255l60.337 39.324c3.575 2.33 4.584 7.117 2.254 10.692-1.481 2.273-3.956 3.509-6.48 3.509z"/><path d="m372.487 263.726h-57.027c-4.267 0-7.726-3.459-7.726-7.726s3.459-7.726 7.726-7.726h57.027c4.267 0 7.726 3.459 7.726 7.726s-3.458 7.726-7.726 7.726z"/></g><g><path d="m511.42 76.738c0 29.237-16.349 54.651-40.404 67.6-10.817 5.831-23.189 9.138-36.335 9.138-13.145 0-25.518-3.307-36.335-9.138-24.055-12.949-40.404-38.364-40.404-67.6.001-42.381 34.358-76.738 76.739-76.738s76.739 34.357 76.739 76.738z" fill="#86f1a7"/><path d="m414.82 144.339c8.53 4.595 18.018 7.623 28.103 8.695-2.709.299-5.46.443-8.241.443-13.145 0-25.517-3.307-36.334-9.138-24.055-12.949-40.404-38.364-40.404-67.6-.001-42.382 34.356-76.739 76.737-76.739 2.782 0 5.532.144 8.241.433-38.508 4.11-68.507 36.705-68.507 76.306.001 29.236 16.35 54.65 40.405 67.6z" fill="#66b49d"/><path d="m471.016 144.339c-10.817 5.831-23.189 9.138-36.335 9.138-13.145 0-25.518-3.307-36.335-9.138 2.895-17.451 18.059-30.761 36.335-30.761 18.276-.001 33.44 13.309 36.335 30.761z" fill="#e4f6ff"/><circle cx="434.682" cy="76.737" fill="#f1d0a5" r="36.842"/><path d="m434.682 39.895c-9.733 0-18.578 3.781-25.165 9.945.001 0 22.112 26.896 62.007 26.896 0-20.346-16.495-36.841-36.842-36.841z" fill="#404a4a"/></g><g><path d="m511.42 256c0 29.237-16.349 54.651-40.404 67.6-10.817 5.831-23.189 9.138-36.335 9.138-13.145 0-25.518-3.307-36.335-9.138-24.055-12.949-40.404-38.364-40.404-67.6 0-42.382 34.357-76.738 76.738-76.738s76.74 34.356 76.74 76.738z" fill="#f4dd45"/><path d="m414.82 323.6c8.53 4.595 18.018 7.623 28.103 8.695-2.709.299-5.46.443-8.241.443-13.145 0-25.517-3.307-36.334-9.138-24.055-12.949-40.404-38.364-40.404-67.6 0-42.382 34.357-76.738 76.738-76.738 2.782 0 5.532.144 8.241.433-38.508 4.11-68.507 36.705-68.507 76.306 0 29.236 16.349 54.65 40.404 67.599z" fill="#eab14d"/><path d="m471.016 323.6c-10.817 5.831-23.189 9.138-36.335 9.138-13.145 0-25.518-3.307-36.335-9.138 2.895-17.451 18.059-30.761 36.335-30.761s33.44 13.31 36.335 30.761z" fill="#da4a54"/><circle cx="434.682" cy="255.999" fill="#f1b986" r="36.842"/><path d="m434.682 219.157c-9.733 0-18.578 3.781-25.165 9.945.001 0 22.112 26.896 62.007 26.896 0-20.346-16.495-36.841-36.842-36.841z" fill="#be694f"/></g><g><path d="m511.42 435.262c0 29.237-16.349 54.651-40.404 67.6-10.817 5.831-23.189 9.138-36.335 9.138-13.145 0-25.518-3.307-36.335-9.138-24.055-12.949-40.404-38.364-40.404-67.6 0-42.382 34.357-76.738 76.738-76.738s76.74 34.356 76.74 76.738z" fill="#6bbef6"/><path d="m414.82 502.862c8.53 4.595 18.018 7.623 28.103 8.695-2.709.299-5.46.443-8.241.443-13.145 0-25.517-3.307-36.334-9.138-24.055-12.949-40.404-38.364-40.404-67.6 0-42.382 34.357-76.738 76.738-76.738 2.782 0 5.532.144 8.241.433-38.508 4.11-68.507 36.705-68.507 76.306 0 29.235 16.349 54.65 40.404 67.599z" fill="#528ecb"/><path d="m471.016 502.862c-10.817 5.831-23.189 9.138-36.335 9.138-13.145 0-25.518-3.307-36.335-9.138 2.895-17.451 18.059-30.761 36.335-30.761s33.44 13.31 36.335 30.761z" fill="#617881"/><circle cx="434.682" cy="435.261" fill="#f1d0a5" r="36.842"/><path d="m434.682 398.419c-9.733 0-18.578 3.781-25.165 9.945.001 0 22.112 26.896 62.007 26.896 0-20.346-16.495-36.841-36.842-36.841z" fill="#eab14d"/></g></g></svg>