<svg width="264" height="96" viewBox="0 0 264 96" fill="none" xmlns="http://www.w3.org/2000/svg">
<rect x="1.5" y="1.5" width="261" height="93" rx="15.5" stroke="white" stroke-width="3"/>
<path d="M84.9388 26.5589V29.0249H81.5908V39.1949H78.5128V29.0249H75.1648V26.5589H84.9388ZM95.9515 34.0109C95.9515 34.2989 95.9335 34.5989 95.8975 34.9109H88.9315C88.9795 35.5349 89.1775 36.0149 89.5255 36.3509C89.8855 36.6749 90.3235 36.8369 90.8395 36.8369C91.6075 36.8369 92.1415 36.5129 92.4415 35.8649H95.7175C95.5495 36.5249 95.2435 37.1189 94.7995 37.6469C94.3675 38.1749 93.8215 38.5889 93.1615 38.8889C92.5015 39.1889 91.7635 39.3389 90.9475 39.3389C89.9635 39.3389 89.0875 39.1289 88.3195 38.7089C87.5515 38.2889 86.9515 37.6889 86.5195 36.9089C86.0875 36.1289 85.8715 35.2169 85.8715 34.1729C85.8715 33.1289 86.0815 32.2169 86.5015 31.4369C86.9335 30.6569 87.5335 30.0569 88.3015 29.6369C89.0695 29.2169 89.9515 29.0069 90.9475 29.0069C91.9195 29.0069 92.7835 29.2109 93.5395 29.6189C94.2955 30.0269 94.8835 30.6089 95.3035 31.3649C95.7355 32.1209 95.9515 33.0029 95.9515 34.0109ZM92.8015 33.2009C92.8015 32.6729 92.6215 32.2529 92.2615 31.9409C91.9015 31.6289 91.4515 31.4729 90.9115 31.4729C90.3955 31.4729 89.9575 31.6229 89.5975 31.9229C89.2495 32.2229 89.0335 32.6489 88.9495 33.2009H92.8015ZM93.0175 26.5769L88.6795 28.3949V26.2709L93.0175 24.1829V26.5769ZM100.653 25.8749V39.1949H97.5753V25.8749H100.653ZM112.352 34.0109C112.352 34.2989 112.334 34.5989 112.298 34.9109H105.332C105.38 35.5349 105.578 36.0149 105.926 36.3509C106.286 36.6749 106.724 36.8369 107.24 36.8369C108.008 36.8369 108.542 36.5129 108.842 35.8649H112.118C111.95 36.5249 111.644 37.1189 111.2 37.6469C110.768 38.1749 110.222 38.5889 109.562 38.8889C108.902 39.1889 108.164 39.3389 107.348 39.3389C106.364 39.3389 105.488 39.1289 104.72 38.7089C103.952 38.2889 103.352 37.6889 102.92 36.9089C102.488 36.1289 102.272 35.2169 102.272 34.1729C102.272 33.1289 102.482 32.2169 102.902 31.4369C103.334 30.6569 103.934 30.0569 104.702 29.6369C105.47 29.2169 106.352 29.0069 107.348 29.0069C108.32 29.0069 109.184 29.2109 109.94 29.6189C110.696 30.0269 111.284 30.6089 111.704 31.3649C112.136 32.1209 112.352 33.0029 112.352 34.0109ZM109.202 33.2009C109.202 32.6729 109.022 32.2529 108.662 31.9409C108.302 31.6289 107.852 31.4729 107.312 31.4729C106.796 31.4729 106.358 31.6229 105.998 31.9229C105.65 32.2229 105.434 32.6489 105.35 33.2009H109.202ZM109.418 26.5769L105.08 28.3949V26.2709L109.418 24.1829V26.5769ZM113.364 34.1729C113.364 33.1289 113.574 32.2169 113.994 31.4369C114.426 30.6569 115.02 30.0569 115.776 29.6369C116.544 29.2169 117.42 29.0069 118.404 29.0069C119.664 29.0069 120.714 29.3369 121.554 29.9969C122.406 30.6569 122.964 31.5869 123.228 32.7869H119.952C119.676 32.0189 119.142 31.6349 118.35 31.6349C117.786 31.6349 117.336 31.8569 117 32.3009C116.664 32.7329 116.496 33.3569 116.496 34.1729C116.496 34.9889 116.664 35.6189 117 36.0629C117.336 36.4949 117.786 36.7109 118.35 36.7109C119.142 36.7109 119.676 36.3269 119.952 35.5589H123.228C122.964 36.7349 122.406 37.6589 121.554 38.3309C120.702 39.0029 119.652 39.3389 118.404 39.3389C117.42 39.3389 116.544 39.1289 115.776 38.7089C115.02 38.2889 114.426 37.6889 113.994 36.9089C113.574 36.1289 113.364 35.2169 113.364 34.1729ZM131.048 29.0429C132.2 29.0429 133.124 29.4269 133.82 30.1949C134.516 30.9509 134.864 31.9949 134.864 33.3269V39.1949H131.804V33.7409C131.804 33.0689 131.63 32.5469 131.282 32.1749C130.934 31.8029 130.466 31.6169 129.878 31.6169C129.29 31.6169 128.822 31.8029 128.474 32.1749C128.126 32.5469 127.952 33.0689 127.952 33.7409V39.1949H124.874V25.8749H127.952V30.5009C128.264 30.0569 128.69 29.7029 129.23 29.4389C129.77 29.1749 130.376 29.0429 131.048 29.0429ZM136.391 34.1549C136.391 33.1229 136.583 32.2169 136.967 31.4369C137.363 30.6569 137.897 30.0569 138.569 29.6369C139.241 29.2169 139.991 29.0069 140.819 29.0069C141.527 29.0069 142.145 29.1509 142.673 29.4389C143.213 29.7269 143.627 30.1049 143.915 30.5729V29.1509H146.993V39.1949H143.915V37.7729C143.615 38.2409 143.195 38.6189 142.655 38.9069C142.127 39.1949 141.509 39.3389 140.801 39.3389C139.985 39.3389 139.241 39.1289 138.569 38.7089C137.897 38.2769 137.363 37.6709 136.967 36.8909C136.583 36.0989 136.391 35.1869 136.391 34.1549ZM143.915 34.1729C143.915 33.4049 143.699 32.7989 143.267 32.3549C142.847 31.9109 142.331 31.6889 141.719 31.6889C141.107 31.6889 140.585 31.9109 140.153 32.3549C139.733 32.7869 139.523 33.3869 139.523 34.1549C139.523 34.9229 139.733 35.5349 140.153 35.9909C140.585 36.4349 141.107 36.6569 141.719 36.6569C142.331 36.6569 142.847 36.4349 143.267 35.9909C143.699 35.5469 143.915 34.9409 143.915 34.1729ZM152.298 30.8249C152.658 30.2729 153.108 29.8409 153.648 29.5289C154.188 29.2049 154.788 29.0429 155.448 29.0429V32.3009H154.602C153.834 32.3009 153.258 32.4689 152.874 32.8049C152.49 33.1289 152.298 33.7049 152.298 34.5329V39.1949H149.22V29.1509H152.298V30.8249ZM160.735 29.0069C161.443 29.0069 162.061 29.1509 162.589 29.4389C163.129 29.7269 163.543 30.1049 163.831 30.5729V29.1509H166.909V39.1769C166.909 40.1009 166.723 40.9349 166.351 41.6789C165.991 42.4349 165.433 43.0349 164.677 43.4789C163.933 43.9229 163.003 44.1449 161.887 44.1449C160.399 44.1449 159.193 43.7909 158.269 43.0829C157.345 42.3869 156.817 41.4389 156.685 40.2389H159.727C159.823 40.6229 160.051 40.9229 160.411 41.1389C160.771 41.3669 161.215 41.4809 161.743 41.4809C162.379 41.4809 162.883 41.2949 163.255 40.9229C163.639 40.5629 163.831 39.9809 163.831 39.1769V37.7549C163.531 38.2229 163.117 38.6069 162.589 38.9069C162.061 39.1949 161.443 39.3389 160.735 39.3389C159.907 39.3389 159.157 39.1289 158.485 38.7089C157.813 38.2769 157.279 37.6709 156.883 36.8909C156.499 36.0989 156.307 35.1869 156.307 34.1549C156.307 33.1229 156.499 32.2169 156.883 31.4369C157.279 30.6569 157.813 30.0569 158.485 29.6369C159.157 29.2169 159.907 29.0069 160.735 29.0069ZM163.831 34.1729C163.831 33.4049 163.615 32.7989 163.183 32.3549C162.763 31.9109 162.247 31.6889 161.635 31.6889C161.023 31.6889 160.501 31.9109 160.069 32.3549C159.649 32.7869 159.439 33.3869 159.439 34.1549C159.439 34.9229 159.649 35.5349 160.069 35.9909C160.501 36.4349 161.023 36.6569 161.635 36.6569C162.247 36.6569 162.763 36.4349 163.183 35.9909C163.615 35.5469 163.831 34.9409 163.831 34.1729ZM178.604 34.0109C178.604 34.2989 178.586 34.5989 178.55 34.9109H171.584C171.632 35.5349 171.83 36.0149 172.178 36.3509C172.538 36.6749 172.976 36.8369 173.492 36.8369C174.26 36.8369 174.794 36.5129 175.094 35.8649H178.37C178.202 36.5249 177.896 37.1189 177.452 37.6469C177.02 38.1749 176.474 38.5889 175.814 38.8889C175.154 39.1889 174.416 39.3389 173.6 39.3389C172.616 39.3389 171.74 39.1289 170.972 38.7089C170.204 38.2889 169.604 37.6889 169.172 36.9089C168.74 36.1289 168.524 35.2169 168.524 34.1729C168.524 33.1289 168.734 32.2169 169.154 31.4369C169.586 30.6569 170.186 30.0569 170.954 29.6369C171.722 29.2169 172.604 29.0069 173.6 29.0069C174.572 29.0069 175.436 29.2109 176.192 29.6189C176.948 30.0269 177.536 30.6089 177.956 31.3649C178.388 32.1209 178.604 33.0029 178.604 34.0109ZM175.454 33.2009C175.454 32.6729 175.274 32.2529 174.914 31.9409C174.554 31.6289 174.104 31.4729 173.564 31.4729C173.048 31.4729 172.61 31.6229 172.25 31.9229C171.902 32.2229 171.686 32.6489 171.602 33.2009H175.454ZM183.306 30.8249C183.666 30.2729 184.116 29.8409 184.656 29.5289C185.196 29.2049 185.796 29.0429 186.456 29.0429V32.3009H185.61C184.842 32.3009 184.266 32.4689 183.882 32.8049C183.498 33.1289 183.306 33.7049 183.306 34.5329V39.1949H180.228V29.1509H183.306V30.8249ZM191.129 34.1549C191.129 33.1229 191.321 32.2169 191.705 31.4369C192.101 30.6569 192.635 30.0569 193.307 29.6369C193.979 29.2169 194.729 29.0069 195.557 29.0069C196.217 29.0069 196.817 29.1449 197.357 29.4209C197.909 29.6969 198.341 30.0689 198.653 30.5369V25.8749H201.731V39.1949H198.653V37.7549C198.365 38.2349 197.951 38.6189 197.411 38.9069C196.883 39.1949 196.265 39.3389 195.557 39.3389C194.729 39.3389 193.979 39.1289 193.307 38.7089C192.635 38.2769 192.101 37.6709 191.705 36.8909C191.321 36.0989 191.129 35.1869 191.129 34.1549ZM198.653 34.1729C198.653 33.4049 198.437 32.7989 198.005 32.3549C197.585 31.9109 197.069 31.6889 196.457 31.6889C195.845 31.6889 195.323 31.9109 194.891 32.3549C194.471 32.7869 194.261 33.3869 194.261 34.1549C194.261 34.9229 194.471 35.5349 194.891 35.9909C195.323 36.4349 195.845 36.6569 196.457 36.6569C197.069 36.6569 197.585 36.4349 198.005 35.9909C198.437 35.5469 198.653 34.9409 198.653 34.1729ZM203.346 34.1549C203.346 33.1229 203.538 32.2169 203.922 31.4369C204.318 30.6569 204.852 30.0569 205.524 29.6369C206.196 29.2169 206.946 29.0069 207.774 29.0069C208.482 29.0069 209.1 29.1509 209.628 29.4389C210.168 29.7269 210.582 30.1049 210.87 30.5729V29.1509H213.948V39.1949H210.87V37.7729C210.57 38.2409 210.15 38.6189 209.61 38.9069C209.082 39.1949 208.464 39.3389 207.756 39.3389C206.94 39.3389 206.196 39.1289 205.524 38.7089C204.852 38.2769 204.318 37.6709 203.922 36.8909C203.538 36.0989 203.346 35.1869 203.346 34.1549ZM210.87 34.1729C210.87 33.4049 210.654 32.7989 210.222 32.3549C209.802 31.9109 209.286 31.6889 208.674 31.6889C208.062 31.6889 207.54 31.9109 207.108 32.3549C206.688 32.7869 206.478 33.3869 206.478 34.1549C206.478 34.9229 206.688 35.5349 207.108 35.9909C207.54 36.4349 208.062 36.6569 208.674 36.6569C209.286 36.6569 209.802 36.4349 210.222 35.9909C210.654 35.5469 210.87 34.9409 210.87 34.1729ZM222.295 29.0429C223.471 29.0429 224.407 29.4269 225.103 30.1949C225.811 30.9509 226.165 31.9949 226.165 33.3269V39.1949H223.105V33.7409C223.105 33.0689 222.931 32.5469 222.583 32.1749C222.235 31.8029 221.767 31.6169 221.179 31.6169C220.591 31.6169 220.123 31.8029 219.775 32.1749C219.427 32.5469 219.253 33.0689 219.253 33.7409V39.1949H216.175V29.1509H219.253V30.4829C219.565 30.0389 219.985 29.6909 220.513 29.4389C221.041 29.1749 221.635 29.0429 222.295 29.0429ZM232.39 39.3389C231.514 39.3389 230.734 39.1889 230.05 38.8889C229.366 38.5889 228.826 38.1809 228.43 37.6649C228.034 37.1369 227.812 36.5489 227.764 35.9009H230.806C230.842 36.2489 231.004 36.5309 231.292 36.7469C231.58 36.9629 231.934 37.0709 232.354 37.0709C232.738 37.0709 233.032 36.9989 233.236 36.8549C233.452 36.6989 233.56 36.5009 233.56 36.2609C233.56 35.9729 233.41 35.7629 233.11 35.6309C232.81 35.4869 232.324 35.3309 231.652 35.1629C230.932 34.9949 230.332 34.8209 229.852 34.6409C229.372 34.4489 228.958 34.1549 228.61 33.7589C228.262 33.3509 228.088 32.8049 228.088 32.1209C228.088 31.5449 228.244 31.0229 228.556 30.5549C228.88 30.0749 229.348 29.6969 229.96 29.4209C230.584 29.1449 231.322 29.0069 232.174 29.0069C233.434 29.0069 234.424 29.3189 235.144 29.9429C235.876 30.5669 236.296 31.3949 236.404 32.4269H233.56C233.512 32.0789 233.356 31.8029 233.092 31.5989C232.84 31.3949 232.504 31.2929 232.084 31.2929C231.724 31.2929 231.448 31.3649 231.256 31.5089C231.064 31.6409 230.968 31.8269 230.968 32.0669C230.968 32.3549 231.118 32.5709 231.418 32.7149C231.73 32.8589 232.21 33.0029 232.858 33.1469C233.602 33.3389 234.208 33.5309 234.676 33.7229C235.144 33.9029 235.552 34.2029 235.9 34.6229C236.26 35.0309 236.446 35.5829 236.458 36.2789C236.458 36.8669 236.29 37.3949 235.954 37.8629C235.63 38.3189 235.156 38.6789 234.532 38.9429C233.92 39.2069 233.206 39.3389 232.39 39.3389Z" fill="white"/>
<path d="M84.4569 53.5896V68.3896H81.0369V53.5896H84.4569ZM87.7154 54.3496H91.2154L88.9754 59.7096H86.6754L87.7154 54.3496ZM101.964 65.9096H96.7244L95.8844 68.3896H92.3044L97.3844 54.3496H101.344L106.424 68.3896H102.804L101.964 65.9096ZM101.084 63.2696L99.3444 58.1296L97.6244 63.2696H101.084ZM111.391 58.8096C111.724 58.2896 112.184 57.8696 112.771 57.5496C113.357 57.2296 114.044 57.0696 114.831 57.0696C115.751 57.0696 116.584 57.303 117.331 57.7696C118.077 58.2363 118.664 58.903 119.091 59.7696C119.531 60.6363 119.751 61.643 119.751 62.7896C119.751 63.9363 119.531 64.9496 119.091 65.8296C118.664 66.6963 118.077 67.3696 117.331 67.8496C116.584 68.3163 115.751 68.5496 114.831 68.5496C114.057 68.5496 113.371 68.3896 112.771 68.0696C112.184 67.7496 111.724 67.3363 111.391 66.8296V73.7096H107.971V57.2296H111.391V58.8096ZM116.271 62.7896C116.271 61.9363 116.031 61.2696 115.551 60.7896C115.084 60.2963 114.504 60.0496 113.811 60.0496C113.131 60.0496 112.551 60.2963 112.071 60.7896C111.604 61.283 111.371 61.9563 111.371 62.8096C111.371 63.663 111.604 64.3363 112.071 64.8296C112.551 65.323 113.131 65.5696 113.811 65.5696C114.491 65.5696 115.071 65.323 115.551 64.8296C116.031 64.323 116.271 63.643 116.271 62.7896ZM124.965 58.8096C125.298 58.2896 125.758 57.8696 126.345 57.5496C126.931 57.2296 127.618 57.0696 128.405 57.0696C129.325 57.0696 130.158 57.303 130.905 57.7696C131.651 58.2363 132.238 58.903 132.665 59.7696C133.105 60.6363 133.325 61.643 133.325 62.7896C133.325 63.9363 133.105 64.9496 132.665 65.8296C132.238 66.6963 131.651 67.3696 130.905 67.8496C130.158 68.3163 129.325 68.5496 128.405 68.5496C127.631 68.5496 126.945 68.3896 126.345 68.0696C125.758 67.7496 125.298 67.3363 124.965 66.8296V73.7096H121.545V57.2296H124.965V58.8096ZM129.845 62.7896C129.845 61.9363 129.605 61.2696 129.125 60.7896C128.658 60.2963 128.078 60.0496 127.385 60.0496C126.705 60.0496 126.125 60.2963 125.645 60.7896C125.178 61.283 124.945 61.9563 124.945 62.8096C124.945 63.663 125.178 64.3363 125.645 64.8296C126.125 65.323 126.705 65.5696 127.385 65.5696C128.065 65.5696 128.645 65.323 129.125 64.8296C129.605 64.323 129.845 63.643 129.845 62.7896ZM144.437 68.5296C143.411 68.5296 142.491 68.363 141.677 68.0296C140.864 67.6963 140.211 67.203 139.717 66.5496C139.237 65.8963 138.984 65.1096 138.957 64.1896H142.597C142.651 64.7096 142.831 65.1096 143.137 65.3896C143.444 65.6563 143.844 65.7896 144.337 65.7896C144.844 65.7896 145.244 65.6763 145.537 65.4496C145.831 65.2096 145.977 64.883 145.977 64.4696C145.977 64.123 145.857 63.8363 145.617 63.6096C145.391 63.383 145.104 63.1963 144.757 63.0496C144.424 62.903 143.944 62.7363 143.317 62.5496C142.411 62.2696 141.671 61.9896 141.097 61.7096C140.524 61.4296 140.031 61.0163 139.617 60.4696C139.204 59.923 138.997 59.2096 138.997 58.3296C138.997 57.023 139.471 56.003 140.417 55.2696C141.364 54.523 142.597 54.1496 144.117 54.1496C145.664 54.1496 146.911 54.523 147.857 55.2696C148.804 56.003 149.311 57.0296 149.377 58.3496H145.677C145.651 57.8963 145.484 57.543 145.177 57.2896C144.871 57.023 144.477 56.8896 143.997 56.8896C143.584 56.8896 143.251 57.003 142.997 57.2296C142.744 57.443 142.617 57.7563 142.617 58.1696C142.617 58.623 142.831 58.9763 143.257 59.2296C143.684 59.483 144.351 59.7563 145.257 60.0496C146.164 60.3563 146.897 60.6496 147.457 60.9296C148.031 61.2096 148.524 61.6163 148.937 62.1496C149.351 62.683 149.557 63.3696 149.557 64.2096C149.557 65.0096 149.351 65.7363 148.937 66.3896C148.537 67.043 147.951 67.563 147.177 67.9496C146.404 68.3363 145.491 68.5296 144.437 68.5296ZM157.882 65.4896V68.3896H156.142C154.902 68.3896 153.935 68.0896 153.242 67.4896C152.549 66.8763 152.202 65.883 152.202 64.5096V60.0696H150.842V57.2296H152.202V54.5096H155.622V57.2296H157.862V60.0696H155.622V64.5496C155.622 64.883 155.702 65.123 155.862 65.2696C156.022 65.4163 156.289 65.4896 156.662 65.4896H157.882ZM164.867 68.5496C163.774 68.5496 162.787 68.3163 161.907 67.8496C161.04 67.383 160.354 66.7163 159.847 65.8496C159.354 64.983 159.107 63.9696 159.107 62.8096C159.107 61.663 159.36 60.6563 159.867 59.7896C160.374 58.9096 161.067 58.2363 161.947 57.7696C162.827 57.303 163.814 57.0696 164.907 57.0696C166 57.0696 166.987 57.303 167.867 57.7696C168.747 58.2363 169.44 58.9096 169.947 59.7896C170.454 60.6563 170.707 61.663 170.707 62.8096C170.707 63.9563 170.447 64.9696 169.927 65.8496C169.42 66.7163 168.72 67.383 167.827 67.8496C166.947 68.3163 165.96 68.5496 164.867 68.5496ZM164.867 65.5896C165.52 65.5896 166.074 65.3496 166.527 64.8696C166.994 64.3896 167.227 63.703 167.227 62.8096C167.227 61.9163 167 61.2296 166.547 60.7496C166.107 60.2696 165.56 60.0296 164.907 60.0296C164.24 60.0296 163.687 60.2696 163.247 60.7496C162.807 61.2163 162.587 61.903 162.587 62.8096C162.587 63.703 162.8 64.3896 163.227 64.8696C163.667 65.3496 164.214 65.5896 164.867 65.5896ZM175.941 59.0896C176.341 58.4763 176.841 57.9963 177.441 57.6496C178.041 57.2896 178.708 57.1096 179.441 57.1096V60.7296H178.501C177.648 60.7296 177.008 60.9163 176.581 61.2896C176.155 61.6496 175.941 62.2896 175.941 63.2096V68.3896H172.521V57.2296H175.941V59.0896ZM191.596 62.6296C191.596 62.9496 191.576 63.283 191.536 63.6296H183.796C183.849 64.323 184.069 64.8563 184.456 65.2296C184.856 65.5896 185.343 65.7696 185.916 65.7696C186.769 65.7696 187.363 65.4096 187.696 64.6896H191.336C191.149 65.423 190.809 66.083 190.316 66.6696C189.836 67.2563 189.229 67.7163 188.496 68.0496C187.763 68.383 186.943 68.5496 186.036 68.5496C184.943 68.5496 183.969 68.3163 183.116 67.8496C182.263 67.383 181.596 66.7163 181.116 65.8496C180.636 64.983 180.396 63.9696 180.396 62.8096C180.396 61.6496 180.629 60.6363 181.096 59.7696C181.576 58.903 182.243 58.2363 183.096 57.7696C183.949 57.303 184.929 57.0696 186.036 57.0696C187.116 57.0696 188.076 57.2963 188.916 57.7496C189.756 58.203 190.409 58.8496 190.876 59.6896C191.356 60.5296 191.596 61.5096 191.596 62.6296ZM188.096 61.7296C188.096 61.143 187.896 60.6763 187.496 60.3296C187.096 59.983 186.596 59.8096 185.996 59.8096C185.423 59.8096 184.936 59.9763 184.536 60.3096C184.149 60.643 183.909 61.1163 183.816 61.7296H188.096Z" fill="white"/>
<g clip-path="url(#clip0_8960_4741)">
<path d="M51.7906 23.1725C51.8982 23.1725 52.0057 23.1725 52.1193 23.1725C52.383 26.4409 51.1394 28.883 49.628 30.6515C48.145 32.4077 46.1143 34.1111 42.8298 33.8526C42.6107 30.6311 43.8563 28.3701 45.3657 26.6057C46.7655 24.9614 49.3318 23.4982 51.7906 23.1725Z" fill="white"/>
<path d="M61.7335 57.1909C61.7335 57.2234 61.7335 57.2519 61.7335 57.2825C60.8105 60.0868 59.4938 62.4902 57.8871 64.7207C56.4203 66.7456 54.6229 69.4705 51.4134 69.4705C48.6402 69.4705 46.7981 67.6817 43.9559 67.6329C40.9493 67.584 39.2959 69.1286 36.547 69.5173C36.2326 69.5173 35.9181 69.5173 35.6097 69.5173C33.5912 69.2243 31.9621 67.6207 30.7753 66.1757C27.2758 61.9062 24.5715 56.3911 24.0684 49.3334C24.0684 48.6415 24.0684 47.9516 24.0684 47.2597C24.2814 42.2086 26.728 38.1018 29.98 36.1115C31.6963 35.0533 34.0557 34.1518 36.6829 34.5547C37.8089 34.7297 38.9591 35.1164 39.9674 35.499C40.9229 35.8673 42.1179 36.5206 43.2499 36.486C44.0167 36.4636 44.7795 36.0627 45.5525 35.7798C47.8165 34.9597 50.036 34.0195 52.9614 34.4611C56.4771 34.9943 58.9725 36.5613 60.5143 38.979C57.5402 40.8777 55.1889 43.739 55.5906 48.6252C55.9476 53.0637 58.52 55.6605 61.7335 57.1909Z" fill="white"/>
</g>
<defs>
<clipPath id="clip0_8960_4741">
<rect width="46.2" height="46.3448" fill="white" transform="translate(19.7998 23.1725)"/>
</clipPath>
</defs>
</svg>
