<svg id="regular" enable-background="new 0 0 24 24" height="30" viewBox="0 0 24 24" width="30" xmlns="http://www.w3.org/2000/svg"><path d="m16.363 13.755-2.541-.389-1.144-2.436c-.246-.526-1.111-.526-1.357 0l-1.144 2.436-2.541.389c-.278.042-.509.236-.598.503-.09.267-.022.561.174.762l1.861 1.907-.441 2.702c-.046.283.073.568.309.734.234.165.544.182.795.043l2.264-1.251 2.264 1.251c.113.063.238.094.363.094.151 0 .303-.046.432-.137.235-.166.354-.451.309-.734l-.441-2.702 1.861-1.907c.196-.201.264-.496.174-.762s-.32-.46-.599-.503zm-2.775 2.396c-.166.17-.241.41-.203.645l.253 1.551-1.274-.705c-.113-.062-.238-.094-.363-.094s-.25.031-.363.094l-1.274.705.253-1.551c.038-.235-.037-.474-.203-.645l-1.106-1.133 1.494-.229c.247-.038.459-.196.565-.422l.633-1.352.635 1.352c.274.581.881.394 2.06.651z"/><path d="m21.25 2h-2.25v-1.25c0-.414-.336-.75-.75-.75s-.75.336-.75.75v1.25h-11v-1.25c0-.414-.336-.75-.75-.75s-.75.336-.75.75v1.25h-2.25c-1.517 0-2.75 1.233-2.75 2.75v16.5c0 1.517 1.233 2.75 2.75 2.75h18.5c1.517 0 2.75-1.233 2.75-2.75v-16.5c0-1.517-1.233-2.75-2.75-2.75zm-18.5 1.5h2.25v.75c0 .414.336.75.75.75s.75-.336.75-.75v-.75h11v.75c0 .414.336.75.75.75s.75-.336.75-.75v-.75h2.25c.689 0 1.25.561 1.25 1.25v2.25h-21v-2.25c0-.689.561-1.25 1.25-1.25zm18.5 19h-18.5c-.689 0-1.25-.561-1.25-1.25v-12.75h21v12.75c0 .689-.561 1.25-1.25 1.25z"/></svg>