<svg width="50" height="51" viewBox="0 0 50 51" fill="none" xmlns="http://www.w3.org/2000/svg">
<path d="M0.0100335 50.8943L3.39003 38.4743C1.16288 34.6564 -0.00722658 30.3143 3.35806e-05 25.8943C3.35806e-05 12.0868 11.1925 0.894287 25 0.894287C38.8075 0.894287 50 12.0868 50 25.8943C50 39.7018 38.8075 50.8943 25 50.8943C20.582 50.9014 16.2417 49.7322 12.425 47.5068L0.0100335 50.8943ZM15.9775 14.1643C15.6547 14.1843 15.3392 14.2694 15.05 14.4143C14.7788 14.5679 14.5313 14.7598 14.315 14.9843C14.015 15.2668 13.845 15.5118 13.6625 15.7493C12.7386 16.9518 12.2416 18.4278 12.25 19.9443C12.255 21.1693 12.575 22.3618 13.075 23.4768C14.0975 25.7318 15.78 28.1193 18.0025 30.3318C18.5375 30.8643 19.06 31.3993 19.6225 31.8968C22.381 34.3254 25.6682 36.0769 29.2225 37.0118L30.645 37.2293C31.1075 37.2543 31.57 37.2193 32.035 37.1968C32.7631 37.1592 33.4741 36.9621 34.1175 36.6193C34.5325 36.3993 34.7275 36.2893 35.075 36.0693C35.075 36.0693 35.1825 35.9993 35.3875 35.8443C35.725 35.5943 35.9325 35.4168 36.2125 35.1243C36.42 34.9093 36.6 34.6568 36.7375 34.3693C36.9325 33.9618 37.1275 33.1843 37.2075 32.5368C37.2675 32.0418 37.25 31.7718 37.2425 31.6043C37.2325 31.3368 37.01 31.0593 36.7675 30.9418L35.3125 30.2893C35.3125 30.2893 33.1375 29.3418 31.81 28.7368C31.6701 28.6758 31.5201 28.641 31.3675 28.6343C31.1965 28.6167 31.0237 28.636 30.8607 28.6907C30.6977 28.7455 30.5483 28.8345 30.4225 28.9518V28.9468C30.41 28.9468 30.2425 29.0893 28.435 31.2793C28.3313 31.4187 28.1884 31.524 28.0245 31.5819C27.8607 31.6398 27.6833 31.6476 27.515 31.6043C27.3521 31.5607 27.1926 31.5056 27.0375 31.4393C26.7275 31.3093 26.62 31.2593 26.4075 31.1668L26.395 31.1618C24.9648 30.5374 23.6406 29.6939 22.47 28.6618C22.155 28.3868 21.8625 28.0868 21.5625 27.7968C20.579 26.8549 19.7218 25.7893 19.0125 24.6268L18.865 24.3893C18.7591 24.2297 18.6734 24.0575 18.61 23.8768C18.515 23.5093 18.7625 23.2143 18.7625 23.2143C18.7625 23.2143 19.37 22.5493 19.6525 22.1893C19.8878 21.8901 20.1072 21.5788 20.31 21.2568C20.605 20.7818 20.6975 20.2943 20.5425 19.9168C19.8425 18.2068 19.1175 16.5043 18.3725 14.8143C18.225 14.4793 17.7875 14.2393 17.39 14.1918C17.255 14.1768 17.12 14.1618 16.985 14.1518C16.6493 14.1351 16.3129 14.1409 15.9775 14.1643Z" fill="#BA5CB8"/>
</svg>
