<svg fill="none" height="33" viewBox="0 0 120 120" width="32" xmlns="http://www.w3.org/2000/svg">
    <path d="m81 110h-62c-2.7614 0-5-2.239-5-5v-45-45c0-2.7614 2.2386-5 5-5h62c2.7614 0 5 2.2386 5 5v90c0 2.761-2.2386 5-5 5z" fill="white" />
    <path d="m86 36h-72v-13-8c0-2.7614 2.2386-5 5-5h62c2.7614 0 5 2.2386 5 5z" fill="#D2EEE4" />
    <g fill="#328568">
        <path d="m28 51c0-2.2091 1.7909-4 4-4h34c2.2091 0 4 1.7909 4 4s-1.7909 4-4 4h-34c-2.2091 0-4-1.7909-4-4z" />
        <path d="m28 68c0-2.2091 1.7909-4 4-4h20c2.2091 0 4 1.7909 4 4s-1.7909 4-4 4h-20c-2.2091 0-4-1.7909-4-4z" />
        <path d="m32 82c-2.2091 0-4 1.7909-4 4s1.7909 4 4 4h16c2.2091 0 4-1.7909 4-4s-1.7909-4-4-4z" />
    </g>
    <path clip-rule="evenodd" d="m103.089 48.5355c-1.952-1.9526-5.1181-1.9526-7.0707 0l-25.4503 25.4503c-.4233.4234-.7549.9038-.9947 1.4165-.0614.1312-.1312.2584-.209.3806-.147.2309-.2778.4783-.39.7415l-4.6199 10.8382c-1.413 3.3147 1.9334 6.661 5.2481 5.2481l10.8382-4.6199c.1463-.0623.2877-.1304.4241-.2039.131-.0706.2667-.1322.406-.1847.6454-.2431 1.2506-.6243 1.77-1.1437l12.7251-12.7251 12.7251-12.7251c1.953-1.9527 1.953-5.1185 0-7.0711z" fill="#A6DDCA" fill-rule="evenodd" />
    <path d="m96.0183 48.5355c1.9526-1.9526 5.1187-1.9526 7.0707 0l5.402 5.4017c1.953 1.9526 1.953 5.1184 0 7.0711l-.693.6927-4.228 4.2283-12.4727-12.4727z" fill="#389474" />
</svg>