<?xml version="1.0" standalone="no"?>
<!DOCTYPE svg PUBLIC "-//W3C//DTD SVG 20010904//EN"
 "http://www.w3.org/TR/2001/REC-SVG-20010904/DTD/svg10.dtd">
<svg version="1.0" xmlns="http://www.w3.org/2000/svg"
 width="79.000000pt" height="80.000000pt" viewBox="0 0 79.000000 80.000000"
 preserveAspectRatio="xMidYMid meet">

<g transform="translate(0.000000,80.000000) scale(0.100000,-0.100000)"
fill="#000000" stroke="none">
<path d="M50 380 l0 -340 135 0 135 0 0 125 0 125 -40 0 -40 0 0 60 0 60 40 0
40 0 0 55 c0 63 17 111 50 140 16 15 40 21 96 23 l75 4 -3 -53 -3 -54 -45 -5
-45 -5 -3 -52 -3 -53 50 0 49 0 -8 -32 c-4 -18 -11 -45 -14 -61 -5 -23 -11
-27 -41 -27 l-35 0 0 -125 0 -125 145 0 145 0 0 340 0 340 -340 0 -340 0 0
-340z"/>
</g>
</svg>
