<?xml version="1.0" standalone="no"?>
<!DOCTYPE svg PUBLIC "-//W3C//DTD SVG 20010904//EN"
 "http://www.w3.org/TR/2001/REC-SVG-20010904/DTD/svg10.dtd">
<svg version="1.0" xmlns="http://www.w3.org/2000/svg"
 width="79.000000pt" height="80.000000pt" viewBox="0 0 79.000000 80.000000"
 preserveAspectRatio="xMidYMid meet">

<g transform="translate(0.000000,80.000000) scale(0.100000,-0.100000)"
fill="#000000" stroke="none">
<path d="M392 700 c-43 -26 -62 -74 -62 -155 l0 -65 -50 0 -50 0 0 -65 0 -65
50 0 50 0 0 -135 0 -135 65 0 65 0 0 135 0 135 39 0 c38 0 39 1 50 48 7 26 14
55 17 65 5 15 -2 17 -50 17 l-56 0 0 54 c0 62 11 75 70 83 l40 6 0 48 0 49
-72 0 c-56 0 -81 -5 -106 -20z"/>
</g>
</svg>
