<?xml version="1.0" standalone="no"?>
<!DOCTYPE svg PUBLIC "-//W3C//DTD SVG 20010904//EN"
 "http://www.w3.org/TR/2001/REC-SVG-20010904/DTD/svg10.dtd">
<svg version="1.0" xmlns="http://www.w3.org/2000/svg"
 width="640.000000pt" height="427.000000pt" viewBox="0 0 640.000000 427.000000"
 preserveAspectRatio="xMidYMid meet">

<g transform="translate(0.000000,427.000000) scale(0.100000,-0.100000)"
fill="#000000" stroke="none">
<path d="M1 4203 c1 -38 4 -58 6 -45 2 12 9 22 14 22 7 0 10 -40 8 -106 -2
-83 0 -107 12 -115 8 -5 9 -9 3 -9 -7 0 -6 -23 2 -72 7 -40 13 -93 14 -118 0
-25 4 -51 9 -58 13 -21 21 21 21 109 0 102 11 180 21 154 4 -11 8 -44 8 -73 1
-29 5 -61 10 -71 5 -9 12 -42 15 -72 2 -30 6 -54 7 -54 1 0 3 -71 5 -159 3
-170 14 -227 14 -80 2 196 10 358 20 368 7 7 10 6 10 -2 0 -7 6 -12 14 -12 8
0 16 -5 18 -12 7 -19 -3 -58 -12 -53 -5 3 -11 1 -15 -4 -3 -6 4 -15 15 -21 17
-9 21 -20 20 -48 -3 -60 -1 -82 9 -82 5 0 12 61 16 135 4 77 11 132 16 129 5
-3 7 -9 4 -13 -2 -5 2 -32 11 -61 8 -28 13 -58 11 -64 -3 -7 0 -37 7 -67 7
-30 12 -120 12 -201 -1 -95 3 -147 9 -145 6 2 10 55 11 128 1 69 4 147 9 175
7 48 7 49 18 21 7 -16 17 -28 22 -28 6 1 11 -46 13 -117 1 -64 6 -142 10 -172
l7 -55 7 40 c4 22 8 96 9 165 2 166 6 189 30 183 13 -4 19 0 19 11 0 10 5 14
10 11 14 -8 13 -75 -1 -75 -6 0 -13 9 -16 20 -10 39 -23 19 -22 -35 1 -30 6
-55 10 -55 5 0 9 9 9 21 0 28 23 19 31 -12 4 -17 6 -9 7 24 0 47 9 116 18 150
5 15 7 15 20 2 8 -8 21 -12 29 -9 12 5 15 -2 15 -30 0 -20 5 -36 10 -36 6 0
10 13 10 29 0 37 16 49 24 18 6 -21 7 -21 21 -3 13 18 15 18 21 2 11 -29 24 3
24 62 0 28 3 52 8 52 12 0 31 -49 21 -56 -14 -8 1 -26 18 -20 8 3 11 1 8 -5
-4 -5 -1 -16 5 -24 15 -18 4 -55 -17 -55 -13 0 -14 -6 -7 -32 4 -18 8 -55 9
-83 1 -27 4 -58 8 -68 4 -9 9 -24 12 -33 13 -40 18 6 18 163 0 180 5 243 18
243 5 0 9 -7 9 -15 0 -9 7 -18 15 -21 8 -4 15 -10 15 -16 0 -5 -4 -6 -10 -3
-5 3 -11 -4 -11 -17 -2 -36 2 -50 17 -65 9 -10 14 -37 14 -79 0 -36 4 -63 9
-60 7 5 21 220 24 369 1 60 17 62 17 2 0 -31 5 -47 17 -53 14 -8 17 -31 20
-153 2 -79 7 -147 12 -152 4 -4 8 23 7 60 0 120 16 343 25 343 5 0 9 -19 9
-41 0 -34 2 -39 14 -30 12 10 15 -2 21 -69 4 -44 11 -80 15 -80 5 0 11 26 15
58 9 83 12 92 15 45 5 -80 14 -93 24 -33 9 55 26 41 26 -21 0 -67 16 -62 22 6
5 62 8 68 32 59 13 -5 14 -9 5 -20 -9 -11 -8 -14 4 -14 9 0 14 -6 12 -12 -3
-7 1 -33 8 -58 l13 -45 13 39 c7 21 11 58 9 81 -3 24 -2 49 3 57 6 9 9 6 10
-12 1 -14 1 -29 0 -34 -5 -25 12 -85 21 -79 6 3 8 1 4 -5 -3 -6 2 -18 11 -28
13 -13 14 -19 5 -22 -7 -2 -10 -8 -7 -12 9 -14 -29 -30 -58 -24 -21 3 -25 1
-21 -11 4 -8 -1 -17 -9 -21 -10 -3 -13 -12 -10 -22 5 -12 2 -14 -12 -9 -15 6
-16 5 -6 -7 8 -10 9 -16 1 -21 -5 -3 -10 -2 -10 4 0 6 -7 8 -15 5 -11 -5 -14
-1 -9 12 4 14 3 15 -4 6 -8 -11 -57 -42 -68 -42 -2 0 -1 7 2 15 4 8 1 15 -5
15 -13 0 -63 -30 -72 -43 -10 -13 2 -48 17 -54 8 -3 14 -13 14 -22 0 -12 -2
-13 -8 -3 -7 9 -16 6 -37 -15 -19 -18 -26 -22 -22 -10 3 9 2 17 -3 17 -4 0
-14 -16 -20 -35 -6 -19 -15 -35 -20 -35 -5 0 -16 -18 -26 -40 -10 -22 -23 -40
-28 -40 -6 0 -4 -5 4 -10 13 -8 11 -11 -7 -16 -33 -9 -23 -77 17 -119 16 -17
30 -38 30 -47 0 -9 6 -18 13 -21 20 -8 -7 -42 -37 -45 -20 -3 -26 -9 -26 -27
0 -13 4 -26 9 -29 5 -4 4 -23 -2 -47 -8 -34 -7 -44 4 -53 17 -14 53 -65 62
-89 4 -9 2 -28 -4 -41 -7 -15 -8 -39 -2 -67 8 -41 11 -44 56 -59 45 -14 47
-17 47 -52 0 -28 5 -38 20 -43 15 -5 20 -15 20 -40 0 -24 7 -38 26 -52 l27
-20 -28 -41 c-17 -25 -28 -57 -29 -80 0 -22 -5 -39 -11 -38 -5 0 -44 -16 -85
-37 -62 -30 -99 -40 -215 -57 -77 -11 -162 -20 -190 -20 -27 0 -60 -3 -73 -6
-20 -6 -19 -9 22 -34 46 -29 52 -38 246 -321 217 -317 357 -419 576 -419 86 0
235 37 298 74 56 33 153 138 160 173 14 79 -6 -156 -28 -327 -3 -19 -5 -51 -5
-71 -1 -31 -8 -42 -56 -80 -63 -50 -115 -121 -143 -195 -10 -27 -49 -91 -85
-141 -37 -50 -78 -116 -92 -147 -14 -31 -30 -56 -35 -56 -6 0 -9 -4 -6 -9 3
-5 -1 -14 -9 -21 -8 -7 -15 -18 -15 -24 0 -7 -15 -26 -32 -44 -27 -25 -45 -33
-103 -41 -38 -5 -124 -17 -190 -27 -66 -9 -127 -20 -135 -24 -8 -5 -38 -11
-65 -14 -28 -3 -68 -9 -90 -13 -22 -4 -57 -6 -77 -6 -21 1 -35 -3 -32 -8 3 -5
-6 -5 -21 1 -14 5 -36 9 -48 9 -57 -2 -181 12 -200 23 -21 11 -21 11 -2 18 16
6 14 8 -13 13 -28 6 -32 10 -32 40 0 18 -7 42 -15 53 -8 12 -13 23 -11 25 2 2
7 38 10 79 4 41 11 76 16 78 4 2 5 16 0 32 -4 16 -6 30 -4 33 2 2 9 28 14 58
6 30 13 68 17 84 3 17 7 39 8 50 3 31 16 65 25 65 4 0 10 9 13 20 3 11 0 20
-5 20 -6 0 -4 8 4 18 17 20 32 53 29 66 -1 4 10 23 24 42 45 60 114 215 125
284 21 139 7 299 -39 421 -37 98 -135 189 -221 204 -41 7 -168 -23 -229 -55
l-41 -20 0 -1000 0 -999 27 12 c20 9 27 9 30 0 3 -7 13 -9 32 -3 16 4 34 4 41
0 8 -5 31 -6 52 -4 21 3 38 1 38 -4 0 -11 88 -13 95 -2 2 4 22 5 42 1 21 -3
58 -5 83 -3 25 2 61 4 80 5 19 1 42 7 50 12 8 6 33 11 55 11 41 2 149 37 140
46 -3 3 8 4 24 3 17 -1 30 1 29 4 -2 19 3 24 11 12 7 -11 14 -9 33 12 17 18
28 23 39 16 18 -11 32 -12 25 0 -8 12 21 34 34 26 5 -3 10 -3 10 2 0 4 14 9
32 10 17 1 35 8 40 15 4 7 8 9 8 5 0 -5 14 2 31 14 24 17 33 19 39 9 4 -7 9
-8 11 -2 4 9 42 16 80 13 8 -1 24 -7 34 -15 16 -12 17 -16 6 -30 -16 -19 -12
-20 24 -6 14 5 24 14 21 19 -3 5 18 12 46 16 35 5 58 14 66 26 7 11 17 17 22
14 11 -7 20 20 20 61 0 34 22 48 34 22 3 -7 3 -2 0 10 -4 17 1 30 15 43 12 11
19 24 16 30 -4 5 -1 9 5 9 7 0 9 8 5 21 -5 15 -4 19 5 14 7 -4 23 4 39 21 45
48 123 89 163 86 16 -1 45 5 65 14 50 21 104 34 97 23 -13 -21 54 -3 84 23 37
31 40 32 77 18 23 -9 28 -7 32 10 6 23 8 23 32 11 15 -9 17 -6 13 20 -4 24 -1
29 17 29 20 0 29 14 13 23 -4 3 -30 -1 -57 -8 -43 -11 -51 -10 -58 2 -18 30
67 70 93 44 13 -13 15 -13 18 2 2 9 12 17 22 17 15 0 17 -8 16 -65 0 -35 -7
-70 -13 -76 -10 -10 -9 -15 3 -24 9 -6 17 -25 18 -41 2 -16 6 -36 9 -44 4 -8
8 -49 9 -90 l3 -75 29 43 29 43 -22 23 c-18 20 -20 27 -10 55 8 24 8 43 0 74
-7 26 -9 86 -6 157 3 63 6 126 7 140 1 48 20 130 28 125 4 -2 10 9 13 25 13
64 70 129 120 137 33 6 97 43 111 66 32 47 45 104 34 139 -13 41 -16 45 -55
98 -46 61 -44 94 7 119 l40 19 1 -31 c0 -26 4 -21 18 28 13 44 23 62 42 70 14
5 40 21 58 34 30 21 45 25 113 24 54 0 76 3 69 10 -10 10 -102 11 -134 1 -20
-6 -20 -7 -1 94 6 30 24 55 24 33 0 -6 6 -11 14 -11 8 0 24 -12 35 -26 22 -29
28 -25 11 7 -6 10 -7 19 -3 19 13 0 37 -42 45 -75 4 -21 6 -15 5 23 -2 37 -7
58 -19 69 -10 9 -18 21 -18 28 0 15 52 13 58 -2 2 -7 13 -13 23 -13 11 0 17 5
14 10 -3 6 2 10 13 10 10 0 22 3 26 7 10 11 37 12 30 2 -3 -5 7 -9 21 -9 14 0
24 -4 21 -8 -3 -5 1 -9 9 -9 8 0 14 3 13 6 -2 25 8 28 80 29 50 1 105 10 157
25 l80 24 19 -26 c17 -24 17 -19 2 19 -4 10 7 23 38 42 l44 26 11 -24 c6 -13
15 -24 21 -24 22 0 8 -29 -22 -49 -35 -22 -23 -27 27 -12 31 8 75 -1 75 -17 0
-5 15 -25 33 -44 17 -19 42 -54 54 -79 12 -24 44 -64 70 -89 36 -34 40 -36 14
-8 -19 21 -32 41 -28 44 4 4 16 -4 27 -17 35 -41 81 -109 74 -109 -3 0 0 -7 7
-16 8 -9 19 -43 26 -75 16 -80 34 -113 61 -117 17 -3 30 -16 43 -45 10 -23 19
-36 19 -29 0 7 -5 23 -12 35 -11 21 -10 21 13 6 13 -9 31 -29 39 -46 9 -17 21
-28 29 -25 10 3 12 -1 8 -12 -4 -9 -2 -16 3 -16 6 0 10 -11 10 -24 0 -14 5
-28 12 -32 7 -5 8 -2 3 7 -6 11 -5 11 5 2 16 -15 3 -36 -20 -30 -10 2 -22 -4
-30 -16 -10 -17 -10 -23 6 -34 17 -12 17 -15 1 -50 l-17 -38 21 28 c11 15 29
32 39 37 17 9 18 5 15 -73 -2 -52 0 -71 5 -52 4 17 8 44 9 62 0 17 7 34 13 36
10 4 10 7 1 14 -13 9 -6 53 8 53 5 0 9 -8 10 -17 1 -10 2 -27 3 -38 0 -11 9
-21 20 -23 11 -3 16 0 11 7 -3 6 -12 8 -18 5 -8 -5 -8 -3 0 6 11 12 16 10 33
-8 12 -12 25 -22 30 -22 16 0 12 -345 -5 -444 -10 -55 -36 -137 -72 -224 -30
-75 -70 -180 -88 -232 -18 -52 -45 -125 -59 -162 l-26 -68 170 0 c136 0 170 3
170 14 0 12 -13 59 -27 96 -4 8 -5 19 -4 24 1 4 -2 13 -7 20 -5 6 -10 35 -11
65 -2 30 -7 64 -11 77 -10 24 5 195 19 229 18 44 31 93 31 118 0 15 5 27 10
27 6 0 10 7 10 16 0 8 5 25 12 37 12 22 14 28 16 60 1 9 9 17 18 17 11 0 14 5
10 16 -4 11 1 18 14 21 11 3 20 10 20 15 0 5 11 21 25 36 42 46 68 111 62 157
-8 53 1 85 19 78 8 -3 14 0 14 7 0 6 -9 14 -20 17 -20 5 -29 43 -10 43 6 0 10
5 10 10 0 6 -7 10 -15 10 -9 0 -15 9 -15 23 0 53 -4 66 -16 56 -9 -8 -11 -5
-7 12 5 17 3 20 -8 14 -11 -6 -12 -5 -1 6 14 16 16 33 2 24 -5 -3 -10 -1 -10
4 0 6 6 11 13 11 7 1 5 6 -6 14 -11 9 -15 20 -10 31 5 13 3 16 -6 10 -7 -4 -5
5 5 20 15 23 15 28 3 37 -12 8 -12 9 1 5 17 -4 39 20 40 42 0 11 -4 10 -14 -4
-12 -17 -13 -17 -18 7 -4 19 -1 25 9 21 7 -3 13 0 13 6 0 6 -4 11 -10 11 -12
0 -14 47 -2 54 19 11 35 -13 29 -43 -8 -38 0 -41 13 -5 8 21 13 24 24 15 12
-10 13 -8 9 8 -3 12 -9 21 -14 21 -5 0 -9 5 -9 12 0 6 14 -3 31 -20 26 -27 29
-35 19 -47 -7 -9 -10 -18 -6 -22 3 -3 6 -1 6 7 0 10 3 10 16 -1 9 -7 13 -21
10 -33 -3 -11 4 -40 14 -64 16 -35 19 -60 16 -133 -3 -49 0 -91 4 -94 5 -3 4
-19 -2 -35 -5 -17 -14 -28 -19 -25 -4 3 -2 -7 6 -22 10 -18 11 -31 4 -39 -6
-7 -6 -15 -1 -18 15 -9 0 -58 -19 -63 -12 -3 -19 -14 -19 -28 0 -18 -4 -21
-25 -17 -15 2 -25 0 -25 -7 0 -6 9 -11 21 -11 15 0 19 -5 15 -15 -3 -8 -1 -15
3 -15 5 0 11 -21 14 -47 3 -27 12 -74 20 -105 11 -42 12 -58 3 -61 -8 -3 -8
-8 1 -19 7 -8 10 -18 6 -22 -4 -4 2 -9 14 -12 12 -3 24 -17 27 -30 4 -13 11
-24 16 -24 6 0 10 -8 10 -19 0 -10 9 -30 20 -44 11 -14 20 -30 20 -36 0 -7 8
-24 17 -38 10 -15 16 -37 15 -50 -2 -13 2 -23 8 -23 6 0 8 -5 5 -10 -4 -6 -3
-16 3 -23 5 -7 8 -33 8 -59 -1 -27 2 -48 7 -48 5 0 7 -7 3 -15 -3 -8 -1 -26 4
-39 5 -15 5 -27 -2 -34 -6 -6 -7 -16 -2 -23 10 -17 12 -59 2 -59 -3 0 -8 -15
-10 -32 -2 -20 -8 -32 -15 -31 -7 2 -13 -2 -13 -7 0 -6 37 -10 90 -10 l89 0
-6 83 c-4 53 -11 85 -20 90 -10 6 -10 13 -3 27 6 11 6 21 1 24 -5 4 -12 0 -15
-6 -3 -7 -4 -1 -2 14 2 16 0 28 -4 28 -4 0 -10 24 -14 53 -7 54 -29 176 -47
262 -19 94 -29 206 -18 218 5 7 16 21 24 32 7 11 17 16 21 12 5 -4 4 -11 -2
-15 -6 -4 -15 -17 -19 -30 -6 -21 -5 -22 13 -11 11 7 18 19 15 26 -3 7 0 13 7
13 8 0 11 -9 8 -25 -6 -29 7 -43 16 -19 3 8 1 24 -4 35 -8 13 -7 19 0 19 6 0
13 -7 16 -15 4 -8 11 -15 16 -15 6 0 8 6 5 14 -3 7 0 19 6 25 6 6 7 11 2 11
-5 0 2 11 15 25 14 15 18 25 10 25 -17 0 -39 -30 -40 -52 0 -10 -5 -18 -11
-18 -13 0 -1 42 15 52 18 12 -1 20 -22 9 -16 -8 -21 -7 -26 4 -3 8 -10 15 -16
15 -6 0 -8 -5 -5 -11 6 -9 -44 -94 -51 -86 -7 6 9 47 16 42 4 -3 11 6 14 19 3
13 9 31 12 40 3 9 2 16 -4 16 -6 0 -15 -12 -20 -27 -8 -22 -11 -24 -11 -8 -1
19 42 75 56 75 4 0 2 -5 -5 -12 -17 -17 -15 -28 5 -21 11 5 14 3 8 -6 -6 -10
-2 -11 16 -7 23 7 23 7 5 -8 -11 -9 -15 -16 -9 -16 6 0 23 10 39 22 23 18 27
19 21 5 -7 -19 3 -23 20 -6 23 23 25 -13 2 -37 -12 -13 -19 -27 -15 -31 4 -4
12 -1 17 7 8 11 9 8 6 -13 l-4 -28 28 27 c16 15 29 23 29 17 0 -6 -7 -14 -16
-17 -11 -4 -14 -13 -10 -31 4 -14 2 -25 -4 -25 -5 0 -10 5 -10 10 0 6 -4 10
-10 10 -5 0 -7 -7 -4 -15 4 -8 13 -15 21 -15 8 0 11 -4 8 -10 -3 -5 -15 -10
-26 -10 -11 0 -18 3 -16 7 3 5 -1 14 -9 21 -17 16 -18 4 -1 -23 7 -11 22 -21
35 -22 21 -3 24 0 26 30 1 6 6 15 11 19 6 5 5 12 -5 17 -16 11 -7 27 9 17 6
-4 10 -22 9 -41 -1 -19 2 -38 5 -42 4 -3 7 6 7 20 0 34 26 48 79 42 23 -2 40
-1 37 3 -2 4 2 13 10 19 21 20 29 -5 8 -28 -14 -16 -15 -19 -2 -14 12 5 15 0
13 -20 -3 -23 -1 -24 12 -13 14 12 15 11 5 -9 -10 -19 -8 -24 13 -41 16 -13
21 -22 14 -29 -8 -8 -7 -13 2 -18 8 -5 10 -4 5 3 -4 7 -2 12 3 12 6 0 11 7 11
16 0 21 20 13 39 -16 15 -23 15 -24 -4 -16 -14 5 -17 4 -9 -4 8 -7 -3 -24 -38
-59 -48 -48 -61 -81 -33 -81 8 0 12 6 10 13 -6 17 12 38 67 75 53 37 58 38 58
16 0 -11 5 -14 16 -10 28 11 36 -5 12 -25 -19 -17 -20 -22 -8 -29 11 -7 16 -5
18 5 2 9 7 13 11 11 4 -3 12 4 19 15 7 11 8 19 2 19 -5 0 -10 6 -10 14 0 8 -9
18 -20 21 -11 3 -20 10 -20 15 0 12 60 -22 61 -35 0 -5 4 -1 9 10 8 18 9 17 9
-7 1 -31 21 -49 21 -19 0 14 6 21 20 21 11 0 20 5 20 10 0 6 5 10 10 10 21 0
9 -20 -15 -26 -26 -6 -35 -34 -12 -34 13 0 57 36 57 46 0 2 -5 13 -12 23 -15
25 -5 46 31 62 35 16 36 32 1 37 -21 3 -22 2 -11 -12 7 -9 9 -16 3 -16 -13 0
-23 26 -16 44 3 9 -3 17 -16 21 -12 4 -19 9 -17 12 3 2 14 0 25 -6 15 -8 22
-8 26 2 3 6 4 4 3 -5 -1 -9 2 -16 8 -15 5 1 9 5 8 10 -4 10 15 9 21 -2 4 -5 1
-11 -6 -13 -9 -3 -8 -10 5 -23 17 -17 20 -17 35 -1 15 15 15 16 -1 16 -9 0
-17 4 -17 10 0 6 9 6 26 0 32 -12 34 -12 34 0 0 6 -11 15 -25 22 -13 6 -22 15
-19 19 3 5 -2 9 -10 9 -8 0 -20 9 -26 19 -13 25 -13 31 0 31 6 0 10 -9 10 -20
0 -11 5 -20 12 -20 6 0 27 -12 45 -26 30 -23 34 -24 32 -8 -4 27 10 74 21 74
6 0 10 -8 10 -18 0 -26 28 -62 48 -62 15 1 15 2 -1 15 -18 13 -18 14 3 25 26
14 73 5 67 -13 -2 -7 -10 -11 -17 -9 -11 3 -11 0 0 -12 16 -21 30 -20 30 0 0
13 3 14 15 4 8 -7 12 -17 8 -23 -3 -5 -1 -7 4 -4 6 4 14 0 17 -9 9 -24 7 -36
-5 -28 -7 4 -10 -1 -7 -12 2 -13 12 -19 30 -19 15 0 28 -4 27 -10 0 -5 -13
-10 -29 -9 -19 0 -30 -4 -30 -13 0 -7 5 -13 10 -13 6 0 10 5 10 11 0 5 4 8 10
4 5 -3 6 -13 3 -23 -5 -14 -3 -14 9 2 8 10 20 16 26 12 5 -3 12 -1 14 4 2 7
11 5 23 -5 20 -15 20 -15 1 -30 -14 -11 -23 -12 -33 -4 -8 7 -13 8 -13 1 0
-23 80 -22 80 2 0 6 7 3 14 -7 14 -17 15 -17 34 3 17 19 23 20 41 8 12 -7 24
-21 27 -30 5 -16 7 -16 26 1 11 11 18 25 16 32 -3 8 -9 7 -21 -5 -9 -10 -17
-13 -17 -7 0 6 -7 11 -15 11 -8 0 -15 5 -15 10 0 6 9 10 21 10 12 0 17 4 13
11 -4 6 -20 8 -40 4 -23 -4 -41 -1 -56 10 -22 14 -22 15 -2 15 11 0 25 5 31
11 8 8 18 6 37 -7 30 -19 52 -9 36 16 -7 10 -10 11 -10 3 0 -7 -7 -13 -16 -13
-11 0 -15 6 -11 20 3 11 1 22 -3 25 -11 7 -9 45 2 45 4 0 8 -6 8 -12 0 -7 7
-22 16 -33 14 -19 15 -19 20 3 4 12 11 22 16 22 10 0 -28 76 -49 98 -12 12
-17 35 -14 55 1 5 -3 6 -8 3 -5 -3 -14 8 -21 24 -8 20 -16 27 -24 21 -6 -5
-20 -5 -31 0 -16 6 -17 8 -3 8 52 2 1 67 -72 91 -48 16 -149 17 -159 2 -3 -5
-19 -8 -34 -7 -16 2 -26 1 -23 -2 10 -10 -46 -46 -74 -47 -15 -1 -26 -4 -24
-7 5 -8 -27 -21 -34 -15 -3 3 -6 22 -8 43 -2 27 3 43 17 56 10 10 19 14 19 10
0 -4 7 2 15 13 13 16 16 17 25 4 9 -12 10 -10 5 8 -3 12 -2 22 3 22 5 0 27 12
48 26 24 17 33 20 24 9 -14 -17 -13 -17 6 -7 21 11 40 62 23 62 -9 0 -30 70
-24 80 4 6 11 37 21 92 4 22 2 27 -10 22 -12 -4 -16 0 -16 16 0 11 4 19 9 16
5 -4 4 15 -3 41 -13 50 -11 77 6 67 5 -3 8 0 7 7 -2 8 1 29 5 47 5 20 4 38 -3
46 -6 7 -8 16 -4 19 3 4 1 7 -5 7 -16 0 -15 27 0 34 11 5 11 7 1 12 -17 7 -17
36 0 53 10 10 8 11 -8 5 -17 -6 -18 -5 -7 7 7 8 16 14 20 15 4 0 24 8 44 17
21 10 42 17 48 17 5 0 10 6 10 14 0 8 8 17 18 20 10 3 22 21 27 38 7 22 18 35
35 39 14 4 19 7 11 8 -11 1 -10 6 3 26 18 28 21 39 6 30 -6 -3 -10 -1 -10 5 0
7 8 9 19 5 14 -4 26 3 45 27 20 26 22 34 11 36 -9 2 -13 8 -10 13 4 5 1 9 -6
9 -6 0 -9 8 -6 20 3 11 1 20 -5 20 -6 0 -7 7 -4 16 4 9 0 24 -8 33 -19 20 -31
118 -17 135 6 7 8 22 5 34 -5 17 -11 20 -33 16 -22 -5 -28 -1 -38 25 -6 17
-20 34 -30 38 -23 8 -33 23 -33 49 0 27 -21 45 -62 53 -25 5 -34 13 -40 38 -9
36 -41 63 -66 57 -12 -3 -22 7 -32 29 -14 31 -14 36 3 63 21 34 17 85 -8 110
-9 9 -14 23 -11 31 4 8 -5 20 -22 30 -15 8 -34 30 -42 47 -11 22 -23 32 -44
34 -21 3 -25 6 -16 12 11 7 11 11 1 24 -7 8 -9 21 -5 28 4 7 4 10 -1 6 -13
-12 -67 25 -62 43 2 9 -4 21 -14 27 -10 7 -16 18 -13 25 3 8 -4 13 -17 14 -12
1 -26 8 -30 15 -5 7 -9 9 -9 4 0 -4 -9 2 -20 15 -16 20 -21 22 -29 9 -5 -8 -8
-17 -5 -21 2 -4 0 -10 -6 -14 -6 -4 -10 6 -10 24 0 42 -10 61 -36 72 -14 5
-24 17 -24 29 0 11 -4 20 -10 20 -5 0 -10 -9 -10 -21 0 -11 -4 -17 -10 -14 -5
3 -10 28 -10 54 0 55 -9 66 -61 76 -32 6 -35 10 -36 42 -1 44 -11 54 -57 56
-20 1 -36 7 -37 12 -14 110 -6 475 11 475 8 0 22 -130 20 -197 0 -24 4 -43 10
-43 5 0 10 15 11 33 l1 32 8 -33 c11 -45 17 -49 24 -13 19 100 18 97 27 76 4
-11 8 -45 8 -75 1 -30 6 -62 11 -70 7 -10 10 14 10 77 0 85 9 119 25 93 12
-19 27 2 20 29 -4 17 -3 23 4 16 16 -17 31 -195 31 -381 0 -98 3 -175 6 -171
6 5 11 129 13 319 1 49 4 87 9 87 21 -4 32 3 32 18 0 15 2 15 14 -2 10 -15 14
-65 14 -205 1 -168 6 -268 16 -277 2 -2 7 50 11 116 5 91 10 119 19 115 9 -4
13 5 12 25 -1 18 -6 31 -13 31 -8 0 -13 12 -12 28 0 15 3 21 6 15 13 -34 23
-5 23 67 0 71 9 97 24 71 3 -4 6 -95 7 -202 0 -107 4 -212 9 -234 10 -50 10
-48 15 48 2 43 8 84 13 90 14 17 22 81 22 162 -1 112 28 124 33 14 1 -26 -3
-44 -11 -47 -9 -3 -9 -9 0 -25 6 -13 13 -85 15 -172 4 -168 10 -222 23 -209 5
5 13 38 19 73 8 52 8 67 -4 85 -8 11 -15 25 -15 31 0 5 4 4 9 -3 12 -20 30 90
29 181 0 73 5 98 18 85 3 -4 7 -66 10 -140 2 -73 7 -149 10 -168 6 -32 7 -33
15 -12 5 12 15 22 24 22 16 0 16 1 -1 136 -4 25 -2 44 5 48 6 4 11 33 12 64 0
31 4 66 8 77 8 20 8 20 15 -1 4 -12 8 -115 11 -229 2 -114 7 -210 10 -213 3
-3 5 19 6 49 1 59 6 204 8 231 1 11 7 15 15 12 12 -4 15 16 18 109 3 102 9
140 22 126 3 -3 14 -217 17 -334 l1 -40 10 30 c6 17 19 36 30 43 10 7 18 21
18 30 0 11 6 7 15 -12 8 -15 15 -37 15 -48 0 -12 5 -18 13 -15 6 2 11 10 10
16 -2 6 2 11 7 11 6 0 10 11 10 25 0 14 4 25 9 25 5 0 8 27 7 60 -2 40 2 61
10 64 7 3 15 -3 19 -13 5 -16 15 -218 15 -301 0 -18 3 -30 7 -26 4 4 8 64 10
134 3 153 6 192 15 192 8 0 16 60 22 165 6 104 6 103 16 80 4 -11 9 -74 11
-140 4 -141 5 -207 8 -295 2 -97 19 -54 25 64 3 54 9 103 14 109 6 7 13 72 17
146 14 243 25 131 41 -397 4 -122 9 -221 10 -219 2 2 6 112 9 246 2 133 6 245
9 249 2 4 7 27 10 52 3 25 10 60 16 79 5 19 7 38 4 42 -8 13 -6 238 3 252 13
21 22 -53 22 -183 0 -69 4 -210 8 -315 7 -170 9 -181 15 -110 3 44 7 106 8
139 1 32 5 69 10 82 10 25 17 99 25 273 3 57 6 106 8 108 7 6 17 -154 23 -352
3 -104 7 -205 10 -224 l5 -34 13 25 c22 42 27 88 11 94 -19 8 -19 30 -1 41 17
11 25 108 32 411 l6 242 -1562 0 -1562 0 7 -37 c4 -21 12 -42 18 -46 7 -5 2
-6 -10 -2 -17 5 -23 2 -23 -10 0 -12 7 -14 28 -10 l27 6 -24 -14 c-23 -14 -24
-15 -5 -20 14 -4 13 -5 -7 -6 -32 -1 -37 12 -33 87 l2 52 -33 0 c-38 0 -45
-15 -34 -68 4 -18 3 -35 -3 -38 -15 -10 -19 1 -21 55 l-1 51 -730 0 -731 0 5
-83 c3 -46 10 -90 16 -98 7 -8 15 -42 19 -77 4 -34 10 -64 15 -67 8 -5 20 67
20 129 1 28 3 36 9 26 5 -8 9 -32 8 -53 -1 -24 5 -42 13 -48 13 -8 13 -10 0
-20 -11 -8 -12 -12 -3 -16 7 -2 13 -11 13 -19 0 -8 4 -14 9 -14 5 0 13 -9 16
-21 10 -29 14 -20 21 42 7 64 10 70 23 38 9 -21 10 -22 11 -4 2 44 30 -49 30
-101 0 -29 5 -56 10 -59 6 -4 10 13 11 42 1 59 9 78 32 78 26 0 35 -22 35 -81
0 -38 -6 -59 -20 -74 -23 -25 -30 -25 -53 0 -10 11 -20 18 -23 15 -3 -3 -12 1
-20 8 -13 10 -15 9 -9 -5 3 -10 1 -20 -5 -24 -7 -4 -8 -3 -4 4 4 7 2 12 -5 12
-6 0 -18 8 -26 18 -14 16 -14 16 -9 -1 3 -11 2 -16 -4 -12 -6 3 -10 12 -10 18
0 7 -8 13 -19 13 -10 0 -17 -5 -15 -11 3 -7 -8 -10 -31 -7 -25 3 -35 1 -33 -8
2 -9 -10 -14 -35 -15 -31 -2 -37 1 -32 15 3 11 -1 20 -10 24 -24 9 -18 25 8
19 12 -3 18 -2 14 2 -13 15 -38 14 -44 -1 -3 -9 -1 -20 6 -27 13 -13 15 -28 4
-26 -17 2 -52 -14 -48 -21 3 -5 0 -12 -6 -16 -7 -4 -9 -3 -6 4 5 6 -9 13 -35
18 -57 11 -60 12 -82 13 -14 1 -16 4 -7 14 8 10 7 17 -1 25 -7 7 -8 12 -3 12
6 0 9 37 7 87 -4 97 5 196 17 189 4 -3 9 -31 10 -63 2 -54 18 -144 20 -115 2
24 21 1 21 -26 0 -17 3 -23 10 -16 5 5 11 89 14 187 l4 177 -40 0 -40 0 5 -54
c3 -29 1 -60 -4 -67 -5 -9 -9 11 -9 54 l0 67 -735 0 -735 0 1 -67z m4910 14
c-8 -8 -11 -5 -11 9 0 27 14 41 18 19 2 -9 -1 -22 -7 -28z m-2185 -4 c-11 -11
-19 6 -11 24 8 17 8 17 12 0 3 -10 2 -21 -1 -24z m637 -35 c-2 -5 -12 -8 -21
-7 -11 0 -12 2 -4 6 6 2 10 9 6 14 -3 5 -2 19 2 32 7 21 8 20 14 -8 4 -16 5
-33 3 -37z m74 40 c-3 -8 -6 -5 -6 6 -1 11 2 17 5 13 3 -3 4 -12 1 -19z m-21
-22 c1 -19 -3 -26 -14 -24 -9 2 -15 6 -14 11 1 4 2 16 2 28 0 31 25 17 26 -15z
m575 -29 c-13 -13 -15 1 -4 30 7 17 8 17 11 -1 2 -10 -1 -23 -7 -29z m-451 18
c0 -8 -4 -15 -10 -15 -5 0 -10 7 -10 15 0 8 5 15 10 15 6 0 10 -7 10 -15z
m547 -7 c-3 -8 -6 -5 -6 6 -1 11 2 17 5 13 3 -3 4 -12 1 -19z m-1357 2 c0 -5
-2 -10 -4 -10 -3 0 -8 5 -11 10 -3 6 -1 10 4 10 6 0 11 -4 11 -10z m684 -28
c2 -4 1 -14 -3 -21 -8 -13 -66 -10 -79 5 -4 4 10 4 30 1 29 -4 36 -3 31 9 -5
15 12 20 21 6z m1508 -74 c4 -88 1 -108 -13 -108 -5 0 -9 43 -9 95 0 52 4 95
9 95 5 0 11 -37 13 -82z m-2192 34 c0 -7 -4 -10 -10 -7 -5 3 -10 16 -10 28 0
18 2 19 10 7 5 -8 10 -21 10 -28z m440 28 c0 -5 -8 -10 -17 -10 -15 0 -16 2
-3 10 19 12 20 12 20 0z m1570 -210 c0 -144 0 -133 -3 -210 -2 -36 1 -75 5
-87 4 -13 6 -23 4 -23 -3 0 -11 -3 -20 -6 -14 -5 -16 10 -16 129 0 75 -4 138
-8 141 -5 3 -6 -9 -4 -27 6 -44 -4 -31 -12 16 -5 25 -4 37 3 33 14 -9 19 18
21 134 3 201 28 117 30 -100z m-1100 198 c0 -7 -4 -19 -9 -26 -7 -11 -10 -10
-15 3 -10 26 -7 35 9 35 8 0 15 -6 15 -12z m815 -7 c3 -5 1 -12 -5 -16 -5 -3
-10 1 -10 9 0 18 6 21 15 7z m-1004 -27 c12 -15 11 -16 -11 -9 -46 14 -58 24
-29 25 15 0 33 -7 40 -16z m550 -206 c1 -318 1 -322 13 -330 6 -4 -1 -8 -15
-8 l-26 0 0 202 c-1 228 6 358 18 358 5 0 9 -100 10 -222z m89 175 c0 -24 -3
-33 -9 -25 -7 12 -4 62 5 62 2 0 4 -17 4 -37z m-458 -33 c1 -14 8 -28 13 -32
6 -5 6 -8 -2 -8 -17 0 -31 29 -25 52 6 23 9 20 14 -12z m-3525 -12 c-3 -7 -5
-2 -5 12 0 14 2 19 5 13 2 -7 2 -19 0 -25z m5040 -30 c-2 -13 -4 -3 -4 22 0
25 2 35 4 23 2 -13 2 -33 0 -45z m-686 5 c4 -232 4 -290 -4 -300 -6 -8 -5 -18
3 -28 6 -8 9 -23 5 -34 -7 -22 -38 -38 -43 -22 -2 6 -8 8 -14 5 -7 -4 -7 0 0
13 6 11 8 46 5 81 -3 34 -1 95 5 135 6 39 14 98 17 130 7 64 25 78 26 20z
m-1826 17 c-3 -5 -12 -10 -18 -10 -7 0 -6 4 3 10 19 12 23 12 15 0z m1172 -32
c-3 -7 -5 -2 -5 12 0 14 2 19 5 13 2 -7 2 -19 0 -25z m-71 -36 c3 -17 0 -33
-5 -36 -12 -8 -33 28 -23 39 4 5 2 5 -4 2 -6 -4 -19 2 -29 13 -16 18 -16 20
-2 20 10 0 17 -6 17 -12 0 -7 5 -5 11 5 14 24 29 10 35 -31z m905 6 c1 -25 0
-340 -1 -348 0 -3 -7 3 -14 13 -9 12 -12 32 -9 57 5 35 3 41 -18 49 -13 5 -19
10 -12 10 14 1 43 29 43 42 0 11 -27 12 -33 2 -2 -5 -2 -3 -1 4 2 6 -1 13 -5
15 -5 2 -5 12 0 23 7 18 8 18 9 -5 1 -23 2 -23 10 -5 12 27 12 92 1 99 -10 7
9 66 21 66 4 0 9 -10 9 -22z m-556 2 c-4 -6 -2 -16 3 -23 5 -7 8 -23 7 -37 -2
-14 -4 -29 -4 -33 -1 -5 -7 -7 -13 -5 -23 8 -15 108 8 108 3 0 2 -5 -1 -10z
m-2918 -37 c-3 -10 -5 -4 -5 12 0 17 2 24 5 18 2 -7 2 -21 0 -30z m217 5 c14
-70 7 -124 -21 -161 -16 -20 -30 -36 -33 -37 -6 0 -2 176 5 205 7 34 42 29 49
-7z m989 3 c6 -28 8 -30 44 -24 l38 6 -42 -44 c-23 -24 -45 -56 -48 -70 -6
-24 -9 -25 -31 -15 -13 6 -24 14 -24 18 0 4 -14 15 -31 24 -25 12 -29 18 -18
25 21 13 26 11 32 -11 3 -11 11 -20 19 -20 10 0 9 3 -2 10 -11 7 -11 10 -2 10
7 0 11 4 8 9 -3 5 2 11 12 13 18 5 21 14 23 71 1 36 15 35 22 -2z m2187 -46
c2 -92 -5 -243 -12 -250 -3 -4 -16 -4 -28 0 -20 6 -20 8 -4 19 11 8 14 18 9
26 -7 11 -10 132 -4 150 1 3 0 10 -1 15 -4 18 -1 77 6 97 11 35 33 -2 34 -57z
m-199 13 c-9 -20 -10 -18 -10 17 0 31 2 36 9 23 6 -10 7 -25 1 -40z m1296 15
c-3 -10 -5 -4 -5 12 0 17 2 24 5 18 2 -7 2 -21 0 -30z m-3380 5 c-3 -8 -6 -5
-6 6 -1 11 2 17 5 13 3 -3 4 -12 1 -19z m1492 -28 c11 -24 11 -24 -3 -6 -9 11
-16 24 -16 30 0 12 5 7 19 -24z m1057 -7 c2 -15 1 -36 -2 -47 -9 -26 -24 -1
-24 40 0 52 20 57 26 7z m1111 15 c-3 -8 -6 -5 -6 6 -1 11 2 17 5 13 3 -3 4
-12 1 -19z m-3871 -49 c2 -43 0 -48 -10 -32 -8 10 -11 34 -8 56 6 51 15 39 18
-24z m34 51 c0 -5 -4 -10 -10 -10 -5 0 -10 5 -10 10 0 6 5 10 10 10 6 0 10 -4
10 -10z m3746 -38 c3 -22 0 -43 -6 -47 -9 -6 -15 17 -10 40 1 6 2 20 2 33 1
35 9 19 14 -26z m-920 -15 c9 -159 11 -247 6 -247 -4 0 -14 5 -22 10 -12 8
-15 33 -13 136 2 124 7 163 20 150 4 -4 8 -26 9 -49z m644 11 c0 -16 -3 -19
-11 -11 -6 6 -8 16 -5 22 11 17 16 13 16 -11z m-3360 -14 c0 -2 -9 0 -20 6
-11 6 -20 13 -20 16 0 2 9 0 20 -6 11 -6 20 -13 20 -16z m2155 17 c3 -5 1 -12
-5 -16 -5 -3 -10 1 -10 9 0 18 6 21 15 7z m-1947 -21 c-7 -10 -14 -17 -17 -15
-4 4 18 35 25 35 2 0 -1 -9 -8 -20z m1861 -137 c1 -40 -1 -73 -3 -73 -18 0
-34 14 -29 26 3 8 -1 21 -8 30 -10 12 -10 17 0 23 10 6 9 11 -2 23 -19 18 -29
69 -18 86 6 10 10 8 14 -8 3 -13 10 -19 17 -15 6 4 8 15 5 26 -4 10 -3 24 2
31 10 17 21 -56 22 -149z m-469 110 c0 -18 5 -33 10 -33 14 0 12 -37 -2 -44
-10 -5 -10 -7 0 -12 17 -8 15 -34 -4 -34 -12 0 -15 9 -13 43 4 51 -9 109 -22
101 -5 -3 -9 -1 -9 5 0 5 9 9 20 8 16 -1 20 -8 20 -34z m374 0 c5 -18 2 -31
-8 -42 -15 -14 -16 -11 -16 27 0 47 14 56 24 15z m179 -50 c-1 -32 -2 -60 -3
-62 0 -3 -7 4 -15 15 -11 14 -14 15 -15 4 0 -13 -1 -13 -10 0 -14 21 -12 28 7
32 10 2 18 10 19 18 1 8 2 25 2 38 1 13 5 21 10 19 4 -3 6 -31 5 -64z m-2173
42 c0 -8 -4 -15 -10 -15 -5 0 -10 7 -10 15 0 8 5 15 10 15 6 0 10 -7 10 -15z
m-1637 -27 c-8 -46 -13 -48 -13 -5 0 21 4 37 10 37 5 0 7 -14 3 -32z m40 -14
c-6 -15 -7 -15 -15 5 -10 28 1 51 13 28 5 -8 6 -23 2 -33z m47 -6 c0 -49 -8
-47 -14 5 -3 20 -1 37 4 37 6 0 10 -19 10 -42z m4181 30 c6 -48 6 -198 1 -198
-4 0 -14 5 -22 10 -12 8 -12 10 5 10 12 0 16 3 9 8 -12 8 -14 182 -2 182 5 0
9 -6 9 -12z m1125 -34 c-5 -13 -10 -14 -18 -6 -6 6 -8 18 -4 28 5 13 10 14 18
6 6 -6 8 -18 4 -28z m-1856 -30 c0 -13 -4 -24 -9 -24 -13 0 -24 37 -16 50 10
16 25 1 25 -26z m1760 6 c0 -5 -4 -10 -10 -10 -5 0 -10 5 -10 10 0 6 5 10 10
10 6 0 10 -4 10 -10z m-1253 -47 c-3 -10 -5 -4 -5 12 0 17 2 24 5 18 2 -7 2
-21 0 -30z m1253 -8 c0 -19 -4 -35 -10 -35 -5 0 -10 16 -10 35 0 19 5 35 10
35 6 0 10 -16 10 -35z m-1533 -22 c-3 -10 -5 -2 -5 17 0 19 2 27 5 18 2 -10 2
-26 0 -35z m-487 6 c0 -5 -4 -9 -10 -9 -5 0 -10 7 -10 16 0 8 5 12 10 9 6 -3
10 -10 10 -16z m2247 -11 c-3 -8 -6 -5 -6 6 -1 11 2 17 5 13 3 -3 4 -12 1 -19z
m-4797 2 c0 -5 -5 -10 -11 -10 -5 0 -7 5 -4 10 3 6 8 10 11 10 2 0 4 -4 4 -10z
m2910 -10 c0 -5 -2 -10 -4 -10 -3 0 -8 5 -11 10 -3 6 -1 10 4 10 6 0 11 -4 11
-10z m1626 -36 c-3 -8 -10 -14 -16 -14 -14 0 -12 47 3 53 14 5 21 -17 13 -39z
m-109 14 c-3 -8 -6 -5 -6 6 -1 11 2 17 5 13 3 -3 4 -12 1 -19z m-2657 -21 c61
-8 97 -22 124 -48 24 -24 27 -31 16 -44 -10 -12 -9 -16 4 -21 9 -3 16 -15 16
-25 0 -12 9 -21 25 -25 42 -10 29 -22 -52 -48 -131 -41 -155 -54 -151 -79 4
-32 33 -30 144 14 138 54 148 56 163 23 23 -52 -1 -73 -84 -74 -53 -1 -85 -16
-138 -67 -26 -24 -48 -38 -53 -33 -5 5 -10 -1 -10 -15 -2 -28 31 -41 55 -22
14 10 14 10 3 -5 -15 -19 -2 -32 36 -34 21 -1 21 0 7 22 -8 13 -15 25 -15 27
0 1 36 3 81 4 70 2 80 0 78 -15 -3 -30 0 -38 27 -77 21 -31 25 -48 22 -89 -1
-28 0 -55 3 -61 18 -29 32 -175 18 -175 -12 0 -4 -47 11 -65 6 -7 7 -21 3 -31
-15 -43 -67 -106 -94 -116 -17 -6 -38 -27 -54 -54 -14 -24 -29 -44 -33 -44 -4
0 -12 -10 -17 -22 -15 -35 -112 -88 -158 -88 -105 0 -165 46 -174 131 -3 30
-10 60 -15 67 -7 8 -7 12 1 12 7 0 9 5 5 12 -5 8 -2 9 9 5 11 -4 17 -1 17 8 0
8 4 15 10 15 6 0 6 9 0 25 -9 24 -8 25 38 26 38 1 42 2 22 8 -32 10 -73 33
-82 46 -13 17 -9 28 5 17 7 -7 18 -7 27 -2 11 7 11 11 1 23 -10 13 -9 17 6 26
16 9 16 12 3 21 -11 7 -1 10 37 10 82 0 98 14 23 20 -65 5 -65 5 -63 35 1 22
-5 35 -22 48 -24 17 -25 17 -49 -4 -14 -12 -23 -25 -21 -29 3 -5 -2 -10 -9
-13 -36 -14 -45 -156 -12 -189 27 -29 27 -68 -1 -50 -15 10 -53 84 -53 104 0
27 -11 48 -25 48 -7 0 -18 21 -24 48 -9 41 -8 58 13 130 24 84 51 126 87 135
25 7 25 -19 0 -34 -22 -15 -17 -51 6 -42 13 5 15 1 9 -21 -14 -56 13 -52 87
12 20 17 45 32 55 32 16 1 16 1 -1 11 -9 6 -14 15 -11 21 4 6 1 14 -6 18 -9 6
-10 19 -1 59 12 56 3 91 -24 91 -8 0 -15 4 -15 8 0 4 -9 8 -21 9 -14 1 -19 -3
-15 -12 10 -28 -13 -24 -64 10 -29 19 -59 35 -69 35 -9 0 -24 7 -33 14 -20 15
-25 51 -5 43 54 -20 157 -50 161 -46 3 3 3 15 -1 27 -4 16 -25 32 -71 53 -36
16 -68 31 -70 33 -5 5 18 45 42 73 10 12 15 26 11 32 -3 6 -2 11 4 11 5 0 7
13 5 29 -4 24 -1 31 17 36 12 4 32 16 43 26 11 11 34 19 52 19 18 0 36 5 40
11 6 10 41 9 144 -4z m137 -412 c8 -21 -1 -28 -27 -20 -17 5 -19 10 -9 21 15
18 28 18 36 -1z m-503 -20 c3 -8 1 -15 -4 -15 -6 0 -10 7 -10 15 0 8 2 15 4
15 2 0 6 -7 10 -15z m2709 -30 c4 -8 2 -17 -3 -20 -6 -4 -10 3 -10 14 0 25 6
27 13 6z m-2633 -35 c0 -16 -38 -45 -48 -36 -3 3 0 6 7 6 7 0 9 5 6 10 -4 6
-11 7 -17 4 -7 -5 -9 -1 -5 9 3 9 1 18 -6 20 -7 2 5 4 25 3 27 -1 38 -6 38
-16z m2359 -270 c0 -10 -3 -8 -9 5 -12 27 -12 43 0 25 5 -8 9 -22 9 -30z m-19
-20 c0 -5 -5 -10 -11 -10 -5 0 -7 5 -4 10 3 6 8 10 11 10 2 0 4 -4 4 -10z m45
-20 c3 -6 -4 -10 -17 -10 -18 0 -20 2 -8 10 19 12 18 12 25 0z m-485 -20 c-14
-11 -18 -18 -9 -15 10 4 16 0 16 -9 0 -8 -6 -12 -15 -8 -10 3 -13 1 -8 -6 4
-7 -18 -42 -53 -86 -72 -87 -96 -153 -68 -184 18 -20 22 -44 10 -56 -4 -4 -8
-21 -9 -38 -2 -34 -21 -59 -32 -42 -15 22 -90 49 -162 59 -25 3 -54 9 -65 12
-33 10 -85 9 -88 -2 -2 -5 -7 17 -11 49 -4 41 -3 62 5 66 8 6 8 9 0 14 -6 4
-11 12 -11 17 0 6 5 7 10 4 6 -4 10 5 10 19 0 14 5 26 10 26 6 0 10 6 10 14 0
8 7 17 16 20 10 4 13 13 9 25 -3 12 0 21 10 24 8 4 13 12 10 19 -6 16 1 26 42
60 26 21 40 25 65 21 18 -2 44 -4 57 -4 17 1 22 -3 17 -14 -3 -8 0 -15 7 -15
13 1 48 25 44 31 -1 2 3 -2 9 -9 13 -14 7 -52 -7 -52 -5 0 -9 -5 -9 -12 0 -6
-6 -19 -13 -27 -8 -9 -21 -35 -30 -58 -15 -39 -15 -44 1 -73 16 -28 40 -36 35
-11 -2 6 1 11 7 11 5 0 32 47 59 105 46 98 53 107 93 125 56 24 69 24 38 0z
m427 3 c3 -7 -4 -9 -16 -6 -12 3 -18 9 -15 15 7 11 26 6 31 -9z m-3307 -104
c0 -6 6 -9 14 -6 7 3 26 -8 42 -24 16 -16 35 -27 42 -24 11 4 13 -1 7 -22 -6
-27 -6 -27 9 -8 8 11 16 25 16 31 0 7 11 14 25 17 19 3 29 -1 37 -16 8 -16 8
-22 -1 -25 -6 -2 -11 -18 -11 -35 0 -21 3 -28 9 -19 6 10 10 9 14 -7 3 -14 1
-19 -6 -14 -7 4 -8 0 -2 -13 4 -10 8 -29 8 -41 -1 -14 3 -20 10 -16 6 4 1 -9
-11 -29 -12 -19 -22 -47 -22 -60 0 -26 25 -56 37 -44 3 3 1 6 -5 6 -6 0 -9 7
-5 16 5 13 7 13 14 2 7 -10 9 -10 9 0 0 6 6 12 14 12 7 0 27 7 42 15 16 8 38
15 50 15 18 0 21 -5 18 -37 -1 -21 2 -43 8 -51 16 -19 3 -25 -21 -11 -16 11
-32 11 -79 1 -32 -7 -70 -12 -86 -12 -39 0 -97 -33 -139 -79 -33 -36 -38 -39
-52 -25 -14 14 -13 19 7 47 13 18 31 40 40 49 10 10 18 25 18 33 0 24 -73 20
-95 -5 -10 -11 -24 -20 -32 -20 -7 0 -13 -6 -13 -14 0 -23 -39 -30 -59 -12
-23 21 -26 21 -56 -11 -20 -22 -25 -35 -20 -58 3 -16 6 -37 6 -45 1 -8 7 -22
14 -30 29 -36 25 -42 -7 -11 -19 19 -39 34 -44 34 -5 -1 -31 18 -59 41 -27 24
-63 48 -80 54 -30 10 -30 10 13 11 23 1 42 6 42 11 0 6 -17 10 -37 10 -21 -1
-48 2 -60 5 -15 5 -23 3 -23 -5 0 -6 10 -20 23 -31 12 -10 17 -18 11 -19 -6 0
-9 -10 -7 -24 3 -13 -5 -43 -18 -67 -14 -27 -23 -62 -23 -91 0 -27 -3 -48 -8
-48 -4 0 -8 -5 -8 -11 0 -5 4 -8 8 -5 4 3 17 -18 27 -45 19 -49 51 -85 94
-108 44 -24 9 -71 -53 -71 -28 0 -96 45 -125 81 -37 47 -43 76 -27 130 21 71
31 170 18 178 -13 8 9 111 35 158 13 25 22 31 37 27 20 -7 36 10 36 38 0 10
12 35 28 57 26 38 29 40 72 36 25 -2 65 -10 90 -19 24 -8 46 -14 47 -12 2 2
-1 15 -6 29 -9 22 -7 28 8 37 15 7 26 3 54 -23 37 -34 91 -77 113 -90 18 -10
37 29 36 71 -2 40 -25 84 -70 133 -47 51 -34 108 15 67 7 -6 26 -36 42 -67 47
-92 85 -154 96 -154 6 0 15 11 22 23 10 20 7 32 -19 79 -39 72 -70 125 -77
131 -20 18 -32 40 -22 40 6 0 11 -5 11 -11z m2936 -36 c-6 -15 -9 -15 -16 -3
-6 9 -5 17 3 22 16 10 21 2 13 -19z m-3479 -35 c-3 -8 -6 -5 -6 6 -1 11 2 17
5 13 3 -3 4 -12 1 -19z m4428 2 c3 -5 2 -10 -4 -10 -5 0 -13 5 -16 10 -3 6 -2
10 4 10 5 0 13 -4 16 -10z m-927 -25 c-6 -14 -13 -23 -15 -21 -5 5 15 46 22
46 3 0 -1 -11 -7 -25z m-3508 -5 c0 -5 -5 -10 -11 -10 -5 0 -7 5 -4 10 3 6 8
10 11 10 2 0 4 -4 4 -10z m3427 2 c9 -6 2 -19 -26 -46 l-39 -39 7 36 c13 56
28 68 58 49z m-1872 -22 c3 -5 1 -10 -4 -10 -6 0 -11 5 -11 10 0 6 2 10 4 10
3 0 8 -4 11 -10z m2202 -41 c26 -25 26 -66 1 -96 -18 -22 -87 -53 -118 -53
-14 0 -36 -7 -48 -16 -12 -8 -22 -10 -22 -5 0 6 -3 10 -7 10 -5 -1 -29 -1 -55
0 -40 1 -48 4 -48 20 0 22 -23 44 -35 33 -5 -4 -5 -1 -1 6 4 6 14 12 22 12 8
0 14 5 14 11 0 6 7 8 16 5 8 -3 12 -2 9 3 -3 5 4 12 14 16 11 3 31 19 44 35
14 16 39 38 57 48 29 18 36 19 82 6 28 -7 61 -23 75 -35z m-3777 31 c0 -5 -5
-10 -11 -10 -5 0 -7 5 -4 10 3 6 8 10 11 10 2 0 4 -4 4 -10z m430 -48 c0 -21
-2 -24 -10 -12 -13 20 -13 53 0 45 6 -3 10 -18 10 -33z m98 -72 c3 -27 1 -32
-10 -24 -7 6 -26 19 -43 29 -26 16 -27 19 -10 25 40 14 60 5 63 -30z m-605
-31 c-6 -6 -9 -19 -6 -28 3 -12 2 -12 -7 2 -9 14 -9 22 1 33 6 8 14 12 17 9 3
-3 1 -10 -5 -16z m4817 -39 c0 -5 -4 -10 -10 -10 -5 0 -10 5 -10 10 0 6 5 10
10 10 6 0 10 -4 10 -10z m-4845 -97 c-10 -29 -24 -58 -32 -64 -7 -6 -13 -18
-13 -25 0 -8 -5 -14 -10 -14 -6 0 -4 13 5 30 9 17 11 30 5 30 -5 0 -10 9 -10
21 0 12 5 19 13 16 6 -2 11 -10 9 -16 -1 -7 2 -10 8 -6 5 3 10 17 10 29 0 13
3 38 6 56 6 28 8 30 17 14 7 -12 5 -33 -8 -71z m3791 68 c-17 -18 -17 -19 1
-23 11 -2 -4 -14 -44 -33 -43 -21 -66 -38 -74 -57 -6 -16 -15 -28 -20 -28 -11
0 29 104 42 108 5 2 7 7 4 12 -5 8 66 38 94 39 11 1 10 -3 -3 -18z m-531 -31
c-20 -22 -31 -20 -22 5 4 8 14 15 23 15 16 0 16 -2 -1 -20z m198 4 c7 -7 -14
-44 -25 -44 -5 0 -8 8 -8 18 0 27 18 41 33 26z m197 -37 c0 -7 -13 -27 -30
-45 -16 -18 -30 -44 -30 -57 0 -30 -35 -55 -75 -55 -53 0 -65 19 -51 78 11 44
42 64 84 53 28 -8 36 -6 60 14 31 28 42 31 42 12z m-465 -33 c-22 -16 -41 -18
-50 -4 -11 18 3 27 36 22 30 -4 31 -6 14 -18z m-2345 -1 c-8 -3 -21 -10 -28
-16 -9 -7 -11 -6 -6 7 3 9 16 16 28 15 14 0 16 -2 6 -6z m1303 -19 c-1 -11 5
-23 13 -27 8 -4 14 -13 14 -18 0 -6 -4 -8 -8 -5 -5 3 -19 -5 -33 -17 -14 -12
-31 -23 -39 -25 -17 -4 -130 31 -130 40 0 20 21 58 32 58 9 0 9 -3 -2 -10 -8
-5 -12 -12 -9 -15 9 -9 40 6 33 16 -3 5 10 6 28 3 51 -10 52 -10 54 4 1 6 2
14 3 17 0 3 11 3 24 1 14 -2 21 -10 20 -22z m1675 -5 c-1 -17 -7 -33 -13 -36
-7 -2 -11 -12 -8 -22 2 -9 -3 -23 -11 -30 -9 -8 -16 -19 -16 -26 0 -15 -65
-74 -83 -76 -7 -1 -23 -3 -37 -4 -41 -5 -57 11 -24 22 36 13 110 89 167 170
12 18 23 33 24 33 1 0 1 -14 1 -31z m-2824 8 c16 -12 16 -13 -3 -13 -11 0 -23
6 -25 13 -3 7 -2 13 2 13 5 0 16 -6 26 -13z m2786 2 c0 -15 -101 -119 -111
-114 -4 3 -13 -3 -18 -14 -6 -10 -21 -21 -35 -25 -13 -3 -32 -9 -43 -13 -16
-6 -16 -5 -4 10 7 9 19 17 27 17 7 0 30 17 51 37 36 35 125 112 131 113 1 0 2
-5 2 -11z m-450 -8 c0 -6 -4 -13 -10 -16 -5 -3 -10 1 -10 9 0 9 5 16 10 16 6
0 10 -4 10 -9z m-2430 -104 c0 -5 -9 -7 -20 -4 -10 3 -21 0 -24 -7 -3 -7 -8
-6 -15 4 -19 28 -24 0 -8 -51 25 -77 22 -123 -8 -143 -38 -25 -92 -24 -118 3
-30 30 -30 90 1 114 12 11 22 30 22 44 0 14 11 36 24 48 13 12 25 28 28 36 4
12 7 12 21 1 13 -11 15 -10 10 7 -3 12 -2 28 1 37 5 12 15 5 46 -32 22 -27 40
-53 40 -57z m-30 93 c0 -5 -4 -10 -10 -10 -5 0 -10 5 -10 10 0 6 5 10 10 10 6
0 10 -4 10 -10z m-347 -36 c10 -13 34 -25 56 -29 43 -7 58 -19 61 -50 4 -39 0
-45 -34 -45 -35 0 -66 21 -66 44 0 8 -7 20 -16 27 -14 11 -16 10 -14 -6 5 -44
-1 -48 -19 -15 -10 19 -16 37 -12 40 13 11 11 41 -4 46 -24 9 -18 23 7 16 13
-3 31 -16 41 -28z m-185 1 c-3 -3 -9 2 -12 12 -6 14 -5 15 5 6 7 -7 10 -15 7
-18z m3002 0 c16 19 36 5 43 -30 6 -34 -12 -127 -28 -144 -16 -16 -67 -7 -88
17 -8 9 -18 38 -21 65 -7 44 -5 49 26 77 29 26 34 28 44 15 10 -14 13 -14 24
0z m-2374 -43 c-13 -13 -19 -14 -43 -2 -25 12 -26 14 -8 18 11 2 24 8 29 13 6
5 15 4 23 -3 12 -10 12 -14 -1 -26z m-509 -76 c34 -36 58 -66 54 -66 -5 0 -6
-12 -3 -27 5 -25 4 -27 -12 -14 -9 8 -19 11 -22 8 -3 -3 3 -12 15 -19 12 -7
21 -15 21 -18 0 -10 -73 -10 -111 0 -31 9 -42 18 -54 46 -8 19 -14 38 -13 42
1 4 -4 20 -10 35 -22 52 -13 60 21 19 38 -47 70 -71 60 -45 -5 13 -2 15 22 9
15 -4 34 -14 42 -21 8 -8 20 -15 26 -15 7 0 -14 26 -45 57 -58 58 -85 66 -53
16 l18 -28 -21 19 c-12 11 -22 25 -22 32 0 7 -6 17 -14 21 -7 4 -19 18 -25 31
l-12 23 38 -20 c21 -10 66 -49 100 -85z m-21 57 c-7 -7 -26 7 -26 19 0 6 6 6
15 -2 9 -7 13 -15 11 -17z m3495 -21 c-8 -14 -5 -22 10 -36 11 -9 17 -22 12
-28 -4 -7 -6 -31 -4 -53 2 -22 0 -37 -4 -34 -3 4 -18 -4 -33 -17 -54 -49 -62
-54 -87 -54 -14 0 -26 5 -26 10 -1 6 -2 15 -3 22 -2 17 65 89 76 81 6 -3 7 3
3 17 -4 14 -3 20 3 16 8 -5 24 32 21 50 0 4 5 10 12 14 7 5 13 19 15 32 3 32
6 36 11 16 2 -9 0 -25 -6 -36z m-71 18 c0 -12 -7 -20 -17 -20 -14 0 -15 -2 -4
-9 22 -14 -30 -86 -56 -76 -7 2 -10 -2 -7 -9 6 -15 -22 -30 -37 -20 -5 3 -9
-2 -9 -10 0 -20 -34 -21 -49 -2 -9 11 -8 17 8 28 12 8 18 18 14 22 -4 4 0 4 8
1 9 -3 23 3 35 16 10 13 13 19 7 15 -20 -11 -15 -1 9 20 12 10 18 13 13 5 -6
-10 -4 -12 4 -7 7 5 10 14 7 22 -3 8 -2 13 2 12 14 -3 42 14 36 23 -3 5 4 9
15 9 14 0 21 -6 21 -20z m1024 3 c-20 -15 -34 -17 -34 -5 0 14 11 21 32 19 18
-1 18 -2 2 -14z m-3181 -28 c-3 -9 -8 -14 -10 -11 -3 3 -2 9 2 15 9 16 15 13
8 -4z m108 -50 c5 3 6 -1 3 -10 -6 -14 -8 -14 -19 1 -9 14 -14 14 -20 4 -5 -9
-4 -11 3 -6 7 4 12 3 12 -3 0 -17 -18 -22 -24 -6 -3 8 3 22 12 31 16 16 17 16
20 1 2 -10 8 -15 13 -12z m-616 -5 c-2 -27 -15 -38 -15 -13 0 16 8 33 15 33 1
0 1 -9 0 -20z m725 -16 c0 -2 -9 -4 -20 -4 -11 0 -20 4 -20 9 0 5 9 7 20 4 11
-3 20 -7 20 -9z m-1640 -32 c0 -22 33 -56 44 -45 4 4 9 -3 13 -15 3 -12 9 -22
14 -22 17 0 89 -35 89 -43 0 -4 -15 -14 -32 -22 -30 -12 -37 -11 -69 7 -43 24
-83 89 -74 118 4 11 2 20 -4 20 -6 0 -11 5 -11 10 0 6 7 10 15 10 8 0 15 -8
15 -18z m952 -1 c7 11 8 9 4 -5 -7 -19 -47 -75 -56 -75 -3 -1 -4 18 -2 42 5
46 22 65 36 40 7 -13 10 -13 18 -2z m-912 -32 c0 -6 -4 -7 -10 -4 -5 3 -10 11
-10 16 0 6 5 7 10 4 6 -3 10 -11 10 -16z m2278 -94 c-3 -3 -9 2 -12 12 -6 14
-5 15 5 6 7 -7 10 -15 7 -18z m-1928 -4 c0 -8 -52 -31 -71 -31 -23 0 -6 29 19
33 48 7 52 7 52 -2z m2018 -47 c-4 -3 -12 5 -18 18 -12 22 -12 22 6 6 10 -10
15 -20 12 -24z m1184 -143 c34 -46 61 -90 61 -97 0 -8 6 -14 13 -14 6 0 14 -9
17 -20 3 -13 1 -18 -6 -13 -7 3 -3 -3 7 -16 14 -15 22 -18 27 -10 5 9 11 8 22
-3 17 -16 5 -38 -20 -38 -7 0 -13 -10 -12 -22 0 -22 1 -22 9 -3 5 11 9 15 9 9
1 -6 12 -16 25 -24 22 -11 23 -15 10 -27 -8 -8 -24 -13 -37 -12 -12 1 -29 -1
-37 -4 -8 -3 -35 -8 -60 -11 -42 -4 -90 -15 -90 -21 0 -9 32 -90 59 -148 17
-37 31 -76 31 -87 0 -25 2 -25 52 1 33 17 42 18 49 7 12 -19 11 -22 -11 -51
-27 -34 -25 -43 5 -23 55 36 91 2 43 -41 -22 -18 -74 -31 -64 -14 3 4 -16 7
-42 8 -26 0 -58 3 -72 7 -14 3 -41 9 -60 12 -19 4 -39 9 -45 12 -5 3 -25 7
-45 9 -61 6 -60 3 -60 127 l0 115 36 -24 c42 -28 69 -32 78 -10 7 20 32 19 40
-1 4 -9 9 -14 12 -11 7 7 -15 78 -28 92 -7 7 -9 5 -6 -5 6 -18 -35 -52 -54
-45 -28 11 -47 59 -39 97 11 48 18 58 42 58 17 0 18 3 9 20 -14 26 -30 25 -62
-5 l-27 -24 2 37 c1 20 -2 66 -6 102 l-8 65 21 -30 c25 -38 25 -29 0 26 -31
70 -27 83 40 131 41 29 59 47 55 58 -7 22 48 -43 117 -139z m-2892 16 c13 4
13 3 0 -6 -13 -10 -13 -12 0 -21 9 -5 16 -6 18 0 2 5 12 0 23 -11 23 -23 24
-29 4 -29 -8 0 -15 -4 -15 -10 0 -5 4 -10 9 -10 5 0 7 -9 4 -20 -4 -15 -11
-19 -27 -15 -11 2 -15 2 -8 -1 10 -5 10 -9 0 -22 -11 -13 -10 -14 9 -4 34 19
38 14 9 -9 -15 -12 -25 -24 -22 -27 3 -3 0 -12 -7 -20 -14 -17 -16 -148 -4
-232 l8 -55 -38 -21 c-21 -12 -56 -24 -78 -27 -24 -4 -32 -3 -20 2 18 7 18 8
2 18 -17 9 -16 12 7 54 30 51 33 91 10 114 -17 16 -36 14 -88 -11 -37 -18 -37
-18 -31 9 3 12 7 40 9 62 6 54 28 115 42 115 7 0 12 6 11 13 -1 32 4 47 16 45
7 -2 11 6 9 20 -2 15 2 22 12 22 9 0 16 7 16 16 0 9 8 26 18 39 17 21 19 21
30 7 10 -15 11 -14 11 5 1 19 4 21 24 14 12 -4 29 -6 37 -4z m50 -7 c0 -5 -2
-10 -4 -10 -3 0 -8 5 -11 10 -3 6 -1 10 4 10 6 0 11 -4 11 -10z m1900 -173 c0
-18 -2 -19 -10 -7 -13 20 -13 43 0 35 6 -3 10 -16 10 -28z m-1651 -71 c9 -10
30 -24 46 -32 l30 -12 -60 -56 c-43 -39 -63 -52 -72 -45 -9 8 -9 5 0 -15 11
-24 13 -24 32 -8 20 17 20 17 1 -5 -10 -13 -22 -21 -26 -18 -4 2 -21 -24 -37
-60 l-30 -64 2 87 c2 70 5 88 20 97 57 34 102 113 74 130 -5 4 -8 18 -8 33 1
21 2 22 6 7 3 -11 12 -28 22 -39z m-89 14 c0 -5 -5 -10 -11 -10 -5 0 -7 5 -4
10 3 6 8 10 11 10 2 0 4 -4 4 -10z m36 -47 c-3 -8 -1 -11 4 -8 18 11 11 -10
-9 -27 -14 -12 -22 -13 -30 -5 -27 27 -2 88 26 65 8 -6 12 -17 9 -25z m2759
-33 c3 -5 1 -10 -4 -10 -6 0 -11 5 -11 10 0 6 2 10 4 10 3 0 8 -4 11 -10z
m-962 -27 c-3 -7 -6 -13 -8 -13 -2 0 -5 6 -8 13 -3 8 1 14 8 14 7 0 11 -6 8
-14z m-1673 -8 c0 -8 -63 -45 -75 -45 -5 1 8 12 30 25 43 27 45 28 45 20z
m2635 -31 c-2 -20 -6 -39 -9 -41 -2 -3 4 -13 15 -24 29 -29 23 -48 -23 -68
-43 -18 -43 -18 -55 3 -19 32 -16 44 17 61 18 9 30 23 30 35 0 25 -2 25 -51 0
l-39 -21 -11 27 c-13 37 -2 45 65 47 31 1 56 5 56 10 0 4 2 7 5 7 3 0 3 -16 0
-36z m-3137 14 c7 -7 12 -19 12 -27 0 -20 -40 -61 -59 -61 -12 0 -9 6 9 20
l25 20 -27 0 c-37 0 -46 20 -18 42 26 21 41 23 58 6z m2288 -53 c1 -8 -2 -15
-6 -15 -5 0 -8 9 -7 20 1 21 10 18 13 -5z m902 -32 c-6 -7 -12 -13 -13 -13 -2
0 -5 6 -8 13 -3 7 3 13 14 13 13 0 15 -3 7 -13z m-3328 -52 c0 -10 -12 -27
-27 -36 -35 -22 -83 -75 -83 -90 0 -17 -70 -95 -85 -95 -20 0 -23 45 -4 68 9
12 20 22 24 22 4 0 16 11 26 25 11 13 26 22 33 19 8 -3 17 3 20 13 8 25 70 93
85 93 6 0 11 -8 11 -19z m3343 -33 c-17 -19 -16 -20 7 -39 14 -10 28 -19 32
-19 4 0 5 -7 2 -15 -5 -11 -10 -12 -26 -4 -11 6 -26 8 -34 5 -9 -4 -14 2 -14
17 0 12 -7 33 -16 45 -15 21 -14 24 8 41 21 18 24 18 41 4 16 -15 16 -17 0
-35z m-2961 -43 c-6 -14 -17 -25 -23 -25 -8 0 -7 6 2 17 10 11 10 14 2 9 -14
-8 -17 11 -7 39 6 15 8 15 22 1 13 -12 13 -20 4 -41z m2993 25 c3 -5 2 -10 -4
-10 -5 0 -13 5 -16 10 -3 6 -2 10 4 10 5 0 13 -4 16 -10z m653 -35 c-27 -14
-30 -13 -23 7 4 10 14 14 26 11 19 -5 19 -6 -3 -18z m-278 -5 c0 -19 -18 -19
-23 -1 -3 14 -1 18 9 14 8 -3 14 -9 14 -13z m-1090 -10 c0 -11 -2 -20 -4 -20
-2 0 -6 9 -9 20 -3 11 -1 20 4 20 5 0 9 -9 9 -20z m1416 1 c-4 -6 -14 -8 -24
-5 -14 5 -13 2 3 -11 20 -17 20 -17 -5 -10 -19 5 -22 4 -14 -4 6 -7 21 -13 33
-14 11 -1 21 -5 21 -9 0 -11 -53 2 -62 15 -10 16 2 38 26 47 24 9 31 6 22 -9z
m-3796 -1 c0 -5 7 -6 17 -3 11 4 14 3 9 -5 -10 -17 -46 -15 -46 3 0 8 5 15 10
15 6 0 10 -4 10 -10z m-84 -28 c-3 -5 -33 -20 -66 -32 -73 -27 -97 -17 -48 21
48 35 135 44 114 11z m2440 11 c-2 -10 0 -20 4 -23 3 -3 -8 -17 -25 -32 -28
-24 -31 -24 -31 -7 0 11 5 18 13 15 7 -3 10 1 6 10 -3 7 -1 14 5 14 5 0 12 9
15 20 6 25 16 27 13 3z m918 2 c3 -8 1 -14 -4 -12 -5 1 -16 -7 -25 -18 -13
-16 -13 -14 1 13 21 37 20 36 28 17z m413 -1 c-3 -3 -12 -4 -19 -1 -8 3 -5 6
6 6 11 1 17 -2 13 -5z m180 -40 c-3 -3 -12 -4 -19 -1 -8 3 -5 6 6 6 11 1 17
-2 13 -5z m-4117 -36 c0 -12 -20 -40 -47 -65 -64 -60 -90 -76 -108 -69 -14 5
-14 9 1 38 23 46 54 78 76 78 10 0 18 4 18 10 0 5 11 12 25 16 14 3 22 11 18
17 -3 6 -1 7 5 3 7 -4 12 -17 12 -28z m2957 10 c-3 -8 -6 -5 -6 6 -1 11 2 17
5 13 3 -3 4 -12 1 -19z m1078 11 c11 -16 1 -19 -13 -3 -7 8 -8 14 -3 14 5 0
13 -5 16 -11z m-3645 -40 c0 -24 -9 -24 -26 -1 -19 24 -17 31 6 25 11 -3 20
-14 20 -24z m3380 11 c6 -11 8 -20 6 -20 -3 0 -10 9 -16 20 -6 11 -8 20 -6 20
3 0 10 -9 16 -20z m445 2 c-12 -12 -35 -10 -35 3 0 8 7 11 20 8 12 -3 18 -8
15 -11z m-3844 -45 c8 -15 3 -21 -33 -37 -24 -11 -53 -20 -66 -20 -12 0 -39
-9 -59 -20 -21 -11 -46 -20 -56 -20 -28 0 -83 -28 -162 -81 -38 -26 -87 -50
-107 -53 l-37 -7 12 29 c31 74 91 117 181 128 22 3 58 16 81 30 46 27 81 34
49 9 -25 -19 -11 -19 27 1 17 8 33 13 36 10 3 -3 18 1 34 10 16 8 31 14 34 14
36 -1 37 0 21 15 -8 9 -13 22 -9 31 5 13 8 12 25 -3 11 -10 24 -26 29 -36z
m2213 28 c-9 -14 -20 -22 -26 -19 -5 3 -2 14 8 25 25 27 37 23 18 -6z m349 0
c-3 -9 -8 -14 -10 -11 -3 3 -2 9 2 15 9 16 15 13 8 -4z m967 1 c0 -8 -7 -16
-15 -20 -17 -6 -18 -4 -9 18 8 20 24 21 24 2z m45 4 c3 -5 1 -10 -4 -10 -6 0
-11 5 -11 10 0 6 2 10 4 10 3 0 8 -4 11 -10z m116 -8 c-11 -4 -11 -6 0 -12 10
-7 10 -11 0 -24 -12 -14 -10 -16 10 -17 24 -2 24 -2 2 -6 -25 -5 -30 -18 -10
-26 7 -3 5 -6 -6 -6 -14 -1 -17 5 -14 34 3 20 0 38 -4 41 -19 12 -9 32 13 26
14 -3 17 -7 9 -10z m99 1 c0 -7 -4 -13 -9 -13 -14 0 -22 -32 -11 -45 6 -7 8
-20 4 -29 -3 -9 -1 -16 5 -16 6 0 11 7 11 15 0 18 5 18 31 5 10 -6 19 -18 19
-27 0 -13 -3 -14 -12 -5 -20 20 -30 13 -26 -17 3 -21 1 -28 -9 -24 -7 3 -13
-2 -13 -11 0 -23 37 -20 43 4 3 10 0 21 -7 24 -6 2 -1 5 12 5 13 1 22 -5 22
-14 0 -7 8 -19 18 -24 15 -9 14 -10 -9 -11 -14 0 -29 -3 -33 -7 -11 -11 -58
-15 -52 -5 3 6 -2 16 -11 23 -13 11 -17 11 -20 1 -6 -16 -23 -5 -23 14 0 8 5
12 10 9 6 -3 10 0 10 8 0 19 -31 31 -41 16 -4 -6 -12 -8 -18 -5 -15 10 -4 26
18 26 21 0 34 43 18 59 -14 14 2 33 24 26 27 -9 24 10 -3 23 -21 9 -19 10 14
9 23 -1 38 -7 38 -14z m-317 -31 c-9 -2 -19 2 -24 10 -16 24 -9 29 15 11 19
-14 21 -19 9 -21z m-89 -2 c-6 -6 -10 -2 -11 12 -2 16 1 18 10 9 7 -7 8 -14 1
-21z m442 16 c3 7 14 10 24 7 17 -4 17 -7 5 -20 -11 -11 -19 -11 -35 -3 -11 6
-20 16 -20 23 0 8 4 7 11 -3 7 -10 12 -11 15 -4z m-376 -26 c7 0 11 -2 8 -5
-3 -4 -17 -3 -31 0 -18 5 -24 12 -20 22 6 14 8 14 18 -1 7 -9 18 -16 25 -16z
m210 10 c0 -5 -4 -10 -10 -10 -5 0 -10 5 -10 10 0 6 5 10 10 10 6 0 10 -4 10
-10z m140 -10 c0 -5 -4 -10 -10 -10 -5 0 -10 5 -10 10 0 6 5 10 10 10 6 0 10
-4 10 -10z m-1150 -17 c0 -10 -19 -40 -21 -33 0 3 -2 13 -4 23 -2 9 3 17 11
17 8 0 14 -3 14 -7z m240 -3 c0 -5 -2 -10 -4 -10 -3 0 -8 5 -11 10 -3 6 -1 10
4 10 6 0 11 -4 11 -10z m521 -10 c6 0 7 6 4 13 -4 6 0 4 8 -6 11 -14 16 -15
20 -5 3 7 6 3 6 -10 1 -16 -3 -22 -11 -18 -7 3 -21 9 -30 12 -10 4 -18 14 -17
23 0 10 2 11 6 4 2 -7 9 -13 14 -13z m483 12 c2 -4 -3 -18 -12 -30 -17 -22
-17 -22 -30 -2 -10 17 -10 20 3 20 8 0 15 5 15 10 0 12 17 13 24 2z m-587 -32
c-1 -20 -8 -25 -20 -14 -3 3 0 12 6 20 16 17 16 17 14 -6z m37 -11 c-8 -14
-21 -11 -21 5 0 8 6 12 14 9 7 -3 10 -9 7 -14z m576 -3 c0 -3 -4 -8 -10 -11
-5 -3 -10 -1 -10 4 0 6 5 11 10 11 6 0 10 -2 10 -4z m-640 -56 c-12 -8 -13
-13 -2 -30 18 -30 -1 -62 -35 -58 -21 2 -27 9 -28 31 -1 30 12 36 22 11 3 -9
0 -20 -8 -25 -11 -7 -9 -9 7 -9 25 0 39 27 24 45 -14 17 -2 45 19 45 14 0 14
-2 1 -10z m-224 -57 c-7 -7 -26 7 -26 19 0 6 6 6 15 -2 9 -7 13 -15 11 -17z
m724 -3 c0 -5 -2 -10 -4 -10 -3 0 -8 5 -11 10 -3 6 -1 10 4 10 6 0 11 -4 11
-10z m-5749 -290 l24 -19 -37 -1 c-37 0 -54 12 -43 30 10 15 31 12 56 -10z
m779 -190 c0 -5 -4 -10 -10 -10 -5 0 -10 5 -10 10 0 6 5 10 10 10 6 0 10 -4
10 -10z"/>
<path d="M2341 3804 c0 -11 3 -14 6 -6 3 7 2 16 -1 19 -3 4 -6 -2 -5 -13z"/>
<path d="M2997 3113 c-10 -9 -9 -40 2 -61 5 -9 12 -25 15 -34 3 -11 15 -18 28
-18 21 1 22 2 6 14 -23 17 -23 26 1 26 10 0 21 -7 25 -15 3 -8 16 -15 28 -15
21 0 20 2 -9 21 -18 12 -30 25 -27 30 3 5 0 9 -6 9 -6 0 -8 5 -5 10 3 6 1 10
-4 10 -6 0 -11 7 -11 15 0 15 -31 21 -43 8z"/>
<path d="M3022 2953 c2 -13 16 -20 46 -24 24 -3 48 -12 53 -20 7 -11 9 -9 9 7
0 29 -16 40 -68 48 -38 6 -43 4 -40 -11z"/>
<path d="M3004 2859 c-4 -8 4 -9 27 -4 25 4 30 3 19 -4 -13 -9 -13 -11 2 -11
23 0 32 17 12 24 -24 9 -52 7 -60 -5z"/>
<path d="M3115 2750 c-3 -5 -16 -10 -28 -11 -19 0 -19 -2 6 -11 15 -5 25 -14
21 -19 -3 -5 2 -9 10 -9 9 0 16 -6 16 -12 0 -9 3 -8 10 2 5 8 12 11 15 8 10
-10 -4 -28 -21 -28 -8 0 -14 -4 -14 -8 0 -4 -23 -16 -50 -26 -57 -20 -61 -33
-7 -18 28 8 37 7 41 -5 3 -8 2 -12 -2 -9 -5 3 -9 -1 -9 -9 0 -17 24 -6 52 25
11 12 28 26 38 32 17 9 18 7 12 -23 -7 -30 -6 -32 9 -20 11 9 16 30 16 67 0
48 -13 80 -22 53 -2 -5 -11 -7 -21 -4 -9 4 -14 11 -11 16 3 5 -3 6 -12 2 -12
-4 -15 -3 -10 5 5 8 0 12 -13 12 -11 0 -23 -4 -26 -10z"/>
<path d="M2988 2603 c6 -2 18 -2 25 0 6 3 1 5 -13 5 -14 0 -19 -2 -12 -5z"/>
<path d="M1937 2569 c4 -13 8 -18 11 -10 2 7 -1 18 -6 23 -8 8 -9 4 -5 -13z"/>
<path d="M1818 2384 c-12 -11 -10 -52 3 -59 17 -11 23 3 13 36 -5 17 -12 27
-16 23z"/>
<path d="M1950 2134 c0 -8 5 -12 10 -9 6 4 8 11 5 16 -9 14 -15 11 -15 -7z"/>
<path d="M5100 1360 c0 -5 7 -10 16 -10 8 0 12 5 9 10 -3 6 -10 10 -16 10 -5
0 -9 -4 -9 -10z"/>
<path d="M5060 1276 c0 -2 7 -9 15 -16 9 -7 15 -8 15 -2 0 5 -7 12 -15 16 -8
3 -15 4 -15 2z"/>
<path d="M5959 868 c7 -17 7 -29 1 -33 -12 -8 -13 -25 -1 -25 18 0 23 53 6 69
-15 15 -15 14 -6 -11z"/>
<path d="M5977 796 c-4 -10 -1 -13 9 -9 7 3 14 9 14 14 0 14 -17 10 -23 -5z"/>
<path d="M1620 4246 c0 -14 10 -30 25 -40 20 -13 24 -22 19 -44 -4 -15 -13
-32 -20 -38 -9 -7 -13 -32 -12 -75 1 -44 3 -56 8 -39 4 14 5 35 3 48 -4 15 0
22 10 22 8 0 18 -6 20 -12 6 -15 8 6 10 119 l2 83 -32 0 c-28 0 -33 -4 -33
-24z"/>
<path d="M2 4000 c0 -19 2 -27 5 -17 2 9 2 25 0 35 -3 9 -5 1 -5 -18z"/>
<path d="M1655 3940 c3 -5 8 -10 11 -10 2 0 4 5 4 10 0 6 -5 10 -11 10 -5 0
-7 -4 -4 -10z"/>
<path d="M1494 3878 c-12 -19 -12 -69 1 -64 5 2 17 -1 26 -5 13 -7 18 -3 22
14 10 37 2 62 -20 65 -12 2 -25 -3 -29 -10z"/>
<path d="M1757 3845 c3 -8 9 -12 14 -9 12 7 11 11 -5 17 -10 4 -13 1 -9 -8z"/>
<path d="M910 3831 c0 -6 5 -13 10 -16 6 -3 10 1 10 9 0 9 -4 16 -10 16 -5 0
-10 -4 -10 -9z"/>
<path d="M5020 3676 c0 -22 3 -27 11 -19 8 8 8 16 0 30 -9 16 -10 14 -11 -11z"/>
<path d="M1191 3654 c0 -11 3 -14 6 -6 3 7 2 16 -1 19 -3 4 -6 -2 -5 -13z"/>
<path d="M692 3625 c0 -16 2 -22 5 -12 2 9 2 23 0 30 -3 6 -5 -1 -5 -18z"/>
<path d="M602 3565 c0 -16 2 -22 5 -12 2 9 2 23 0 30 -3 6 -5 -1 -5 -18z"/>
<path d="M240 3474 c0 -61 4 -93 10 -89 6 3 10 46 10 96 0 53 -4 89 -10 89 -6
0 -10 -39 -10 -96z"/>
<path d="M73 3465 c0 -33 2 -45 4 -27 2 18 2 45 0 60 -2 15 -4 0 -4 -33z"/>
<path d="M950 3490 c0 -5 5 -10 10 -10 6 0 10 5 10 10 0 6 -4 10 -10 10 -5 0
-10 -4 -10 -10z"/>
<path d="M861 3424 c0 -11 3 -14 6 -6 3 7 2 16 -1 19 -3 4 -6 -2 -5 -13z"/>
<path d="M506 3360 c1 -39 4 -73 8 -77 3 -3 6 28 6 70 0 43 -3 77 -7 77 -5 0
-8 -32 -7 -70z"/>
<path d="M5771 3360 l1 -65 9 55 c4 32 4 59 -2 65 -5 5 -9 -16 -8 -55z"/>
<path d="M770 3363 c0 -22 2 -25 10 -13 13 20 13 40 0 40 -5 0 -10 -12 -10
-27z"/>
<path d="M860 3350 c0 -19 3 -21 12 -12 9 9 9 15 0 24 -9 9 -12 7 -12 -12z"/>
<path d="M6053 3332 c1 -19 5 -36 9 -38 10 -6 9 13 -2 46 -8 23 -8 22 -7 -8z"/>
<path d="M6050 3254 c0 -8 5 -12 10 -9 6 4 8 11 5 16 -9 14 -15 11 -15 -7z"/>
<path d="M5592 3210 c0 -14 2 -19 5 -12 2 6 2 18 0 25 -3 6 -5 1 -5 -13z"/>
<path d="M5490 3160 c0 -5 5 -10 10 -10 6 0 10 5 10 10 0 6 -4 10 -10 10 -5 0
-10 -4 -10 -10z"/>
<path d="M415 2731 c-3 -5 -1 -12 5 -16 5 -3 10 1 10 9 0 18 -6 21 -15 7z"/>
<path d="M2978 1953 c7 -3 16 -2 19 1 4 3 -2 6 -13 5 -11 0 -14 -3 -6 -6z"/>
<path d="M2811 1844 c0 -11 3 -14 6 -6 3 7 2 16 -1 19 -3 4 -6 -2 -5 -13z"/>
<path d="M4510 1561 c0 -6 4 -13 10 -16 6 -3 7 1 4 9 -7 18 -14 21 -14 7z"/>
<path d="M5595 1070 c-3 -5 -1 -10 4 -10 6 0 11 5 11 10 0 6 -2 10 -4 10 -3 0
-8 -4 -11 -10z"/>
<path d="M4920 825 c0 -8 5 -15 10 -15 6 0 10 7 10 15 0 8 -4 15 -10 15 -5 0
-10 -7 -10 -15z"/>
<path d="M4896 766 c3 -9 11 -16 16 -16 13 0 5 23 -10 28 -7 2 -10 -2 -6 -12z"/>
<path d="M5789 736 c17 -18 29 -35 26 -37 -3 -3 5 -5 18 -3 12 1 26 3 32 3 5
1 1 9 -9 19 -14 12 -20 14 -23 4 -7 -17 -23 -5 -23 17 0 12 -9 20 -26 24 l-26
5 31 -32z"/>
<path d="M6166 751 c-20 -22 -14 -43 9 -34 11 3 13 1 9 -10 -3 -10 5 -20 25
-30 17 -9 31 -11 31 -6 0 5 6 4 13 -3 19 -17 17 -38 -2 -38 -14 0 -14 -1 -1
-10 11 -7 19 -4 30 11 18 23 30 16 30 -17 0 -18 7 -25 28 -29 15 -4 34 -10 42
-14 12 -6 15 0 17 33 2 37 -1 43 -28 55 -16 7 -48 14 -69 15 -22 0 -40 6 -40
12 0 6 -6 17 -14 23 -11 10 -17 8 -25 -6 -6 -10 -11 -13 -11 -8 -7 66 -20 82
-44 56z"/>
<path d="M4830 750 c0 -5 5 -10 10 -10 6 0 10 5 10 10 0 6 -4 10 -10 10 -5 0
-10 -4 -10 -10z"/>
<path d="M4865 740 c-10 -11 -16 -22 -13 -25 3 -3 13 4 23 15 10 11 16 22 13
25 -3 3 -13 -4 -23 -15z"/>
<path d="M4981 723 c-12 -16 -18 -20 -15 -10 7 21 -9 23 -26 3 -9 -12 -6 -16
24 -21 36 -7 50 -26 41 -55 -3 -9 1 -22 8 -28 18 -15 56 -20 56 -7 1 10 -5 12
-43 14 -17 1 -18 3 -7 14 10 9 15 9 18 0 2 -7 10 -10 18 -7 20 8 47 -36 33
-53 -14 -18 10 -46 30 -34 10 6 6 22 -18 69 -24 48 -36 62 -53 62 -27 0 -48
30 -40 59 7 29 -1 26 -26 -6z"/>
<path d="M4897 726 c-16 -13 -16 -14 -1 -20 10 -4 21 -1 26 6 18 29 5 36 -25
14z"/>
<path d="M5025 720 c-3 -6 0 -17 9 -25 20 -20 25 -19 19 5 -7 25 -19 34 -28
20z"/>
<path d="M5182 686 c7 -8 15 -12 17 -11 5 6 -10 25 -20 25 -5 0 -4 -6 3 -14z"/>
<path d="M6150 670 c0 -5 6 -10 14 -10 21 0 27 -27 10 -45 -9 -8 -12 -15 -7
-15 4 0 1 -4 -7 -10 -12 -8 -12 -10 3 -16 9 -3 17 -11 17 -16 0 -6 -7 -8 -15
-4 -18 7 -18 6 -1 -30 14 -28 11 -88 -3 -79 -4 2 -7 -6 -7 -18 1 -16 -4 -22
-19 -20 -19 1 -35 -12 -35 -31 0 -5 7 -3 15 4 8 6 18 9 22 7 5 -3 31 -1 58 5
28 6 45 13 38 15 -7 2 -9 12 -6 21 4 14 3 15 -6 2 -9 -13 -12 -13 -28 3 -10
10 -12 17 -5 17 6 0 9 7 5 17 -5 12 -2 15 8 11 9 -4 21 2 28 14 7 11 8 17 2
14 -6 -4 -19 2 -31 14 l-20 20 21 0 20 0 -20 25 c-18 24 -18 29 -5 60 13 31
13 35 -1 35 -8 0 -15 5 -15 10 0 6 -7 10 -15 10 -8 0 -15 -4 -15 -10z m55
-170 c3 -5 1 -10 -4 -10 -6 0 -11 5 -11 10 0 6 2 10 4 10 3 0 8 -4 11 -10z"/>
<path d="M2130 645 c-14 -8 -20 -14 -14 -15 5 0 19 7 30 15 24 18 16 19 -16 0z"/>
<path d="M2050 620 c-8 -6 -33 -15 -55 -21 -22 -6 -47 -17 -55 -24 -8 -7 -28
-19 -45 -28 -29 -15 -83 -76 -162 -183 -101 -138 -157 -184 -224 -184 -15 0
-31 -5 -34 -10 -8 -13 -101 -60 -128 -66 -11 -2 -23 -7 -26 -11 -3 -5 -17 -9
-31 -9 -14 -1 -57 -17 -95 -35 -39 -19 -75 -34 -82 -34 -6 0 -15 -4 -19 -8 -4
-4 12 -7 35 -7 41 0 171 53 315 129 32 17 67 31 78 31 10 0 32 7 48 15 29 15
30 15 27 -7 -4 -22 -33 -39 -54 -31 -9 4 -10 -3 -4 -24 9 -31 -9 -70 -27 -59
-8 5 -21 -23 -22 -46 0 -5 38 -8 85 -8 63 0 84 3 83 12 -2 7 2 12 8 11 7 -1
10 6 7 17 -3 11 1 27 8 36 10 13 10 17 -1 24 -11 7 -10 11 3 25 10 9 18 24 18
33 4 49 9 71 22 107 9 22 21 39 28 37 9 -2 9 1 -1 12 -8 10 -9 16 -2 16 7 0 9
7 5 17 -5 12 -3 14 7 8 8 -5 11 -4 7 2 -6 9 32 69 51 82 5 3 14 16 21 28 17
33 111 100 173 123 65 24 91 40 68 40 -8 0 -22 -5 -30 -10z"/>
<path d="M5985 600 c3 -5 8 -10 11 -10 2 0 4 5 4 10 0 6 -5 10 -11 10 -5 0 -7
-4 -4 -10z"/>
<path d="M6053 588 c-12 -16 -24 -48 -18 -48 2 0 11 14 20 30 16 31 15 40 -2
18z"/>
<path d="M1718 573 c6 -2 18 -2 25 0 6 3 1 5 -13 5 -14 0 -19 -2 -12 -5z"/>
<path d="M5970 570 c0 -5 5 -10 10 -10 6 0 10 5 10 10 0 6 -4 10 -10 10 -5 0
-10 -4 -10 -10z"/>
<path d="M5395 556 c-30 -36 -35 -55 -21 -86 11 -27 14 -29 26 -15 10 12 16
13 26 4 10 -8 14 -8 14 -1 0 6 -9 16 -20 22 -15 8 -20 8 -20 -2 0 -8 -3 -9
-10 -2 -7 7 -5 23 5 48 17 40 17 52 0 32z"/>
<path d="M5427 550 c-7 -26 28 -48 37 -24 8 22 8 22 -13 33 -15 9 -20 7 -24
-9z"/>
<path d="M1690 540 c0 -5 4 -10 9 -10 6 0 13 5 16 10 3 6 -1 10 -9 10 -9 0
-16 -4 -16 -10z"/>
<path d="M5075 515 c3 -16 11 -34 16 -39 15 -16 11 9 -7 40 l-16 29 7 -30z"/>
<path d="M5035 520 c3 -5 8 -10 11 -10 2 0 4 5 4 10 0 6 -5 10 -11 10 -5 0 -7
-4 -4 -10z"/>
<path d="M5481 498 c0 -33 17 -85 18 -59 1 11 4 11 16 1 13 -11 14 -10 9 3 -3
8 -12 18 -21 21 -11 4 -13 14 -8 36 4 19 3 30 -4 30 -6 0 -11 -15 -10 -32z"/>
<path d="M5510 521 c0 -5 5 -13 10 -16 6 -3 10 -2 10 4 0 5 -4 13 -10 16 -5 3
-10 2 -10 -4z"/>
<path d="M5137 490 c3 -11 7 -20 9 -20 2 0 4 9 4 20 0 11 -4 20 -9 20 -5 0 -7
-9 -4 -20z"/>
<path d="M6003 449 c-18 -41 -26 -49 -50 -50 -23 0 -25 -2 -9 -8 14 -5 16 -10
8 -15 -7 -4 -16 -4 -22 -1 -5 3 -10 1 -10 -4 0 -6 5 -11 11 -11 6 0 8 -8 4
-19 -6 -19 -4 -19 24 -5 16 8 31 21 34 28 4 9 15 13 29 9 22 -4 23 -4 3 11
-17 15 -18 20 -7 62 7 26 11 48 10 49 -2 2 -13 -19 -25 -46z"/>
<path d="M290 471 c0 -6 4 -13 10 -16 6 -3 7 1 4 9 -7 18 -14 21 -14 7z"/>
<path d="M5156 463 c-11 -11 -6 -23 9 -23 8 0 15 4 15 9 0 13 -16 22 -24 14z"/>
<path d="M5940 456 c0 -2 7 -9 15 -16 9 -7 15 -8 15 -2 0 5 -7 12 -15 16 -8 3
-15 4 -15 2z"/>
<path d="M5409 429 c-8 -4 -15 -18 -15 -30 -1 -20 0 -21 11 -6 7 9 17 17 23
17 6 0 13 4 16 9 8 13 -18 21 -35 10z"/>
<path d="M5080 405 c0 -29 -15 -33 -29 -7 -10 16 -10 16 -11 0 0 -10 -8 -19
-17 -19 -10 -1 -22 -2 -28 -4 -5 -1 -16 -3 -22 -3 -7 -1 -19 -15 -27 -31 -19
-37 -3 -57 31 -38 35 20 77 50 101 71 22 20 30 56 12 56 -5 0 -10 -11 -10 -25z
m-88 -77 c-7 -7 -12 -8 -12 -2 0 14 12 26 19 19 2 -3 -1 -11 -7 -17z"/>
<path d="M5500 411 c0 -16 41 -61 56 -61 8 0 14 -4 14 -9 0 -5 9 -7 20 -4 11
3 31 -2 45 -11 29 -19 75 -21 74 -3 -1 21 -14 48 -24 49 -27 3 -44 11 -39 19
8 14 -3 10 -20 -7 -9 -8 -16 -11 -16 -6 0 6 -10 8 -22 4 -17 -4 -20 -2 -15 11
4 10 3 17 -2 17 -5 0 -11 -9 -14 -21 -7 -26 -31 -20 -35 9 -3 21 -22 32 -22
13z m160 -71 c0 -5 -2 -10 -4 -10 -3 0 -8 5 -11 10 -3 6 -1 10 4 10 6 0 11 -4
11 -10z"/>
<path d="M5170 400 c0 -5 4 -10 9 -10 6 0 13 5 16 10 3 6 -1 10 -9 10 -9 0
-16 -4 -16 -10z"/>
<path d="M5200 377 c-24 -19 -22 -36 3 -30 22 5 22 5 2 -10 -12 -10 -15 -16
-7 -17 9 0 11 -7 7 -20 -4 -13 -1 -22 9 -26 9 -3 16 -12 16 -20 0 -9 11 -14
31 -14 l30 0 -23 43 c-12 23 -24 44 -26 47 -2 2 -8 -2 -13 -10 -8 -12 -9 -10
-4 6 3 12 2 30 -2 42 -7 16 -11 18 -23 9z"/>
<path d="M2220 338 c0 -24 -9 -106 -20 -183 -11 -77 -20 -143 -20 -147 0 -5
11 -8 25 -8 26 0 34 15 13 23 -10 3 -10 7 0 20 10 11 12 29 7 57 -5 32 -3 46
11 61 14 16 15 23 6 45 -14 28 -16 74 -4 74 13 0 8 93 -5 98 -9 2 -13 -10 -13
-40z"/>
<path d="M5420 370 c20 -13 33 -13 25 0 -3 6 -14 10 -23 10 -15 0 -15 -2 -2
-10z"/>
<path d="M5412 326 c8 -27 7 -40 -6 -66 -22 -45 -20 -60 7 -60 41 0 65 36 47
71 -8 14 -7 19 2 19 8 0 6 5 -4 11 -10 5 -15 16 -12 24 4 9 0 15 -10 15 -9 0
-16 5 -16 10 0 6 -4 10 -9 10 -5 0 -5 -15 1 -34z"/>
<path d="M5890 129 c-30 -3 -75 -12 -98 -18 -39 -11 -43 -15 -38 -36 16 -63
25 -75 56 -75 32 0 33 3 13 56 -5 13 62 28 79 18 7 -5 8 -3 3 6 -6 10 -1 12
19 8 30 -6 44 11 29 34 -6 10 -22 12 -63 7z"/>
<path d="M1502 87 c-8 -10 -6 -13 9 -13 10 0 19 6 19 13 0 7 -4 13 -9 13 -5 0
-13 -6 -19 -13z"/>
<path d="M5194 58 c-1 -13 -4 -30 -5 -38 -3 -12 8 -16 49 -18 52 -3 53 -2 46
20 -4 13 -8 30 -8 39 0 11 -12 16 -41 18 -35 1 -40 -1 -41 -21z"/>
<path d="M4934 48 c3 -13 6 -29 6 -35 0 -7 10 -13 21 -13 17 0 20 4 15 23 -3
12 -6 28 -6 35 0 6 -10 12 -21 12 -17 0 -20 -4 -15 -22z"/>
<path d="M5638 63 c-27 -7 -3 -63 27 -63 22 0 23 2 13 30 -11 34 -16 38 -40
33z"/>
<path d="M5528 28 c3 -22 10 -28 28 -28 19 0 23 5 22 25 -1 14 -5 25 -8 26
-43 7 -46 5 -42 -23z"/>
<path d="M1455 31 c-8 -27 -2 -36 13 -18 6 7 7 18 3 26 -7 10 -10 8 -16 -8z"/>
<path d="M5384 34 c3 -8 6 -20 6 -25 0 -5 9 -9 20 -9 17 0 19 3 11 19 -14 24
-46 38 -37 15z"/>
<path d="M5915 20 l-50 -18 68 -1 c60 -1 68 1 65 16 -4 24 -24 25 -83 3z"/>
<path d="M784 15 c-16 -12 -17 -14 -3 -15 9 0 19 7 23 15 7 19 5 19 -20 0z"/>
</g>
</svg>
