<svg width="38" height="32" viewBox="0 0 38 32" fill="none" xmlns="http://www.w3.org/2000/svg">
<path d="M2.49997 4.8125C2.49997 3.53615 3.007 2.31207 3.90952 1.40955C4.81203 0.50703 6.03611 0 7.31247 0H32.6875C33.9638 0 35.1879 0.50703 36.0904 1.40955C36.9929 2.31207 37.5 3.53615 37.5 4.8125V23.1875C37.5 23.8195 37.3755 24.4453 37.1336 25.0292C36.8918 25.613 36.5373 26.1436 36.0904 26.5905C35.6435 27.0373 35.113 27.3918 34.5291 27.6337C33.9453 27.8755 33.3195 28 32.6875 28H20.8312L17.2437 24.4125C17.8877 23.1228 18.25 21.665 18.25 20.125H25.6875C26.0356 20.125 26.3694 19.9867 26.6155 19.7406C26.8617 19.4944 27 19.1606 27 18.8125C27 18.4644 26.8617 18.1306 26.6155 17.8844C26.3694 17.6383 26.0356 17.5 25.6875 17.5H17.8877C17.6247 16.5698 17.2223 15.6847 16.6942 14.875H29.1875C29.5356 14.875 29.8694 14.7367 30.1155 14.4906C30.3617 14.2444 30.5 13.9106 30.5 13.5625C30.5 13.2144 30.3617 12.8806 30.1155 12.6344C29.8694 12.3883 29.5356 12.25 29.1875 12.25H14.1602C12.594 11.1475 10.6847 10.5 8.62497 10.5C6.29747 10.5 4.16247 11.326 2.49997 12.6997V4.8125ZM10.8125 7C10.4644 7 10.1305 7.13828 9.88439 7.38442C9.63825 7.63056 9.49997 7.9644 9.49997 8.3125C9.49997 8.6606 9.63825 8.99444 9.88439 9.24058C10.1305 9.48672 10.4644 9.625 10.8125 9.625H22.1875C22.5356 9.625 22.8694 9.48672 23.1155 9.24058C23.3617 8.99444 23.5 8.6606 23.5 8.3125C23.5 7.9644 23.3617 7.63056 23.1155 7.38442C22.8694 7.13828 22.5356 7 22.1875 7H10.8125ZM8.62497 28C10.2604 28.0024 11.8555 27.4933 13.1872 26.544L17.76 31.115C17.8801 31.244 18.025 31.3474 18.186 31.4191C18.347 31.4909 18.5208 31.5294 18.6971 31.5325C18.8733 31.5356 19.0483 31.5032 19.2118 31.4372C19.3752 31.3712 19.5237 31.2729 19.6483 31.1483C19.7729 31.0237 19.8712 30.8752 19.9372 30.7118C20.0032 30.5484 20.0356 30.3733 20.0325 30.1971C20.0294 30.0209 19.9908 29.8471 19.9191 29.6861C19.8473 29.5251 19.7439 29.3802 19.615 29.26L15.044 24.6873C16.0667 23.2483 16.5763 21.5075 16.4909 19.7442C16.4056 17.9809 15.7302 16.2974 14.5732 14.964C13.4163 13.6306 11.8449 12.7246 10.1112 12.3915C8.37761 12.0583 6.58232 12.3174 5.01356 13.127C3.4448 13.9366 2.19357 15.2498 1.46073 16.8559C0.727888 18.462 0.555943 20.2677 0.972496 21.9832C1.38905 23.6987 2.36994 25.2245 3.7577 26.3156C5.14547 27.4068 6.85961 28 8.62497 28ZM8.62497 25.375C7.23258 25.375 5.89722 24.8219 4.91266 23.8373C3.92809 22.8527 3.37497 21.5174 3.37497 20.125C3.37497 18.7326 3.92809 17.3973 4.91266 16.4127C5.89722 15.4281 7.23258 14.875 8.62497 14.875C10.0174 14.875 11.3527 15.4281 12.3373 16.4127C13.3218 17.3973 13.875 18.7326 13.875 20.125C13.875 21.5174 13.3218 22.8527 12.3373 23.8373C11.3527 24.8219 10.0174 25.375 8.62497 25.375Z" fill="white"/>
</svg>