<svg width="21" height="21" viewBox="0 0 21 21" fill="none" xmlns="http://www.w3.org/2000/svg">
<path d="M16.6249 10.4996C16.1411 10.4996 15.75 10.8917 15.75 11.3746V18.375C15.75 18.8571 15.3579 19.25 14.875 19.25H2.62499C2.14194 19.25 1.75005 18.8571 1.75005 18.375V6.12438C1.75005 5.64227 2.14194 5.2494 2.62499 5.2494H9.62503C10.1089 5.2494 10.5 4.85733 10.5 4.37441C10.5 3.89134 10.1089 3.49927 9.62503 3.49927H2.62499C1.17775 3.49927 0 4.67708 0 6.12438V18.375C0 19.8223 1.17775 21.0001 2.62499 21.0001H14.875C16.3223 21.0001 17.5 19.8223 17.5 18.375V11.3746C17.5 10.8907 17.1088 10.4996 16.6249 10.4996Z" fill="#59C09B"/>
<path d="M8.20399 9.70283C8.14278 9.76404 8.10161 9.84191 8.08415 9.92587L7.46555 13.0201C7.43671 13.1635 7.48221 13.3114 7.58539 13.4156C7.66854 13.4987 7.78053 13.5433 7.89525 13.5433C7.92313 13.5433 7.95213 13.5407 7.98097 13.5346L11.0741 12.916C11.1598 12.8983 11.2377 12.8573 11.2981 12.796L18.2211 5.87267L15.1279 2.77954L8.20399 9.70283Z" fill="#59C09B"/>
<path d="M20.3597 0.639896C19.5067 -0.213299 18.1189 -0.213299 17.2666 0.639896L16.0557 1.85087L19.1488 4.94416L20.3597 3.73303C20.7728 3.32093 21.0003 2.77136 21.0003 2.18686C21.0003 1.60236 20.7728 1.05279 20.3597 0.639896Z" fill="#59C09B"/>
</svg>
