<svg width="26" height="26" viewBox="0 0 26 26" fill="none" xmlns="http://www.w3.org/2000/svg">
<g clip-path="url(#clip0_7393_5968)">
<path d="M10.7041 23.9542V25.2317C10.7041 25.6543 11.0473 26.0001 11.4668 26.0001H14.5328C14.9523 26.0001 15.2955 25.6543 15.2955 25.2317V23.9542H10.7041Z" fill="#576574"/>
<path d="M12.3087 25.2317V23.9542H10.7041V25.2317C10.7041 25.6543 11.0473 26.0001 11.4668 26.0001H13.0714C12.6519 26.0001 12.3087 25.6543 12.3087 25.2317Z" fill="#3E4B5A"/>
<path d="M13.1216 0.000961161C8.2199 -0.0655115 4.23322 3.82575 4.18645 8.72767C4.16278 11.2074 5.16353 13.4533 6.79107 15.0686C7.68152 15.9524 8.3403 17.0421 8.74376 18.2301L9.47602 20.3861C9.51624 20.3795 9.55727 20.3752 9.59932 20.3752H16.4C16.4421 20.3752 16.4831 20.3795 16.5233 20.3861L17.2557 18.2298C17.6608 17.0368 18.3271 15.9464 19.2197 15.0572C20.8217 13.4615 21.8133 11.2536 21.8133 8.81374C21.8132 3.98683 17.933 0.0662151 13.1216 0.000961161Z" fill="#FECA57"/>
<path d="M10.3133 18.23C9.9098 17.0421 9.25101 15.9523 8.36056 15.0686C6.73302 13.4532 5.73228 11.2074 5.75599 8.72765C5.79982 4.13296 9.3051 0.426232 13.7809 0.0343027C13.5633 0.0152089 13.3435 0.00383391 13.1217 0.000837818C8.2199 -0.065584 4.23322 3.82568 4.18645 8.7276C4.16278 11.2073 5.16353 13.4532 6.79102 15.0685C7.68147 15.9523 8.34025 17.0421 8.74371 18.23L9.47597 20.3861C9.51619 20.3794 9.55717 20.3751 9.59922 20.3751H11.0417L10.3133 18.23Z" fill="#F4B537"/>
<path d="M16.3999 20.3751C16.4419 20.3751 16.4829 20.3794 16.5232 20.3861L16.5269 20.3751H16.3999Z" fill="#F4B537"/>
<path d="M23.1226 5.74654C22.9673 5.59542 22.964 5.347 23.1151 5.19171L24.3824 3.88983C24.5336 3.73454 24.782 3.73114 24.9373 3.88237C25.0926 4.03349 25.0959 4.28191 24.9447 4.4372L23.6775 5.73908C23.5263 5.89437 23.2778 5.89772 23.1226 5.74654Z" fill="#FECA57"/>
<path d="M24.3824 13.8607L23.1151 12.5588C22.964 12.4035 22.9673 12.1551 23.1226 12.0039C23.2779 11.8528 23.5263 11.856 23.6775 12.0114L24.9447 13.3132C25.0959 13.4685 25.0925 13.7169 24.9372 13.8681C24.7818 14.0194 24.5334 14.0158 24.3824 13.8607Z" fill="#FECA57"/>
<path d="M25.102 9.26756H23.8348C23.6181 9.26756 23.4424 9.09191 23.4424 8.87518C23.4424 8.65844 23.618 8.48279 23.8348 8.48279H25.102C25.3187 8.48279 25.4944 8.65844 25.4944 8.87518C25.4944 9.09191 25.3187 9.26756 25.102 9.26756Z" fill="#FECA57"/>
<path d="M2.3229 5.73915L1.05514 4.43727C0.903918 4.28198 0.907218 4.03361 1.06251 3.88243C1.21775 3.73121 1.46617 3.73446 1.61734 3.8898L2.8851 5.19168C3.03632 5.34696 3.03302 5.59534 2.87773 5.74651C2.72245 5.89774 2.47397 5.89439 2.3229 5.73915Z" fill="#FECA57"/>
<path d="M1.06249 13.8681C0.907199 13.717 0.903949 13.4685 1.05512 13.3133L2.32288 12.0115C2.47411 11.8562 2.72248 11.8529 2.87771 12.0041C3.033 12.1553 3.03625 12.4037 2.88508 12.5589L1.61732 13.8608C1.46625 14.016 1.21778 14.0194 1.06249 13.8681Z" fill="#FECA57"/>
<path d="M2.16556 9.26768H0.897758C0.681074 9.26768 0.505371 9.09203 0.505371 8.8753C0.505371 8.65856 0.681023 8.48291 0.897758 8.48291H2.16556C2.38225 8.48291 2.55795 8.65856 2.55795 8.8753C2.5579 9.09203 2.38225 9.26768 2.16556 9.26768Z" fill="#FECA57"/>
<path d="M14.2586 19.4013C14.0419 19.4013 13.8662 19.2233 13.8662 19.0037C13.8662 15.8111 14.5496 13.7559 14.5787 13.67C14.6491 13.4622 14.8724 13.3516 15.0772 13.4229C15.2821 13.4942 15.3912 13.7202 15.321 13.9279C15.3124 13.9536 14.651 15.9581 14.651 19.0037C14.651 19.2233 14.4753 19.4013 14.2586 19.4013Z" fill="#E59D1F"/>
<path d="M11.7409 19.4013C11.5242 19.4013 11.3485 19.2232 11.3485 19.0036C11.3485 15.9536 10.6851 13.9477 10.6784 13.9277C10.6084 13.72 10.7177 13.4939 10.9227 13.4229C11.1275 13.3519 11.3505 13.4624 11.4207 13.6699C11.4498 13.7559 12.1332 15.811 12.1332 19.0036C12.1333 19.2233 11.9576 19.4013 11.7409 19.4013Z" fill="#E59D1F"/>
<path d="M14.6043 19.0089H11.3954C11.0152 19.0089 10.7041 19.32 10.7041 19.7002V20.3752H15.2955V19.7002C15.2955 19.32 14.9845 19.0089 14.6043 19.0089Z" fill="#F4B537"/>
<path d="M12.9476 19.0089H11.3954C11.0152 19.0089 10.7041 19.32 10.7041 19.7002V20.3752H12.2563V19.7002C12.2564 19.32 12.5674 19.0089 12.9476 19.0089Z" fill="#E59D1F"/>
<path d="M16.4003 20.3333H9.5996C9.18009 20.3333 8.83691 20.679 8.83691 21.1016V21.4538C8.83691 21.8764 9.18014 22.2222 9.5996 22.2222H16.4003C16.8198 22.2222 17.163 21.8764 17.163 21.4538V21.1016C17.163 20.679 16.8198 20.3333 16.4003 20.3333Z" fill="#CCD2DB"/>
<path d="M16.4003 22.2112H9.5996C9.18009 22.2112 8.83691 22.559 8.83691 22.984V23.3382C8.83691 23.7633 9.18014 24.1111 9.5996 24.1111H16.4003C16.8198 24.1111 17.163 23.7633 17.163 23.3382V22.984C17.163 22.559 16.8198 22.2112 16.4003 22.2112Z" fill="#E4EAF8"/>
<path d="M16.4003 21.1758H9.5996C9.304 21.1758 9.04695 21.0038 8.9205 20.7545C8.86748 20.859 8.83691 20.9768 8.83691 21.1016V21.4538C8.83691 21.8764 9.18014 22.2221 9.5996 22.2221H16.4003C16.8198 22.2221 17.163 21.8764 17.163 21.4538V21.1016C17.163 20.9768 17.1324 20.859 17.0794 20.7545C16.953 21.0038 16.6959 21.1758 16.4003 21.1758Z" fill="#BCC2CC"/>
<path d="M16.4003 23.0648H9.5996C9.30283 23.0648 9.04496 22.8904 8.91903 22.6381C8.86698 22.7424 8.83691 22.8598 8.83691 22.9841V23.3383C8.83691 23.7634 9.18014 24.1112 9.5996 24.1112H16.4003C16.8198 24.1112 17.163 23.7634 17.163 23.3383V22.9841C17.163 22.8598 17.1329 22.7424 17.0809 22.6381C16.955 22.8903 16.6971 23.0648 16.4003 23.0648Z" fill="#CCD2DB"/>
<path d="M15.6223 11.9985H10.3769C9.95744 11.9985 9.61426 12.3418 9.61426 12.7612V13.1108C9.61426 13.5303 9.95749 13.8735 10.3769 13.8735H15.6223C16.0418 13.8735 16.385 13.5302 16.385 13.1108V12.7612C16.385 12.3418 16.0418 11.9985 15.6223 11.9985Z" fill="#F4B537"/>
<path d="M15.6223 12.8302H10.3769C10.0823 12.8302 9.82586 12.6606 9.69896 12.4144C9.64518 12.5187 9.61426 12.6365 9.61426 12.7613V13.1109C9.61426 13.5304 9.95744 13.8736 10.3769 13.8736H15.6223C16.0418 13.8736 16.385 13.5303 16.385 13.1109V12.7613C16.385 12.6365 16.354 12.5187 16.3003 12.4144C16.1734 12.6606 15.917 12.8302 15.6223 12.8302Z" fill="#E59D1F"/>
</g>
<defs>
<clipPath id="clip0_7393_5968">
<rect width="26" height="26" fill="white"/>
</clipPath>
</defs>
</svg>
