<?xml version="1.0" standalone="no"?>
<!DOCTYPE svg PUBLIC "-//W3C//DTD SVG 20010904//EN"
 "http://www.w3.org/TR/2001/REC-SVG-20010904/DTD/svg10.dtd">
<svg version="1.0" xmlns="http://www.w3.org/2000/svg"
 width="72.000000pt" height="69.000000pt" viewBox="0 0 72.000000 69.000000"
 preserveAspectRatio="xMidYMid meet">

<g transform="translate(0.000000,69.000000) scale(0.100000,-0.100000)"
fill="#000000" stroke="none">
<path d="M200 670 c0 -5 5 -10 10 -10 6 0 10 5 10 10 0 6 -4 10 -10 10 -5 0
-10 -4 -10 -10z"/>
<path d="M375 650 c-10 -17 20 -44 40 -36 9 3 15 14 13 23 -4 21 -43 30 -53
13z"/>
<path d="M260 590 c-14 -6 -43 -28 -65 -50 -22 -21 -55 -53 -74 -70 -31 -29
-33 -34 -28 -78 4 -32 1 -53 -9 -66 -32 -44 -7 -124 46 -146 19 -8 30 -20 30
-32 0 -11 16 -36 35 -55 33 -33 38 -35 87 -29 69 7 67 7 111 0 34 -6 41 -3 72
30 18 20 43 36 55 36 12 0 38 16 57 35 35 35 36 37 30 100 -2 36 -1 68 4 71
17 10 9 64 -13 86 -13 13 -30 43 -38 67 -20 59 -56 84 -133 93 -34 4 -80 10
-102 13 -22 2 -51 0 -65 -5z m184 -125 c63 -5 70 -33 31 -125 -30 -72 -32
-100 -6 -100 28 0 45 -24 26 -40 -17 -14 -62 -6 -87 17 -25 22 -22 54 9 117
15 31 23 59 19 63 -5 4 -11 4 -13 -2 -2 -5 -20 -41 -41 -80 -27 -51 -43 -71
-59 -73 -30 -4 -30 20 -3 84 14 32 17 51 11 57 -7 7 -17 -5 -32 -39 -12 -27
-29 -68 -40 -92 -14 -33 -23 -42 -43 -42 -24 0 -56 23 -56 40 0 32 56 179 76
200 22 23 26 23 60 11 32 -11 38 -11 53 3 10 11 24 14 36 11 11 -4 37 -8 59
-10z"/>
<path d="M130 556 c0 -21 21 -31 30 -15 5 7 6 17 4 21 -9 14 -34 9 -34 -6z"/>
<path d="M600 480 c0 -13 7 -20 20 -20 13 0 20 7 20 20 0 13 -7 20 -20 20 -13
0 -20 -7 -20 -20z"/>
<path d="M690 400 c0 -5 5 -10 10 -10 6 0 10 5 10 10 0 6 -4 10 -10 10 -5 0
-10 -4 -10 -10z"/>
<path d="M17 384 c-10 -10 -9 -42 2 -48 18 -11 42 6 39 28 -3 21 -28 33 -41
20z"/>
<path d="M655 320 c-4 -6 -3 -16 3 -22 6 -6 12 -6 17 2 4 6 3 16 -3 22 -6 6
-12 6 -17 -2z"/>
<path d="M116 141 c-4 -5 -2 -12 3 -15 5 -4 12 -2 15 3 4 5 2 12 -3 15 -5 4
-12 2 -15 -3z"/>
<path d="M507 93 c-13 -12 -7 -41 10 -47 21 -8 48 17 40 38 -6 16 -38 22 -50
9z"/>
<path d="M325 31 c-3 -5 -1 -12 5 -16 12 -7 30 2 30 16 0 12 -27 12 -35 0z"/>
</g>
</svg>
