<svg width="49" height="48" viewBox="0 0 49 48" fill="none" xmlns="http://www.w3.org/2000/svg">
<path d="M39.3098 3.96805C38.8269 3.96805 38.3464 3.89934 37.8826 3.76377L26.1215 0.32821C24.2656 -0.213946 22.2679 0.07996 20.6431 1.13409L8.05227 8.12427C6.75084 8.8468 6.35278 10.544 7.19532 11.7775C7.82599 12.7008 8.98382 13.0961 10.0412 12.7491L15.2341 10.8598C13.5409 11.4156 13.0805 13.8318 14.4489 14.9803C15.2106 15.6196 16.6164 15.7041 17.4481 15.1609L23.7404 11.5828L29.4149 14.1045C31.0737 14.8416 32.9661 14.8769 34.6337 14.1605C35.5703 13.7581 36.3996 13.2309 37.0228 12.7783C37.8913 12.1475 38.9382 11.8151 40.0087 11.8151H48.4042V3.96805H39.3098Z" fill="#F1B0A2"/>
<path d="M41.9949 36.2225C41.3643 35.2992 40.2064 34.9039 39.149 35.2507L33.9559 37.1402C35.6493 36.5846 36.1099 34.1681 34.7414 33.0195C33.9798 32.3803 32.5739 32.2957 31.7422 32.8389L25.4499 36.417L19.7754 33.8953C18.1167 33.1581 16.2243 33.1229 14.5566 33.8393C13.62 34.2417 12.7907 34.7689 12.1676 35.2215C11.2991 35.8523 10.2521 36.1847 9.18159 36.1847H0.786133V44.0318H9.88053C10.3634 44.0318 10.8439 44.1006 11.3077 44.2361L23.0689 47.6717C24.9247 48.2138 26.9225 47.9199 28.5473 46.8658L41.1382 39.8756C42.4394 39.1532 42.8376 37.456 41.9949 36.2225Z" fill="#D78878"/>
<path d="M29.298 38.8348L33.9557 37.1402C35.6491 36.5847 36.1098 34.1682 34.7412 33.0195C33.9796 32.3802 32.5737 32.2957 31.742 32.839L25.4497 36.417L29.298 38.8348Z" fill="#BB5D4C"/>
<path d="M33.9558 37.1405L29.298 38.8346L27.4067 37.6463L31.9831 35.9822C33.409 35.5141 33.9605 33.7255 33.2816 32.4871C33.8275 32.5218 34.3638 32.7032 34.741 33.0198C36.1094 34.1685 35.6487 36.5845 33.9558 37.1405Z" fill="#A44F3E"/>
<path d="M19.209 40.8635C19.209 39.8706 20.1235 39.1347 21.0841 39.3546L26.367 40.5643C27.6205 40.8519 28.8884 40.1724 29.3595 38.9784C29.4801 39.2834 29.5443 39.6116 29.5443 39.9455C29.5443 40.2351 29.4964 40.5285 29.3958 40.8162C28.9572 42.072 27.6549 42.7969 26.3669 42.5015L19.209 40.8635Z" fill="#CA6E59"/>
<path d="M41.138 39.8761L28.5475 46.8655C26.9224 47.9196 24.9249 48.214 23.069 47.6715L11.3078 44.2361C10.8433 44.101 10.3636 44.0315 9.88005 44.0315H0.785645V42.0951H9.5735C10.0571 42.0951 10.5369 42.1637 11.0012 42.2998L22.7625 45.7352C24.6183 46.2776 26.6159 45.9832 28.2409 44.9292L40.8314 37.9388C41.4758 37.5807 41.8991 36.9842 42.06 36.322C42.8157 37.5459 42.4049 39.1724 41.138 39.8761Z" fill="#CA6E59"/>
<path d="M8.48779 44.0319H4.07131V36.1847H8.48779V44.0319Z" fill="#FE5694"/>
<path d="M8.48779 44.032H4.07131V42.0952H8.48779V44.032Z" fill="#FD3581"/>
<path d="M19.8921 9.16504L15.2344 10.8597C13.541 11.4152 13.0803 13.8317 14.4489 14.9804C15.2105 15.6196 16.6164 15.7042 17.4481 15.1609L23.7404 11.5829L19.8921 9.16504Z" fill="#D78878"/>
<path d="M15.2345 10.8593L19.8923 9.16528L21.7836 10.3536L17.2072 12.0176C15.7813 12.4858 15.2298 14.2744 15.9086 15.5128C15.3628 15.478 14.8265 15.2966 14.4493 14.98C13.0809 13.8314 13.5416 11.4154 15.2345 10.8593Z" fill="#CA6E59"/>
<path d="M29.9818 7.13633C29.9818 8.12924 29.0672 8.86518 28.1067 8.64524L22.8238 7.43558C21.5702 7.14796 20.3024 7.82746 19.8313 9.02146C19.7107 8.71649 19.6465 8.38827 19.6465 8.05433C19.6465 7.76474 19.6944 7.4713 19.7949 7.18368C20.2335 5.9278 21.5358 5.20293 22.8238 5.49833L29.9818 7.13633Z" fill="#EB9C8D"/>
<path d="M8.05249 8.12386L20.643 1.13442C22.2681 0.0803921 24.2656 -0.214077 26.1214 0.328455L37.8827 3.76383C38.3471 3.89892 38.8269 3.96849 39.3104 3.96849H48.4048V5.9048H39.6169C39.1333 5.9048 38.6536 5.83627 38.1892 5.70014L26.4279 2.26477C24.572 1.72233 22.5744 2.0167 20.9494 3.07074L8.35895 10.0612C7.71451 10.4193 7.29124 11.0159 7.13034 11.678C6.37476 10.454 6.78557 8.82755 8.05249 8.12386Z" fill="#EB9C8D"/>
<path d="M40.7026 3.96802H45.1191V11.8152H40.7026V3.96802Z" fill="#FE5694"/>
<path d="M40.7026 3.96802H45.1191V5.9048H40.7026V3.96802Z" fill="#FD3581"/>
<path d="M32.0796 21.565C32.027 19.9803 31.2345 18.5262 29.8873 17.6908C29.0788 17.1895 28.045 17.1015 27.135 17.3266C26.1414 17.5723 25.4757 18.2205 24.9169 19.0382C24.8481 19.1389 24.595 19.5194 24.595 19.5194C23.9829 18.5459 23.3182 17.6766 22.1731 17.3489C21.2284 17.0785 20.1388 17.1723 19.3026 17.6909C17.9554 18.5262 17.1629 19.9803 17.1102 21.5651C17.0491 23.4032 17.8415 24.8984 19.0588 26.1909C20.5877 27.8144 22.6033 29.4678 24.4172 30.7423C24.5241 30.8174 24.6656 30.8174 24.7724 30.7423C26.5865 29.4677 28.602 27.8144 30.1309 26.1909C31.3483 24.8983 32.1407 23.4032 32.0796 21.565Z" fill="#EE6161"/>
</svg>
