<svg width="19" height="21" viewBox="0 0 19 21" fill="none" xmlns="http://www.w3.org/2000/svg">
<path d="M16.6113 2.46094H13.5352V1.8457C13.5352 0.827982 12.7072 0 11.6895 0H6.76758C5.74986 0 4.92188 0.827982 4.92188 1.8457V2.46094H1.8457C0.827982 2.46094 0 3.28892 0 4.30664C0 5.124 0.534229 5.81852 1.27169 6.06051L2.36906 19.3075C2.4481 20.2566 3.25603 21 4.20837 21H14.2487C15.201 21 16.009 20.2566 16.0881 19.3072L17.1853 6.06047C17.9228 5.81852 18.457 5.124 18.457 4.30664C18.457 3.28892 17.629 2.46094 16.6113 2.46094ZM6.15234 1.8457C6.15234 1.50646 6.42834 1.23047 6.76758 1.23047H11.6895C12.0287 1.23047 12.3047 1.50646 12.3047 1.8457V2.46094H6.15234V1.8457ZM14.8618 19.2054C14.8354 19.5217 14.5661 19.7695 14.2487 19.7695H4.20837C3.89095 19.7695 3.62164 19.5217 3.59535 19.2057L2.51401 6.15234H15.943L14.8618 19.2054ZM16.6113 4.92188H1.8457C1.50646 4.92188 1.23047 4.64588 1.23047 4.30664C1.23047 3.9674 1.50646 3.69141 1.8457 3.69141H16.6113C16.9506 3.69141 17.2266 3.9674 17.2266 4.30664C17.2266 4.64588 16.9506 4.92188 16.6113 4.92188Z" fill="#FF0000"/>
<path d="M6.76644 17.8858L6.1512 7.96C6.13016 7.62085 5.83661 7.3629 5.4991 7.38402C5.15994 7.40506 4.90207 7.69701 4.92307 8.03613L5.53831 17.962C5.55853 18.2881 5.82939 18.5391 6.15178 18.5391C6.50808 18.5391 6.7883 18.2391 6.76644 17.8858Z" fill="#FF0000"/>
<path d="M9.22852 7.38281C8.88874 7.38281 8.61328 7.65827 8.61328 7.99805V17.9238C8.61328 18.2636 8.88874 18.5391 9.22852 18.5391C9.56829 18.5391 9.84375 18.2636 9.84375 17.9238V7.99805C9.84375 7.65827 9.56829 7.38281 9.22852 7.38281Z" fill="#FF0000"/>
<path d="M12.958 7.38401C12.6196 7.36297 12.3269 7.62084 12.3059 7.96L11.6906 17.8858C11.6697 18.2249 11.9276 18.5168 12.2667 18.5379C12.606 18.5589 12.8978 18.3009 12.9188 17.9619L13.534 8.03612C13.555 7.69696 13.2971 7.40501 12.958 7.38401Z" fill="#FF0000"/>
</svg>
