<svg width="30" height="30" viewBox="0 0 30 30" fill="none" xmlns="http://www.w3.org/2000/svg">
<path d="M0.91355 29.9864L2.87926 22.7633C1.58401 20.5429 0.903512 18.0177 0.907734 15.4471C0.907734 7.41708 7.41697 0.907837 15.447 0.907837C23.4771 0.907837 29.9863 7.41708 29.9863 15.4471C29.9863 23.4772 23.4771 29.9864 15.447 29.9864C12.8776 29.9906 10.3534 29.3106 8.13376 28.0163L0.91355 29.9864ZM10.1998 8.62529C10.012 8.63695 9.82857 8.6864 9.66039 8.77069C9.50267 8.86 9.35869 8.97165 9.23293 9.10218C9.05846 9.26647 8.95959 9.40896 8.85346 9.54708C8.3161 10.2464 8.02706 11.1048 8.03199 11.9868C8.03489 12.6992 8.221 13.3927 8.51178 14.0412C9.10644 15.3526 10.0849 16.7411 11.3775 18.0279C11.6886 18.3375 11.9925 18.6487 12.3196 18.938C13.9239 20.3504 15.8356 21.369 17.9027 21.9128L18.73 22.0392C18.999 22.0538 19.268 22.0334 19.5384 22.0203C19.9618 21.9985 20.3753 21.8838 20.7495 21.6845C20.9909 21.5565 21.1043 21.4926 21.3064 21.3646C21.3064 21.3646 21.3689 21.3239 21.4881 21.2338C21.6844 21.0884 21.8051 20.9851 21.9679 20.815C22.0886 20.69 22.1933 20.5431 22.2732 20.3759C22.3866 20.139 22.5 19.6868 22.5466 19.3102C22.5815 19.0223 22.5713 18.8653 22.5669 18.7679C22.5611 18.6123 22.4317 18.4509 22.2907 18.3826L21.4445 18.0031C21.4445 18.0031 20.1796 17.4521 19.4075 17.1002C19.3261 17.0648 19.2389 17.0446 19.1502 17.0406C19.0507 17.0304 18.9502 17.0416 18.8554 17.0735C18.7606 17.1053 18.6737 17.1571 18.6006 17.2253V17.2224C18.5933 17.2224 18.4959 17.3052 17.4447 18.5789C17.3844 18.66 17.3013 18.7212 17.206 18.7549C17.1107 18.7886 17.0075 18.7931 16.9097 18.7679C16.8149 18.7426 16.7221 18.7105 16.632 18.6719C16.4517 18.5963 16.3892 18.5673 16.2656 18.5135L16.2583 18.5106C15.4265 18.1474 14.6564 17.6569 13.9756 17.0566C13.7925 16.8967 13.6223 16.7222 13.4479 16.5536C12.8759 16.0058 12.3774 15.3861 11.9649 14.71L11.8791 14.5719C11.8175 14.4791 11.7677 14.3789 11.7308 14.2738C11.6755 14.0601 11.8195 13.8885 11.8195 13.8885C11.8195 13.8885 12.1728 13.5018 12.3371 13.2924C12.4739 13.1184 12.6015 12.9374 12.7195 12.7501C12.891 12.4738 12.9448 12.1903 12.8547 11.9708C12.4476 10.9763 12.0259 9.98617 11.5927 9.00331C11.5069 8.80849 11.2524 8.66891 11.0213 8.64129C10.9428 8.63256 10.8642 8.62384 10.7857 8.61802C10.5905 8.60832 10.3948 8.61172 10.1998 8.62529Z" fill="#25D366"/>
</svg>
