<svg width="99" height="65" viewBox="0 0 99 65" fill="none" xmlns="http://www.w3.org/2000/svg">
<g clip-path="url(#clip0_9155_6244)">
<path d="M24.9119 15.3414C9.39053 17.1963 2.27916 27.3125 2.07602 35.5097C1.73581 49.2447 15.8889 57.8333 28.0902 61.335C40.3947 64.8659 53.88 64.9608 66.2862 61.8251C77.0308 59.1094 92.3668 53.0274 94.0016 40.9069C94.7689 35.2181 91.9815 29.4612 87.9143 25.4424C76.9672 14.6258 57.926 11.0636 42.8732 12.7139C42.4791 8.15604 44.5316 2.725 48.3736 0C38.9089 0.952307 29.1155 7.1783 24.9119 15.3414Z" fill="url(#paint0_linear_9155_6244)"/>
<path d="M0 47.0801C0 47.0801 0.0766554 47.1761 0.220497 47.356C0.364339 47.5354 0.583257 47.7925 0.860344 48.1187C1.13946 48.4433 1.48576 48.8308 1.88595 49.2701C2.28681 49.709 2.75215 50.1925 3.26552 50.712C3.77505 51.2347 4.34771 51.7813 4.95464 52.3549C5.56969 52.9216 6.21991 53.515 6.91635 54.1037C7.08747 54.2537 7.26468 54.4003 7.44369 54.5471C7.62158 54.6949 7.80059 54.8441 7.98095 54.9939C8.1647 55.1398 8.34958 55.2866 8.53535 55.4341C8.72203 55.5804 8.9033 55.7347 9.09584 55.8774C9.47709 56.1674 9.85788 56.4635 10.2511 56.7474C10.4463 56.891 10.642 57.035 10.8379 57.1789L11.4374 57.5965C11.6379 57.7351 11.8329 57.8806 12.0363 58.0149C12.2389 58.1498 12.4416 58.2847 12.6439 58.4192C13.0456 58.6921 13.4575 58.9473 13.8622 59.2069C14.0638 59.3379 14.2674 59.464 14.4734 59.5843C14.6773 59.7082 14.8802 59.8315 15.0817 59.9542C15.1825 60.0154 15.2831 60.0766 15.3834 60.1374C15.4855 60.1954 15.5872 60.2529 15.6887 60.3105C15.8909 60.4269 16.0915 60.5424 16.2906 60.6569C16.6843 60.8942 17.091 61.0942 17.4768 61.3124C17.672 61.4173 17.8614 61.5283 18.0553 61.6256C18.2485 61.7245 18.4392 61.8221 18.6273 61.9187C19.0022 62.1149 19.3679 62.3052 19.7291 62.4753C20.0882 62.6507 20.435 62.8204 20.7682 62.9831C21.1057 63.1387 21.429 63.2879 21.7365 63.4297C21.8901 63.5024 22.0396 63.5733 22.185 63.642C22.3324 63.7061 22.4758 63.7684 22.6147 63.8287C22.8922 63.9503 23.1544 64.0594 23.3937 64.1697C23.5138 64.2238 23.6288 64.2758 23.7391 64.3253C23.8507 64.3713 23.9571 64.415 24.0581 64.4566C24.463 64.6204 24.7782 64.762 24.9948 64.8534C25.2106 64.9485 25.3258 64.9994 25.3258 64.9994C25.3258 64.9994 25.2018 64.9761 24.9691 64.9326C24.7376 64.8851 24.3949 64.8233 23.9629 64.7284C23.5273 64.6437 23.0108 64.5023 22.4145 64.3454C21.8146 64.1975 21.1567 63.9772 20.4302 63.7526C19.7169 63.4985 18.9357 63.2344 18.1358 62.8958C17.7322 62.7335 17.3198 62.5615 16.9066 62.3692C16.4917 62.18 16.0645 61.9911 15.6436 61.7743C15.2215 61.5598 14.7855 61.3522 14.3623 61.1119C13.9373 60.8746 13.4979 60.6476 13.0772 60.3848C12.6536 60.1266 12.2171 59.8794 11.8018 59.5981C11.3811 59.3248 10.9583 59.0504 10.5489 58.7583L9.93409 58.3218C9.73321 58.1713 9.53255 58.0211 9.33235 57.8711C8.92697 57.5771 8.54775 57.2546 8.16132 56.9477C7.39883 56.3213 6.67308 55.6776 6.00054 55.0271C5.8328 54.8641 5.66641 54.7025 5.50183 54.5425C5.33927 54.3804 5.18236 54.216 5.02634 54.0545C4.7116 53.7338 4.41761 53.4074 4.13015 53.0919C3.5656 52.451 3.04705 51.8346 2.59862 51.2433C2.37091 50.9506 2.16326 50.6622 1.96553 50.3891C1.77502 50.1104 1.59037 49.8498 1.42692 49.5978C1.09031 49.1011 0.827878 48.6487 0.613469 48.2773C0.397255 47.9068 0.251159 47.6024 0.147449 47.3985C0.0466696 47.1929 0 47.0801 0 47.0801Z" fill="url(#paint1_linear_9155_6244)"/>
<path d="M47.5671 2.7222C45.6291 5.07063 44.5424 8.11961 44.3864 11.0772C44.7739 11.0653 45.1619 11.0582 45.5502 11.0531C45.5026 8.22997 46.1294 5.18854 47.5671 2.7222Z" fill="url(#paint2_linear_9155_6244)"/>
<path d="M91.4271 21.8492C82.4044 14.2553 69.1434 11.1231 56.6608 11.197C59.3748 11.4038 62.0735 11.7635 64.7315 12.2752C72.2667 13.7259 79.6926 16.4328 85.8403 20.9186C89.0562 23.2651 91.9146 26.094 93.8188 29.5327C95.8278 33.1602 96.7669 37.2355 96.0398 41.3135C95.2396 45.8015 92.5718 49.5469 89.157 52.5691C94.5412 48.6597 98.6582 43.5923 98.9815 37.1926C99.2785 31.3123 95.9331 25.6416 91.4271 21.8492Z" fill="url(#paint3_linear_9155_6244)"/>
<path d="M7.66779 41.914C7.47593 41.0656 7.7476 40.3487 8.4472 39.7632C9.31521 40.6196 9.75891 41.0335 10.6639 41.8327C10.4479 42.0498 10.3548 42.2649 10.3859 42.4785C10.417 42.6919 10.5448 42.8954 10.7681 43.0853C10.9689 43.2562 11.1779 43.3586 11.3923 43.3927C11.6068 43.4267 11.7878 43.3759 11.9359 43.2422C12.1271 43.07 12.1675 42.8482 12.0617 42.5777C11.9558 42.307 11.7294 41.9147 11.4059 41.3971C11.0616 40.8468 10.8208 40.3707 10.6707 39.987C10.5205 39.6033 10.4801 39.2026 10.55 38.7896C10.6199 38.3768 10.8869 38.0045 11.3423 37.6698C11.804 37.3301 12.3081 37.1464 12.8477 37.1072C13.387 37.068 13.9235 37.1587 14.4624 37.3732C15.001 37.5879 15.506 37.9015 15.9894 38.3156C16.7715 38.9859 17.2339 39.6527 17.3843 40.3625C17.5347 41.0723 17.3422 41.7457 16.7763 42.3815C15.8699 41.7112 15.4242 41.3622 14.5492 40.6369C14.7404 40.4539 14.8229 40.2659 14.7981 40.0736C14.7733 39.8814 14.6649 39.7035 14.4723 39.538C14.3262 39.4123 14.1657 39.344 13.9901 39.3326C13.8142 39.3211 13.6492 39.3791 13.4952 39.5074C13.3667 39.6145 13.3081 39.7529 13.3202 39.9223C13.3324 40.0917 13.3838 40.2732 13.4753 40.4657C13.5667 40.6578 13.7164 40.9328 13.9328 41.2788C14.2541 41.7924 14.5154 42.235 14.6946 42.6081C14.8739 42.9812 14.962 43.3714 14.9597 43.7824C14.9575 44.1935 14.7823 44.5823 14.425 44.9466C14.0618 45.3167 13.6147 45.5603 13.0763 45.6668C12.5379 45.7732 11.9449 45.7295 11.3022 45.526C10.6592 45.3225 10.0159 44.9561 9.38871 44.4243C8.43525 43.6173 7.85943 42.7622 7.66779 41.914Z" fill="#404040"/>
<path d="M16.4349 48.8795C15.9838 48.1534 15.7944 47.4006 15.8598 46.638C15.9252 45.8752 16.2607 45.185 16.8383 44.558C17.4157 43.9311 18.1139 43.4957 18.912 43.2282C19.7102 42.9607 20.5175 42.8721 21.3413 42.951C22.1649 43.0297 22.9155 43.2649 23.6198 43.6626C24.3311 44.0641 24.879 44.5621 25.283 45.1772C25.687 45.7924 25.9062 46.4619 25.9359 47.1987C25.9659 47.9354 25.7851 48.6644 25.3655 49.3805C24.9457 50.0968 24.3715 50.651 23.6191 51.0243C22.867 51.3974 22.0227 51.5651 21.0938 51.5112C20.1647 51.4571 19.2581 51.1877 18.4034 50.7051C17.5489 50.2222 16.8859 49.6055 16.4349 48.8795ZM21.5285 49.2497C22.111 49.1136 22.5802 48.7653 22.9464 48.2176C23.3215 47.6565 23.4442 47.1269 23.3303 46.629C23.2165 46.1315 22.8828 45.7329 22.3209 45.4156C21.7514 45.094 21.1921 44.988 20.6251 45.1011C20.0578 45.2143 19.5532 45.5284 19.121 46.0571C18.6938 46.5796 18.5224 47.0984 18.6223 47.6151C18.7222 48.1318 19.0892 48.578 19.7165 48.9321C20.3353 49.2816 20.9457 49.3857 21.5285 49.2497Z" fill="#404040"/>
<path d="M28.2157 48.2174C28.8612 47.7846 29.5678 47.5266 30.3391 47.4306C31.1101 47.3347 31.8814 47.4166 32.6809 47.6733C33.6954 47.999 34.4539 48.4985 34.9923 49.2098C35.5307 49.9211 35.7868 50.7475 35.7345 51.7044C34.6654 51.4556 34.1333 51.3175 33.0766 51.0137C33.0272 50.6738 32.8955 50.3865 32.6813 50.1502C32.4672 49.9138 32.184 49.7403 31.8282 49.6258C31.2779 49.4486 30.7665 49.4743 30.2782 49.7071C29.7896 49.9401 29.4034 50.3414 29.1308 50.9211C28.8549 51.508 28.8066 52.0383 29.0012 52.511C29.1955 52.9839 29.6005 53.3251 30.206 53.52C30.5977 53.6461 30.9753 53.6764 31.3333 53.6122C31.6911 53.5482 32.009 53.3917 32.2854 53.1451C33.3981 53.4648 33.9581 53.6103 35.0836 53.8722C34.5801 54.7245 33.8307 55.3183 32.8184 55.6222C31.8061 55.9264 30.659 55.8914 29.43 55.4968C28.4617 55.1857 27.6821 54.7206 27.1119 54.1263C26.5417 53.5318 26.2211 52.8634 26.1447 52.1365C26.0685 51.4101 26.243 50.6816 26.6427 49.9483C27.0386 49.2223 27.5702 48.6502 28.2157 48.2174Z" fill="#404040"/>
<path d="M60.7012 48.6136C61.5137 51.2435 62.3263 53.8734 63.1388 56.5034C62.0287 56.7765 61.4704 56.8998 60.3495 57.1203C59.6965 54.455 58.4912 50.3087 57.7655 47.7218C58.9192 49.0992 60.6342 48.5569 60.7012 48.6136Z" fill="#404040"/>
<path d="M47.6221 57.0074C46.2065 56.997 45.4985 56.9707 44.0858 56.8763C43.8252 57.3949 43.6919 57.6536 43.4191 58.1692C42.2222 58.0784 41.6245 58.0183 40.4327 57.8687C42.0511 55.3252 43.5059 52.745 44.8303 50.0506C45.9188 50.1201 46.4639 50.1401 47.5542 50.1509C48.613 52.9315 49.8117 55.6097 51.1762 58.2657C49.9718 58.327 49.3687 58.3427 48.163 58.3449C47.9402 57.8109 47.8322 57.5434 47.6221 57.0074ZM46.971 55.2558C46.5828 54.1886 46.401 53.6532 46.0622 52.5799C45.6275 53.6245 45.398 54.1446 44.915 55.1799C45.7371 55.225 46.1483 55.2403 46.971 55.2558Z" fill="#404040"/>
<path d="M55.2568 56.1624C56.4778 56.0124 57.0868 55.9214 58.2995 55.7076C58.4549 56.3911 58.5327 56.733 58.688 57.4165C56.7033 57.7665 54.6999 58.0181 52.6881 58.1703C52.4232 55.4498 52.1583 52.7293 51.8932 50.0088C52.8365 49.9375 53.3075 49.8907 54.2467 49.7754C54.5833 51.9046 54.9199 54.0334 55.2568 56.1624Z" fill="#404040"/>
<path d="M40.7209 49.8931C40.0901 52.5754 39.4593 55.2577 38.8284 57.94C37.7196 57.6514 37.1695 57.4947 36.0792 57.1552C36.8674 54.5177 37.6558 51.8805 38.444 49.243C39.347 49.524 39.8026 49.654 40.7209 49.8931Z" fill="#404040"/>
<path d="M67.4838 53.1904C69.0424 52.6409 69.8137 52.3376 71.3346 51.6742C71.7098 52.3355 71.8976 52.6659 72.2728 53.3272C69.9449 54.2957 67.6137 55.142 65.1997 55.8938C64.9508 55.2368 64.8264 54.9085 64.5775 54.2515C65.3165 52.4441 65.932 50.5904 66.4107 48.7043C65.0273 49.219 64.3272 49.451 62.9154 49.8648C62.6514 49.1682 62.5195 48.8201 62.2555 48.1234C64.2537 47.5377 66.2118 46.8273 68.1133 45.9978C68.465 46.6176 68.6409 46.9273 68.9924 47.547C68.6253 49.4581 68.1183 51.3444 67.4838 53.1904Z" fill="#404040"/>
<path d="M71.8285 44.1857C72.782 45.5303 73.7352 46.8751 74.6887 48.2197C74.9545 48.5946 75.2672 48.8261 75.6315 48.9091C75.9957 48.9921 76.404 48.9076 76.8472 48.6517C77.2905 48.3958 77.5443 48.0958 77.6068 47.7615C77.6692 47.4276 77.554 47.084 77.2677 46.7303C76.222 45.4389 75.1761 44.1475 74.1304 42.8562C74.9547 42.3494 75.3617 42.0851 76.1639 41.5344C77.2911 42.7728 78.4184 44.0111 79.5457 45.2494C80.0805 45.8368 80.3792 46.4475 80.4223 47.0866C80.4654 47.7259 80.2834 48.3458 79.8738 48.933C79.4641 49.5202 78.8835 50.0358 78.1443 50.4615C77.4045 50.8874 76.6535 51.1385 75.9107 51.2174C75.1673 51.2963 74.4808 51.1825 73.857 50.8855C73.2331 50.5887 72.7209 50.1009 72.3047 49.4357C71.4367 48.0475 70.5687 46.6591 69.7004 45.271C70.5608 44.8586 70.9867 44.6416 71.8285 44.1857Z" fill="#404040"/>
<path d="M84.1131 45.618C83.1441 45.761 82.3284 45.5094 81.6543 44.9026C82.6134 44.1967 83.0855 43.8294 84.0121 43.0663C84.2628 43.2539 84.5113 43.3364 84.7588 43.3123C85.0059 43.2881 85.2429 43.1806 85.4656 42.99C85.6661 42.8187 85.7878 42.6389 85.8302 42.454C85.8724 42.2688 85.8158 42.1121 85.6616 41.9838C85.4627 41.8181 85.2039 41.7827 84.8871 41.8728C84.5701 41.9629 84.1102 42.1556 83.5102 42.4262C82.8713 42.7141 82.3259 42.9096 81.8869 43.0286C81.448 43.1478 80.991 43.1718 80.5202 43.1015C80.0497 43.0312 79.6233 42.7952 79.2369 42.4016C78.8448 42.0024 78.6291 41.5726 78.5781 41.1158C78.5272 40.6593 78.6255 40.2077 78.8696 39.754C79.114 39.3002 79.4761 38.8741 79.9611 38.4624C80.7457 37.7963 81.5388 37.3917 82.38 37.2549C83.2212 37.118 84.0155 37.2769 84.7532 37.7662C83.9303 38.5743 83.5093 38.9644 82.6512 39.7173C82.44 39.5516 82.2213 39.4796 81.997 39.5001C81.7724 39.5205 81.5641 39.6126 81.3706 39.7766C81.2239 39.901 81.1436 40.0376 81.1299 40.1879C81.1159 40.3383 81.1826 40.4802 81.3307 40.6136C81.4543 40.7248 81.6139 40.7772 81.8103 40.7686C82.0069 40.7602 82.2175 40.7181 82.4413 40.6414C82.6654 40.5647 82.9858 40.4381 83.3934 40.2521C83.9977 39.9764 84.523 39.7475 84.9665 39.5889C85.4099 39.4302 85.8742 39.349 86.3609 39.3457C86.8479 39.3425 87.3047 39.4908 87.7261 39.8003C88.1542 40.1148 88.4293 40.5058 88.5402 40.9779C88.6511 41.4495 88.5835 41.9705 88.3305 42.5316C88.0778 43.0929 87.637 43.6511 87.0125 44.1872C86.0635 45.0018 85.0817 45.4753 84.1131 45.618Z" fill="#404040"/>
<path d="M34.0282 34.978C34.0267 34.7131 34.042 34.457 34.0749 34.2261C34.2688 32.8727 34.4841 31.4843 34.9853 30.2384C35.2137 29.6709 35.5059 29.1383 35.8795 28.6931C36.0684 28.4679 36.2767 28.2661 36.5002 28.0922C36.626 27.9943 37.0787 27.593 37.2277 27.6443C39.3276 28.3674 40.3557 28.2202 41.2167 28.2211C41.6778 28.2215 42.2768 28.2403 42.7692 28.0191C43.0138 29.1643 43.5047 30.1623 44.1804 30.9758C41.9039 32.0818 40.6653 36.3239 40.2385 38.8693C40.2128 39.023 37.4432 38.3925 37.1894 38.3102C36.793 38.1815 36.3753 38.1882 35.9697 38.0806C35.3118 37.9062 34.6052 37.5924 34.3171 36.797C34.132 36.2868 34.0321 35.6074 34.0282 34.978Z" fill="#404040"/>
<path d="M46.3588 30.3354C47.1779 31.3563 48.5277 31.7031 49.4994 31.6869C50.4997 31.6701 51.836 31.2783 52.6168 30.194C55.4138 31.5143 57.5795 35.8376 58.1928 39.6697C58.3851 40.8117 57.7739 41.7827 56.8948 42.1666C56.4989 42.3339 56.0469 42.4856 55.5561 42.6223C55.5067 42.6361 55.4747 43.2343 55.4747 43.3131C55.4747 43.558 55.5989 43.8199 55.7001 44.0409C55.9306 44.5433 56.2534 45.0001 56.5393 45.4738C56.7587 45.8373 56.9952 46.194 57.1755 46.5682C57.2865 46.7984 57.6068 47.2586 57.1708 47.3672C56.8439 47.4487 56.4133 47.1987 56.1335 47.0622C55.4082 46.7087 54.6628 46.3902 53.9589 45.9981C52.7439 45.3212 51.685 44.4097 50.3002 44.0495C49.6191 43.8723 48.9299 43.755 48.2499 43.5688C46.8739 43.1916 45.4905 42.8915 44.0848 42.8292C43.4709 42.8021 42.9012 42.6219 42.3195 42.3733C41.5705 42.0535 41.0125 41.2499 41.1085 40.2508C41.5509 36.2903 43.5554 31.7865 46.3588 30.3354Z" fill="#404040"/>
<path d="M44.0974 22.4988C44.356 23.0174 45.7227 22.2274 46.8608 21.5254C47.9787 20.8358 50.0562 19.3774 51.1995 20.6714C51.2595 20.7393 51.4523 21.1262 51.5485 21.113C51.7456 21.0861 51.9242 21.0928 52.0454 21.143C52.0454 21.143 54.3913 21.6502 53.965 25.5805C53.9057 25.5719 53.8248 25.5405 53.7312 25.4954C53.7524 27.879 52.0353 29.8584 49.8109 29.9567C47.5266 30.0576 45.5782 28.1374 45.4589 25.6683C45.44 25.2783 45.4729 24.9 45.5421 24.5358C45.5476 24.3935 45.5588 24.2508 45.5814 24.109C44.7046 23.7242 44.4748 23.5035 44.0974 22.4988Z" fill="#404040"/>
<path d="M44.1801 25.697C43.5191 26.5079 42.486 27.5785 39.7375 27.5218C39.6802 27.5956 39.0199 27.4798 38.9125 27.4677C38.6648 27.4395 38.4183 27.4003 38.1748 27.3481C37.7519 27.2574 37.3375 27.1282 36.9436 26.9543C36.2909 26.6661 35.6662 26.2697 35.2042 25.7369C34.9973 25.498 34.8841 25.2428 34.7407 24.9738C34.7105 24.9171 34.4201 24.1125 34.5215 24.1319C34.5723 24.1416 34.6437 24.1127 34.6936 24.1228C34.5499 23.7143 34.4135 23.2276 34.3903 22.8351C34.54 23.0769 34.6613 23.4479 34.8557 23.6329C34.8106 23.482 34.7713 23.33 34.7844 23.1554C34.951 23.2681 35.1194 23.3604 35.3156 23.4156C35.3853 23.4352 35.4597 23.4589 35.532 23.4662C35.7104 23.4841 35.9065 23.3738 36.0625 23.3007C36.221 23.2265 36.2796 23.0854 36.3484 22.9366C36.4206 22.7803 36.513 22.6269 36.5669 22.4654C36.6866 22.1068 36.69 21.7466 36.69 21.3719C36.69 20.7781 36.784 20.0978 37.1722 19.6204C37.2917 19.4734 37.4604 19.349 37.6153 19.2375C37.7521 19.139 37.8962 19.0356 38.0398 18.9379C38.7615 18.4463 39.765 18.3135 40.6224 18.4749C41.0483 18.5551 41.4715 18.715 41.8275 18.9547C41.9555 19.041 42.052 19.1513 42.1745 19.2386C42.326 19.3466 42.5066 19.4359 42.6761 19.5145C42.5699 19.4652 42.4813 19.5294 42.5009 19.6292C42.5239 19.746 42.6678 19.796 42.7498 19.8629C42.9676 20.0405 43.1106 20.3696 43.2334 20.6119C43.5112 21.1598 43.6983 21.7472 43.8275 22.3423C43.8386 22.3937 43.8577 22.4557 43.8807 22.523C43.3272 22.5771 42.9061 22.4497 42.7674 22.1606C43.2109 23.3852 43.6048 24.4326 44.6337 24.9022L44.1801 25.697Z" fill="#404040"/>
<path d="M65.1844 35.0245C65.1763 34.7596 65.1512 34.504 65.1095 34.2742C64.8651 32.9274 64.5982 31.5466 64.0506 30.3177C63.7006 29.5327 63.1875 28.8147 62.5014 28.2638C62.3017 28.1032 62.094 27.9381 61.8605 27.824C61.6754 27.7337 61.5345 27.5712 61.3079 27.6229C61.1056 27.669 60.9758 27.8827 60.8177 27.9956C60.4155 28.2834 60.0246 28.5528 59.5207 28.639C58.925 28.7408 58.2985 28.6905 57.7116 28.5632C57.4765 28.5121 57.2436 28.4379 57.0246 28.3409C56.8023 28.2426 56.5891 28.1168 56.3873 27.9846C56.406 27.9969 56.0899 28.9156 56.0615 29.0048C55.9048 29.4954 55.7181 29.9737 55.483 30.4352C55.4295 30.5402 55.0855 31.1623 54.9166 31.0901C57.2341 32.1185 58.5979 36.5961 59.1194 39.1269C59.1509 39.2797 61.8965 38.5551 62.1475 38.4641C62.5389 38.322 62.9569 38.3145 63.3584 38.1931C64.0097 37.9963 64.7046 37.6586 64.9632 36.8533C65.1294 36.3368 65.2038 35.6542 65.1844 35.0245Z" fill="#404040"/>
<path d="M63.4594 28.5175C63.4594 28.5175 61.4305 26.7612 61.396 25.5808C61.396 25.5808 61.3455 25.3111 61.5793 25.0234C61.5793 25.0234 62.0593 24.4015 61.7184 23.8318C61.7184 23.8318 61.5996 23.4906 61.7534 23.1927C61.7534 23.1927 62.4074 20.9678 61.5412 19.9161C61.5412 19.9161 60.932 18.6812 59.5721 18.5101C59.5721 18.5101 59.9355 16.4401 57.5292 16.7296C57.5292 16.7296 56.1861 16.7999 56.5764 18.5338C56.5764 18.5338 54.1142 19.3878 54.4012 22.1443C54.4012 22.1443 54.6167 23.4192 55.0663 23.9519C55.2507 24.1711 55.0411 24.7134 55.0884 24.9859C55.2228 25.7556 56.0101 27.0972 56.7823 27.421C57.1906 27.5921 59.0019 28.5535 60.7738 26.8942L61.1 26.5702C61.1 26.5697 63.1668 28.4147 63.4594 28.5175Z" fill="#404040"/>
</g>
<defs>
<linearGradient id="paint0_linear_9155_6244" x1="2.07003" y1="32.0425" x2="94.1289" y2="32.0425" gradientUnits="userSpaceOnUse">
<stop stop-color="#7CC6BD"/>
<stop offset="0.4975" stop-color="#89E4B9"/>
<stop offset="1" stop-color="#2BBFB5"/>
</linearGradient>
<linearGradient id="paint1_linear_9155_6244" x1="0" y1="56.0401" x2="25.3258" y2="56.0401" gradientUnits="userSpaceOnUse">
<stop stop-color="#7CC6BD"/>
<stop offset="0.4975" stop-color="#89E4B9"/>
<stop offset="1" stop-color="#2BBFB5"/>
</linearGradient>
<linearGradient id="paint2_linear_9155_6244" x1="44.6765" y1="6.81662" x2="47.2709" y2="6.99531" gradientUnits="userSpaceOnUse">
<stop stop-color="#7CC6BD"/>
<stop offset="0.4975" stop-color="#89E4B9"/>
<stop offset="1" stop-color="#2BBFB5"/>
</linearGradient>
<linearGradient id="paint3_linear_9155_6244" x1="57.2243" y1="32.2669" x2="98.8657" y2="31.1559" gradientUnits="userSpaceOnUse">
<stop stop-color="#7CC6BD"/>
<stop offset="0.4975" stop-color="#89E4B9"/>
<stop offset="1" stop-color="#2BBFB5"/>
</linearGradient>
<clipPath id="clip0_9155_6244">
<rect width="99" height="65" fill="white"/>
</clipPath>
</defs>
</svg>
