<?xml version="1.0" encoding="UTF-8"?><svg id="Calque_1" xmlns="http://www.w3.org/2000/svg" viewBox="0 0 512 512"><defs><style>.cls-1{fill:#474f54;}.cls-2{fill:#32393f;}.cls-3{fill:#282828;}.cls-4{fill:#444;}.cls-5{fill:#646d73;}</style></defs><path class="cls-4" d="M251.65,347.38c7.17,0,12.98,2.6,12.98,5.81v-.66c0-3.28-5.8-5.94-12.98-5.94s-12.98,2.66-12.98,5.94v3.76h12.98v-8.9Z"/><path class="cls-3" d="M251.65,347.38v8.9h12.98v-3.09c0-3.21-5.8-5.81-12.98-5.81Z"/><path class="cls-5" d="M251.65,434.15h-25.95c-7.17,0-12.98-5.8-12.98-12.98s5.8-12.98,12.98-12.98h25.95v-51.91h-77.86c-7.27,0-12.98,5.71-12.98,12.98h0v90.84h90.84v-25.95Z"/><path class="cls-1" d="M329.51,356.29h-77.86v51.91h25.95c7.17,0,12.98,5.8,12.98,12.98s-5.8,12.98-12.98,12.98h-25.95v25.95h90.84v-90.84c0-.22-.02-.44-.03-.66-.34-6.95-5.9-12.32-12.94-12.32Z"/><path class="cls-4" d="M212.71,421.17c0,7.17,5.8,12.98,12.98,12.98h25.95v-25.95h-25.95c-7.17,0-12.98,5.8-12.98,12.98Z"/><path class="cls-3" d="M277.6,434.15c7.17,0,12.98-5.8,12.98-12.98s-5.8-12.98-12.98-12.98h-25.95v25.95h25.95Z"/><path class="cls-1" d="M251.65,460.11h-103.82c-7.17,0-12.98,5.8-12.98,12.98s5.8,12.98,12.98,12.98h103.82v-25.95Z"/><path class="cls-2" d="M251.65,473.08v12.98h103.82c7.17,0,12.98-5.8,12.98-12.98s-5.8-12.98-12.98-12.98h-103.82v12.98Z"/></svg>