<svg width="128" height="165" viewBox="0 0 128 165" fill="none" xmlns="http://www.w3.org/2000/svg">
<g clip-path="url(#clip0_3_282)">
<path d="M50.6085 104.666C51.159 104.245 51.3791 103.529 51.159 102.876C50.9545 102.237 50.3569 101.802 49.6806 101.802L43.2484 101.755L41.2668 95.4662C41.0309 94.6568 40.166 94.1742 39.3324 94.4233C38.8292 94.5789 38.4203 94.9681 38.2788 95.4662L36.2815 101.802H29.8964C29.2201 101.802 28.6225 102.237 28.4181 102.876C28.1822 103.529 28.4181 104.245 28.9685 104.666L34.1426 108.557C34.1426 108.557 34.1741 108.62 34.1741 108.666L32.1925 114.955C31.9881 115.609 32.224 116.34 32.8058 116.745C33.3563 117.134 34.0954 117.119 34.6144 116.714L39.8042 112.822L44.9626 116.714C45.4973 117.119 46.2365 117.134 46.7712 116.745C47.3374 116.34 47.589 115.624 47.3845 114.955L45.403 108.666C45.403 108.666 45.403 108.588 45.4344 108.557L50.6085 104.666V104.666Z" fill="#FABE2C"/>
<path d="M32.7744 116.683L39.9458 106.736L46.8184 116.73C46.8184 116.73 46.0321 117.415 45.0098 116.761L39.8043 112.838L34.5358 116.792C34.5358 116.792 33.6079 117.446 32.7901 116.683H32.7744Z" fill="#FF9100"/>
<path d="M28.4023 102.782L39.9614 106.736L34.1897 108.573L28.8741 104.619C28.8741 104.619 28.0563 104.028 28.418 102.782H28.4023Z" fill="#FF9100"/>
<path d="M39.9457 106.72L39.7727 94.3455C39.7727 94.3455 40.7321 94.2832 41.2196 95.295L43.2483 101.755L39.9615 106.72H39.9457Z" fill="#FF9100"/>
<path d="M39.9457 106.72L51.1117 102.767C51.1117 102.767 51.6779 104.028 50.3725 104.853L45.4343 108.573L39.9614 106.736L39.9457 106.72Z" fill="#FF9100"/>
<path d="M19.2338 82.7179C19.7056 82.3599 19.8943 81.7373 19.7056 81.1613C19.5326 80.6009 19.0136 80.2429 18.4317 80.2429L12.8802 80.1962L11.1817 74.7637C10.9773 74.0632 10.2224 73.6585 9.51468 73.8608C9.07433 73.9854 8.72834 74.3278 8.60253 74.7637L6.87258 80.2274H1.36822C0.786334 80.2274 0.267351 80.6009 0.0943567 81.1458C-0.110091 81.7061 0.0943567 82.3288 0.566159 82.7024L5.03256 86.0646C5.03256 86.0646 5.06401 86.1269 5.06401 86.158L3.36552 91.5906C3.1768 92.1665 3.39697 92.7891 3.90023 93.1472C4.37203 93.4741 5.01683 93.4585 5.4729 93.116L9.9393 89.7538L14.39 93.116C14.846 93.4741 15.4908 93.4896 15.9626 93.1472C16.4502 92.7891 16.6703 92.1821 16.4974 91.5906L14.7989 86.158C14.7989 86.158 14.7989 86.0958 14.8303 86.0646L19.2967 82.7024L19.2338 82.7179Z" fill="#FABE2C"/>
<path d="M3.85304 93.0849L10.0336 84.4924L15.9626 93.116C15.9626 93.116 15.2864 93.7075 14.39 93.1472L9.89211 89.7693L5.34708 93.1783C5.34708 93.1783 4.54501 93.7542 3.83731 93.0849H3.85304Z" fill="#FF9100"/>
<path d="M0.0785387 81.0831L10.0493 84.4921L5.06392 86.0798L0.471707 82.6709C0.471707 82.6709 -0.235996 82.1572 0.0785387 81.0831V81.0831Z" fill="#FF9100"/>
<path d="M10.0494 84.4925L9.90784 73.8142C9.90784 73.8142 10.7414 73.7675 11.1502 74.6236L12.8959 80.1963L10.0494 84.4769V84.4925Z" fill="#FF9100"/>
<path d="M10.0493 84.4921L19.6741 81.0831C19.6741 81.0831 20.1616 82.1728 19.0293 82.8732L14.7674 86.0798L10.0336 84.4921H10.0493Z" fill="#FF9100"/>
<path d="M28.6227 39.8335C29.1416 39.4443 29.3461 38.775 29.1259 38.1679C28.9372 37.5764 28.3868 37.1717 27.742 37.1717L21.7501 37.125L19.91 31.2566C19.6899 30.4939 18.8721 30.058 18.1172 30.2759C17.6454 30.416 17.268 30.7741 17.1264 31.2566L15.2549 37.1561H9.31022C8.68115 37.1561 8.11499 37.5609 7.92627 38.1524C7.70609 38.7594 7.92627 39.4288 8.42952 39.8179L13.2419 43.4448C13.2419 43.4448 13.2734 43.5071 13.2734 43.5382L11.4333 49.4066C11.2446 50.0292 11.4648 50.6986 11.9995 51.0722C12.5028 51.4302 13.1947 51.4146 13.6823 51.041L18.5104 47.4142L23.3228 51.041C23.826 51.4146 24.5023 51.4302 25.0055 51.0722C25.5402 50.6986 25.7761 50.0292 25.5717 49.4066L23.7316 43.5382C23.7316 43.5382 23.7316 43.4604 23.7631 43.4448L28.5755 39.8179L28.6227 39.8335Z" fill="#FABE2C"/>
<path d="M12.0309 51.0255L18.7148 41.7637L25.1156 51.0722C25.1156 51.0722 24.3764 51.7104 23.4328 51.1033L18.5733 47.4453L13.6665 51.1189C13.6665 51.1189 12.8016 51.7415 12.0467 51.0255H12.0309Z" fill="#FF9100"/>
<path d="M7.942 38.0745L18.6991 41.7481L13.3205 43.4604L8.36662 39.7868C8.36662 39.7868 7.61173 39.2264 7.942 38.0745V38.0745Z" fill="#FF9100"/>
<path d="M18.6991 41.7637L18.5418 30.2448C18.5418 30.2448 19.4382 30.1981 19.8786 31.1321L21.7658 37.1562L18.6991 41.7793V41.7637Z" fill="#FF9100"/>
<path d="M18.6991 41.7637L29.0945 38.0901C29.0945 38.0901 29.6292 39.2731 28.4025 40.0203L23.8103 43.4759L18.6991 41.7637V41.7637Z" fill="#FF9100"/>
<path d="M87.2834 14.85C88.0855 14.2585 88.4 13.2 88.0698 12.266C87.7867 11.3476 86.9217 10.725 85.9309 10.725L76.6836 10.6627L73.8371 1.60329C73.4911 0.435838 72.2487 -0.249068 71.0534 0.0933851C70.33 0.31131 69.7481 0.871687 69.5279 1.60329L66.6342 10.7406H57.4341C56.459 10.7406 55.5941 11.3632 55.2952 12.2816C54.965 13.2156 55.2952 14.2585 56.0816 14.8656L63.5361 20.4693C63.5361 20.4693 63.5832 20.5627 63.5832 20.625L60.7367 29.6844C60.4379 30.634 60.7839 31.6924 61.6174 32.2684C62.4037 32.8288 63.4732 32.7976 64.228 32.2217L71.6982 26.6179L79.137 32.2217C79.9076 32.8132 80.9613 32.8288 81.7476 32.2684C82.5654 31.6769 82.9271 30.6495 82.6283 29.6844L79.7818 20.625C79.7818 20.625 79.7818 20.516 79.829 20.4693L87.2834 14.8656V14.85Z" fill="#FABE2C"/>
<path d="M61.6016 32.1597L71.9341 17.8234L81.8419 32.222C81.8419 32.222 80.6939 33.2182 79.2313 32.2687L71.7296 26.6182L64.1336 32.3154C64.1336 32.3154 62.7811 33.2649 61.6173 32.1597H61.6016Z" fill="#FF9100"/>
<path d="M55.2952 12.1418L71.9341 17.839L63.6147 20.5007L55.9558 14.8036C55.9558 14.8036 54.792 13.9474 55.2952 12.1418V12.1418Z" fill="#FF9100"/>
<path d="M71.9342 17.8231L71.6825 -4.5377e-05C71.6825 -4.5377e-05 73.0665 -0.0778756 73.7585 1.3542L76.6679 10.6627L71.9184 17.8075L71.9342 17.8231Z" fill="#FF9100"/>
<path d="M71.9341 17.8231L88.0069 12.1259C88.0069 12.1259 88.8247 13.9471 86.9375 15.1146L79.829 20.4693L71.9341 17.8075V17.8231Z" fill="#FF9100"/>
<path d="M113.799 109.554L103.01 105.662C102.68 105.538 102.271 105.46 101.878 105.46H32.759C30.8875 105.46 29.4249 106.908 29.4249 108.76V155.116C29.4249 160.579 33.8913 165 39.4114 165H105.998C111.519 165 115.985 160.579 115.985 155.116V112.652C115.985 111.266 115.12 110.021 113.783 109.554H113.799Z" fill="#FC1A40"/>
<path d="M116.001 112.652V155.116C116.001 160.579 111.534 165 106.014 165H72.7207V105.46H101.894C102.287 105.46 102.696 105.522 103.026 105.662L113.815 109.554C115.151 110.021 116.016 111.266 116.016 112.652H116.001Z" fill="#C60034"/>
<path d="M114.805 74.0012C113.673 69.4559 110.276 65.8913 105.684 64.4436C101.155 63.0583 96.2951 64.0545 92.7723 67.2144L85.0504 73.9389L83.5249 63.8521C82.7858 59.2446 79.7977 55.3531 75.3313 53.5007C74.4663 53.1738 73.6014 52.9092 72.7364 52.7691C69.0721 52.0375 65.2819 52.8314 62.2152 55.0729C58.1577 57.9682 56.0818 62.8559 56.758 67.7281C57.4972 72.6002 60.8155 76.7564 65.5493 78.4064L72.7364 80.9748L81.5906 84.197H81.6535L97.0342 89.8007C98.5597 90.33 100.164 90.5946 101.689 90.5946C104.961 90.5946 108.153 89.4116 110.685 87.1701C114.412 83.8701 116.016 78.7955 114.821 73.9856L114.805 74.0012Z" fill="#FE9923"/>
<path d="M110.669 87.1861C108.137 89.4276 104.945 90.6106 101.674 90.6106C100.148 90.6106 98.544 90.346 97.0185 89.8168L81.6378 84.213H81.5749L72.7207 80.9908V52.7852C73.5857 52.9097 74.4506 53.1743 75.3156 53.5168C79.782 55.3691 82.7701 59.2451 83.5092 63.8682L85.0347 73.955L92.7566 67.2304C96.2794 64.0705 101.155 63.0743 105.668 64.4597C110.26 65.9073 113.657 69.4719 114.79 74.0172C115.985 78.8271 114.397 83.9017 110.654 87.2017L110.669 87.1861Z" fill="#FE8821"/>
<path d="M127.387 103.95L122.858 116.341C122.323 117.664 121.065 118.442 119.728 118.442C119.335 118.442 118.926 118.38 118.596 118.24L84.1697 105.849L81.0401 95.638L72.7207 97.4903L65.392 99.1403L30.9662 86.7498C29.2362 86.096 28.3712 84.1814 28.9689 82.5314L33.5611 70.1408C34.426 67.6347 36.2975 65.6578 38.688 64.537C41.0785 63.4163 43.8149 63.2918 46.3469 64.2101L72.7207 73.7054L74.5135 74.3592C74.5135 74.3592 81.7006 87.279 81.9051 87.279C82.0309 87.279 84.9089 85.6913 87.6925 84.1814C90.4919 82.6715 93.2913 81.0837 93.2913 81.0837L121.395 91.2328C123.927 92.1512 125.924 94.0035 127.057 96.3696C128.189 98.7356 128.315 101.444 127.387 103.95V103.95Z" fill="#FF3E75"/>
<path d="M127.387 103.95L122.858 116.34C122.323 117.664 121.065 118.442 119.728 118.442C119.335 118.442 118.926 118.38 118.596 118.239L84.1698 105.849L81.0401 95.6376L72.7207 97.4899V73.6895L74.5136 74.3432C74.5136 74.3432 81.7007 87.263 81.9051 87.263C82.0309 87.263 84.9089 85.6753 87.6926 84.1654C90.4919 82.6555 93.2913 81.0678 93.2913 81.0678L121.395 91.2168C123.927 92.1352 125.924 93.9876 127.057 96.3536C128.189 98.7196 128.315 101.428 127.387 103.934V103.95Z" fill="#FC1A40"/>
<path d="M62.7342 105.46V165H82.7072V105.46H62.7342Z" fill="#FCBF29"/>
<path d="M74.5135 74.3592L72.7207 79.2314L65.392 99.1403L72.7207 101.771L81.0401 104.744L84.1698 105.865L93.2913 81.0837L74.5135 74.3592V74.3592Z" fill="#FCBF29"/>
<path d="M82.7072 105.46H72.7207V165H82.7072V105.46Z" fill="#FE9923"/>
<path d="M93.2913 81.0837L84.1697 105.865L81.0401 104.744L72.7207 101.771V79.2314L74.5135 74.3592L93.2913 81.0837Z" fill="#FE9923"/>
</g>
<defs>
<clipPath id="clip0_3_282">
<rect width="128" height="165" fill="white"/>
</clipPath>
</defs>
</svg>
