<svg width="128" height="165" viewBox="0 0 128 165" fill="none" xmlns="http://www.w3.org/2000/svg">
<g clip-path="url(#clip0_3_402)">
<path d="M50.6087 104.091C51.1591 103.667 51.3793 102.944 51.1591 102.284C50.9547 101.64 50.3571 101.2 49.6808 101.2L43.2486 101.153L41.267 94.804C41.0311 93.9869 40.1661 93.4998 39.3326 93.7512C38.8293 93.9083 38.4204 94.3012 38.2789 94.804L36.2816 101.2H29.8966C29.2203 101.2 28.6227 101.64 28.4182 102.284C28.1823 102.944 28.4182 103.667 28.9687 104.091L34.1428 108.02C34.1428 108.02 34.1742 108.083 34.1742 108.13L32.1927 114.478C31.9882 115.138 32.2241 115.877 32.806 116.285C33.3564 116.678 34.0956 116.663 34.6146 116.254L39.8044 112.325L44.9628 116.254C45.4975 116.663 46.2366 116.678 46.7714 116.285C47.3375 115.877 47.5891 115.154 47.3847 114.478L45.4031 108.13C45.4031 108.13 45.4031 108.051 45.4346 108.02L50.6087 104.091V104.091Z" fill="#7ACEFA"/>
<path d="M32.7747 116.223L39.9461 106.182L46.8186 116.27C46.8186 116.27 46.0323 116.962 45.0101 116.302L39.8045 112.342L34.5361 116.333C34.5361 116.333 33.6082 116.993 32.7904 116.223H32.7747Z" fill="#FF9100"/>
<path d="M28.4025 102.19L39.9617 106.181L34.19 108.035L28.8743 104.044C28.8743 104.044 28.0565 103.447 28.4183 102.19H28.4025Z" fill="#4D90A3"/>
<path d="M39.9459 106.166L39.7729 93.6729C39.7729 93.6729 40.7323 93.61 41.2198 94.6314L43.2486 101.153L39.9617 106.166H39.9459Z" fill="#4D90A3"/>
<path d="M39.946 106.166L51.112 102.174C51.112 102.174 51.6781 103.447 50.3728 104.28L45.4346 108.036L39.9617 106.181L39.946 106.166Z" fill="#4D90A3"/>
<path d="M19.2338 81.9343C19.7056 81.5729 19.8943 80.9443 19.7056 80.3629C19.5326 79.7972 19.0136 79.4357 18.4317 79.4357L12.8802 79.3886L11.1817 73.9043C10.9773 73.1972 10.2224 72.7886 9.51468 72.9929C9.07433 73.1186 8.72834 73.4643 8.60253 73.9043L6.87258 79.42H1.36822C0.786334 79.42 0.267351 79.7972 0.0943567 80.3472C-0.110091 80.9129 0.0943567 81.5414 0.566159 81.9186L5.03256 85.3129C5.03256 85.3129 5.06401 85.3757 5.06401 85.4072L3.36552 90.8914C3.1768 91.4729 3.39697 92.1014 3.90023 92.4629C4.37203 92.7929 5.01683 92.7772 5.4729 92.4314L9.9393 89.0372L14.39 92.4314C14.846 92.7929 15.4908 92.8086 15.9626 92.4629C16.4502 92.1014 16.6703 91.4886 16.4974 90.8914L14.7989 85.4072C14.7989 85.4072 14.7989 85.3443 14.8303 85.3129L19.2967 81.9186L19.2338 81.9343Z" fill="#7ACEFA"/>
<path d="M3.85313 92.3997L10.0337 83.7254L15.9627 92.4311C15.9627 92.4311 15.2865 93.0283 14.3901 92.4625L9.8922 89.0525L5.34717 92.494C5.34717 92.494 4.54511 93.0754 3.8374 92.3997H3.85313Z" fill="#4D90A3"/>
<path d="M0.0786302 80.284L10.0494 83.7254L5.06401 85.3283L0.471799 81.8869C0.471799 81.8869 -0.235905 81.3683 0.0786302 80.284V80.284Z" fill="#4D90A3"/>
<path d="M10.0494 83.7257L9.90784 72.9457C9.90784 72.9457 10.7414 72.8986 11.1502 73.7629L12.8959 79.3886L10.0494 83.71V83.7257Z" fill="#4D90A3"/>
<path d="M10.0494 83.7254L19.6742 80.284C19.6742 80.284 20.1617 81.384 19.0294 82.0911L14.7674 85.3283L10.0337 83.7254H10.0494Z" fill="#4D90A3"/>
<path d="M28.6227 38.6417C29.1417 38.2489 29.3461 37.5732 29.1259 36.9603C28.9372 36.3632 28.3868 35.9546 27.742 35.9546L21.7501 35.9074L19.9101 29.9832C19.6899 29.2132 18.8721 28.7732 18.1172 28.9932C17.6454 29.1346 17.268 29.496 17.1264 29.9832L15.2549 35.9389H9.31022C8.68115 35.9389 8.11499 36.3474 7.92627 36.9446C7.70609 37.5574 7.92627 38.2332 8.42952 38.626L13.2419 42.2874C13.2419 42.2874 13.2734 42.3503 13.2734 42.3817L11.4333 48.306C11.2446 48.9346 11.4648 49.6103 11.9995 49.9874C12.5028 50.3489 13.1947 50.3332 13.6823 49.956L18.5104 46.2946L23.3228 49.956C23.826 50.3332 24.5023 50.3489 25.0055 49.9874C25.5402 49.6103 25.7761 48.9346 25.5717 48.306L23.7317 42.3817C23.7317 42.3817 23.7316 42.3032 23.7631 42.2874L28.5755 38.626L28.6227 38.6417Z" fill="#7ACEFA"/>
<path d="M12.031 49.9398L18.7149 40.5898L25.1157 49.987C25.1157 49.987 24.3765 50.6313 23.4329 50.0184L18.5733 46.3256L13.6666 50.0341C13.6666 50.0341 12.8016 50.6627 12.0467 49.9398H12.031Z" fill="#4D90A3"/>
<path d="M7.942 36.866L18.6991 40.5746L13.3205 42.3032L8.36662 38.5946C8.36662 38.5946 7.61173 38.0289 7.942 36.866V36.866Z" fill="#4D90A3"/>
<path d="M18.699 40.5899L18.5417 28.9613C18.5417 28.9613 19.4382 28.9142 19.8785 29.857L21.7657 35.9385L18.699 40.6056V40.5899Z" fill="#4D90A3"/>
<path d="M18.6991 40.5903L29.0945 36.8817C29.0945 36.8817 29.6292 38.076 28.4025 38.8303L23.8103 42.3189L18.6991 40.5903V40.5903Z" fill="#4D90A3"/>
<path d="M87.2834 14.9914C88.0855 14.3943 88.4 13.3257 88.0698 12.3829C87.7867 11.4557 86.9217 10.8271 85.9309 10.8271L76.6836 10.7643L73.837 1.61857C73.4911 0.440002 72.2486 -0.251427 71.0534 0.0942873C70.33 0.314287 69.7481 0.880002 69.5279 1.61857L66.6342 10.8429H57.4341C56.459 10.8429 55.594 11.4714 55.2952 12.3986C54.965 13.3414 55.2952 14.3943 56.0815 15.0071L63.536 20.6643C63.536 20.6643 63.5832 20.7586 63.5832 20.8214L60.7367 29.9671C60.4379 30.9257 60.7838 31.9943 61.6174 32.5757C62.4037 33.1414 63.4731 33.11 64.228 32.5286L71.6982 26.8714L79.137 32.5286C79.9076 33.1257 80.9613 33.1414 81.7476 32.5757C82.5654 31.9786 82.9271 30.9414 82.6283 29.9671L79.7818 20.8214C79.7818 20.8214 79.7818 20.7114 79.8289 20.6643L87.2834 15.0071V14.9914Z" fill="#7ACEFA"/>
<path d="M61.6016 32.4653L71.934 17.9924L81.8419 32.5281C81.8419 32.5281 80.6938 33.5339 79.2313 32.5753L71.7296 26.871L64.1336 32.6224C64.1336 32.6224 62.7811 33.581 61.6173 32.4653H61.6016Z" fill="#4D90A3"/>
<path d="M55.2952 12.2571L71.9341 18.0086L63.6146 20.6957L55.9557 14.9443C55.9557 14.9443 54.7919 14.08 55.2952 12.2571V12.2571Z" fill="#4D90A3"/>
<path d="M71.9341 17.9929L71.6825 2.27826e-05C71.6825 2.27826e-05 73.0664 -0.0785487 73.7584 1.36717L76.6679 10.7643L71.9184 17.9772L71.9341 17.9929Z" fill="#4D90A3"/>
<path d="M71.9341 17.9929L88.0069 12.2415C88.0069 12.2415 88.8247 14.08 86.9375 15.2586L79.829 20.6643L71.9341 17.9772V17.9929Z" fill="#4D90A3"/>
<path d="M113.799 109.026L103.01 105.098C102.68 104.972 102.271 104.894 101.878 104.894H32.7589C30.8874 104.894 29.4248 106.355 29.4248 108.225V155.022C29.4248 160.538 33.8912 165.001 39.4113 165.001H105.998C111.518 165.001 115.985 160.538 115.985 155.022V112.154C115.985 110.755 115.12 109.498 113.783 109.026H113.799Z" fill="#FC1A40"/>
<path d="M116 112.154V155.022C116 160.538 111.534 165.001 106.014 165.001H72.7205V104.894H101.894C102.287 104.894 102.696 104.956 103.026 105.098L113.814 109.026C115.151 109.498 116.016 110.755 116.016 112.154H116Z" fill="#C60034"/>
<path d="M114.805 73.1346C113.673 68.5461 110.276 64.9475 105.684 63.4861C101.154 62.0875 96.2948 63.0932 92.7721 66.2832L85.0502 73.0718L83.5247 62.8889C82.7856 58.2375 79.7975 54.3089 75.3311 52.4389C74.4661 52.1089 73.6012 51.8418 72.7362 51.7003C69.0718 50.9618 65.2817 51.7632 62.215 54.0261C58.1575 56.9489 56.0816 61.8832 56.7578 66.8018C57.497 71.7203 60.8153 75.9161 65.5491 77.5818L72.7362 80.1746L81.5903 83.4275H81.6532L97.034 89.0846C98.5595 89.6189 100.164 89.8861 101.689 89.8861C104.96 89.8861 108.153 88.6918 110.685 86.4289C114.412 83.0975 116.016 77.9746 114.821 73.1189L114.805 73.1346Z" fill="#7ACEFA"/>
<path d="M110.669 86.4446C108.137 88.7075 104.945 89.9018 101.673 89.9018C100.148 89.9018 98.5438 89.6346 97.0183 89.1004L81.6375 83.4432H81.5746L72.7205 80.1904V51.7161C73.5854 51.8418 74.4504 52.1089 75.3154 52.4546C79.7818 54.3246 82.7698 58.2375 83.509 62.9046L85.0345 73.0875L92.7563 66.2989C96.2791 63.1089 101.154 62.1032 105.668 63.5018C110.26 64.9632 113.657 68.5618 114.79 73.1504C115.985 78.0061 114.396 83.1289 110.653 86.4604L110.669 86.4446Z" fill="#4D90A3"/>
<path d="M127.387 103.369L122.857 115.877C122.323 117.213 121.064 117.999 119.728 117.999C119.335 117.999 118.926 117.936 118.595 117.795L84.1695 105.286L81.0399 94.9775L72.7204 96.8475L65.3918 98.5132L30.9659 86.0046C29.236 85.3446 28.371 83.4118 28.9686 81.746L33.5608 69.2375C34.4258 66.7075 36.2973 64.7118 38.6877 63.5803C41.0782 62.4489 43.8147 62.3232 46.3467 63.2503L72.7204 72.836L74.5133 73.496C74.5133 73.496 81.7004 86.5389 81.9049 86.5389C82.0307 86.5389 84.9087 84.936 87.6923 83.4118C90.4917 81.8875 93.291 80.2846 93.291 80.2846L121.395 90.5303C123.927 91.4575 125.924 93.3275 127.056 95.716C128.189 98.1046 128.314 100.839 127.387 103.369V103.369Z" fill="#FF3E75"/>
<path d="M127.387 103.369L122.857 115.877C122.323 117.213 121.064 117.999 119.728 117.999C119.335 117.999 118.926 117.936 118.595 117.795L84.1695 105.286L81.0399 94.9775L72.7205 96.8475V72.8203L74.5133 73.4803C74.5133 73.4803 81.7004 86.5232 81.9049 86.5232C82.0307 86.5232 84.9087 84.9203 87.6923 83.396C90.4917 81.8717 93.291 80.2689 93.291 80.2689L121.395 90.5146C123.927 91.4417 125.924 93.3117 127.056 95.7003C128.189 98.0889 128.315 100.823 127.387 103.353V103.369Z" fill="#FC1A40"/>
<path d="M62.7339 104.893V165.001H82.7069V104.893H62.7339Z" fill="#7ACEFA"/>
<path d="M74.5133 73.496L72.7204 78.4146L65.3918 98.5132L72.7204 101.169L81.0399 104.17L84.1695 105.302L93.291 80.2846L74.5133 73.496V73.496Z" fill="#7ACEFA"/>
<path d="M82.7069 104.893H72.7205V165.001H82.7069V104.893Z" fill="#4D90A3"/>
<path d="M93.291 80.2846L84.1695 105.302L81.0399 104.17L72.7205 101.169V78.4146L74.5133 73.496L93.291 80.2846Z" fill="#4D90A3"/>
</g>
<defs>
<clipPath id="clip0_3_402">
<rect width="128" height="165" fill="white"/>
</clipPath>
</defs>
</svg>
