<?xml version="1.0" encoding="UTF-8"?>
<svg id="svg1707" xmlns="http://www.w3.org/2000/svg" viewBox="0 0 512 512">
    <defs>
        <style>.cls-1,.cls-2,.cls-3,.cls-4,.cls-5{fill:#fff;}.cls-2,.cls-4,.cls-5{fill-rule:evenodd;stroke:#fff;}.cls-3{stroke:#000;stroke-width:8.01px;}.cls-4{stroke-width:.4px;}.cls-6{fill:#f7c608;}.cls-5{stroke-width:4.01px;}.cls-5,.cls-7{stroke-linecap:round;stroke-linejoin:round;}.cls-7{fill:none;stroke:#f7c608;stroke-width:8.12px;}.cls-8{fill:#006233;}

        </style>
    </defs>
    <circle class="cls-8" cx="454.76" cy="323.88" r="173.87" /> 
    <g id="g13237">
        <g id="g13004">
            <g id="g9244">
                <path id="path3159" class="cls-4" d="M435.59,326.63c-3,4.09-.83,6.76,2.26,6.95,2.04,.14,6.27-2.62,6.26-5.86l-1.16-.59c.65,1.66-.02,2.19-1.4,3.33-2.72,2.24-8.27,2.4-5.96-3.82Z" />
                <path id="path3115" class="cls-2" d="M459.34,337.36c16.86,.43,22.23-14.42,11.82-27.13l-1.03,1.4c.67,5.92,1.64,11.77,1.73,17.84-2.04,2.18-5,1.37-5.59-1.05,.03-3.28-1.15-6.06-2.64-8.71l-.83,1.4c.97,2.18,2.02,4.63,2.24,7.31-4.81,5.25-10.13,6.31-8.15-.59-3.81,6.05,1.95,10.31,8.48,1,1.4,6.36,6.81,2.41,7.14,1.04,.59-4.17,.29-10.88-.9-16.19,4.7,7.4,4.86,12.73,2.36,16.3-2.78,3.97-8.81,5.82-14.63,7.38h0Z" />
                <path id="path3117" class="cls-2" d="M468.9,320.58c-3.61,.24-5.46-.43-3.5-2.86,1.93-2.38,3.74-.48,4.22,2.69,.45,2.98-6.34,6.78-8.69,6.78-3.55,0-5.19-4.16-1.92-7.89-4.21,10.9,9.09,4.58,9.89,1.28Zm-2.5-2.53c-.44-.02-.76,.68-.54,.82,.64,.4,1.64,.16,1.75-.04,.22-.44-.59-.76-1.2-.78h0Z" />
                <path id="path3140" class="cls-2" d="M449.31,325.72c-3.47,6.21-.01,8.78,4.44,8.06,2.59-.43,5.88-2.1,7.77-4.39,.03-5.03-.05-10.02-.53-14.89,1.73-1.88-.15-1.87-.81-3.89-.3,1.18-1.03,2.45-.32,3.37,.5,4.91,.77,9.89,.76,14.97-3.49,2.56-6.12,3.5-7.99,3.48-3.87-.03-4.71-3-3.32-6.7h0Z" />
                <path id="path3150" class="cls-2" d="M456.4,327.36c-.06-4.68-.14-10-.6-13.27,1.8-1.82-.09-1.86-.68-3.9-.35,1.16-1.11,2.42-.44,3.36,.3,5.01,.59,10.02,.65,15.03,.42-.24,.89-.34,1.08-1.21h0Z" />
                <path id="path3152" class="cls-4" d="M442.94,327.14c-.44-.51-.75-1.07-1.11-1.57-.06-.71,.46-1.36,.53-1.72,.59,.83,.94,1.46,1.41,1.87m.62,.33c.87,.32,1.93,.32,2.91,.34,3.79,.06,7.78-.51,7.36,4.17-.37,4.15-4.15,6.55-7.54,6.51-4.82-.04-8.94-4.88-1.5-13.8,.72-.11,1.65,.07,2.43,.14,1.33,.09,2.69-.02,4.26-1.16-.19-2.94-.19-5.71-.58-8.37-.67-.94,.09-2.19,.44-3.36,.59,2.04,2.48,2.08,.68,3.91,.43,2.95,.47,5.95,.47,7.74-.9,1.25-1.61,2.58-4.24,3.08-2.69-.36-3.91-3.79-6.72-2.65,.77-3.09,7.91-3.8,8.63-1.36-.47,2.55-7.14,1.53-8.91,9.76-.54,2.54,2.39,4.87,5.41,4.68,2.95-.18,6.1-2.04,6.41-5.18,.24-2.62-3.82-2.32-5.52-2.28-2.48,.05-4.04-.29-4.97-.79m2.53-5.67c.44-.38,1.98-.64,2.53-.03-.42,.25-.82,.53-1.16,.85-.58-.27-.96-.55-1.38-.82Z" />
                <path id="path3161" class="cls-2" d="M449.71,313.07c.42,.84,.59,1.4,.61,2.21-.25,1.09-1.28,2.12-2.35,2.15-.66,.02-1.4-.15-1.92-1.08-.06-.12-.34-.39-.6-.26-1.17,1.75-2.04,2.48-3.09,2.47-2.1-.03-1.48-1.74-3.42-2.26-.81-.02-2.14,.73-2.82,2.19-2.59,6.68-4.95-.02-3.94-3.14,.15,2.98,.94,4.75,1.75,4.69,.59-.05,1.11-1.29,1.86-2.6,.58-1,1.97-2.8,3.44-2.8,1.34,.03,.5,2.27,3.18,2.24,1.3-.02,2.49-.93,3.69-2.74,.27-.04,.34,.39,.39,.54,.19,.62,1.36,2.33,2.96,.77-.08-.34-.05-.89-.45-1.01l.72-1.37Z" />
                <path id="path3163" class="cls-4" d="M458.15,307.54c-1.42,.64-2.46,.05-3.05-.52,1.03-.19,1.83-.53,2.06-1.26-.46-.95-1.56-1.36-3.11-1.37-2.07,.05-3.13,.81-3.26,1.85,.96,.03,1.83-.21,2.2,.63-1.7,.76-3.7,1.03-5.88,1.02-3.56,.17-4.08-1.29-5.02-2.58-.07-.08-.38-.22-.54-.2-1.1,0-1.91,3.49-3.15,3.48-1.24-.15-.96-2.25-1.32-3.45-.3,1.88,.38,8.89,4.21,1.28,.12-.25,.28-.18,.38,.03,1.03,2.13,3.12,2.86,5.38,2.97,1.89,.09,4.29-.65,6.87-1.98,.68,.68,1.23,1.46,2.66,1.61,1.68,.07,3.47-1.03,3.87-2.4,.21-.71,.24-2.09-.58-2.12-1.15-.03-1.98,2.49-1.71,4.77,.02-.03,.15-.57,.15-.57m-5.07-3.03c.75-.32,1.48-.46,2.06,.23-.45,.15-.73,.24-.97,.42-.32-.23-.76-.35-1.09-.65Zm5.53,1.57c.19-.75,.29-1.35,.96-1.74,.14,.79,.16,1.23-.96,1.74Z" />
                <path id="path3169" class="cls-4" d="M463.28,308.44c-.22-.64-.44-1.2-.51-1.89-.16-1.41,1.17-2.21,2.37-2.09,1.24,.12,2.06,.54,3.24,.91,.93,.28,2.17,.51,3.37,.81,.67,.27,0,.99-.17,1.08-2.98,1.06-5.1,2.75-7,2.82-1.13,.05-2.14-.62-3.05-2-.06-2.67-.16-5.81-.45-7.78,.44-.4,.53-.69,.74-1.02,.23,2.6,.32,5.34,.38,8.09,.24,.47,.54,.87,1.09,1.07h0Zm1.91,.21c-1.6,.41-1.4-.82-1.55-1.58-.17-.88-.06-1.88,1.18-1.63,1.61,.39,3.08,.91,4.5,1.45l-4.13,1.76Z" />
                <path id="path3173" class="cls-4" d="M463.63,309.96l.22,.98h.17l-.07-.92" />
                <path id="path5196" class="cls-5" d="M438.17,320.19l.81-.76,.94,.73-.87,.71-.88-.67Z" />
                <path id="path6168" class="cls-5" d="M440.23,319.93l.82-.76,.94,.73-.87,.71-.89-.67Z" />
                <path id="path6170" class="cls-5" d="M434.5,312.08l.82-.76,.94,.73-.87,.71-.89-.67Z" />
                <path id="path6172" class="cls-5" d="M434.88,314.32l.82-.76,.93,.73-.87,.71-.88-.67Z" />
                <path id="path6174" class="cls-5" d="M449.74,318.05l.75-.56,.69,.68-.79,.51-.66-.63Z" />
                <path id="path6176" class="cls-5" d="M439.81,303.77l.53-.49,.61,.47-.57,.46-.58-.44Z" />
                <path id="path6178" class="cls-5" d="M441.17,303.61l.53-.51,.61,.48-.57,.45-.58-.43Z" />
                <path id="path6180" class="cls-5" d="M469.57,309.26l-.51,.39-.49-.45,.53-.36,.46,.42Z" />
                <path id="path9240" class="cls-4" d="M445.63,323.23l-.06,.83,1.46,.13,1.17-.8-2.57-.16h0Z" />
                <path id="path9242" class="cls-2" d="M457.95,307.7l.43-.08-.05,1.08-.27,.09-.12-1.09h0Z" />
            </g>
            <path id="path2722" class="cls-1" d="M454.76,351.33c16.42,0,29.78-12.16,29.78-27.09,0-8.22-4.03-15.55-10.37-20.51,3.81,4.07,6.12,9.44,6.12,15.28,0,12.97-11.42,23.5-25.52,23.5s-25.52-10.52-25.52-23.5c0-5.84,2.31-11.2,6.12-15.28-6.34,4.96-10.37,12.29-10.37,20.51,0,14.94,13.36,27.09,29.78,27.09h0Z" />
            <g id="g2908">
                <path id="path2910" class="cls-3" d="M450.73,366.4c-6.57,2.99-14.78,2.17-21.72-1.9-.3-.14-.45,.07-.15,.81,.75,1.97,1.34,3.53-.9,6.45-.97,1.29,.15,1.49,1.79,1.36,8.36-.75,16.57-2.44,20.52-3.87l.45-2.85Z" />
                <path id="path2912" class="cls-3" d="M450.58,369.94c-2.61,.95-7.09,2.11-12.09,2.92-2.01,.27-1.94,1.43,1.64,1.83,3.66,.34,8.36-2.04,11.19-4.14l-.75-.61Z" />
                <path id="path2914" class="cls-3" d="M454.76,363.42c.9,0,2.54-.34,4.18-.54,3.06-.48,.82,3.8-4.18,3.8v1.43c5.07,0,10.37-5.03,9.25-7.27-1.57-3.26-5.9-.48-9.25-.48s-7.69-2.78-9.25,.48c-1.12,2.24,4.18,7.27,9.25,7.27v-1.43c-5,0-7.24-4.28-4.18-3.8,1.64,.2,3.28,.54,4.18,.54Z" />
                <path id="path2916" class="cls-3" d="M458.79,366.4c6.57,2.99,14.78,2.17,21.72-1.9,.3-.14,.45,.07,.15,.81-.75,1.97-1.34,3.53,.9,6.45,.97,1.29-.15,1.49-1.79,1.36-8.36-.75-16.57-2.44-20.52-3.87l-.45-2.85Z" />
                <path id="path2918" class="cls-3" d="M458.94,369.94c2.61,.95,7.02,2.11,12.09,2.92,2.01,.27,1.94,1.43-1.64,1.83-3.66,.34-8.36-2.04-11.19-4.14l.75-.61Z" />
                <path id="path2920" class="cls-3" d="M454.98,369.26c.15,1.15,.37,3.67,2.09,2.58,2.31-1.43,2.84-2.51,2.84-4.55,0-1.29-1.72-3.19-5.15-3.19s-5.15,1.9-5.15,3.19c0,2.04,.52,3.12,2.84,4.55,1.72,1.09,1.87-1.43,2.09-2.58,.07-.41,.45-.27,.45,0Z" />
            </g>
            <g id="g2724">
                <path id="path2726" class="cls-3" d="M452.59,282.27c-.97-5.03-9.1-5.36-10.37-6.18-1.49-.88-1.27,0-.75,1.36,1.49,3.53,6.57,4.96,8.88,5.36,1.87,.27,2.46,.41,2.24-.54Z" />
                <path id="path2728" class="cls-3" d="M455.06,282.4c.82-5.16-7.24-7.61-8.21-8.76-1.12-1.22-1.27-.48-.75,.95,.97,3.06,4.48,6.65,6.57,7.61,1.72,.81,2.24,1.15,2.39,.2Z" />
                <path id="path2730" class="cls-3" d="M461.7,285.39c.75-6.18-5.82-7.13-7.54-9.1-1.12-1.22-1.19-.54-.82,.88,.75,3.12,4.03,6.79,6.04,7.94,1.57,.88,2.24,1.22,2.31,.27Z" />
                <path id="path2732" class="cls-3" d="M459.68,284.03c-6.79-4.01-11.57-1.77-13.51-1.97-1.87-.2-2.46,.88,.75,2.51,3.96,1.97,9.48,1.7,11.64,.95,2.24-.81,1.57-1.22,1.12-1.49Z" />
                <path id="path2734" class="cls-3" d="M469.91,286.75c-2.09-6.65-6.94-5.57-8.36-6.38s-1.57-.61-1.27,.88c.6,2.65,5.6,5.57,8.06,6.45,.9,.27,2.01,.68,1.57-.95Z" />
                <path id="path2736" class="cls-3" d="M468.94,287.91c-5.82-4.28-10.37-1.09-12.16-1.56-1.34-.34-.75,.48-.22,.81,3.73,2.38,8.36,3.67,11.94,2.17,1.42-.54,1.49-.68,.45-1.43Z" />
                <path id="path2738" class="cls-3" d="M481.55,292.25c.07-4.21-9.48-5.98-11.49-8.56-1.19-1.56-2.24-.75-1.64,1.77,.9,3.26,7.46,6.86,11.05,7.54,2.16,.41,2.09-.27,2.09-.75Z" />
                <path id="path2740" class="cls-3" d="M481.25,293c-6.04-4.96-11.12-3.33-12.99-3.8-1.87-.41-2.61,.61,.3,2.65,3.58,2.44,9.1,2.92,11.42,2.44s1.72-.95,1.27-1.29Z" />
                <path id="path2742" class="cls-3" d="M492.07,300.26c-1.72-7.2-7.16-8.69-8.51-10.05-1.27-1.36-2.61-.95-1.49,2.31,1.34,3.87,5.75,7.27,8.06,8.08,2.24,.88,2.09,.2,1.94-.34Z" />
                <path id="path2744" class="cls-3" d="M492,301.21c-4.4-6.45-10.15-6.25-11.94-7.13-1.72-.95-2.91-.14-.6,2.65,2.69,3.4,8.21,5.3,10.75,5.43s2.09-.48,1.79-.95Z" />
                <path id="path2746" class="cls-3" d="M497.67,308.89c2.54-7.33-3.28-10.05-3.88-11.27-.67-1.22-1.34-1.22-1.72,.07-1.64,5.23,3.66,10.32,4.48,11.34,.82,.95,.97,.48,1.12-.14Z" />
                <path id="path2748" class="cls-3" d="M496.47,310.93c-2.01-8.22-7.31-7.74-8.51-8.9-1.27-1.15-1.42-.34-1.19,1.15,.6,4.01,5.9,6.72,8.28,8.08,.75,.41,1.64,.88,1.42-.34Z" />
                <path id="path2750" class="cls-3" d="M501.55,320.57c3.66-7.74-.67-12.97-2.01-14.12-1.34-1.09-2.16-1.56-1.72,0,.6,2.38-1.49,8.49,1.72,12.97,1.04,1.49,1.19,2.92,2.01,1.15Z" />
                <path id="path2752" class="cls-3" d="M499.61,322.13c.82-4.75-2.16-9.1-5.37-10.8-1.87-1.02-1.94-.75-1.94,.68,.15,4.41,4.7,8.08,6.04,10.12,1.27,1.9,1.19,.48,1.27,0Z" />
                <path id="path2754" class="cls-3" d="M498.79,334.49c-2.69-8.96,2.91-14.12,4.63-15.14,1.64-1.09,2.69-1.49,1.94,.2-1.12,2.51,.07,9.51-4.18,13.92-1.34,1.49-1.87,3.06-2.39,1.02Z" />
                <path id="path2756" class="cls-3" d="M499.38,332.52c2.24-7.81-2.61-12.22-4.1-13.11-1.42-.88-2.31-1.22-1.64,.2,.9,2.17-.07,8.28,3.66,12.09,1.19,1.29,1.64,2.58,2.09,.81Z" />
                <path id="path2758" class="cls-3" d="M496.62,328.85c-4.03,3.94-4.1,9.71-2.31,13.11,1.12,1.97,1.27,1.83,2.31,.41,2.84-4.14,1.12-10.12,1.27-12.77,.07-2.51-.82-1.15-1.27-.75Z" />
                <path id="path2760" class="cls-3" d="M503.27,335.1c0,5.43-3.66,9.85-7.54,11.2-2.24,.75-2.24,.54-1.94-1.09,1.04-6.11,6.19-8.35,8.06-10.32,1.79-1.9,1.42-.34,1.42,.2Z" />
                <path id="path2762" class="cls-3" d="M489.38,351.26c6.57-5.43,3.06-9.24,3.36-12.77,.15-1.9-.67-1.43-1.42-.75-4.18,3.73-4.4,10.39-3.51,12.97,.37,1.15,.97,1.02,1.57,.54Z" />
                <path id="path2764" class="cls-3" d="M498.19,347.73c-2.16,5.98-7.91,9.64-12.76,9.85-2.84,.14-2.76-.07-1.79-1.83,3.66-6.38,10.15-7.13,13.06-8.76,2.69-1.49,1.72,.14,1.49,.75Z" />
                <path id="path2766" class="cls-3" d="M480.35,358.93c8.51-3.87,6.79-10.32,8.36-11.95,1.12-1.15-.22-1.02-.9-.61-5,2.65-9.03,6.86-9.1,11.34,0,1.7,.15,1.9,1.64,1.22Z" />
                <path id="path2768" class="cls-3" d="M468.71,366.13c10.75,1.56,15.75-5.84,18.88-6.52,1.64-.34,.45-.95-.37-1.02-7.16-.75-16.27,2.31-19.03,5.7-1.12,1.36-1.12,1.63,.52,1.83Z" />
                <path id="path2770" class="cls-3" d="M479.61,354.52c-2.16,6.45-10.22,11.75-16.27,12.16-2.84,.2-2.84-.07-1.79-1.77,4.85-8.01,13.28-9.37,16.27-11.41,2.54-1.77,2.01,.41,1.79,1.02Z" />
                <path id="path2772" class="cls-3" d="M456.92,282.27c.97-5.03,9.1-5.36,10.37-6.18,1.49-.88,1.27,0,.75,1.36-1.49,3.53-6.57,4.96-8.88,5.36-1.87,.27-2.46,.41-2.24-.54Z" />
                <path id="path2774" class="cls-3" d="M454.46,282.4c-.82-5.16,7.24-7.61,8.21-8.76,1.12-1.22,1.27-.48,.75,.95-.97,3.06-4.48,6.65-6.57,7.61-1.72,.81-2.24,1.15-2.39,.2Z" />
                <path id="path2776" class="cls-3" d="M447.82,285.39c-.75-6.18,5.82-7.13,7.54-9.1,1.12-1.22,1.19-.54,.82,.88-.75,3.12-4.03,6.79-6.04,7.94-1.57,.88-2.24,1.22-2.31,.27Z" />
                <path id="path2778" class="cls-3" d="M449.83,284.03c6.79-4.01,11.57-1.77,13.51-1.97,1.87-.2,2.46,.88-.75,2.51-3.96,1.97-9.48,1.7-11.64,.95-2.24-.81-1.57-1.22-1.12-1.49Z" />
                <path id="path2780" class="cls-3" d="M439.61,286.75c2.09-6.65,6.94-5.57,8.36-6.38s1.57-.61,1.27,.88c-.6,2.65-5.6,5.57-8.06,6.45-.9,.27-2.01,.68-1.57-.95Z" />
                <path id="path2782" class="cls-3" d="M440.58,287.91c5.82-4.28,10.37-1.09,12.16-1.56,1.34-.34,.75,.48,.22,.81-3.73,2.38-8.36,3.67-11.94,2.17-1.42-.54-1.49-.68-.45-1.43Z" />
                <path id="path2784" class="cls-3" d="M427.97,292.25c-.07-4.21,9.48-5.98,11.49-8.56,1.19-1.56,2.24-.75,1.64,1.77-.9,3.26-7.46,6.86-11.05,7.54-2.16,.41-2.09-.27-2.09-.75Z" />
                <path id="path2786" class="cls-3" d="M428.26,293c6.04-4.96,11.12-3.33,12.99-3.8,1.87-.41,2.61,.61-.3,2.65-3.58,2.44-9.1,2.92-11.42,2.44s-1.72-.95-1.27-1.29Z" />
                <path id="path2788" class="cls-3" d="M417.44,300.26c1.72-7.2,7.16-8.69,8.51-10.05,1.27-1.36,2.61-.95,1.49,2.31-1.34,3.87-5.75,7.27-8.06,8.08-2.24,.88-2.09,.2-1.94-.34Z" />
                <path id="path2790" class="cls-3" d="M417.52,301.21c4.4-6.45,10.15-6.25,11.94-7.13,1.72-.95,2.91-.14,.6,2.65-2.69,3.4-8.21,5.3-10.75,5.43s-2.09-.48-1.79-.95Z" />
                <path id="path2792" class="cls-3" d="M411.85,308.89c-2.54-7.33,3.28-10.05,3.88-11.27,.67-1.22,1.34-1.22,1.72,.07,1.64,5.23-3.66,10.32-4.48,11.34-.82,.95-.97,.48-1.12-.14Z" />
                <path id="path2794" class="cls-3" d="M413.04,310.93c2.01-8.22,7.31-7.74,8.51-8.9,1.27-1.15,1.42-.34,1.19,1.15-.6,4.01-5.9,6.72-8.28,8.08-.75,.41-1.64,.88-1.42-.34Z" />
                <path id="path2796" class="cls-3" d="M407.96,320.57c-3.66-7.74,.67-12.97,2.01-14.12,1.34-1.09,2.16-1.56,1.72,0-.6,2.38,1.49,8.49-1.72,12.97-1.04,1.49-1.19,2.92-2.01,1.15Z" />
                <path id="path2798" class="cls-3" d="M409.91,322.13c-.82-4.75,2.16-9.1,5.37-10.8,1.87-1.02,1.94-.75,1.94,.68-.15,4.41-4.7,8.08-6.04,10.12-1.27,1.9-1.19,.48-1.27,0Z" />
                <path id="path2800" class="cls-3" d="M410.73,334.49c2.69-8.96-2.91-14.12-4.63-15.14-1.64-1.09-2.69-1.49-1.94,.2,1.12,2.51-.07,9.51,4.18,13.92,1.34,1.49,1.79,3.06,2.39,1.02Z" />
                <path id="path2802" class="cls-3" d="M410.13,332.52c-2.24-7.81,2.61-12.22,4.1-13.11,1.42-.88,2.31-1.22,1.64,.2-.9,2.17,.07,8.28-3.66,12.09-1.19,1.29-1.64,2.58-2.09,.81Z" />
                <path id="path2804" class="cls-3" d="M412.89,328.85c4.03,3.94,4.1,9.71,2.31,13.11-1.12,1.97-1.27,1.83-2.31,.41-2.84-4.14-1.12-10.12-1.27-12.77-.07-2.51,.82-1.15,1.27-.75Z" />
                <path id="path2806" class="cls-3" d="M406.25,335.1c0,5.43,3.66,9.85,7.54,11.2,2.24,.75,2.24,.54,1.94-1.09-1.04-6.11-6.19-8.35-8.06-10.32-1.79-1.9-1.42-.34-1.42,.2Z" />
                <path id="path2808" class="cls-3" d="M420.13,351.26c-6.57-5.43-3.06-9.24-3.36-12.77-.15-1.9,.67-1.43,1.42-.75,4.18,3.73,4.4,10.39,3.51,12.97-.37,1.15-.97,1.02-1.57,.54Z" />
                <path id="path2810" class="cls-3" d="M411.32,347.73c2.16,5.98,7.91,9.64,12.76,9.85,2.84,.14,2.76-.07,1.79-1.83-3.66-6.38-10.15-7.13-13.06-8.76-2.69-1.49-1.72,.14-1.49,.75Z" />
                <path id="path2812" class="cls-3" d="M429.16,358.93c-8.51-3.87-6.79-10.32-8.36-11.95-1.12-1.15,.22-1.02,.9-.61,5,2.65,9.03,6.86,9.1,11.34,0,1.7-.15,1.9-1.64,1.22Z" />
                <path id="path2814" class="cls-3" d="M440.8,366.13c-10.75,1.56-15.75-5.84-18.88-6.52-1.64-.34-.45-.95,.37-1.02,7.16-.75,16.27,2.31,19.03,5.7,1.12,1.36,1.12,1.63-.52,1.83Z" />
                <path id="path2816" class="cls-3" d="M429.91,354.52c2.16,6.45,10.22,11.75,16.27,12.16,2.84,.2,2.84-.07,1.79-1.77-4.85-8.01-13.28-9.37-16.27-11.41-2.54-1.77-2.01,.41-1.79,1.02Z" />
            </g>
            <g id="g2818">
                <path id="path2820" class="cls-8" d="M467.37,288.52c-1.42-.95-6.64-.41-7.61-1.02,1.87,1.43,6.04,.41,7.61,1.02Z" />
                <path id="path2822" class="cls-8" d="M479.98,290.96c-1.12-1.83-7.76-3.06-8.73-4.69,1.72,3.12,6.87,2.72,8.73,4.69Z" />
                <path id="path2824" class="cls-8" d="M479.01,293.07c-2.46-2.17-8.21-1.29-9.93-2.58,4.03,3.33,6.27,.75,9.93,2.58Z" />
                <path id="path2826" class="cls-8" d="M464.61,283.42c1.57,.75,3.51,1.49,4.48,3.26-1.12-1.36-3.13-1.9-4.78-3.06,.07,0,.22-.14,.3-.2Z" />
                <path id="path2828" class="cls-8" d="M489.09,297.41c-.97-2.04-4.4-4.28-4.7-5.03,.97,2.65,3.81,3.26,4.7,5.03Z" />
                <path id="path2830" class="cls-8" d="M489.98,301.01c-2.99-4.28-7.69-3.8-9.55-5.43,1.42,1.56,6.79,2.58,9.55,5.43Z" />
                <path id="path2832" class="cls-8" d="M496.92,307.6c.22-4.55-3.51-6.25-3.66-8.83-.07,3.06,3.81,7.2,3.66,8.83Z" />
                <path id="path2834" class="cls-8" d="M495.06,310.04c-.75-3.94-5.82-4.21-6.72-6.52,0,2.17,5.97,4.41,6.72,6.52Z" />
                <path id="path2836" class="cls-8" d="M499.24,307.8c2.69,2.99,.82,7.54,1.94,10.86-1.34-2.44-.67-8.56-1.94-10.86Z" />
                <path id="path2838" class="cls-8" d="M494.83,320.57c4.03,3.94,2.39,8.35,4.03,10.25-2.01-2.65-1.72-7.81-4.03-10.25Z" />
                <path id="path2840" class="cls-8" d="M503.19,321.11c-3.43,3.46-1.34,8.69-3.13,11.14,2.01-2.11,1.72-8.56,3.13-11.14Z" />
                <path id="path2842" class="cls-8" d="M498.86,321.11c-.45-4.01-4.55-6.11-4.93-8.28-.45,2.17,3.96,5.57,4.93,8.28Z" />
                <path id="path2844" class="cls-8" d="M496.77,330.69c.67,2.78-1.79,8.76-1.04,10.59-1.64-3.19,1.42-9.24,1.04-10.59Z" />
                <path id="path2846" class="cls-8" d="M502.07,337.07c-1.64,4.96-4.93,4.62-5.97,7.61,.75-2.85,5.07-5.43,5.97-7.61Z" />
                <path id="path2848" class="cls-8" d="M491.4,339.38c-2.16,3.33-.37,7.13-2.16,9.51,2.54-2.38,1.19-6.79,2.16-9.51Z" />
                <path id="path2850" class="cls-8" d="M496.62,348.48c-2.61,4.41-7.99,4.01-10.15,7.2,2.16-4.01,8.81-4.69,10.15-7.2Z" />
                <path id="path2852" class="cls-8" d="M487.15,347.93c-4.63,2.92-3.21,5.98-6.72,9.24,4.4-3.26,4.03-6.86,6.72-9.24Z" />
                <path id="path2854" class="cls-8" d="M484.98,359.75c-4.48-.14-10.9,5.16-14.78,4.75,3.88,.75,11.05-4.01,14.78-4.75Z" />
                <path id="path2856" class="cls-8" d="M477.74,355c-.3,4.14-11.94,6.79-13.21,9.57,1.42-3.67,11.64-6.38,13.21-9.57Z" />
                <path id="path2858" class="cls-8" d="M451.4,278.6c-1.49-1.15-3.28-2.11-3.81-3.26,.37,1.49,1.87,2.58,3.36,3.6,.15-.07,.3-.27,.45-.34Z" />
                <path id="path2860" class="cls-8" d="M448.86,279.82c-2.31-1.02-5-.95-6.19-2.38,.75,1.43,3.28,1.97,5.45,2.72,.22-.14,.52-.27,.75-.34Z" />
                <path id="path2862" class="cls-8" d="M442.14,288.52c1.42-.95,6.64-.41,7.61-1.02-1.87,1.43-6.04,.41-7.61,1.02Z" />
                <path id="path2864" class="cls-8" d="M429.53,290.96c1.12-1.83,7.76-3.06,8.73-4.69-1.72,3.12-6.87,2.72-8.73,4.69Z" />
                <path id="path2866" class="cls-8" d="M430.5,293.07c2.46-2.17,8.21-1.29,9.93-2.58-4.03,3.33-6.27,.75-9.93,2.58Z" />
                <path id="path2868" class="cls-8" d="M440.43,286.68c1.42-2.72,5.45-3.06,6.49-4.69-1.57,2.44-5,2.85-6.49,4.69Z" />
                <path id="path2870" class="cls-8" d="M451.92,284.31c4.1-1.77,8.13-.27,10.07-1.09-2.39,1.15-8.06,.61-10.07,1.09Z" />
                <path id="path2872" class="cls-8" d="M420.43,297.41c.97-2.04,4.4-4.28,4.7-5.03-.97,2.65-3.81,3.26-4.7,5.03Z" />
                <path id="path2874" class="cls-8" d="M419.53,301.01c2.99-4.28,7.69-3.8,9.55-5.43-1.42,1.56-6.79,2.58-9.55,5.43Z" />
                <path id="path2876" class="cls-8" d="M412.59,307.6c-.22-4.55,3.51-6.25,3.66-8.83,.07,3.06-3.81,7.2-3.66,8.83Z" />
                <path id="path2878" class="cls-8" d="M414.46,310.04c.75-3.94,5.82-4.21,6.72-6.52,0,2.17-5.97,4.41-6.72,6.52Z" />
                <path id="path2880" class="cls-8" d="M410.28,307.8c-2.69,2.99-.82,7.54-1.94,10.86,1.34-2.44,.67-8.56,1.94-10.86Z" />
                <path id="path2882" class="cls-8" d="M414.68,320.57c-4.03,3.94-2.39,8.35-4.03,10.25,2.01-2.65,1.72-7.81,4.03-10.25Z" />
                <path id="path2884" class="cls-8" d="M406.32,321.11c3.43,3.46,1.34,8.69,3.13,11.14-2.01-2.11-1.72-8.56-3.13-11.14Z" />
                <path id="path2886" class="cls-8" d="M410.65,321.11c.45-4.01,4.55-6.11,4.93-8.28,.45,2.17-3.96,5.57-4.93,8.28Z" />
                <path id="path2888" class="cls-8" d="M412.74,330.69c-.67,2.78,1.79,8.76,1.04,10.59,1.64-3.19-1.42-9.24-1.04-10.59Z" />
                <path id="path2890" class="cls-8" d="M407.44,337.07c1.64,4.96,4.93,4.62,5.97,7.61-.75-2.85-5.07-5.43-5.97-7.61Z" />
                <path id="path2892" class="cls-8" d="M418.11,339.38c2.16,3.33,.37,7.13,2.16,9.51-2.54-2.38-1.19-6.79-2.16-9.51Z" />
                <path id="path2894" class="cls-8" d="M412.89,348.48c2.61,4.41,7.99,4.01,10.15,7.2-2.16-4.01-8.81-4.69-10.15-7.2Z" />
                <path id="path2896" class="cls-8" d="M422.37,347.93c4.63,2.92,3.21,5.98,6.72,9.24-4.4-3.26-4.03-6.86-6.72-9.24Z" />
                <path id="path2898" class="cls-8" d="M424.53,359.75c4.48-.14,10.9,5.16,14.78,4.75-3.88,.75-11.05-4.01-14.78-4.75Z" />
                <path id="path2900" class="cls-8" d="M431.77,355c.3,4.14,11.94,6.79,13.21,9.57-1.42-3.67-11.64-6.38-13.21-9.57Z" />
                <path id="path2902" class="cls-8" d="M448.71,284.44c.9-3.67,5.37-4.35,5.97-6.52-.22,2.31-5.52,4.89-5.97,6.52Z" />
                <path id="path2904" class="cls-8" d="M461.92,275.34c-.67,2.78-5.52,4.35-6.19,6.45,.22-2.85,5.22-4.48,6.19-6.45Z" />
                <path id="path2906" class="cls-8" d="M458.12,281.93c2.31-3.4,7.09-2.51,8.73-4.48-1.19,2.31-7.09,2.38-8.73,4.48Z" />
            </g>
            <path id="path12826" class="cls-7" d="M489.7,323.9c0,17.64-15.71,31.93-35.09,31.93s-35.09-14.3-35.09-31.93,15.71-31.93,35.09-31.93,35.09,14.3,35.09,31.93Z" />
            <g id="g12874">
                <path id="path12861" class="cls-6" d="M447.72,355.85l-.13,.39c-.08,.26-.36,.4-.67,.39-.72-.19-1.67-.37-2.53-.6l.8-2.47c.93,.25,1.88,.43,2.55,.54,.29,.08,.44,.33,.35,.59l-.11,.33m-6.04-1.54l.13-.39c.08-.26,.36-.4,.65-.32,.7,.26,1.53,.55,2.46,.8l-.8,2.47c-.86-.23-1.72-.46-2.49-.73-.27-.14-.33-.65-.25-.92" />
                <path id="path12865" class="cls-8" d="M447.23,355.63l-.09,.28c-.06,.19-.28,.28-.54,.26-.6-.16-1.38-.32-2.1-.51l.57-1.77c.77,.21,1.56,.37,2.11,.47,.24,.06,.37,.25,.31,.44l-.08,.23m-5.02-1.29l.09-.28c.06-.19,.28-.28,.52-.21,.58,.2,1.28,.44,2.06,.65l-.57,1.77c-.71-.19-1.43-.38-2.07-.6-.22-.11-.3-.48-.24-.67" />
            </g>
            <g id="g12878">
                <path id="path12880" class="cls-6" d="M438.12,352.75l-.24,.34c-.16,.23-.47,.29-.76,.2-.63-.37-1.48-.79-2.24-1.23l1.53-2.17c.82,.48,1.67,.9,2.28,1.17,.25,.15,.32,.43,.16,.66l-.2,.29m-5.31-3.03l.24-.34c.16-.23,.47-.29,.72-.14,.59,.42,1.3,.92,2.12,1.4l-1.53,2.17c-.75-.44-1.51-.88-2.16-1.34-.21-.2-.12-.71,.04-.94" />
                <path id="path12882" class="cls-8" d="M437.72,352.42l-.17,.25c-.12,.17-.36,.19-.6,.11-.52-.31-1.23-.66-1.86-1.03l1.1-1.55c.68,.4,1.39,.75,1.88,.99,.21,.12,.28,.33,.16,.5l-.15,.21m-4.41-2.52l.17-.25c.12-.17,.36-.19,.57-.07,.49,.35,1.09,.75,1.77,1.15l-1.1,1.55c-.63-.37-1.25-.73-1.8-1.11-.18-.16-.14-.54-.02-.7" />
            </g>
            <g id="g12884">
                <path id="path12886" class="cls-6" d="M429.87,347.32l-.34,.27c-.23,.18-.54,.16-.79,0-.49-.51-1.18-1.14-1.77-1.75l2.14-1.69c.64,.67,1.33,1.29,1.82,1.71,.2,.21,.17,.49-.05,.67l-.28,.22m-4.16-4.27l.34-.27c.23-.18,.54-.16,.74,.05,.43,.56,.96,1.22,1.6,1.88l-2.14,1.69c-.59-.62-1.17-1.23-1.65-1.84-.14-.25,.11-.71,.33-.89" />
                <path id="path12888" class="cls-8" d="M429.59,346.9l-.24,.19c-.16,.13-.4,.09-.61-.05-.41-.43-.97-.95-1.46-1.46l1.53-1.21c.53,.55,1.1,1.08,1.5,1.43,.16,.17,.17,.39,0,.52l-.2,.16m-3.45-3.55l.24-.19c.16-.13,.4-.09,.57,.08,.37,.46,.82,1,1.34,1.56l-1.53,1.21c-.49-.51-.98-1.02-1.38-1.52-.12-.2,.04-.55,.2-.68" />
            </g>
            <g id="g12890">
                <path id="path12892" class="cls-6" d="M423.64,340l-.41,.17c-.27,.11-.57,.01-.76-.21-.31-.62-.78-1.39-1.15-2.13l2.58-1.07c.4,.8,.87,1.58,1.22,2.11,.12,.25,.01,.52-.26,.63l-.34,.14m-2.67-5.16l.41-.17c.27-.11,.57-.01,.69,.23,.24,.65,.55,1.42,.95,2.22l-2.58,1.07c-.37-.74-.74-1.48-1.02-2.19-.06-.28,.33-.66,.6-.77" />
                <path id="path12894" class="cls-8" d="M423.49,339.52l-.29,.12c-.2,.08-.42-.01-.57-.2-.26-.51-.64-1.16-.95-1.78l1.85-.77c.34,.67,.72,1.32,1,1.76,.1,.21,.04,.42-.16,.5l-.24,.1m-2.21-4.3l.29-.12c.2-.08,.42,.01,.52,.22,.21,.53,.47,1.17,.81,1.84l-1.85,.77c-.31-.62-.62-1.23-.86-1.82-.06-.23,.21-.52,.4-.6" />
            </g>
            <g id="g12896">
                <path id="path12898" class="cls-6" d="M419.92,331.37l-.44,.06c-.3,.04-.55-.13-.67-.39-.11-.67-.32-1.54-.45-2.34l2.81-.37c.14,.87,.35,1.74,.52,2.33,.04,.27-.15,.5-.44,.54l-.37,.05m-.97-5.64l.44-.06c.3-.04,.55,.13,.59,.4,.03,.68,.09,1.5,.22,2.37l-2.81,.37c-.13-.81-.26-1.61-.3-2.36,.03-.28,.52-.55,.81-.59" />
                <path id="path12900" class="cls-8" d="M419.93,330.87l-.32,.04c-.21,.03-.4-.12-.48-.34-.09-.56-.26-1.28-.36-1.95l2.01-.26c.12,.73,.28,1.45,.41,1.94,.04,.22-.09,.41-.31,.44l-.27,.03m-.8-4.69l.32-.04c.21-.03,.4,.12,.43,.34,.04,.57,.09,1.24,.21,1.97l-2.01,.26c-.11-.67-.21-1.34-.26-1.96,.02-.23,.36-.45,.57-.47" />
            </g>
            <g id="g12902">
                <path id="path12904" class="cls-6" d="M419.03,322.14l-.44-.06c-.3-.04-.49-.27-.52-.55,.11-.67,.17-1.56,.3-2.36l2.81,.37c-.14,.87-.2,1.76-.22,2.37-.04,.27-.3,.44-.59,.4l-.37-.05m.82-5.66l.44,.06c.3,.04,.49,.27,.44,.54-.18,.66-.38,1.46-.52,2.33l-2.81-.37c.13-.81,.25-1.61,.44-2.34,.12-.26,.66-.39,.96-.35" />
                <path id="path12906" class="cls-8" d="M419.19,321.67l-.32-.04c-.21-.03-.34-.22-.36-.45,.09-.56,.15-1.29,.26-1.96l2.01,.26c-.11,.73-.18,1.46-.2,1.97-.04,.22-.22,.37-.43,.34l-.27-.03m.69-4.7l.32,.04c.21,.03,.34,.22,.31,.44-.14,.55-.3,1.22-.41,1.94l-2.01-.26c.11-.67,.21-1.34,.36-1.95,.09-.22,.48-.34,.7-.31" />
            </g>
            <g id="g12908">
                <path id="path12910" class="cls-6" d="M421.02,313.06l-.41-.17c-.27-.11-.38-.38-.33-.66,.31-.62,.64-1.45,1.02-2.19l2.58,1.07c-.4,.8-.74,1.63-.95,2.22-.12,.25-.42,.35-.69,.24l-.34-.14m2.53-5.22l.41,.17c.27,.11,.38,.38,.26,.63-.38,.59-.82,1.3-1.22,2.11l-2.58-1.07c.37-.74,.74-1.48,1.15-2.13,.19-.22,.76-.21,1.03-.09" />
                <path id="path12912" class="cls-8" d="M421.33,312.65l-.29-.12c-.2-.08-.26-.3-.21-.52,.26-.51,.54-1.2,.85-1.82l1.85,.77c-.33,.67-.62,1.36-.81,1.84-.1,.21-.32,.3-.52,.22l-.24-.1m2.12-4.34l.29,.12c.2,.08,.26,.29,.16,.5-.31,.49-.66,1.09-1,1.76l-1.85-.77c.31-.62,.62-1.23,.95-1.78,.15-.19,.57-.2,.76-.12" />
            </g>
            <g id="g12914">
                <path id="path12916" class="cls-6" d="M425.75,304.85l-.34-.27c-.23-.18-.25-.47-.11-.71,.49-.51,1.07-1.23,1.65-1.84l2.14,1.69c-.63,.67-1.21,1.38-1.6,1.89-.2,.21-.51,.23-.74,.05l-.28-.22m4.05-4.36l.34,.27c.23,.18,.25,.46,.05,.67-.54,.47-1.19,1.04-1.82,1.71l-2.14-1.69c.59-.62,1.17-1.23,1.77-1.75,.25-.16,.79,0,1.02,.17" />
                <path id="path12918" class="cls-8" d="M426.17,304.53l-.24-.19c-.16-.13-.16-.35-.04-.55,.41-.43,.89-1.01,1.38-1.53l1.53,1.21c-.53,.56-1.02,1.14-1.34,1.56-.16,.17-.4,.21-.57,.08l-.2-.16m3.37-3.62l.24,.19c.16,.13,.16,.35,0,.52-.45,.4-.97,.88-1.5,1.43l-1.53-1.21c.49-.51,.97-1.02,1.46-1.46,.2-.14,.61-.05,.77,.08" />
            </g>
            <g id="g12920">
                <path id="path12922" class="cls-6" d="M432.83,298.18l-.24-.34c-.16-.23-.09-.51,.12-.71,.63-.37,1.4-.9,2.16-1.34l1.53,2.17c-.82,.48-1.59,1.01-2.12,1.4-.25,.15-.56,.09-.72-.14l-.2-.29m5.23-3.14l.24,.34c.16,.23,.09,.51-.16,.66-.67,.31-1.46,.69-2.28,1.17l-1.53-2.17c.75-.44,1.51-.88,2.24-1.23,.29-.09,.76,.2,.92,.43" />
                <path id="path12924" class="cls-8" d="M433.33,297.99l-.17-.25c-.12-.17-.05-.38,.14-.54,.52-.31,1.17-.74,1.8-1.11l1.1,1.55c-.68,.4-1.33,.83-1.77,1.15-.21,.12-.45,.09-.57-.07l-.15-.21m4.36-2.61l.17,.25c.12,.17,.05,.38-.16,.5-.55,.27-1.2,.59-1.88,.99l-1.1-1.55c.63-.37,1.25-.73,1.86-1.03,.24-.08,.6,.11,.71,.28" />
            </g>
            <g id="g12926">
                <path id="path12928" class="cls-6" d="M441.69,293.61l-.13-.39c-.08-.26,.07-.51,.33-.66,.72-.19,1.63-.51,2.48-.74l.8,2.47c-.93,.25-1.84,.56-2.46,.8-.29,.08-.56-.06-.65-.32l-.11-.33m5.99-1.68l.13,.39c.08,.26-.07,.51-.35,.59-.74,.13-1.62,.29-2.55,.54l-.8-2.47c.86-.23,1.72-.46,2.53-.61,.31-.01,.67,.39,.75,.65" />
                <path id="path12930" class="cls-8" d="M442.23,293.55l-.09-.28c-.06-.19,.07-.37,.3-.48,.6-.16,1.35-.41,2.07-.6l.57,1.77c-.77,.21-1.53,.46-2.05,.65-.24,.06-.46-.03-.52-.21l-.08-.23m4.99-1.39l.09,.28c.06,.19-.07,.37-.31,.44-.61,.11-1.34,.26-2.11,.47l-.57-1.77c.71-.19,1.43-.38,2.1-.51,.25-.02,.54,.26,.6,.45" />
            </g>
            <g id="g12932">
                <path id="path12934" class="cls-6" d="M451.6,291.49v-.41c0-.27,.22-.48,.52-.54,.75,0,1.72-.07,2.61-.07v2.58c-.97,0-1.94,.07-2.61,.14-.3,0-.52-.2-.52-.47v-.34m6.27-.07v.41c0,.27-.22,.48-.52,.48-.75-.07-1.64-.13-2.61-.13v-2.58c.89,0,1.79,0,2.61,.07,.3,.07,.52,.54,.52,.81" />
                <path id="path12936" class="cls-8" d="M452.13,291.57v-.29c0-.2,.19-.34,.43-.39,.62,0,1.43-.05,2.17-.05v1.85c-.81,0-1.61,.05-2.17,.1-.25,0-.43-.14-.43-.34v-.24m5.21-.05v.29c0,.2-.19,.34-.43,.34-.62-.05-1.37-.09-2.17-.09v-1.85c.74,0,1.49,0,2.17,.05,.25,.05,.43,.39,.43,.58" />
            </g>
            <g id="g12938">
                <path id="path12940" class="cls-6" d="M461.09,291.95l.12-.39c.08-.26,.36-.4,.67-.39,.72,.19,1.67,.36,2.53,.58l-.77,2.48c-.93-.24-1.89-.42-2.55-.52-.29-.07-.44-.33-.36-.59l.1-.33m6.05,1.49l-.12,.39c-.08,.26-.36,.4-.65,.33-.7-.25-1.54-.54-2.47-.78l.77-2.48c.86,.22,1.72,.45,2.49,.72,.27,.14,.34,.65,.26,.91" />
                <path id="path12942" class="cls-8" d="M461.59,292.16l.09-.28c.06-.19,.28-.28,.53-.26,.6,.15,1.39,.31,2.1,.49l-.55,1.78c-.78-.2-1.57-.36-2.12-.45-.24-.06-.38-.25-.32-.43l.07-.24m5.03,1.25l-.09,.28c-.06,.19-.28,.28-.52,.22-.58-.2-1.29-.43-2.06-.63l.55-1.78c.72,.19,1.43,.37,2.08,.59,.22,.11,.3,.48,.24,.67" />
            </g>
            <g id="g12944">
                <path id="path12946" class="cls-6" d="M470.72,294.97l.24-.34c.16-.23,.47-.29,.76-.21,.63,.36,1.49,.78,2.25,1.21l-1.51,2.18c-.82-.47-1.68-.88-2.29-1.15-.25-.14-.32-.43-.16-.66l.2-.29m5.34,2.98l-.24,.34c-.16,.23-.47,.29-.72,.15-.59-.42-1.31-.91-2.13-1.38l1.51-2.18c.76,.43,1.52,.87,2.17,1.32,.21,.2,.12,.71-.04,.94" />
                <path id="path12948" class="cls-8" d="M471.13,295.3l.17-.25c.12-.17,.36-.2,.59-.12,.53,.3,1.24,.65,1.87,1.01l-1.08,1.56c-.68-.39-1.39-.74-1.89-.97-.21-.12-.28-.33-.17-.5l.14-.21m4.44,2.49l-.17,.25c-.12,.17-.36,.2-.57,.08-.5-.34-1.1-.74-1.78-1.13l1.08-1.56c.63,.36,1.26,.72,1.81,1.09,.18,.16,.14,.54,.03,.7" />
            </g>
            <g id="g12950">
                <path id="path12952" class="cls-6" d="M479.02,300.33l.34-.27c.22-.18,.54-.16,.79,0,.49,.51,1.19,1.13,1.78,1.74l-2.13,1.71c-.64-.66-1.34-1.28-1.84-1.69-.2-.2-.18-.49,.05-.67l.28-.22m4.2,4.23l-.34,.27c-.22,.18-.54,.16-.74-.04-.44-.55-.97-1.21-1.62-1.87l2.13-1.71c.59,.61,1.18,1.22,1.67,1.83,.14,.25-.1,.72-.33,.9" />
                <path id="path12954" class="cls-8" d="M479.31,300.75l.24-.19c.16-.13,.4-.1,.61,.04,.41,.42,.98,.94,1.48,1.45l-1.52,1.22c-.53-.55-1.11-1.07-1.52-1.42-.16-.17-.17-.39,0-.52l.2-.16m3.49,3.53l-.24,.19c-.16,.13-.4,.1-.57-.07-.37-.45-.83-.99-1.36-1.55l1.52-1.22c.49,.51,.99,1.02,1.4,1.51,.13,.2-.03,.55-.19,.68" />
            </g>
            <g id="g12956">
                <path id="path12958" class="cls-6" d="M485.33,307.61l.41-.17c.27-.11,.57-.02,.76,.2,.32,.62,.79,1.39,1.17,2.12l-2.57,1.09c-.41-.8-.89-1.57-1.24-2.1-.13-.25-.02-.52,.25-.63l.34-.14m2.72,5.14l-.41,.17c-.27,.11-.57,.02-.69-.23-.25-.64-.56-1.41-.97-2.21l2.57-1.09c.38,.74,.76,1.48,1.04,2.18,.06,.27-.32,.66-.59,.78" />
                <path id="path12960" class="cls-8" d="M485.48,308.08l.29-.12c.2-.08,.42,0,.57,.19,.26,.51,.65,1.16,.97,1.77l-1.84,.78c-.34-.67-.73-1.31-1.01-1.75-.11-.2-.04-.42,.15-.5l.24-.1m2.26,4.28l-.29,.12c-.2,.08-.42,0-.52-.21-.22-.53-.48-1.17-.83-1.83l1.84-.78c.32,.61,.63,1.23,.87,1.81,.06,.22-.2,.52-.4,.61" />
            </g>
            <g id="g12962">
                <path id="path12964" class="cls-6" d="M489.13,316.2l.44-.06c.29-.04,.55,.13,.67,.39,.11,.67,.33,1.53,.47,2.34l-2.8,.39c-.15-.87-.37-1.74-.54-2.33-.05-.27,.14-.5,.44-.54l.37-.05m1.02,5.63l-.44,.06c-.29,.04-.55-.13-.6-.4-.04-.68-.1-1.5-.25-2.37l2.8-.39c.14,.81,.27,1.61,.32,2.36-.03,.28-.51,.55-.81,.59" />
                <path id="path12966" class="cls-8" d="M489.12,316.7l.32-.04c.21-.03,.4,.12,.49,.33,.09,.56,.27,1.28,.38,1.95l-2.01,.28c-.12-.73-.3-1.44-.43-1.94-.04-.22,.09-.41,.3-.44l.27-.04m.84,4.68l-.32,.04c-.21,.03-.4-.12-.43-.34-.04-.57-.1-1.24-.23-1.97l2.01-.28c.11,.67,.23,1.34,.28,1.96-.01,.23-.35,.45-.57,.48" />
            </g>
            <g id="g12968">
                <path id="path12970" class="cls-6" d="M490.11,325.42l.44,.05c.3,.04,.49,.27,.52,.54-.1,.67-.15,1.56-.27,2.36l-2.81-.34c.13-.87,.18-1.76,.2-2.37,.04-.27,.29-.44,.59-.41l.37,.05m-.76,5.66l-.44-.05c-.3-.04-.49-.27-.45-.53,.17-.66,.37-1.46,.5-2.34l2.81,.34c-.12,.81-.24,1.62-.42,2.35-.11,.26-.66,.4-.96,.36" />
                <path id="path12972" class="cls-8" d="M489.95,325.9l.32,.04c.21,.03,.34,.21,.36,.44-.08,.56-.14,1.29-.24,1.97l-2.01-.25c.11-.73,.16-1.46,.19-1.97,.03-.22,.21-.37,.43-.35l.27,.03m-.64,4.71l-.32-.04c-.21-.03-.34-.21-.31-.44,.13-.55,.29-1.22,.39-1.95l2.01,.25c-.1,.67-.2,1.34-.34,1.95-.08,.22-.48,.34-.69,.31" />
            </g>
            <g id="g12974">
                <path id="path12976" class="cls-6" d="M488.2,334.53l.41,.17c.27,.11,.39,.38,.33,.66-.3,.62-.63,1.45-1,2.2l-2.59-1.05c.39-.81,.72-1.64,.93-2.23,.12-.25,.42-.35,.69-.24l.34,.14m-2.48,5.24l-.41-.17c-.27-.11-.39-.38-.26-.63,.37-.59,.8-1.31,1.2-2.12l2.59,1.05c-.36,.74-.73,1.49-1.13,2.14-.19,.22-.76,.21-1.03,.1" />
                <path id="path12978" class="cls-8" d="M487.9,334.94l.29,.12c.2,.08,.26,.29,.21,.52-.25,.52-.53,1.21-.84,1.82l-1.85-.75c.33-.67,.61-1.36,.79-1.84,.1-.21,.32-.3,.52-.22l.25,.1m-2.08,4.35l-.29-.12c-.2-.08-.26-.29-.16-.5,.3-.5,.65-1.1,.98-1.77l1.85,.75c-.3,.62-.61,1.24-.93,1.79-.15,.19-.57,.2-.76,.12" />
            </g>
            <g id="g12980">
                <path id="path12982" class="cls-6" d="M483.55,342.77l.34,.26c.23,.18,.25,.46,.12,.71-.48,.52-1.06,1.23-1.64,1.85l-2.16-1.67c.63-.67,1.2-1.39,1.58-1.9,.19-.21,.51-.23,.74-.05l.28,.22m-4,4.39l-.34-.26c-.23-.18-.25-.46-.06-.67,.54-.47,1.18-1.05,1.81-1.72l2.16,1.67c-.58,.62-1.16,1.24-1.75,1.77-.25,.16-.79,.01-1.02-.17" />
                <path id="path12984" class="cls-8" d="M483.13,343.09l.24,.19c.16,.13,.16,.35,.04,.55-.4,.43-.89,1.02-1.37,1.54l-1.55-1.2c.52-.56,1.01-1.15,1.33-1.57,.16-.17,.4-.21,.57-.08l.2,.16m-3.34,3.64l-.24-.19c-.16-.13-.16-.35,0-.52,.44-.4,.96-.88,1.49-1.44l1.55,1.2c-.48,.52-.97,1.03-1.45,1.47-.2,.14-.61,.05-.77-.08" />
            </g>
            <g id="g12986">
                <path id="path12988" class="cls-6" d="M476.53,349.49l.25,.34c.16,.23,.1,.51-.11,.71-.62,.37-1.39,.91-2.14,1.36l-1.55-2.16c.81-.48,1.58-1.02,2.1-1.42,.25-.15,.56-.09,.72,.14l.2,.28m-5.2,3.18l-.25-.34c-.16-.23-.1-.51,.15-.66,.66-.32,1.45-.71,2.27-1.19l1.55,2.16c-.75,.45-1.5,.89-2.23,1.25-.29,.09-.76-.19-.93-.42" />
                <path id="path12990" class="cls-8" d="M476.04,349.68l.18,.24c.12,.16,.05,.38-.13,.54-.52,.31-1.17,.75-1.79,1.12l-1.11-1.54c.67-.4,1.32-.84,1.76-1.16,.21-.12,.45-.1,.57,.07l.15,.2m-4.33,2.64l-.18-.24c-.12-.16-.05-.38,.16-.5,.55-.27,1.2-.6,1.87-1l1.11,1.54c-.62,.37-1.25,.74-1.85,1.04-.24,.08-.6-.11-.72-.27" />
            </g>
            <g id="g12992">
                <path id="path12994" class="cls-6" d="M467.73,354.13l.13,.39c.09,.26-.06,.51-.33,.66-.71,.2-1.62,.52-2.48,.76l-.82-2.47c.93-.26,1.84-.58,2.46-.82,.29-.08,.56,.06,.65,.32l.11,.32m-5.98,1.72l-.13-.39c-.09-.26,.06-.51,.35-.59,.74-.13,1.61-.3,2.54-.56l.82,2.47c-.86,.24-1.71,.47-2.52,.63-.31,.01-.67-.38-.76-.64" />
                <path id="path12996" class="cls-8" d="M467.19,354.2l.09,.28c.06,.19-.07,.37-.29,.49-.59,.16-1.35,.42-2.06,.62l-.59-1.77c.77-.21,1.53-.47,2.05-.67,.24-.07,.46,.02,.52,.21l.08,.23m-4.97,1.42l-.09-.28c-.06-.19,.07-.37,.31-.44,.61-.12,1.34-.27,2.11-.48l.59,1.77c-.71,.2-1.43,.39-2.09,.53-.25,.02-.54-.26-.6-.44" />
            </g>
            <g id="g12998">
                <path id="path13000" class="cls-6" d="M457.83,356.34v.41c0,.27-.21,.48-.51,.55-.75,0-1.72,.08-2.61,.09l-.03-2.58c.97,0,1.94-.08,2.61-.16,.3,0,.52,.2,.53,.47v.34m-6.26,.12v-.41c0-.27,.21-.48,.51-.48,.75,.06,1.64,.12,2.61,.11l.03,2.58c-.9,0-1.79,.02-2.61-.05-.3-.07-.53-.54-.53-.81" />
                <path id="path13002" class="cls-8" d="M457.3,356.26v.29c0,.2-.18,.34-.43,.39-.62,0-1.43,.06-2.17,.07l-.02-1.85c.81,0,1.61-.06,2.17-.11,.25,0,.44,.14,.44,.34v.24m-5.21,.09v-.29c0-.2,.18-.34,.43-.34,.62,.04,1.37,.08,2.17,.08l.02,1.85c-.74,0-1.49,.01-2.17-.03-.25-.05-.44-.38-.44-.58" />
            </g>
        </g>
    </g>
</svg>