<svg width="29" height="30" viewBox="0 0 29 30" fill="none" xmlns="http://www.w3.org/2000/svg">
<path d="M13.8256 14.8372C17.9227 14.8372 21.2441 11.5157 21.2441 7.41858C21.2441 3.32141 17.9227 0 13.8256 0C9.72839 0 6.40698 3.32141 6.40698 7.41858C6.40698 11.5157 9.72839 14.8372 13.8256 14.8372Z" fill="#757575"/>
<path fill-rule="evenodd" clip-rule="evenodd" d="M25.4956 16.9195L16.9116 25.5034C16.5164 25.8973 16.5164 26.5393 16.9116 26.9332C17.3055 27.3284 17.9475 27.3284 18.3414 26.9332L26.9254 18.3492C27.3206 17.9554 27.3206 17.3133 26.9254 16.9195C26.5315 16.5242 25.8895 16.5242 25.4956 16.9195V16.9195Z" fill="#FF0000"/>
<path fill-rule="evenodd" clip-rule="evenodd" d="M21.9187 14.8459C18.0098 14.8459 14.8373 18.0184 14.8373 21.9273C14.8373 25.8362 18.0098 29.0087 21.9187 29.0087C25.8276 29.0087 29.0001 25.8362 29.0001 21.9273C29.0001 18.0184 25.8276 14.8459 21.9187 14.8459ZM21.9187 16.8692C24.7108 16.8692 26.9768 19.1352 26.9768 21.9273C26.9768 24.7194 24.7108 26.9854 21.9187 26.9854C19.1266 26.9854 16.8606 24.7194 16.8606 21.9273C16.8606 19.1352 19.1266 16.8692 21.9187 16.8692Z" fill="#FF0000"/>
<path fill-rule="evenodd" clip-rule="evenodd" d="M15.7476 27.6674C14.3462 26.1621 13.4883 24.1442 13.4883 21.9268C13.4883 19.6567 14.388 17.5943 15.8501 16.0782C15.1892 16.027 14.5134 16 13.8255 16C9.34471 16 5.37779 17.1209 2.91483 18.8002C1.0359 20.0816 0 21.7096 0 23.4186V25.3744C0 25.9827 0.241441 26.5667 0.671718 26.9957C1.102 27.426 1.68469 27.6674 2.29301 27.6674H15.7476Z" fill="#757575"/>
</svg>
