<svg width="33" height="33" viewBox="0 0 33 33" fill="none" xmlns="http://www.w3.org/2000/svg">
<path d="M16.5 33C25.6127 33 33 25.6127 33 16.5C33 7.3873 25.6127 0 16.5 0C7.3873 0 0 7.3873 0 16.5C0 25.6127 7.3873 33 16.5 33Z" fill="#FF5A54"/>
<path fill-rule="evenodd" clip-rule="evenodd" d="M32.9971 16.2636C32.9982 16.3424 33.0001 16.4209 33.0001 16.5C33.0001 25.6127 25.6128 33 16.5001 33C16.4135 33 16.3274 32.9981 16.2412 32.9967L10.1456 26.901C9.93494 26.7204 9.79579 26.4579 9.77764 26.1601L8.92534 12.182H9.03218L7.83132 10.9812C7.76904 10.9189 7.73047 10.8329 7.73047 10.7383V8.96727C7.73047 8.3831 8.20691 7.90673 8.79101 7.90673H13.2597V7.03959C13.2597 6.38082 13.797 5.84361 14.4557 5.84361H18.5445C18.8944 5.84361 19.2101 5.99521 19.4292 6.23618L21.0997 7.90673H24.2092C24.5377 7.90673 24.8322 8.0575 25.027 8.29338L32.9971 16.2636Z" fill="#DB3A3C"/>
<path fill-rule="evenodd" clip-rule="evenodd" d="M13.0574 15.0175C13.3611 15.0175 13.6074 15.2638 13.6074 15.5675V22.5515C13.6074 22.8553 13.3611 23.1015 13.0574 23.1015C12.7536 23.1015 12.5074 22.8553 12.5074 22.5515V15.5675C12.5074 15.2638 12.7536 15.0175 13.0574 15.0175ZM15.9502 15.5675C15.9502 15.2638 16.1964 15.0175 16.5002 15.0175C16.8039 15.0175 17.0502 15.2638 17.0502 15.5675V22.5515C17.0502 22.8553 16.8039 23.1015 16.5002 23.1015C16.1964 23.1015 15.9502 22.8553 15.9502 22.5515V15.5675ZM19.3929 15.5675C19.3929 15.2638 19.6392 15.0175 19.9429 15.0175C20.2467 15.0175 20.4929 15.2638 20.4929 15.5675V22.5515C20.4929 22.8553 20.2467 23.1015 19.9429 23.1015C19.6392 23.1015 19.3929 22.8553 19.3929 22.5515V15.5675ZM8.92541 12.1821L9.77771 26.1602C9.81188 26.7207 10.2748 27.1562 10.8363 27.1562H22.164C22.7255 27.1562 23.1884 26.7207 23.2225 26.1602L24.0748 12.1821H8.92541ZM8.79108 7.90687H13.2598V7.03973C13.2598 6.38096 13.797 5.84375 14.4557 5.84375H18.5446C19.2033 5.84375 19.7405 6.38096 19.7405 7.03973V7.90687H24.2092C24.7933 7.90687 25.2697 8.38331 25.2697 8.96741V10.7384C25.2697 10.9277 25.1153 11.0822 24.9259 11.0822H8.07422C7.88488 11.0822 7.73047 10.9277 7.73047 10.7384V8.96741C7.73047 8.38324 8.20698 7.90687 8.79108 7.90687V7.90687Z" fill="white"/>
</svg>
