<svg width="35" height="35" viewBox="0 0 35 35" fill="none" xmlns="http://www.w3.org/2000/svg">
<path d="M26.7969 33.3594H1.64062V1.64062H20.2344V8.20312H26.7969V33.3594Z" fill="#FFEB99"/>
<path d="M1.64062 33.3594H26.7969V8.20312C26.7969 14.875 24.1465 21.2736 19.4288 25.9913C14.7111 30.709 8.31248 33.3594 1.64062 33.3594V33.3594Z" fill="#FFE477"/>
<path d="M3.82812 3.82812H18.0469V16.9531H3.82812V3.82812Z" fill="#FFCD00"/>
<path d="M26.7969 8.20312L20.2344 1.64062V8.20312H26.7969Z" fill="#006DF0"/>
<path d="M27.3667 14.9308L15.7653 26.5316H18.859L28.9062 16.4702L27.3667 14.9308Z" fill="#FFCD00"/>
<path d="M30.4599 18.0244L28.9062 16.4707L18.859 26.5321V29.6258L30.4599 18.0244Z" fill="#FF5023"/>
<path d="M15.0834 28.578L14.2188 31.1719L16.8126 30.3073C16.6787 29.9044 16.4527 29.5383 16.1525 29.2381C15.8523 28.9379 15.4862 28.7119 15.0834 28.578V28.578Z" fill="#6D6E71"/>
<path d="M15.7653 26.5312L15.0834 28.5777C15.4862 28.7115 15.8523 28.9375 16.1525 29.2377C16.4527 29.5379 16.6787 29.904 16.8126 30.3069L18.859 29.6249V26.5312H15.7653Z" fill="#D1D3D4"/>
<path d="M27.3618 14.9316L28.9084 13.3851L32.0015 16.4782L30.4549 18.0248L27.3618 14.9316Z" fill="#006DF0"/>
<path d="M29.6866 12.6104L28.9133 13.3837L32.0069 16.4773L32.7802 15.7041C33.1905 15.2938 33.4209 14.7374 33.4209 14.1572C33.4209 13.577 33.1905 13.0206 32.7802 12.6104C32.37 12.2001 31.8136 11.9697 31.2334 11.9697C30.6532 11.9697 30.0968 12.2001 29.6866 12.6104Z" fill="#E6E7E8"/>
<path d="M13.6719 12.5781H13.4477C13.234 13.066 12.8828 13.481 12.437 13.7724C11.9912 14.0638 11.4701 14.219 10.9375 14.219C10.4049 14.219 9.88384 14.0638 9.43804 13.7724C8.99225 13.481 8.64103 13.066 8.42734 12.5781H8.20312C7.62296 12.5781 7.06656 12.8086 6.65633 13.2188C6.24609 13.6291 6.01563 14.1855 6.01562 14.7656V16.9531H15.8594V14.7656C15.8594 14.1855 15.6289 13.6291 15.2187 13.2188C14.8084 12.8086 14.252 12.5781 13.6719 12.5781Z" fill="#ED1C24"/>
<path d="M12.5781 6.01562H7.10938V7.10938C7.10938 7.5445 7.28223 7.9618 7.5899 8.26947C7.89758 8.57715 8.31488 8.75 8.75 8.75H13.125C13.27 8.75 13.4091 8.69238 13.5117 8.58982C13.6143 8.48726 13.6719 8.34817 13.6719 8.20312V7.10938C13.6719 6.81929 13.5566 6.5411 13.3515 6.33598C13.1464 6.13086 12.8682 6.01562 12.5781 6.01562Z" fill="#58595B"/>
<path d="M12.0312 12.0312V11.1808C11.701 11.3794 11.3229 11.4844 10.9375 11.4844C10.5521 11.4844 10.174 11.3794 9.84374 11.1808V12.0312C9.84374 12.1763 9.78613 12.3154 9.68357 12.4179C9.58101 12.5205 9.44191 12.5781 9.29687 12.5781H8.42734C8.64102 13.066 8.99224 13.481 9.43804 13.7724C9.88384 14.0638 10.4049 14.219 10.9375 14.219C11.4701 14.219 11.9912 14.0638 12.4369 13.7724C12.8827 13.481 13.234 13.066 13.4477 12.5781H12.5781C12.4331 12.5781 12.294 12.5205 12.1914 12.4179C12.0889 12.3154 12.0312 12.1763 12.0312 12.0312Z" fill="#FFAC96"/>
<path d="M15.8594 22.9688H4.92188C4.77683 22.9688 4.63774 23.0264 4.53518 23.1289C4.43262 23.2315 4.375 23.3706 4.375 23.5156C4.375 23.6607 4.43262 23.7998 4.53518 23.9023C4.63774 24.0049 4.77683 24.0625 4.92188 24.0625H15.8594C16.0044 24.0625 16.1435 24.0049 16.2461 23.9023C16.3486 23.7998 16.4062 23.6607 16.4062 23.5156C16.4062 23.3706 16.3486 23.2315 16.2461 23.1289C16.1435 23.0264 16.0044 22.9688 15.8594 22.9688Z" fill="#FF7956"/>
<path d="M18.0469 19.6875H4.92188C4.77683 19.6875 4.63774 19.7451 4.53518 19.8477C4.43262 19.9502 4.375 20.0893 4.375 20.2344C4.375 20.3794 4.43262 20.5185 4.53518 20.6211C4.63774 20.7236 4.77683 20.7812 4.92188 20.7812H18.0469C18.1919 20.7812 18.331 20.7236 18.4336 20.6211C18.5361 20.5185 18.5938 20.3794 18.5938 20.2344C18.5938 20.0893 18.5361 19.9502 18.4336 19.8477C18.331 19.7451 18.1919 19.6875 18.0469 19.6875Z" fill="#FF7956"/>
<path d="M13.125 26.25H4.92188C4.77683 26.25 4.63774 26.3076 4.53518 26.4102C4.43262 26.5127 4.375 26.6518 4.375 26.7969C4.375 26.9419 4.43262 27.081 4.53518 27.1836C4.63774 27.2861 4.77683 27.3438 4.92188 27.3438H13.125C13.27 27.3438 13.4091 27.2861 13.5117 27.1836C13.6143 27.081 13.6719 26.9419 13.6719 26.7969C13.6719 26.6518 13.6143 26.5127 13.5117 26.4102C13.4091 26.3076 13.27 26.25 13.125 26.25Z" fill="#FF7956"/>
<path d="M11.4844 29.5312H4.92188C4.77683 29.5312 4.63774 29.5889 4.53518 29.6914C4.43262 29.794 4.375 29.9331 4.375 30.0781C4.375 30.2232 4.43262 30.3623 4.53518 30.4648C4.63774 30.5674 4.77683 30.625 4.92188 30.625H11.4844C11.6294 30.625 11.7685 30.5674 11.8711 30.4648C11.9736 30.3623 12.0312 30.2232 12.0312 30.0781C12.0312 29.9331 11.9736 29.794 11.8711 29.6914C11.7685 29.5889 11.6294 29.5312 11.4844 29.5312Z" fill="#FF7956"/>
<path d="M13.125 15.3125C12.98 15.3125 12.8409 15.3701 12.7383 15.4727C12.6357 15.5752 12.5781 15.7143 12.5781 15.8594V16.9531H13.6719V15.8594C13.6719 15.7143 13.6143 15.5752 13.5117 15.4727C13.4091 15.3701 13.27 15.3125 13.125 15.3125Z" fill="#D80027"/>
<path d="M8.75 15.3125C8.60496 15.3125 8.46586 15.3701 8.3633 15.4727C8.26074 15.5752 8.20312 15.7143 8.20312 15.8594V16.9531H9.29688V15.8594C9.29688 15.7143 9.23926 15.5752 9.1367 15.4727C9.03414 15.3701 8.89504 15.3125 8.75 15.3125Z" fill="#D80027"/>
<path d="M8.75 9.84375C8.75 10.4239 8.98047 10.9803 9.3907 11.3905C9.80094 11.8008 10.3573 12.0312 10.9375 12.0312C11.5177 12.0312 12.0741 11.8008 12.4843 11.3905C12.8945 10.9803 13.125 10.4239 13.125 9.84375V8.75H8.75V9.84375Z" fill="#FFBCAB"/>
</svg>
