<svg width="28" height="30" viewBox="0 0 28 30" fill="none" xmlns="http://www.w3.org/2000/svg">
<path d="M22.5 4.5V27.5C22.4987 28.03 22.2875 28.538 21.9128 28.9128C21.538 29.2875 21.03 29.4987 20.5 29.5H2.5C1.96957 29.5 1.46086 29.2893 1.08579 28.9142C0.710714 28.5391 0.5 28.0304 0.5 27.5V2.5C0.5 1.96957 0.710714 1.46086 1.08579 1.08579C1.46086 0.710714 1.96957 0.5 2.5 0.5H18.5V3.5C18.5008 3.76497 18.6064 4.01887 18.7938 4.20623C18.9811 4.3936 19.235 4.49921 19.5 4.5H22.5Z" fill="#E6E7E8"/>
<path d="M22.5 26.5V27.5C22.4996 27.8513 22.4065 28.1963 22.23 28.5H18.5V26.5H22.5Z" fill="#D8D7DA"/>
<path d="M17.5 25.5H26.5V27.5H17.5V25.5Z" fill="#00B39D"/>
<path d="M27.5 23.5V25.5H16.5V23.5C16.5008 23.235 16.6064 22.9811 16.7938 22.7938C16.9811 22.6064 17.235 22.5008 17.5 22.5H26.5C26.765 22.5008 27.0189 22.6064 27.2062 22.7938C27.3936 22.9811 27.4992 23.235 27.5 23.5V23.5Z" fill="#EE8700"/>
<path d="M24.335 21.005L25 22V22.5H19V22L19.665 21.005C19.884 20.6763 20.0006 20.29 20 19.895V18.49C20.0078 17.6396 19.7354 16.8102 19.225 16.13C18.8008 15.5785 18.5508 14.9129 18.5072 14.2184C18.4635 13.524 18.628 12.8323 18.9798 12.232C19.3315 11.6316 19.8544 11.1499 20.4815 10.8484C21.1086 10.547 21.8115 10.4396 22.5 10.54C22.5673 10.5455 22.6341 10.5555 22.7 10.57C23.2756 10.6859 23.8127 10.9451 24.2617 11.3235C24.7107 11.7019 25.0571 12.1873 25.2689 12.735C25.4806 13.2826 25.551 13.8748 25.4734 14.4568C25.3958 15.0389 25.1728 15.5919 24.825 16.065C24.2973 16.766 24.0082 17.6176 24 18.495V19.895C23.9994 20.29 24.116 20.6763 24.335 21.005V21.005Z" fill="#FF9811"/>
<path d="M9 27.5C11.4853 27.5 13.5 25.4853 13.5 23C13.5 20.5147 11.4853 18.5 9 18.5C6.51472 18.5 4.5 20.5147 4.5 23C4.5 25.4853 6.51472 27.5 9 27.5Z" fill="#D8D7DA"/>
<path d="M8 26.5C10.4853 26.5 12.5 24.4853 12.5 22C12.5 19.5147 10.4853 17.5 8 17.5C5.51472 17.5 3.5 19.5147 3.5 22C3.5 24.4853 5.51472 26.5 8 26.5Z" fill="#00CCB3"/>
<path d="M22.5 4.5H19.5C19.235 4.49921 18.9811 4.3936 18.7938 4.20623C18.6064 4.01887 18.5008 3.76497 18.5 3.5V0.5L22.5 4.5Z" fill="#BCBEC0"/>
<path d="M17.5 25.5H26.5V26.5H17.5V25.5Z" fill="#009986"/>
<path d="M20.5 29H2.5C2.10218 29 1.72064 28.842 1.43934 28.5607C1.15804 28.2794 1 27.8978 1 27.5V2.5C1 2.10218 1.15804 1.72064 1.43934 1.43934C1.72064 1.15804 2.10218 1 2.5 1H18V3.5C18 3.89782 18.158 4.27936 18.4393 4.56066C18.7206 4.84196 19.1022 5 19.5 5H22V9H23V4.5C23 4.3674 22.9473 4.24025 22.8535 4.1465L18.8535 0.1465C18.7598 0.0527253 18.6326 2.83187e-05 18.5 0H2.5C1.8372 0.000793929 1.20178 0.264441 0.73311 0.73311C0.264441 1.20178 0.000793929 1.8372 0 2.5V27.5C0.000793929 28.1628 0.264441 28.7982 0.73311 29.2669C1.20178 29.7356 1.8372 29.9992 2.5 30H20.5C21.1089 30.0003 21.697 29.778 22.1535 29.375L21.492 28.625C21.218 28.8666 20.8653 29 20.5 29V29ZM19 3.5V1.707L21.293 4H19.5C19.3674 4 19.2402 3.94732 19.1464 3.85355C19.0527 3.75979 19 3.63261 19 3.5Z" fill="black"/>
<path d="M26.5 22H25.5C25.5002 21.9018 25.4706 21.8059 25.415 21.725L24.75 20.725C24.586 20.4794 24.4989 20.1904 24.5 19.895V18.495C24.5075 17.7234 24.7635 16.9747 25.23 16.36C25.6026 15.8499 25.8491 15.2589 25.9493 14.6352C26.0496 14.0116 26.0007 13.3731 25.8066 12.7719C25.6126 12.1708 25.279 11.6242 24.8331 11.1768C24.3872 10.7294 23.8417 10.394 23.2412 10.198C22.6407 10.002 22.0024 9.95097 21.3784 10.0491C20.7544 10.1473 20.1626 10.3918 19.6513 10.7627C19.14 11.1336 18.7238 11.6203 18.4368 12.183C18.1498 12.7457 18.0001 13.3683 18 14C17.9963 14.8793 18.2867 15.7347 18.825 16.43C19.2693 17.0244 19.5064 17.748 19.5 18.49V19.895C19.5011 20.1904 19.414 20.4794 19.25 20.725L18.585 21.725C18.5294 21.8059 18.4998 21.9018 18.5 22H17.5C17.1025 22.0012 16.7217 22.1596 16.4407 22.4407C16.1596 22.7217 16.0012 23.1025 16 23.5V25.5C16 25.6326 16.0527 25.7598 16.1464 25.8536C16.2402 25.9473 16.3674 26 16.5 26H17V27.5C17 27.6326 17.0527 27.7598 17.1464 27.8536C17.2402 27.9473 17.3674 28 17.5 28H26.5C26.6326 28 26.7598 27.9473 26.8536 27.8536C26.9473 27.7598 27 27.6326 27 27.5V26H27.5C27.6326 26 27.7598 25.9473 27.8536 25.8536C27.9473 25.7598 28 25.6326 28 25.5V23.5C27.9988 23.1025 27.8404 22.7217 27.5593 22.4407C27.2783 22.1596 26.8975 22.0012 26.5 22V22ZM19 14C18.9998 13.5264 19.1118 13.0594 19.3267 12.6374C19.5417 12.2153 19.8535 11.8502 20.2366 11.5718C20.6198 11.2934 21.0635 11.1097 21.5313 11.0357C21.9991 10.9617 22.4778 10.9995 22.9282 11.146C23.3785 11.2925 23.7878 11.5436 24.1225 11.8787C24.4573 12.2138 24.7079 12.6234 24.8539 13.074C24.9999 13.5245 25.0372 14.0033 24.9626 14.471C24.8881 14.9387 24.7038 15.3822 24.425 15.765C23.8327 16.5527 23.5085 17.5095 23.5 18.495V19.895C23.4991 20.3882 23.6454 20.8704 23.92 21.28L24.4 22H19.6L20.08 21.28C20.3546 20.8704 20.5009 20.3882 20.5 19.895V18.49C20.5058 17.5294 20.1967 16.5933 19.62 15.825C19.2169 15.3021 18.9989 14.6602 19 14V14ZM26 27H18V26H26V27ZM27 25H17V23.5C17 23.3674 17.0527 23.2402 17.1464 23.1464C17.2402 23.0527 17.3674 23 17.5 23H26.5C26.6326 23 26.7598 23.0527 26.8536 23.1464C26.9473 23.2402 27 23.3674 27 23.5V25Z" fill="black"/>
<path d="M8 27C8.98891 27 9.95561 26.7068 10.7779 26.1573C11.6001 25.6079 12.241 24.827 12.6194 23.9134C12.9978 22.9998 13.0969 21.9945 12.9039 21.0245C12.711 20.0546 12.2348 19.1637 11.5355 18.4645C10.8363 17.7652 9.94536 17.289 8.97545 17.0961C8.00555 16.9031 7.00021 17.0022 6.08658 17.3806C5.17295 17.759 4.39206 18.3999 3.84265 19.2221C3.29324 20.0444 3 21.0111 3 22C3.00146 23.3256 3.52871 24.5966 4.46607 25.5339C5.40344 26.4713 6.67436 26.9985 8 27V27ZM8 18C8.79113 18 9.56448 18.2346 10.2223 18.6741C10.8801 19.1136 11.3928 19.7384 11.6955 20.4693C11.9983 21.2002 12.0775 22.0044 11.9231 22.7804C11.7688 23.5563 11.3878 24.269 10.8284 24.8284C10.269 25.3878 9.55629 25.7688 8.78036 25.9231C8.00444 26.0775 7.20017 25.9983 6.46927 25.6955C5.73836 25.3928 5.11365 24.8801 4.67412 24.2223C4.2346 23.5645 4 22.7911 4 22C4.00119 20.9395 4.423 19.9228 5.17289 19.1729C5.92278 18.423 6.9395 18.0012 8 18V18Z" fill="black"/>
<path d="M7.5 24C7.6326 24 7.75975 23.9473 7.8535 23.8535L10.8535 20.8535L10.1465 20.1465L7.5 22.793L6.3535 21.6465L5.6465 22.3535L7.1465 23.8535C7.24025 23.9473 7.3674 24 7.5 24V24Z" fill="black"/>
<path d="M12 7.5H11C10.8674 7.5 10.7402 7.44732 10.6464 7.35355C10.5527 7.25979 10.5 7.13261 10.5 7H9.5C9.5 7.39782 9.65804 7.77936 9.93934 8.06066C10.2206 8.34196 10.6022 8.5 11 8.5V9H12V8.5C12.3978 8.5 12.7794 8.34196 13.0607 8.06066C13.342 7.77936 13.5 7.39782 13.5 7C13.5 6.60218 13.342 6.22064 13.0607 5.93934C12.7794 5.65804 12.3978 5.5 12 5.5H11C10.8674 5.5 10.7402 5.44732 10.6464 5.35355C10.5527 5.25979 10.5 5.13261 10.5 5C10.5 4.86739 10.5527 4.74021 10.6464 4.64645C10.7402 4.55268 10.8674 4.5 11 4.5H12C12.1326 4.5 12.2598 4.55268 12.3536 4.64645C12.4473 4.74021 12.5 4.86739 12.5 5H13.5C13.5 4.60218 13.342 4.22064 13.0607 3.93934C12.7794 3.65804 12.3978 3.5 12 3.5V3H11V3.5C10.6022 3.5 10.2206 3.65804 9.93934 3.93934C9.65804 4.22064 9.5 4.60218 9.5 5C9.5 5.39782 9.65804 5.77936 9.93934 6.06066C10.2206 6.34196 10.6022 6.5 11 6.5H12C12.1326 6.5 12.2598 6.55268 12.3536 6.64645C12.4473 6.74021 12.5 6.86739 12.5 7C12.5 7.13261 12.4473 7.25979 12.3536 7.35355C12.2598 7.44732 12.1326 7.5 12 7.5Z" fill="black"/>
<path d="M14.5 5.5H15.5V6.5H14.5V5.5Z" fill="black"/>
<path d="M7.5 5.5H8.5V6.5H7.5V5.5Z" fill="black"/>
<path d="M3 10H5V11H3V10Z" fill="black"/>
<path d="M6 10H18V11H6V10Z" fill="black"/>
<path d="M3 12H17V13H3V12Z" fill="black"/>
<path d="M3 14H17V15H3V14Z" fill="black"/>
<path d="M3 16H5V17H3V16Z" fill="black"/>
<path d="M11 16H17V17H11V16Z" fill="black"/>
<path d="M13.5 18H17.5V19H13.5V18Z" fill="black"/>
</svg>
