<svg width="33" height="33" viewBox="0 0 33 33" fill="none" xmlns="http://www.w3.org/2000/svg">
<g clip-path="url(#clip0_2_68)">
<path d="M0 16.5002C0 7.38672 7.38732 0 16.4997 0C25.6126 0 33 7.38679 33 16.5002C33 25.6123 25.6126 32.9996 16.4997 32.9996C7.38732 32.9996 0 25.6123 0 16.5002Z" fill="#E04F5F"/>
<path d="M24.8828 10.3189C22.5683 8.00427 18.8155 8.00427 16.501 10.3189H16.4991C14.1844 8.00427 10.4316 8.00427 8.11713 10.3189C5.80248 12.6334 6.13623 16.0948 8.11713 18.7007C10.215 21.4603 14.0452 26.0132 16.4991 26.0132H16.501C18.9549 26.0132 22.785 21.4603 24.8828 18.7007C26.8638 16.0949 27.1974 12.6335 24.8828 10.3189Z" fill="white"/>
</g>
<defs>
<clipPath id="clip0_2_68">
<rect width="33" height="33" fill="white"/>
</clipPath>
</defs>
</svg>
