<svg width="32" height="32" viewBox="0 0 32 32" fill="none" xmlns="http://www.w3.org/2000/svg">
<g clip-path="url(#clip0_2_465)">
<path d="M32 1.63006V30.3699C32 30.8947 31.5746 31.3195 31.0504 31.3195H0.949562C0.425375 31.3195 0 30.8947 0 30.3699V1.63006C0 1.10593 0.425375 0.680496 0.949562 0.680496H31.0504C31.5746 0.680496 32 1.10593 32 1.63006Z" fill="#FFE9CC"/>
<path d="M32 1.63006V30.3699C32 30.8947 31.5746 31.3195 31.0504 31.3195H16V0.680496H31.0504C31.5746 0.680496 32 1.10593 32 1.63006Z" fill="#FFE9CC"/>
<path d="M13.7008 18.3018V27.0833C13.7008 27.6074 13.2754 28.0328 12.7513 28.0328H4.97819C4.45406 28.0328 4.02863 27.6074 4.02863 27.0833V18.3018C4.02863 17.7776 4.454 17.3522 4.97819 17.3522H12.7513C13.2754 17.3522 13.7008 17.7776 13.7008 18.3018Z" fill="#6AA9FF"/>
<path d="M5.99056 10.5688C6.4545 10.5688 6.77856 10.3393 6.77856 10.0109V8.14431L7.87881 10.1479C8.0815 10.521 8.43081 10.5688 8.7125 10.5688C9.17644 10.5688 9.5005 10.3393 9.5005 10.0109V5.13425C9.5005 4.80506 9.18381 4.58394 8.7125 4.58394C8.24119 4.58394 7.92456 4.80506 7.92456 5.13425V6.97L7.04075 5.28431C6.72644 4.68056 6.51338 4.584 5.9905 4.584C5.51919 4.584 5.20256 4.80825 5.20256 5.14194V10.0109C5.20262 10.3394 5.52662 10.5688 5.99056 10.5688Z" fill="#FF9F22"/>
<path d="M11.1659 10.5688H13.8956C14.2196 10.5688 14.4458 10.2794 14.4458 9.86519C14.4458 9.44188 14.2196 9.14625 13.8956 9.14625H12.0306V8.2225H12.9908C13.352 8.2225 13.5411 7.89938 13.5411 7.58025C13.5411 7.19919 13.3096 6.92256 12.9908 6.92256H12.0306V6.00656H13.8956C14.2196 6.00656 14.4459 5.71094 14.4459 5.28756C14.4459 4.87331 14.2196 4.58394 13.8956 4.58394H11.166C10.7538 4.58394 10.4548 4.81863 10.4548 5.14188V10.0108C10.4546 10.3341 10.7537 10.5688 11.1659 10.5688Z" fill="#FF9F22"/>
<path d="M16.2519 10.0831C16.3535 10.4061 16.7346 10.6147 17.2229 10.6147C17.6384 10.6147 18.0963 10.4459 18.1829 10.0669L18.396 9.09512L18.6096 10.0685C18.6958 10.4459 19.1537 10.6148 19.5691 10.6148C20.0557 10.6148 20.4271 10.4129 20.5385 10.0877L22.0649 5.409C22.0808 5.36119 22.0899 5.30294 22.0899 5.24931C22.0899 4.83706 21.5283 4.584 21.1256 4.584C20.8313 4.584 20.625 4.71525 20.5601 4.94237L19.5984 8.18806L19.1564 6.29694C19.0854 5.977 18.7232 5.83381 18.3959 5.83381C18.0687 5.83381 17.7066 5.977 17.636 6.29494L17.1935 8.18812L16.2323 4.94412C16.1669 4.71531 15.9606 4.58406 15.6663 4.58406C15.2636 4.58406 14.702 4.83712 14.702 5.24937C14.702 5.30306 14.7112 5.36131 14.7267 5.40794L16.2519 10.0831Z" fill="#FF9F22"/>
<path d="M24.3996 9.19218C24.0474 9.19218 23.8391 9.03175 23.6376 8.87668C23.4767 8.75281 23.3105 8.62481 23.0961 8.62481C22.6684 8.62481 22.3848 9.12681 22.3848 9.45875C22.3848 10.1021 23.318 10.6455 24.4226 10.6455C25.7024 10.6455 26.5294 9.90281 26.5294 8.75337C26.5294 7.44406 25.5263 7.00187 24.7939 6.67906C24.4364 6.52143 24.0987 6.37262 24.0987 6.20012C24.0987 6.03606 24.3252 5.92993 24.6756 5.92993C25.0074 5.92993 25.1798 6.01925 25.3319 6.09806C25.4488 6.15862 25.5697 6.22131 25.726 6.22131C26.1961 6.22131 26.3913 5.68812 26.3913 5.40262C26.3913 4.60031 25.0781 4.53793 24.6755 4.53793C23.6824 4.53793 22.5227 5.00337 22.5227 6.31506C22.5227 7.47993 23.4593 7.91506 24.1431 8.23275C24.6473 8.46693 24.9534 8.62706 24.9534 8.87606C24.9534 9.18331 24.4563 9.19218 24.3996 9.19218Z" fill="#FF9F22"/>
<path d="M27.3605 13.6069C27.3605 13.0825 26.9354 12.6574 26.4109 12.6574H4.97844C4.454 12.6574 4.02888 13.0825 4.02888 13.6069C4.02888 14.1314 4.454 14.5565 4.97844 14.5565H26.4109C26.9353 14.5565 27.3605 14.1313 27.3605 13.6069Z" fill="#FF9F22"/>
<path d="M22.0904 5.24912C22.0904 5.30293 22.0809 5.36118 22.0651 5.4093L20.5389 10.0881C20.4274 10.4128 20.0559 10.6147 19.5691 10.6147C19.1538 10.6147 18.6961 10.4457 18.6094 10.0684L18.3961 9.0948L18.1828 10.0672C18.0967 10.4457 17.6383 10.6147 17.2231 10.6147C16.735 10.6147 16.3533 10.4059 16.252 10.083L16 9.31068V4.65787C16.1152 4.71862 16.1956 4.81612 16.2323 4.94399L17.1939 8.1883L17.6364 6.29487C17.7066 5.97705 18.0687 5.83399 18.396 5.83399C18.7232 5.83399 19.0854 5.97705 19.1562 6.29674L19.5987 8.18824L20.5603 4.94205C20.6249 4.71543 20.8313 4.58374 21.1256 4.58374C21.5283 4.5838 22.0904 4.83705 22.0904 5.24912Z" fill="#EE8700"/>
<path d="M24.3996 9.19218C24.0474 9.19218 23.8391 9.03175 23.6376 8.87668C23.4767 8.75281 23.3105 8.62481 23.0961 8.62481C22.6684 8.62481 22.3848 9.12681 22.3848 9.45875C22.3848 10.1021 23.318 10.6455 24.4226 10.6455C25.7024 10.6455 26.5294 9.90281 26.5294 8.75337C26.5294 7.44406 25.5263 7.00187 24.7939 6.67906C24.4364 6.52143 24.0987 6.37262 24.0987 6.20012C24.0987 6.03606 24.3252 5.92993 24.6756 5.92993C25.0074 5.92993 25.1798 6.01925 25.3319 6.09806C25.4488 6.15862 25.5697 6.22131 25.726 6.22131C26.1961 6.22131 26.3913 5.68812 26.3913 5.40262C26.3913 4.60031 25.0781 4.53793 24.6755 4.53793C23.6824 4.53793 22.5227 5.00337 22.5227 6.31506C22.5227 7.47993 23.4593 7.91506 24.1431 8.23275C24.6473 8.46693 24.9534 8.62706 24.9534 8.87606C24.9534 9.18331 24.4563 9.19218 24.3996 9.19218Z" fill="#EE8700"/>
<path d="M27.3605 13.6071C27.3605 14.1313 26.9351 14.5567 26.4109 14.5567H16V12.6576H26.4109C26.9351 12.6576 27.3605 13.0823 27.3605 13.6071Z" fill="#EE8700"/>
<path d="M26.3924 19.2387H18.2236C17.6991 19.2387 17.274 18.8136 17.274 18.2891C17.274 17.7647 17.6991 17.3396 18.2236 17.3396H26.3924C26.9168 17.3396 27.3419 17.7647 27.3419 18.2891C27.3419 18.8136 26.9168 19.2387 26.3924 19.2387Z" fill="#2682FF"/>
<path d="M26.3924 23.3312H18.2236C17.6991 23.3312 17.274 22.9061 17.274 22.3816C17.274 21.8572 17.6991 21.4321 18.2236 21.4321H26.3924C26.9168 21.4321 27.3419 21.8572 27.3419 22.3816C27.3419 22.9061 26.9168 23.3312 26.3924 23.3312Z" fill="#2682FF"/>
<path d="M26.3924 27.4236H18.2236C17.6991 27.4236 17.274 26.9985 17.274 26.4741C17.274 25.9496 17.6991 25.5245 18.2236 25.5245H26.3924C26.9168 25.5245 27.3419 25.9496 27.3419 26.4741C27.3419 26.9985 26.9168 27.4236 26.3924 27.4236Z" fill="#2682FF"/>
</g>
<defs>
<clipPath id="clip0_2_465">
<rect width="32" height="32" fill="white"/>
</clipPath>
</defs>
</svg>
