<svg width="37" height="39" viewBox="0 0 37 39" fill="none" xmlns="http://www.w3.org/2000/svg">
<path d="M16.2937 28.1979C24.1215 28.3676 30.4959 27.1834 30.5312 25.5527C30.5666 23.9221 24.2496 22.4626 16.4218 22.2928C8.59393 22.123 2.21956 23.3073 2.18419 24.9379C2.14883 26.5686 8.46586 28.0281 16.2937 28.1979Z" fill="#BD851D"/>
<path d="M16.3538 25.8744C20.1811 25.9582 23.3046 25.0757 23.3303 23.9034C23.3559 22.7311 20.274 21.7129 16.4467 21.6292C12.6194 21.5454 9.4959 22.4279 9.47025 23.6002C9.4446 24.7725 12.5265 25.7907 16.3538 25.8744Z" fill="#844F15"/>
<path d="M18.0058 24.7177L17.99 21.2797C17.987 20.6731 17.2722 20.1818 16.389 20.1865C15.5058 20.1912 14.7944 20.6867 14.7971 21.295L14.8141 24.7332C13.0656 25.1901 11.8249 26.3561 11.8325 27.7161C11.8407 29.471 13.9025 30.8809 16.4416 30.8675C18.9754 30.855 21.0244 29.4256 21.0179 27.6715C21.0104 26.3104 19.7581 25.1581 18.003 24.7173" fill="#FBB041"/>
<path d="M13.6426 27.7053C13.6362 26.3444 14.8791 25.1786 16.6236 24.7223L16.6066 21.2842C16.6057 20.908 16.8811 20.5746 17.2946 20.3745C17.0108 20.2444 16.7015 20.1795 16.3894 20.1845C15.5061 20.1891 14.7947 20.6847 14.7975 21.293L14.8144 24.7311C13.0659 25.188 11.8253 26.3541 11.8329 27.7141C11.841 29.469 13.9028 30.8789 16.4419 30.8655C16.7448 30.8632 17.0472 30.841 17.3472 30.799C15.2413 30.5189 13.6511 29.2444 13.6426 27.7053Z" fill="#E09734"/>
<path d="M20.3995 27.7143C20.4007 28.1396 20.2848 28.5325 20.0881 28.8528C20.0386 28.9311 19.9843 29.007 19.9249 29.0753C19.7112 29.3083 19.1664 29.6883 19.1401 29.3102C19.1301 29.1474 19.1099 28.9854 19.0796 28.8251C19.0639 28.7465 19.0461 28.6683 19.0263 28.5906C18.8346 27.5032 18.0644 27.5458 17.5149 27.058C17.2403 26.8331 17.5127 26.4543 17.7021 26.2828C17.7664 26.2163 17.8323 26.158 17.8986 26.1055C18.1666 25.8946 18.4513 25.7819 18.7491 25.7987C18.8376 25.7988 18.9259 25.8064 19.0131 25.8214C19.7942 25.9672 20.394 26.7575 20.3995 27.7143" fill="#F9C178"/>
<path d="M19.8618 3.614C19.8389 4.68464 18.5622 5.52619 17.0132 5.49115C15.4594 5.45837 14.2232 4.56245 14.2463 3.49129C14.2692 2.42065 15.5449 1.57865 17.0982 1.61372C18.6462 1.64705 19.885 2.54284 19.8618 3.614" fill="#FBB041"/>
<path d="M19.1903 3.11856C19.1863 3.31927 19.088 3.5034 18.9259 3.65042C18.884 3.68738 18.8397 3.72148 18.7933 3.75248C18.6187 3.85773 18.1767 4.02705 18.1606 3.84833C18.1529 3.73015 18.1256 3.61406 18.0799 3.50477C17.9406 2.98849 17.3224 2.99218 16.8913 2.7521C16.6737 2.64163 16.897 2.46721 17.0508 2.3898C17.1038 2.36004 17.1565 2.33383 17.2132 2.3112C17.4275 2.21416 17.6619 2.16974 17.8969 2.18165C17.9681 2.18432 18.0391 2.18992 18.1099 2.19841C18.7316 2.28242 19.2005 2.66701 19.1903 3.11856" fill="#F9C178"/>
<path d="M16.6227 3.09278C16.6345 2.52929 16.9491 2.02059 17.4553 1.63809C17.3365 1.62492 17.2172 1.61652 17.0977 1.6129C15.5444 1.57909 14.2708 2.42073 14.2458 3.49046C14.2229 4.56111 15.4591 5.45703 17.0126 5.49032C17.5822 5.50354 18.1161 5.39714 18.5638 5.20504C17.4029 4.83932 16.6008 4.0217 16.6227 3.09278" fill="#E09734"/>
<path fill-rule="evenodd" clip-rule="evenodd" d="M26.6006 20.8613C24.9899 18.9814 24.2304 16.8384 23.9307 14.5258C23.6501 12.3373 23.6137 10.1391 23.6119 7.94626C23.6091 6.62189 22.9715 5.85587 21.6603 5.3906C20.759 5.07342 19.8291 4.84413 18.8837 4.70591C18.3219 4.66905 17.7603 4.64027 17.1914 4.61261C16.5693 4.61398 15.9577 4.61935 15.3431 4.63447C15.0286 4.64291 14.7137 4.65238 14.4004 4.66378C13.57 4.76615 12.7499 4.93892 11.9488 5.18022C10.619 5.58688 9.94804 6.32386 9.88749 7.64822C9.79038 9.83787 9.65911 12.031 9.28129 14.2082C8.88151 16.5074 8.02785 18.6145 6.33749 20.4224C5.46862 21.3517 4.53089 22.2189 3.60168 23.0947C3.00614 23.6548 2.42262 24.2226 2.15317 24.9843C2.22674 25.0835 2.30914 25.0851 2.40256 25.0065C3.59362 24.0131 5.12333 23.6938 6.63736 23.3837C9.24511 22.8493 11.9062 22.6773 14.5777 22.6084C15.1912 22.5915 15.8053 22.5903 16.4254 22.588C17.0452 22.6158 17.6592 22.646 18.2715 22.6895C20.9407 22.8737 23.5894 23.161 26.1712 23.8098C27.6697 24.1846 29.1842 24.5719 30.3305 25.6144C30.4212 25.6983 30.5022 25.7005 30.5785 25.6046C30.3439 24.8331 29.7834 24.2386 29.215 23.6536C28.3244 22.7371 27.4264 21.8289 26.5989 20.8636" fill="#FBB041"/>
<path fill-rule="evenodd" clip-rule="evenodd" d="M29.2135 23.6399C28.3224 22.7244 27.4249 21.8152 26.597 20.8509C24.9864 18.9711 24.227 16.8275 23.9266 14.514C23.6459 12.3254 23.6095 10.1273 23.6078 7.9357C23.6054 6.6103 22.9674 5.84531 21.6554 5.38033C20.7548 5.06244 19.8254 4.83294 18.8803 4.69506C18.3188 4.65894 17.7572 4.63016 17.1876 4.6028C16.8409 4.60331 16.4943 4.61063 16.1483 4.61388C16.3635 4.62547 16.5813 4.63568 16.7986 4.64944C17.7464 4.79158 18.67 5.01427 19.5752 5.33413C20.8857 5.79969 21.5233 6.56571 21.5255 7.89163C21.5285 10.0844 21.5641 12.2816 21.8447 14.4689C22.1442 16.7845 22.9045 18.926 24.5151 20.8058C25.3426 21.7711 26.2411 22.6795 27.1316 23.5948C27.3284 23.7965 27.5189 24.0041 27.7 24.2149C28.6601 24.5163 29.5742 24.917 30.3284 25.6022C30.419 25.6836 30.5002 25.6865 30.5766 25.5919C30.3431 24.8179 29.7823 24.2239 29.2135 23.6399Z" fill="#F9C178"/>
<path fill-rule="evenodd" clip-rule="evenodd" d="M8.16058 22.5833C9.09076 21.7067 10.0282 20.8387 10.8966 19.9105C12.587 18.1026 13.4409 15.995 13.8394 13.6958C14.2171 11.5217 14.3469 9.32913 14.4466 7.13632C14.5069 5.81248 15.1787 5.0752 16.5094 4.66774C16.5916 4.64152 16.6759 4.62049 16.759 4.59776C16.285 4.60232 15.8135 4.60121 15.3435 4.61491C15.028 4.62289 14.7131 4.63236 14.4 4.64325C13.5701 4.74529 12.7505 4.91787 11.9499 5.15911C10.6191 5.56531 9.94745 6.30385 9.88862 7.62711C9.79031 9.81807 9.6591 12.0125 9.2819 14.1868C8.88316 16.4865 8.02949 18.5936 6.33855 20.4C5.46946 21.3298 4.53298 22.1969 3.60287 23.0748C3.00779 23.6339 2.42427 24.2017 2.15527 24.9624C2.22838 25.0626 2.30969 25.0625 2.40339 24.9846C3.59526 23.9922 5.12372 23.673 6.6382 23.3618C6.94163 23.3012 7.24801 23.2437 7.55383 23.1902C7.74657 22.9815 7.95127 22.7792 8.16126 22.5818" fill="#E09734"/>
</svg>
