<?xml version="1.0" encoding="UTF-8"?>
<svg xmlns="http://www.w3.org/2000/svg" viewBox="0 0 64 64" width="512" height="512" fill="black"><g id="Outline"><path d="M36.486,56.509a1.034,1.034,0,0,0,.175-.015,1,1,0,0,0,.811-1.159L35.389,43.518a1,1,0,1,0-1.969.347L35.5,55.683A1,1,0,0,0,36.486,56.509Z"/><path d="M42.4,55.467a1.031,1.031,0,0,0,.174-.015,1,1,0,0,0,.811-1.159l-1.736-9.848a1,1,0,1,0-1.969.348l1.736,9.848A1,1,0,0,0,42.4,55.467Z"/><path d="M48.305,54.425a1.031,1.031,0,0,0,.174-.015,1,1,0,0,0,.811-1.159L47.206,41.434a1,1,0,0,0-1.969.347L47.321,53.6A1,1,0,0,0,48.305,54.425Z"/><path d="M61.861,43.927l-.694-3.94a8.956,8.956,0,0,0-2.4-4.7,1,1,0,1,0-1.436,1.392A6.973,6.973,0,0,1,59.2,40.334l.7,3.94a7,7,0,0,1-5.679,8.109l-.985.174-.347-1.969.985-.174a5,5,0,0,0,4.055-5.793l-.694-3.939a5,5,0,0,0-5.792-4.056l-.986.174L50.1,34.831l.986-.174a6.922,6.922,0,0,1,3.245.2,1,1,0,1,0,.582-1.913,8.89,8.89,0,0,0-4.175-.257l-.14.025a3.9,3.9,0,0,0-.034-1.009,3.99,3.99,0,0,0-2.6-3.062,4,4,0,0,0-4.527-2.79,1,1,0,0,0,.348,1.969,2,2,0,0,1,1.494.331,1.971,1.971,0,0,1,.817,1.26c0,.025.007.125.01.15a1,1,0,0,0,.833.874,1.991,1.991,0,1,1-1.37,3.649,1,1,0,0,0-1.318.232,1.993,1.993,0,0,1-1.221.745,1.934,1.934,0,0,1-1.4-.287,1,1,0,0,0-1.522,1.018l.484,2.744a1,1,0,0,1-1.97.348l-.521-2.954a1,1,0,0,0-1.158-.812,3.94,3.94,0,0,1-2.505-.393A1,1,0,0,0,33,35.732c0,.034.011.071.019.107a2,2,0,0,1-1.625,2.291,1.978,1.978,0,0,1-1.4-.283,1,1,0,0,0-1.513,1.022l1,5.69a1,1,0,1,1-1.969.348l-1.389-7.879a2.992,2.992,0,0,1,1.725-3.242,1,1,0,0,0,.565-1.122c-.014-.062-.025-.1-.03-.1A2,2,0,0,1,31.169,30.4a1,1,0,0,0,1.35-.571,3.958,3.958,0,0,1,5.421-2.268,1,1,0,0,0,1.247-.343,1.984,1.984,0,0,1,1.3-.842,1,1,0,0,0-.347-1.97,3.965,3.965,0,0,0-2.08,1.059,5.948,5.948,0,0,0-7.031,2.818,3.864,3.864,0,0,0-2.583.441l2.236-12.674a1,1,0,0,0-.811-1.158l-19.7-3.473a1,1,0,0,0-1.158.811L8.211,16.8a1,1,0,1,0,1.969.347l.634-3.593,17.727,3.126-1.5,8.475A12.536,12.536,0,0,1,16,25.569a14.244,14.244,0,0,0-7.09-1.231l.572-3.248a1,1,0,1,0-1.968-.346l-.929,5.269a10.97,10.97,0,0,0,5.331,11.428l-1.91,14.47A2.427,2.427,0,0,1,7.491,54.05l-.936-.029A4.471,4.471,0,0,0,2.016,57.7a1,1,0,0,0,.81,1.16l17.731,3.13a1.031,1.031,0,0,0,.174.015,1,1,0,0,0,.981-.809,4.021,4.021,0,0,0,.068-.791,4.469,4.469,0,0,0-3.07-4.241l-.891-.29a2.465,2.465,0,0,1-1.632-2.863L18.6,42.1a1,1,0,0,0-1.954-.433l-2.415,10.9a4.427,4.427,0,0,0,2.966,5.2l.884.288A2.474,2.474,0,0,1,19.707,59.8L4.371,57.1A2.442,2.442,0,0,1,6.488,56.02l.938.029a4.431,4.431,0,0,0,4.565-3.878l1.83-13.864a10.986,10.986,0,0,0,1.689.449,11.108,11.108,0,0,0,1.933.17,10.915,10.915,0,0,0,6.286-1.992c.122-.086.233-.183.352-.273a4.976,4.976,0,0,0,.071.715l1.388,7.878A3,3,0,0,0,28,47.691l.632,3.582a1,1,0,0,0,.983.826,1.043,1.043,0,0,0,.175-.015,1,1,0,0,0,.811-1.159l-.634-3.592a3,3,0,0,0,1.481-3.121l-.717-4.067a3.994,3.994,0,0,0,4.227-3.118,6.721,6.721,0,0,0,1.343.151l.362,2.053a3,3,0,0,0,3.476,2.434,3,3,0,0,0,2.432-3.476l-.2-1.113a3.923,3.923,0,0,0,2.883-.93,3.823,3.823,0,0,0,3.024-.123l3.324,18.851a2,2,0,0,1-1.623,2.317L34.228,59.969a2.006,2.006,0,0,1-2.318-1.622L31.3,54.865a1,1,0,1,0-1.969.346l.613,3.483a4,4,0,0,0,4.634,3.245l15.757-2.778a4,4,0,0,0,3.244-4.634l.986-.174a9,9,0,0,0,7.3-10.426ZM22.582,35.3A9,9,0,0,1,8.554,26.384a12.245,12.245,0,0,1,6.62,1A14.208,14.208,0,0,0,21.13,28.68a14.434,14.434,0,0,0,5.487-1.088l-.334,1.894A8.944,8.944,0,0,1,22.582,35.3Zm29.2,3.3a3,3,0,0,1,3.476,2.434l.694,3.939a3,3,0,0,1-2.433,3.475l-.986.174L50.8,38.77Z"/><path d="M33.684,16.949a1,1,0,0,0,1.264-.633l2-6a1,1,0,1,0-1.9-.632l-2,6A1,1,0,0,0,33.684,16.949Z"/><path d="M42.65,12.241a1,1,0,0,0-1.409.108l-6,7a1,1,0,1,0,1.518,1.3l6-7A1,1,0,0,0,42.65,12.241Z"/><path d="M40.052,21.316a1,1,0,0,0,1.264.633l6-2a1,1,0,0,0-.632-1.9l-6,2A1,1,0,0,0,40.052,21.316Z"/><path d="M40,6h1V7a1,1,0,0,0,2,0V6h1a1,1,0,0,0,0-2H43V3a1,1,0,0,0-2,0V4H40a1,1,0,0,0,0,2Z"/><path d="M50.771,17.829l.857.514-.515.857a1,1,0,1,0,1.715,1.029l.515-.857.857.514a1,1,0,1,0,1.029-1.715l-.857-.514.515-.857a1,1,0,1,0-1.715-1.029l-.515.857-.857-.514a1,1,0,1,0-1.029,1.715Z"/><path d="M8,6H9V7a1,1,0,0,0,2,0V6h1a1,1,0,0,0,0-2H11V3A1,1,0,0,0,9,3V4H8A1,1,0,0,0,8,6Z"/><path d="M20,8h1V9a1,1,0,0,0,2,0V8h1a1,1,0,0,0,0-2H23V5a1,1,0,0,0-2,0V6H20a1,1,0,0,0,0,2Z"/><circle cx="32" cy="3" r="1"/><circle cx="45" cy="10" r="1"/><circle cx="53.437" cy="25.144" r="1"/><circle cx="15.476" cy="9" r="1"/><path d="M24.275,24.6a1,1,0,0,0,.984-.826l.791-4.486a1,1,0,1,0-1.969-.348l-.791,4.486a1,1,0,0,0,.811,1.159A1.031,1.031,0,0,0,24.275,24.6Z"/></g></svg>
