<svg height="512" viewBox="0 0 64 64" width="512" xmlns="http://www.w3.org/2000/svg"><g id="Flat"><g id="Color_copy" data-name="Color copy"><path d="m29.023 33.762h22a0 0 0 0 1 0 0v23a3 3 0 0 1 -3 3h-16a3 3 0 0 1 -3-3v-23a0 0 0 0 1 0 0z" fill="#fcbc04" transform="matrix(.985 -.174 .174 .985 -7.512 7.66)"/><path d="m48.945 34.019.7 3.939 1.969-.347a4 4 0 0 1 4.634 3.245l.7 3.939a4 4 0 0 1 -3.245 4.634l-1.969.347.694 3.939 1.97-.347a8 8 0 0 0 6.479-9.268l-.694-3.939a8 8 0 0 0 -9.268-6.489z" fill="#fcbc04"/><path d="m54.39 53.37-1.97.35-.7-3.94 1.97-.35a4 4 0 0 0 3.25-4.63l-.7-3.94a4 4 0 0 0 -4.63-3.25l-1.97.35-.69-3.94 1.96-.35a3.562 3.562 0 0 1 .44-.06 3.012 3.012 0 0 0 2.16 2.25 8.02 8.02 0 0 1 5.67 6.3 2.066 2.066 0 0 0 1.65 1.66l.05.28a8.011 8.011 0 0 1 -6.49 9.27z" fill="#e59730"/><path d="m50.16 58.18-15.76 2.77a2.989 2.989 0 0 1 -3.47-2.43l-4-22.65 21.57-3.8.1-.02.02.12.65 3.66a3.057 3.057 0 0 1 -2.12 1.52 2.961 2.961 0 0 1 -2.11-.42 2.974 2.974 0 0 1 -1.83 1.12 3.017 3.017 0 0 1 -2.11-.43l.49 2.74a2 2 0 1 1 -3.94.7l-.52-2.96a5.006 5.006 0 0 1 -3.14-.48.035.035 0 0 1 .01.02 2.99 2.99 0 0 1 -2.27 3.43l.63 3.59a12 12 0 0 0 13.9 9.73l6.09-1.07.24 1.38a3 3 0 0 1 -2.43 3.48z" fill="#e59730"/><path d="m47.105 29.447c-.006-.059 0-.118-.013-.178a3 3 0 0 0 -3.475-2.434c-.06.011-.114.035-.172.049a2.985 2.985 0 0 0 -5.083-.234 4.96 4.96 0 0 0 -6.784 2.834 3 3 0 0 0 -4.178 3.258c.008.046.027.087.038.132a3.992 3.992 0 0 0 -2.3 4.328l1.389 7.878a2 2 0 1 0 3.94-.694l-1-5.691a2.988 2.988 0 0 0 4.533-3.056.168.168 0 0 1 -.007-.024 4.953 4.953 0 0 0 3.135.488l.521 2.954a2 2 0 1 0 3.939-.694l-.488-2.745a2.945 2.945 0 0 0 3.94-.686 2.991 2.991 0 1 0 2.061-5.485z" fill="#f7f754"/><path d="m47.15 35.35a2.961 2.961 0 0 1 -2.11-.42 2.974 2.974 0 0 1 -1.83 1.12 3.017 3.017 0 0 1 -2.11-.43l.49 2.74a2 2 0 1 1 -3.94.7l-.52-2.96a5.006 5.006 0 0 1 -3.14-.48.035.035 0 0 1 .01.02 3 3 0 0 1 -4.54 3.06l1 5.69a2 2 0 0 1 -3.93.69l-1.39-7.88a3.993 3.993 0 0 1 2.29-4.33.5.5 0 0 1 -.03-.13 2.983 2.983 0 0 1 1.07-2.85 3.976 3.976 0 0 0 6.03 1.21 3.938 3.938 0 0 0 5.15-.12 5.992 5.992 0 0 0 8.11-1.34 2.939 2.939 0 0 1 1.82 2.24 2.994 2.994 0 0 1 -2.43 3.47z" fill="#f9e109"/><g fill="#e59730"><path d="m34.23 42.707a1 1 0 0 0 -.81 1.158l2.08 11.818a1 1 0 0 0 .983.826 1.034 1.034 0 0 0 .175-.015 1 1 0 0 0 .811-1.159l-2.08-11.817a1 1 0 0 0 -1.159-.811z"/><path d="m40.486 43.634a1 1 0 0 0 -.81 1.159l1.736 9.848a1 1 0 0 0 .984.826 1.031 1.031 0 0 0 .174-.015 1 1 0 0 0 .811-1.159l-1.736-9.848a1 1 0 0 0 -1.159-.811z"/><path d="m46.048 40.623a1 1 0 0 0 -.811 1.158l2.084 11.819a1 1 0 0 0 .984.826 1.031 1.031 0 0 0 .174-.015 1 1 0 0 0 .811-1.159l-2.084-11.818a1 1 0 0 0 -1.158-.811z"/></g><path d="m15.205 52.785 4.3-19.417-5.905-1.042-2.6 19.717a3.459 3.459 0 0 1 -3.542 3.005l-.937-.03a3.459 3.459 0 0 0 -3.521 2.856l17.727 3.126a3.461 3.461 0 0 0 -2.327-3.888l-.89-.291a3.461 3.461 0 0 1 -2.305-4.036z" fill="#84d2f4"/><path d="m20.78 60.4a3.039 3.039 0 0 1 -.05.6l-17.73-3.13a3.457 3.457 0 0 1 3.52-2.85l.94.03a3.458 3.458 0 0 0 3.54-3.01l2.6-19.71 5.91 1.04-1.48 6.67a4 4 0 0 0 -3.45 3.49l-1.19 10.16a3.993 3.993 0 0 0 2.8 4.29l4.42 1.36a3.41 3.41 0 0 1 .17 1.06z" fill="#57b7eb"/><path d="m7.767 13.954h20a0 0 0 0 1 0 0v14a10 10 0 0 1 -10 10 10 10 0 0 1 -10-10v-14a0 0 0 0 1 0 0z" fill="#84d2f4" transform="matrix(.985 .174 -.174 .985 4.777 -2.691)"/><path d="m26.53 32.03a10 10 0 0 1 -18.96-5.84l2.43-13.79 3.99.7-1.42 8.09a9.99 9.99 0 0 0 13.96 10.84z" fill="#57b7eb"/><path d="m27.95 25.82-.68 3.84a10 10 0 0 1 -19.7-3.47l.12-.69a13.283 13.283 0 0 1 7.9.979 13.417 13.417 0 0 0 12.36-.659z" fill="#f8664f"/><path d="m26.53 32.03a10 10 0 0 1 -18.96-5.84l.12-.69a13.207 13.207 0 0 1 5.09.06 9.978 9.978 0 0 0 13.75 6.47z" fill="#cc5144"/><path d="m34 18a1 1 0 0 0 .948-.684l2-6a1 1 0 1 0 -1.9-.632l-2 6a1 1 0 0 0 .952 1.316z" fill="#84d2f4"/><path d="m42.65 13.241a1 1 0 0 0 -1.409.108l-6 7a1 1 0 1 0 1.518 1.3l6-7a1 1 0 0 0 -.109-1.408z" fill="#f9e109"/><path d="m40.052 22.316a1 1 0 0 0 1.264.633l6-2a1 1 0 0 0 -.632-1.9l-6 2a1 1 0 0 0 -.632 1.267z" fill="#f8664f"/><path d="m40 7h1v1a1 1 0 0 0 2 0v-1h1a1 1 0 0 0 0-2h-1v-1a1 1 0 0 0 -2 0v1h-1a1 1 0 0 0 0 2z" fill="#84d2f4"/><path d="m55.229 19.171-.857-.514.515-.857a1 1 0 1 0 -1.715-1.029l-.515.857-.857-.514a1 1 0 1 0 -1.029 1.715l.857.514-.515.857a1 1 0 1 0 1.715 1.029l.515-.857.857.514a1 1 0 1 0 1.029-1.715z" fill="#f8664f"/><path d="m12 5h-1v-1a1 1 0 0 0 -2 0v1h-1a1 1 0 0 0 0 2h1v1a1 1 0 0 0 2 0v-1h1a1 1 0 0 0 0-2z" fill="#f9e109"/><path d="m24 9a1 1 0 0 0 0-2h-1v-1a1 1 0 0 0 -2 0v1h-1a1 1 0 0 0 0 2h1v1a1 1 0 0 0 2 0v-1z" fill="#f8664f"/><circle cx="32" cy="4" fill="#f9e109" r="1"/><circle cx="45" cy="11" fill="#f9e109" r="1"/><circle cx="53.437" cy="26.144" fill="#84d2f4" r="1"/><circle cx="15.476" cy="10" fill="#f8664f" r="1"/></g></g></svg>