<svg id="Capa_1" enable-background="new 0 0 511.978 511.978" height="512" viewBox="0 0 511.978 511.978" width="512" xmlns="http://www.w3.org/2000/svg" fill="black"><g><path d="m88.131 143.504c.195 0 .387-.01.581-.015-.004.194-.015.386-.015.581 0 17.478 14.22 31.698 31.698 31.698 17.479 0 31.698-14.22 31.698-31.698s-14.22-31.698-31.698-31.698c-3.281 0-6.447.501-9.426 1.431-2.686-10.099-11.905-17.563-22.838-17.563-13.031 0-23.632 10.601-23.632 23.632s10.601 23.632 23.632 23.632zm48.962.566c0 9.207-7.491 16.698-16.698 16.698s-16.698-7.491-16.698-16.698 7.491-16.698 16.698-16.698 16.698 7.491 16.698 16.698zm-48.962-32.83c4.76 0 8.632 3.872 8.632 8.632s-3.872 8.632-8.632 8.632-8.632-3.872-8.632-8.632 3.872-8.632 8.632-8.632z"/><path d="m506.282 51.525c-3.937-3.938-9.378-5.997-14.94-5.651-5.557.346-10.706 3.065-14.124 7.461l-46.983 60.406-70.816 30.35c-3.807 1.632-5.571 6.041-3.939 9.848s6.041 5.57 9.848 3.939l72.594-31.112c1.166-.5 2.187-1.288 2.965-2.289l27.75-35.678 10.225 7.866-20.706 34.51c-2.888 4.813-6.99 8.829-11.863 11.613l-47.311 27.035c-2.835 1.62-4.297 4.89-3.612 8.083l17.069 79.654h-45.909l-38.126-61.003c-1.836-2.938-5.446-4.236-8.731-3.14l-47.241 15.747h-47.745v-9.198h40.896c1.016 0 2.021-.207 2.955-.606l64.528-27.655c3.807-1.632 5.571-6.041 3.939-9.848s-6.042-5.57-9.848-3.939l-63.113 27.048h-163.814c-10.807 0-19.599 8.792-19.599 19.599 0 6.206 2.908 11.737 7.424 15.331l-6.568 39.407-76.289 24.26c-3.021.961-5.084 3.73-5.194 6.899-.11 3.169 1.813 6.076 4.762 7.244 3.806 1.508 7.401 2.932 9.698 4.861 2.283 1.918 4.302 5.206 6.439 8.688 3.233 5.267 6.898 11.237 13.038 14.79 6.083 3.52 13.053 3.723 19.202 3.902 4.118.12 8.007.234 10.87 1.276 2.75 1.001 5.745 3.376 8.916 5.891 4.87 3.862 10.389 8.238 17.449 9.476 3.819.668 7.553.282 11.116-.524l40.874 49.295-24.676 29.204c-1.861 2.203-2.295 5.277-1.115 7.909l8.37 18.671h-7.982l-11.887-23.773c-.094-.188-.077-.412.045-.583l19.863-27.808c2.408-3.371 1.627-8.055-1.744-10.462-3.37-2.407-8.055-1.627-10.462 1.744l-19.863 27.809c-3.359 4.704-3.84 10.838-1.255 16.008l13.96 27.92c1.27 2.541 3.867 4.146 6.708 4.146h24.198c2.543 0 4.913-1.289 6.295-3.423s1.589-4.824.548-7.145l-11.178-24.935 19.901-23.552 46.717 56.341c1.425 1.719 3.541 2.713 5.773 2.713h44.867c3.228 0 6.094-2.066 7.115-5.128 1.021-3.063-.033-6.435-2.615-8.372l-3.103-2.327 61.13-84.053c2.437-3.35 1.696-8.041-1.654-10.477-3.349-2.437-8.04-1.696-10.477 1.654l-61 83.875-11.688-8.766 60.258-97.92 77.587-62.069h50.649l1.157 5.397c1.192 5.562-.498 11.283-4.52 15.306l-47.153 47.153c-2.283 2.283-2.849 5.77-1.405 8.657l36.148 72.297-17.567 4.392-38.357-70.322c-3.044-5.581-2.624-12.529 1.071-17.702l25.754-36.055c2.408-3.371 1.627-8.055-1.744-10.462-3.37-2.407-8.055-1.627-10.462 1.744l-25.754 36.055c-7.014 9.819-7.812 23.009-2.034 33.603l38.447 70.486-20.23 20.23c-2.145 2.145-2.787 5.371-1.626 8.173 1.161 2.803 3.896 4.63 6.929 4.63h56.462c4.142 0 7.5-3.358 7.5-7.5v-32.264c0-1.165-.271-2.313-.792-3.354l-37.911-75.826 43.331-43.331c7.636-7.636 10.843-18.498 8.581-29.055l-20.291-94.689 42.55-24.314c7.1-4.057 13.077-9.908 17.283-16.919l38.184-63.641c4.593-7.656 3.392-17.413-2.922-23.726zm-406.052 148.441h109.457v9.198h-109.457c-2.536 0-4.599-2.063-4.599-4.599s2.063-4.599 4.599-4.599zm31.662 57.593h-34.908l5.566-33.396h46.039zm76.215 193.583-90.928-109.662c1.125-.221 2.206-.36 3.216-.36 3.119 0 6.853 1.241 10.806 2.555 3.802 1.264 7.94 2.623 12.265 3.081l67.676 92.129c.436.593.956 1.119 1.544 1.56l14.264 10.698h-18.843zm68.922-127.411c-.674.539-1.25 1.19-1.703 1.926l-58.689 95.371-57.214-77.886c3.08-1.792 5.849-3.98 8.431-6.028 3.17-2.514 6.166-4.889 8.917-5.891 2.861-1.042 6.75-1.154 10.867-1.274 6.149-.179 13.118-.381 19.2-3.9 6.146-3.555 9.823-9.526 13.067-14.793 1.15-1.867 2.236-3.63 3.364-5.194 1.315-1.824 1.744-4.142 1.166-6.315s-2.1-3.973-4.148-4.902l-48.375-21.959c-3.773-1.714-8.218-.043-9.929 3.729-1.712 3.772-.042 8.217 3.729 9.929l40.477 18.374c-2.2 3.531-4.351 6.695-6.862 8.148-2.798 1.619-7.328 1.75-12.124 1.89-4.887.142-10.426.303-15.563 2.173-5.035 1.833-9.137 5.086-13.105 8.232-3.809 3.02-7.406 5.873-10.717 6.452-3.112.544-7.373-.872-11.885-2.372-4.683-1.557-9.991-3.321-15.538-3.321s-10.855 1.764-15.539 3.32c-4.514 1.5-8.779 2.915-11.89 2.372-3.311-.581-6.908-3.433-10.717-6.454-3.967-3.146-8.07-6.399-13.104-8.232-5.137-1.871-10.677-2.032-15.564-2.175-4.796-.14-9.327-.271-12.126-1.891-2.854-1.652-5.241-5.539-7.767-9.655-2.267-3.692-4.599-7.491-7.79-10.686l63.398-20.16h47.232c2.936 0 5.471-1.691 6.703-4.149l.005.003 22.125-44.25h108.288c.806 0 1.607-.13 2.372-.385l42.794-14.265 33.662 53.859zm95.386 127.411 9.926-9.926 20.929-5.232v15.158zm123.926-383.609-9.709 16.182-8.785-6.758 11.211-14.414c1.066-1.37 2.473-1.652 3.216-1.699.741-.047 2.174.059 3.402 1.287 1.437 1.438 1.711 3.659.665 5.402z"/><path d="m322.044 151.57c17.478 0 31.698-14.22 31.698-31.698s-14.22-31.698-31.698-31.698-31.698 14.22-31.698 31.698 14.22 31.698 31.698 31.698zm0-48.396c9.207 0 16.698 7.491 16.698 16.698s-7.491 16.698-16.698 16.698-16.698-7.491-16.698-16.698 7.491-16.698 16.698-16.698z"/></g></svg>