<svg id="Capa_1" enable-background="new 0 0 512 512" height="512" viewBox="0 0 512 512" width="512" xmlns="http://www.w3.org/2000/svg"><g><path d="m282.109 127.558-13.541.847-60.385 14.477-63.937 90.804v94.732l64.19 78.145 59.877 17.633 13.795.422c73.197-9.898 129.626-72.619 129.626-148.53.001-75.911-56.428-138.632-129.625-148.53z" fill="#dbedff"/><path d="m39.266 278.015h28.018c.269 0 .533.015.795.04v-103.205h-29.609v103.205c.263-.025.528-.04.796-.04z" fill="#8bcaff"/><path d="m467.587 257.039v40.764c.263-.028.528-.044.796-.044h28.018c.269 0 .533.017.795.044v-40.764z" fill="#8bcaff"/><path d="m152.483 276.088c0-75.91 56.429-138.632 129.626-148.53-6.631-.897-13.397-1.37-20.274-1.37-82.787 0-149.9 67.112-149.9 149.9 0 82.787 67.112 149.899 149.9 149.899 6.877 0 13.642-.473 20.274-1.37-73.197-9.898-129.626-72.619-129.626-148.529z" fill="#b5dcff"/><path d="m82.84 436.078-7.072-152.119c-.24-4.511-3.968-8.045-8.485-8.045h-28.017c-4.517 0-8.245 3.535-8.485 8.045l-7.073 152.119c-.901 16.946 12.597 31.18 29.566 31.18 16.97 0 30.468-14.234 29.566-31.18z" fill="#ffaa5b"/><g><path d="m38.47 157.413c-4.204 0-7.611-3.408-7.611-7.611v-93.903c0-4.204 3.408-7.611 7.611-7.611s7.611 3.408 7.611 7.611v93.902c.001 4.204-3.407 7.612-7.611 7.612z" fill="#b5dcff"/></g><g><path d="m68.079 157.413c-4.204 0-7.611-3.408-7.611-7.611v-93.903c0-4.204 3.408-7.611 7.611-7.611s7.611 3.408 7.611 7.611v93.902c0 4.204-3.408 7.612-7.611 7.612z" fill="#dbedff"/></g><path d="m46.082 142.882-2.116 1.909v14.076l5.643 15.984h26.631c12.536 0 22.698-10.162 22.698-22.698v-9.27h-52.856z" fill="#dbedff"/><path d="m46.082 151.773v-8.891h-38.471v9.27c0 12.536 10.163 22.698 22.698 22.698h24.52c-5.439-6.146-8.747-14.223-8.747-23.077z" fill="#b5dcff"/><path d="m511.957 436.078-7.072-132.972c-.24-4.511-3.968-8.045-8.485-8.045h-28.018c-4.517 0-8.245 3.535-8.485 8.045l-7.073 132.972c-.901 16.946 12.597 31.18 29.566 31.18 16.971 0 30.469-14.234 29.567-31.18z" fill="#ffaa5b"/><path d="m48.638 436.078 7.073-152.119c.24-4.511 3.967-8.046 8.485-8.046h-24.93c-4.517 0-8.245 3.535-8.485 8.046l-7.073 152.119c-.901 16.946 12.597 31.18 29.566 31.18 4.463 0 8.681-.993 12.465-2.752-10.603-4.93-17.765-15.938-17.101-28.428z" fill="#ff9838"/><path d="m477.755 436.078 7.073-132.972c.24-4.511 3.967-8.045 8.485-8.045h-24.93c-4.517 0-8.245 3.535-8.485 8.045l-7.073 132.972c-.901 16.946 12.597 31.18 29.566 31.18 4.463 0 8.681-.993 12.465-2.752-10.603-4.93-17.765-15.938-17.101-28.428z" fill="#ff9838"/><path d="m506.047 52.009-27.063 19.817-18.099 41.102v123.306l14.462 7.823 7.045 12.178 6.2 3.06h12.019c5.169 0 9.36-4.19 9.36-9.36v-193.808c0-1.468-.272-2.853-.761-4.118z" fill="#dbedff"/><path d="m483.359 252.976c-2.551-7.709-7.931-14.127-14.912-18.024-2.97-1.658-4.825-4.777-4.825-8.178v-96.583c0-32.762 17.775-62.442 45.586-78.182-2.126-5.493-8.366-8.725-14.378-6.617-36.019 12.627-60.132 46.63-60.132 84.799v96.583c0 3.401 1.854 6.52 4.825 8.178 6.981 3.897 12.361 10.316 14.912 18.024 1.255 3.794 4.848 6.319 8.845 6.319h28.924c-3.997 0-7.59-2.525-8.845-6.319z" fill="#b5dcff"/><path d="m282.109 167.521h-22.421l-45.162 33.785-30.192 55.733v54.972l32.423 51.214 45.078 21.856 20.274-.427c51.305-9.521 90.157-54.503 90.157-108.566 0-54.064-38.852-99.046-90.157-108.567z" fill="#b5dcff"/><path d="m191.952 276.088c0-54.063 38.852-99.046 90.157-108.567-6.573-1.22-13.347-1.864-20.274-1.864-60.989 0-110.43 49.441-110.43 110.43s49.441 110.43 110.43 110.43c6.926 0 13.701-.644 20.274-1.864-51.305-9.52-90.157-54.502-90.157-108.565z" fill="#8bcaff"/><path d="m98.937 48.288c-4.204 0-7.611 3.408-7.611 7.611v96.252c0 8.319-6.768 15.087-15.087 15.087h-26.537l-1.106 2.437 8.88 11.164 3.621 1.623h15.142c16.713 0 30.31-13.597 30.31-30.31v-96.253c0-4.203-3.408-7.611-7.612-7.611z" fill="#dbedff"/><g><path d="m49.702 167.239h-19.392c-8.319 0-15.087-6.768-15.087-15.087v-96.253c0-4.204-3.408-7.611-7.611-7.611s-7.612 3.408-7.612 7.611v96.252c0 16.713 13.597 30.31 30.31 30.31h34.107c-6.345-3.419-11.503-8.751-14.715-15.222z" fill="#b5dcff"/></g></g></svg>