<?xml version="1.0" encoding="iso-8859-1"?>
<!-- Generator: Adobe Illustrator 19.0.0, SVG Export Plug-In . SVG Version: 6.00 Build 0)  -->
<svg version="1.1" id="Layer_1" xmlns="http://www.w3.org/2000/svg" xmlns:xlink="http://www.w3.org/1999/xlink" x="0px" y="0px"
	 viewBox="0 0 512 512" style="enable-background:new 0 0 512 512;" xml:space="preserve" fill="black">
<g>
	<g>
		<path d="M488.77,169.456H101.682l374.585-100.37c4.523-1.212,7.207-5.862,5.996-10.385L468.219,6.285
			c-0.582-2.172-2.003-4.025-3.951-5.148c-1.948-1.125-4.262-1.429-6.434-0.848L21.038,117.328
			c-4.523,1.212-7.207,5.862-5.996,10.385l13.045,48.683v318.081c0,9.662,7.86,17.523,17.523,17.523h434.116
			c9.662,0,17.523-7.86,17.523-17.523V177.934C497.249,173.252,493.452,169.456,488.77,169.456z M480.291,186.412v34.361
			l-34.361-34.361H480.291z M367.685,186.413l37.307,37.307h-30.283l-37.307-37.307H367.685z M313.421,186.413l37.307,37.307
			h-30.283l-37.307-37.307H313.421z M259.156,186.413l37.307,37.307H266.18l-37.307-37.307H259.156z M204.892,186.413l37.307,37.307
			h-30.283l-37.307-37.307H204.892z M150.628,186.413l37.307,37.307h-30.283l-37.307-37.307H150.628z M133.67,223.72h-30.283
			L66.08,186.413h30.283L133.67,223.72z M79.405,223.72H45.045v-34.361L79.405,223.72z M463.689,54.9l-33.19,8.893l24.297-42.083
			L463.689,54.9z M433.715,24.307l-26.38,45.692l-29.251,7.838l26.38-45.692L433.715,24.307z M381.3,38.353l-26.38,45.692
			l-29.251,7.838l26.38-45.692L381.3,38.353z M328.884,52.397l-26.38,45.692l-29.251,7.838l26.38-45.692L328.884,52.397z
			 M276.469,66.441l-26.38,45.692l-29.251,7.838l26.38-45.692L276.469,66.441z M224.054,80.487l-26.38,45.692l-29.251,7.838
			l26.38-45.692L224.054,80.487z M171.638,94.531l-26.38,45.692l-29.252,7.838l26.38-45.692L171.638,94.531z M119.223,108.575
			l-26.38,45.692l-29.251,7.838l26.38-45.692L119.223,108.575z M33.617,131.513l33.19-8.893L42.51,164.704L33.617,131.513z
			 M480.292,494.477h-0.001c0,0.312-0.253,0.565-0.565,0.565H45.61c-0.312,0-0.565-0.253-0.565-0.565V240.678h380.417
			c4.683,0,8.479-3.796,8.479-8.479c0-2.342-0.95-4.462-2.485-5.996l-39.788-39.789h30.283l37.582,37.582
			c-3.662,0.938-6.372,4.251-6.372,8.204c0,4.683,3.796,8.479,8.479,8.479h18.653V494.477z"/>
	</g>
</g>
<g>
	<g>
		<path d="M333.092,352.398l-107.398-57.28c-5.481-2.923-11.935-2.761-17.262,0.435c-5.327,3.196-8.507,8.813-8.507,15.026v114.558
			c0,6.212,3.18,11.83,8.507,15.026c2.794,1.677,5.897,2.519,9.008,2.519c2.821,0,5.647-0.693,8.254-2.082
			c4.132-2.203,5.695-7.339,3.491-11.471c-2.203-4.132-7.341-5.697-11.471-3.491c-0.106,0.056-0.283,0.15-0.557-0.014
			c-0.275-0.164-0.275-0.365-0.275-0.485V310.581c0-0.12,0-0.32,0.275-0.485c0.276-0.165,0.451-0.07,0.557-0.014l107.398,57.28
			c0.127,0.068,0.3,0.159,0.3,0.499c0,0.339-0.173,0.431-0.3,0.499l-75.48,40.255c-4.132,2.203-5.696,7.339-3.491,11.471
			c2.204,4.133,7.343,5.694,11.471,3.491l75.48-40.255c5.723-3.052,9.277-8.976,9.277-15.461
			C342.369,361.374,338.814,355.451,333.092,352.398z"/>
	</g>
</g>
<g>
</g>
<g>
</g>
<g>
</g>
<g>
</g>
<g>
</g>
<g>
</g>
<g>
</g>
<g>
</g>
<g>
</g>
<g>
</g>
<g>
</g>
<g>
</g>
<g>
</g>
<g>
</g>
<g>
</g>
</svg>
