<svg id="Capa_1" enable-background="new 0 0 484.565 484.565" height="512" viewBox="0 0 484.565 484.565" width="512" xmlns="http://www.w3.org/2000/svg"><g><g><path d="m233.374 87.934c-5.523 0-10-4.477-10-10v-67.934c0-5.523 4.477-10 10-10s10 4.477 10 10v67.934c0 5.522-4.477 10-10 10z" fill="#d0844b"/></g><path d="m260.977 48.991h-55.206c-9.101 0-16.479 7.378-16.479 16.479v25.543c0 9.101 7.378 16.479 16.479 16.479h55.206c9.101 0 16.479-7.378 16.479-16.479v-25.542c0-9.102-7.378-16.48-16.479-16.48z" fill="#ffe266"/><ellipse cx="233.374" cy="258.377" fill="#cab4ef" rx="179.415" ry="179.415" transform="matrix(.707 -.707 .707 .707 -114.347 240.697)"/><path d="m233.374 78.962c-6.546 0-13.007.36-19.371 1.044 70.697 8.531 125.486 68.724 125.486 141.721 0 78.847-63.918 142.765-142.765 142.765-72.998 0-133.191-54.789-141.721-125.486-.683 6.364-1.044 12.825-1.044 19.371 0 99.089 80.327 179.415 179.415 179.415s179.415-80.327 179.415-179.415-80.327-179.415-179.415-179.415z" fill="#be87ef"/><path d="m412.789 258.348c-.016-99.075-80.336-179.386-179.415-179.386-.283 0-.565.009-.848.011v179.375z" fill="#a183e2"/><path d="m412.789 258.348c-.016-99.075-80.336-179.386-179.415-179.386-.283 0-.565.009-.848.011v179.375z" fill="#9762e2"/><path d="m233.558 258.348h-179.599v.029c0 99.088 80.327 179.415 179.415 179.415.061 0 .122-.002.184-.002z" fill="#9762e2"/><path d="m232.542 78.966c-20.744.218-41.686 9.748-60.284 29.442-13.931 14.752-25.101 33.683-33.307 55.07 29.24-10.991 61.76-16.276 93.955-16.311z" fill="#a183e2"/><path d="m138.95 163.478c-1.589.605-3.172 1.221-4.742 1.86-53.189 21.655-81.642 57.728-80.747 94.298l69.03-.486c-.129-33.582 5.529-66.835 16.459-95.672z" fill="#a183e2"/><path d="m232.906 146.967c-32.195.035-64.715 5.385-93.955 16.511-10.93 28.837-16.589 62.09-16.458 95.671l111.001-.782z" fill="#cab4ef"/><path d="m139.008 352.284c.604 1.588 1.215 3.172 1.853 4.74 21.513 52.839 57.254 81.261 93.577 80.755l-.364-69.038c-33.375.061-66.401-5.593-95.066-16.457z" fill="#cab4ef"/><path d="m234.074 368.741c-19.406.036-38.687-1.874-57.068-5.604-13.333-1.842-26.078-5.521-37.97-10.781.595 1.563 1.196 3.124 1.825 4.667 21.513 52.839 57.254 81.261 93.577 80.755z" fill="#be87ef"/><path d="m413.303 257.102c-.196-20.771-9.84-41.744-29.803-60.368-14.934-13.932-34.1-25.101-55.751-33.305 11.149 29.302 16.505 61.896 16.517 94.159z" fill="#be87ef"/><path d="m325.894 158.743c-21.469-52.092-57.108-80.158-93.353-79.777l.364 68.201c33.3-.035 66.242 5.555 94.843 16.262-.604-1.569-1.215-3.136-1.854-4.686z" fill="#cab4ef"/><path d="m234.438 437.778c20.67-.288 41.529-9.938 60.06-29.802 13.932-14.934 25.104-34.101 33.31-55.753-29.173 11.1-61.609 16.459-93.734 16.517z" fill="#a183e2"/><path d="m234.438 437.778c20.67-.288 41.529-9.938 60.06-29.802 13.932-14.934 25.104-34.101 33.31-55.753-29.173 11.1-61.609 16.459-93.734 16.517z" fill="#9762e2"/><path d="m327.748 163.429c-28.601-10.838-61.543-16.497-94.843-16.461l.19 36.09.397 75.31 110.772-.78c-.011-32.263-5.367-64.857-16.516-94.159z" fill="#a183e2"/><path d="m327.748 163.429c8.058 17.878 11.741 37.415 11.741 58.298 0 12.409-1.586 24.448-4.561 35.927l9.338-.066c-.013-32.263-5.369-64.857-16.518-94.159-.267-.101.268.1 0 0z" fill="#9762e2"/><path d="m344.265 257.588c.012 33.229-5.64 66.094-16.457 94.635 1.587-.604 3.171-1.214 4.739-1.853 52.69-21.452 81.097-57.053 80.756-93.269z" fill="#9762e2"/><path d="m344.265 257.588-110.772.78.582 110.373c32.124-.059 64.561-5.417 93.734-16.517 10.816-28.542 16.468-61.408 16.456-94.636z" fill="#cab4ef"/><path d="m234.026 359.558.048 9.183c32.124-.059 64.561-5.417 93.734-16.517 10.817-28.541 16.469-61.407 16.457-94.635l-9.338.066c-12.835 49.515-51.58 88.587-100.901 101.903z" fill="#be87ef"/><path d="m53.462 259.636c.5 20.434 10.161 41.023 29.794 59.339 14.934 13.932 34.1 25.103 55.752 33.309-11.032-28.991-16.392-61.206-16.516-93.134z" fill="#cab4ef"/><path d="m122.492 259.149c.124 31.929 5.485 64.143 16.516 93.134 28.664 10.864 61.691 16.518 95.066 16.457l-.582-110.373z" fill="#a183e2"/><path d="m234.026 359.558c-11.892 3.211-24.395 4.934-37.302 4.934-6.691 0-13.272-.465-19.718-1.355 18.381 3.73 37.662 5.64 57.068 5.604z" fill="#9762e2"/><g><path d="m154.755 313.604c-5.019 0-9.345-3.768-9.924-8.874-.604-5.326-1.083-10.729-1.422-16.06-.35-5.512 3.833-10.264 9.346-10.614 5.501-.352 10.264 3.833 10.614 9.346.318 5.002.767 10.074 1.334 15.074.623 5.488-3.321 10.441-8.809 11.064-.383.042-.763.064-1.139.064z" fill="#fff"/></g><g><path d="m155.146 228.596c-.343 0-.688-.018-1.037-.054-5.494-.566-9.488-5.479-8.922-10.972 1.048-10.17 2.454-20.858 4.178-31.766.862-5.455 5.984-9.174 11.439-8.316 5.455.862 9.178 5.984 8.316 11.439-1.669 10.553-3.027 20.879-4.038 30.692-.531 5.147-4.874 8.977-9.936 8.977z" fill="#fff"/></g><path d="m39.322 405.863 8.214 23.098c.352.989 1.048 1.773 1.927 2.168l20.521 9.246c2.899 1.306 2.899 5.926 0 7.232l-20.521 9.246c-.879.396-1.575 1.179-1.927 2.168l-8.214 23.098c-1.16 3.263-5.265 3.263-6.425 0l-8.214-23.098c-.352-.989-1.048-1.773-1.927-2.168l-20.521-9.246c-2.899-1.306-2.899-5.926 0-7.232l20.521-9.246c.879-.396 1.575-1.18 1.927-2.168l8.214-23.098c1.16-3.263 5.264-3.263 6.425 0z" fill="#fef2a8"/><path d="m433.571 61.498 8.214 23.098c.352.989 1.048 1.773 1.927 2.169l20.521 9.246c2.899 1.306 2.899 5.926 0 7.232l-20.521 9.246c-.879.396-1.575 1.18-1.927 2.168l-8.214 23.098c-1.161 3.263-5.265 3.263-6.425 0l-8.214-23.098c-.352-.989-1.048-1.773-1.927-2.168l-20.521-9.246c-2.899-1.306-2.899-5.925 0-7.232l20.521-9.246c.879-.396 1.575-1.18 1.927-2.169l8.214-23.098c1.161-3.263 5.265-3.263 6.425 0z" fill="#b2e7f1"/><path d="m412.836 405.466 6.093 17.133c.261.734.777 1.315 1.429 1.609l15.222 6.858c2.151.969 2.151 4.395 0 5.364l-15.222 6.858c-.652.294-1.168.875-1.429 1.609l-6.093 17.133c-.861 2.421-3.905 2.421-4.766 0l-6.093-17.133c-.261-.734-.777-1.315-1.429-1.609l-15.222-6.858c-2.151-.969-2.151-4.395 0-5.364l15.222-6.858c.652-.294 1.168-.875 1.429-1.609l6.093-17.133c.861-2.42 3.905-2.42 4.766 0z" fill="#ccf3e2"/><ellipse cx="466.569" cy="344.766" fill="#8bb6ef" rx="17.937" ry="17.937" transform="matrix(.23 -.973 .973 .23 23.83 719.642)"/><ellipse cx="27.475" cy="126.413" fill="#ef8bbd" rx="17.937" ry="17.937" transform="matrix(.232 -.973 .973 .232 -101.865 123.873)"/><circle cx="20.418" cy="378.07" fill="#ffa585" r="7.737"/><circle cx="333.722" cy="461.818" fill="#ffe266" r="7.737"/></g></svg>