<svg height="512" viewBox="0 0 64 64" width="512" xmlns="http://www.w3.org/2000/svg"><g id="_18-Picnic" data-name="18-Picnic"><path d="m8.538 3.84a1.655 1.655 0 0 1 .04 2.3l-2.44 2.44a1.655 1.655 0 0 1 -2.3-.04l-.59-.59 4.7-4.7z" fill="#b0afb5"/><path d="m7.948 3.25-4.7 4.7-1.76-1.76a1.658 1.658 0 0 1 0-2.35l2.35-2.35a1.66 1.66 0 0 1 2.35 0z" fill="#ffdc70"/><path d="m17.488 21.8a8.084 8.084 0 0 0 -3.14-.79v-.02c-.28-.66-.58-1.3-.9-1.93l4.49-1.12 1.12-4.5c.73.38 1.49.73 2.26 1.04.38.16.78.32 1.17.5l-1.61 5.9z" fill="#ada84f"/><path d="m6.138 8.58 2.44-2.44.54-.54 2.34 2.34a30.05 30.05 0 0 0 7.6 5.5l-1.12 4.5-4.49 1.12a30.021 30.021 0 0 0 -5.51-7.6l-2.338-2.34z" fill="#f7f5ff"/><path d="m30 19.44v8.1a3.98 3.98 0 0 0 -2 3.46h-6.252a8.239 8.239 0 0 0 .252-2 7.989 7.989 0 0 0 -4.51-7.2l3.39-.92 1.61-5.9a27.56 27.56 0 0 1 7.51 4.46z" fill="#f7f5ff"/><path d="m47 18c-3-2-4-6-4-6s4.59 0 6.72 3.52l-.93.91-1.69 1.67z" fill="#6994d4"/><path d="m47 18 .1.1 1.583-1.563a9.415 9.415 0 0 0 -5.243-3.255 10.358 10.358 0 0 0 3.56 4.718z" fill="#4676bd"/><path d="m36 29.02-.36.35a3.794 3.794 0 0 0 -.81-1.2 4.225 4.225 0 0 0 -.83-.63v-6.54l9-9s1 4 4 6l.1.1-3.81 3.74z" fill="#a8cff6"/><path d="m51.36 23.36c1.09 3.28-.36 7.64-.36 7.64 0-1-.37-2.56-1.451-5.82a19.487 19.487 0 0 1 -.9-6.67 15.353 15.353 0 0 1 2.711 4.85z" fill="#b37740"/><path d="m56.45 18.27a8.788 8.788 0 0 1 -.29 6.02c-.3-.96-.87-2.26-1.52-4.2a17.742 17.742 0 0 1 -.88-6.65 15.327 15.327 0 0 1 2.69 4.83z" fill="#b37740"/><path d="m44.089 30.64a19.791 19.791 0 0 1 -.9-6.68 15.293 15.293 0 0 1 2.72 4.86 8.064 8.064 0 0 1 .4 2.18h-2.1z" fill="#b37740"/><path d="m48.649 18.51c-.012.408-.014.865 0 1.357a15.335 15.335 0 0 1 1.71 3.493 11.388 11.388 0 0 1 .21 5.161 10.211 10.211 0 0 1 .431 2.479s1.45-4.36.36-7.64a15.353 15.353 0 0 0 -2.711-4.85z" fill="#8f5826"/><path d="m56.45 18.27a15.327 15.327 0 0 0 -2.69-4.83c-.024.376-.036.822-.028 1.32a15.237 15.237 0 0 1 1.718 3.51 8.509 8.509 0 0 1 .179 4.545c.217.571.4 1.058.531 1.475a8.788 8.788 0 0 0 .29-6.02z" fill="#8f5826"/><path d="m43.189 23.96c-.012.407-.013.864 0 1.355a15.23 15.23 0 0 1 1.718 3.5 8.064 8.064 0 0 1 .4 2.18h1a8.064 8.064 0 0 0 -.4-2.18 15.293 15.293 0 0 0 -2.718-4.855z" fill="#8f5826"/><path d="m61.54 12.46c-2.09-2.09-5.17-1.67-7.64-.39a10.5 10.5 0 0 0 -2.54 1.84l-1.641 1.61-.93.91-1.689 1.67-3.81 3.74-7.29 7.18-.36.35a3.738 3.738 0 0 1 .36 1.63h8.21l-.12-.36a19.791 19.791 0 0 1 -.9-6.68 15.293 15.293 0 0 1 2.72 4.86 8.064 8.064 0 0 1 .4 2.18h4.69c0-1-.37-2.56-1.451-5.82a19.487 19.487 0 0 1 -.9-6.67 15.353 15.353 0 0 1 2.711 4.85c1.09 3.28-.36 7.64-.36 7.64h.73l1-1 3-3 4.36-4.36a9.951 9.951 0 0 0 2.91-6.52 5.021 5.021 0 0 0 -1.46-3.66zm-5.38 11.83c-.3-.96-.87-2.26-1.52-4.2a17.742 17.742 0 0 1 -.88-6.65 15.327 15.327 0 0 1 2.69 4.83 8.788 8.788 0 0 1 -.29 6.02z" fill="#edab6f"/><path d="m35.639 29.37a3.738 3.738 0 0 1 .361 1.63h-8a3.994 3.994 0 0 1 6-3.46 4.225 4.225 0 0 1 .83.63 3.794 3.794 0 0 1 .809 1.2z" fill="#ada84f"/><path d="m34 21v6.54a3.974 3.974 0 0 0 -4 0v-24.54a2.006 2.006 0 0 1 2-2 1.955 1.955 0 0 1 1.41.59 1.955 1.955 0 0 1 .59 1.41z" fill="#b06c2f"/><path d="m58 31a2.006 2.006 0 0 1 2 2 2.015 2.015 0 0 1 -2 2h-4.86l2.86-4z" fill="#b06c2f"/><path d="m53 59a2.006 2.006 0 0 1 2 2 2.015 2.015 0 0 1 -2 2h-42a2.006 2.006 0 0 1 -2-2 2.015 2.015 0 0 1 2-2z" fill="#b06c2f"/><path d="m54.41 60.41a1.955 1.955 0 0 1 -1.41.59h-42a2 2 0 0 1 -1.721-1 1.963 1.963 0 0 0 -.279 1 2.006 2.006 0 0 0 2 2h42a2.015 2.015 0 0 0 2-2 1.978 1.978 0 0 0 -.279-1 1.972 1.972 0 0 1 -.311.41z" fill="#8f5826"/><path d="m38.859 35h-32.859a2.006 2.006 0 0 1 -2-2 2.015 2.015 0 0 1 2-2h30z" fill="#b06c2f"/><path d="m10.998 59-5-24h32.861l7.14 10 7.141-10h4.86l-5 24z" fill="#edab6f"/><path d="m35.999 31 2.86 4 7.14 10 7.141-10 2.86-4z" fill="#ff8ea2"/><path d="m38.859 35-2.86-4h-4l2.86 4z" fill="#8f5826"/><path d="m34.859 35 7.14 10 2-2.801-5.14-7.199z" fill="#db9251"/><path d="m53.14 35h4.86a2.015 2.015 0 0 0 2-2h-5.43z" fill="#8f5826"/><path d="m6 35h32.859l-1.43-2h-33.429a2.006 2.006 0 0 0 2 2z" fill="#8f5826"/><path d="m14.761 48.977a8.5 8.5 0 0 1 8.37-9.977h18.584l-2.856-4h-32.859l5 24h42l.625-3h-30.494a8.5 8.5 0 0 1 -8.37-7.023z" fill="#db9251"/><path d="m58 35h-4.86l-2.856 4h6.882z" fill="#db9251"/><path d="m35.639 29.37a3.794 3.794 0 0 0 -.81-1.2 4.225 4.225 0 0 0 -.83-.63 4 4 0 0 0 -5.999 3.46h1a3 3 0 0 1 6 0h1a3.738 3.738 0 0 0 -.361-1.63z" fill="#8f5826"/><path d="m32 23v-21a.994.994 0 0 1 .584-.9 1.953 1.953 0 0 0 -.584-.1 2.006 2.006 0 0 0 -2 2v24.54a3.974 3.974 0 0 1 4 0v-2.54a2 2 0 0 1 -2-2z" fill="#8f5826"/><path d="m41 31h-5l2.86 4 7.14 10 3.124-4.375a13.547 13.547 0 0 1 -8.124-9.625z" fill="#f26681"/><path d="m22 29a8 8 0 1 0 -15.738 2h15.476a7.992 7.992 0 0 0 .262-2z" fill="#ff9f00"/><path d="m9 25a3.994 3.994 0 0 1 1.75-3.306 7.955 7.955 0 0 0 -4.488 9.306h15.476a7.992 7.992 0 0 0 .262-2h-9a4 4 0 0 1 -4-4z" fill="#f28a00"/><path d="m10 24a5.324 5.324 0 0 1 -3.42 1.98c-2.58.27-4.58-1.98-4.58-1.98 2.63-2.96 5.27-2.02 6.76-1.04a7.422 7.422 0 0 1 1.24 1.04z" fill="#928f48"/><path d="m2 24c.026.029 2.015 2.245 4.578 1.977a5.324 5.324 0 0 0 3.422-1.977z" fill="#606627"/><path d="m12.78 22.074c-.387.066-.736.237-.777.725a1.565 1.565 0 0 0 .669 1.201 8.821 8.821 0 0 0 3.037 1.755 4 4 0 0 0 1.242.245.968.968 0 0 0 .478-.1.922.922 0 0 0 .327-.343 2.11 2.11 0 0 0 -.1-2.137c-.962-1.524-3.042-1.483-4.581-1.382-.101.011-.199.02-.295.036z" fill="#ffcb75"/><path d="m18.008 26.337a1.047 1.047 0 0 0 .337.595 3.763 3.763 0 0 0 .809.634.625.625 0 0 0 .322.11.465.465 0 0 0 .224-.076.939.939 0 0 0 .355-.966 1.976 1.976 0 0 0 -1.039-1.375c-.541-.151-1.055.594-1.008 1.078z" fill="#ffcb75"/><path d="m36 29.02-.36.35a3.738 3.738 0 0 1 .36 1.63h8.21l-.12-.36a16.755 16.755 0 0 1 -.446-1.64h-7.625z" fill="#d6904f"/><path d="m46.524 29h-.569a8.077 8.077 0 0 1 .354 2h4.691a11.815 11.815 0 0 0 -.577-3.016 8 8 0 0 1 -3.899 1.016z" fill="#d6904f"/><path d="m61.54 12.46a4.854 4.854 0 0 0 -1.482-1.015 7 7 0 0 1 -1.11 7.968l-2.148 2.3a9.123 9.123 0 0 1 -.64 2.575c-.122-.391-.291-.842-.49-1.365l-3.3 3.534a8.149 8.149 0 0 1 -.639.609 17.731 17.731 0 0 1 -.731 3.934h.73l1-1 3-3 4.36-4.36a9.951 9.951 0 0 0 2.91-6.52 5.021 5.021 0 0 0 -1.46-3.66z" fill="#d6904f"/><path d="m47 18a8 8 0 0 1 -1.647-1.491l-7 6.419a2 2 0 0 1 -3.353-1.475v-1.453l-1 1v6.54a4.225 4.225 0 0 1 .83.63 3.794 3.794 0 0 1 .81 1.2l.36-.35 7.29-7.18 3.81-3.74z" fill="#7aaeef"/><path d="m20.879 20.879-2.94-2.94-4.49 1.12c.32.63.62 1.27.9 1.93v.02a8.084 8.084 0 0 1 3.14.79z" fill="#928f48"/><path d="m17.939 17.939-7.525-7.525a2 2 0 0 1 0-2.828l.345-.345-1.641-1.641-.54.54-2.44 2.44-.54.54 2.34 2.34a30.021 30.021 0 0 1 5.51 7.6l4.49-1.12z" fill="#d9d8dd"/><path d="m28 17.89v6.7a1.414 1.414 0 0 1 -2.414 1l-4.586-4.59-.121-.121-3.39.92a7.989 7.989 0 0 1 4.511 7.201 8.239 8.239 0 0 1 -.25 2h6.25a3.98 3.98 0 0 1 2-3.46v-8.1a15.769 15.769 0 0 0 -2-1.55z" fill="#d9d8dd"/><path d="m3.248 7.95.59.59a1.655 1.655 0 0 0 2.3.04l.721-.721-1.759-1.759z" fill="#959499"/><path d="m2.164 3.164-.676.676a1.658 1.658 0 0 0 0 2.35l1.76 1.76 1.852-1.85z" fill="#f3b83a"/><g fill="#8f5826"><path d="m11 38h4v2h-4z"/><path d="m11 42h4v2h-4z"/><path d="m11 46h4v2h-4z"/><path d="m11 50h4v2h-4z"/><path d="m11 54h4v2h-4z"/><path d="m26 38h4v2h-4z"/><path d="m26 42h4v2h-4z"/><path d="m26 46h4v2h-4z"/><path d="m26 50h4v2h-4z"/><path d="m26 54h4v2h-4z"/><path d="m34 38h4v2h-4z"/><path d="m34 42h4v2h-4z"/><path d="m34 46h4v2h-4z"/><path d="m34 50h4v2h-4z"/><path d="m34 54h4v2h-4z"/><path d="m42 46h4v2h-4z"/><path d="m42 50h4v2h-4z"/><path d="m42 54h4v2h-4z"/><path d="m50 42h3v2h-3z"/><path d="m49 46h4v2h-4z"/><path d="m49 50h4v2h-4z"/><path d="m49 54h4v2h-4z"/><path d="m18 38h4v2h-4z"/><path d="m18 42h4v2h-4z"/><path d="m18 46h4v2h-4z"/><path d="m18 50h4v2h-4z"/><path d="m18 54h4v2h-4z"/><path d="m10 24.5a.5.5 0 0 1 -.484-.378 6.705 6.705 0 0 0 -4.637-4.637.5.5 0 1 1 .242-.97 7.714 7.714 0 0 1 5.364 5.364.5.5 0 0 1 -.363.605.47.47 0 0 1 -.122.016z"/></g></g></svg>