<svg id="Layer_1" enable-background="new 0 0 497 497" height="512" viewBox="0 0 497 497" width="512" xmlns="http://www.w3.org/2000/svg"><g><path d="m424.924 497v-297.185l-176.424-152.954-176.424 152.954v297.185z" fill="#f3f3ff"/><path d="m248.5 46.861-20 17.339 156.424 135.615v297.185h40v-297.185z" fill="#ebecff"/><g><path d="m476.833 238.4c-4.68 0-9.382-1.621-13.196-4.93l-215.137-186.609-215.136 186.609c-3.814 3.308-8.516 4.93-13.196 4.93-5.643.001-11.253-2.357-15.24-6.956-7.293-8.417-6.386-21.154 2.026-28.45l228.341-198.064c3.789-3.286 8.497-4.93 13.205-4.93s9.416 1.644 13.205 4.93l228.342 198.063c8.412 7.296 9.318 20.033 2.026 28.45-3.986 4.6-9.598 6.957-15.24 6.957z" fill="#f54c5a"/><g><path d="m121.532 294.347h113.936v202.653h-113.936z" fill="#f5a26a"/><g fill="#b86d3b"><path d="m164.97 426.502h27.06v47.403h-27.06z" transform="matrix(0 1 -1 0 628.704 271.704)"/><path d="m139.271 343.141h78.458v47.403h-78.458z" transform="matrix(0 1 -1 0 545.342 188.342)"/></g></g><circle cx="248.5" cy="192.445" fill="#bdedff" r="55.313"/><path d="m285.528 294.347h139.396v136.044h-139.396z" fill="#bdedff"/><path d="m384.924 294.347h40v136.044h-40z" fill="#a8e7ff"/><path d="m424.924 385.301h-139.397c-4.143 0-7.5 3.357-7.5 7.5s3.357 7.5 7.5 7.5h28.219v33.09c0 4.143 3.357 7.5 7.5 7.5s7.5-3.357 7.5-7.5v-33.09h18.979v33.09c0 4.143 3.357 7.5 7.5 7.5s7.5-3.357 7.5-7.5v-33.09h18.979v33.09c0 4.143 3.357 7.5 7.5 7.5s7.5-3.357 7.5-7.5v-33.09h28.219c4.143 0 7.5-3.357 7.5-7.5s-3.357-7.5-7.499-7.5z" fill="#7384b2"/></g><path d="m121.369 497h-121.369v-28.951c0-20.798 16.86-37.659 37.659-37.659h46.051c20.798 0 37.659 16.86 37.659 37.659z" fill="#81cda1"/><path d="m497 497h-261.369v-28.951c0-20.798 16.86-37.659 37.659-37.659h186.052c20.798 0 37.659 16.86 37.659 37.659v28.951z" fill="#81cda1"/><path d="m459.341 430.391h-40c20.798 0 37.659 16.86 37.659 37.659v28.95h40v-28.951c0-20.798-16.86-37.658-37.659-37.658z" fill="#60bf88"/></g></svg>